<svg width="800" height="600" viewBox="0 0 800 600" fill="none" xmlns="http://www.w3.org/2000/svg">
<rect x="618" y="426" width="50" height="15" rx="5" fill="#854D0E"/>
<path d="M637.457 440.5H644.02C647.105 440.5 648.98 438.82 648.98 436.516C648.98 434.494 647.506 433.195 645.719 433.137V433C647.33 432.668 648.424 431.477 648.434 429.914C648.424 427.756 646.734 426.359 643.512 426.359H637.457V440.5ZM641.168 437.512V434.426H643.121C644.312 434.426 645.055 435.021 645.055 436.047C645.055 437.004 644.4 437.521 643.062 437.512H641.168ZM641.168 432.102V429.289H642.887C643.893 429.289 644.605 429.797 644.605 430.695C644.605 431.594 643.873 432.102 642.828 432.102H641.168Z" fill="white"/>
</svg>
