<svg width="800" height="600" viewBox="0 0 800 600" fill="none" xmlns="http://www.w3.org/2000/svg">
<rect x="619" y="494" width="50" height="15" rx="5" fill="#854D0E"/>
<path d="M638.457 508.5H645.02C648.105 508.5 649.98 506.82 649.98 504.516C649.98 502.494 648.506 501.195 646.719 501.137V501C648.33 500.668 649.424 499.477 649.434 497.914C649.424 495.756 647.734 494.359 644.512 494.359H638.457V508.5ZM642.168 505.512V502.426H644.121C645.312 502.426 646.055 503.021 646.055 504.047C646.055 505.004 645.4 505.521 644.062 505.512H642.168ZM642.168 500.102V497.289H643.887C644.893 497.289 645.605 497.797 645.605 498.695C645.605 499.594 644.873 500.102 643.828 500.102H642.168Z" fill="white"/>
</svg>
