<svg width="800" height="600" viewBox="0 0 800 600" fill="none" xmlns="http://www.w3.org/2000/svg">
<rect x="567" y="426" width="50" height="15" rx="5" fill="#3F6212"/>
<path d="M594.773 431.613H598.543C598.23 428.137 595.682 426.164 592.156 426.164C588.357 426.164 585.369 428.723 585.359 433.43C585.369 438.117 588.279 440.695 592.156 440.695C596.229 440.695 598.338 437.883 598.543 435.461L594.773 435.422C594.568 436.682 593.67 437.443 592.234 437.453C590.32 437.443 589.188 436.086 589.188 433.43C589.188 430.9 590.291 429.406 592.254 429.406C593.758 429.406 594.646 430.285 594.773 431.613Z" fill="white"/>
</svg>
