<svg width="800" height="600" viewBox="0 0 800 600" fill="none" xmlns="http://www.w3.org/2000/svg">
<rect x="557" y="168" width="50" height="15" rx="5" fill="#3F6212"/>
<path d="M584.773 173.613H588.543C588.23 170.137 585.682 168.164 582.156 168.164C578.357 168.164 575.369 170.723 575.359 175.43C575.369 180.117 578.279 182.695 582.156 182.695C586.229 182.695 588.338 179.883 588.543 177.461L584.773 177.422C584.568 178.682 583.67 179.443 582.234 179.453C580.32 179.443 579.188 178.086 579.188 175.43C579.188 172.9 580.291 171.406 582.254 171.406C583.758 171.406 584.646 172.285 584.773 173.613Z" fill="white"/>
</svg>
