<svg width="800" height="600" viewBox="0 0 800 600" fill="none" xmlns="http://www.w3.org/2000/svg">
<path d="M186.5 384.5L158.5 147.5L100 154L101 167.5L98.5 169.5L70.5 134.5L48.5 153C50 154.833 54.3 160.2 59.5 167C21.5 183.5 27.5 212 28 218C29.6 226.4 27 234.167 25.5 237L35.5 241C41.1 250.2 36.1667 258.833 33 262C34.3333 262.833 38 264.5 43 267C46.6 279.4 41.8333 285.5 39 287C40.1667 287.833 43.9 290.4 49.5 294C51.1 305.2 46.1667 310.667 43.5 312C45 313.167 49 316.3 53 319.5C55.8 327.9 50.1667 335.333 47 338C49.1667 339.667 54 343.4 56 345C58.4 356.6 52 362.5 48.5 364L54.5 370.5L52 380L29 386.5L26 408L44.5 422L56.5 414L54.5 443C52.1 480.6 80.1667 489 94.5 488.5L166 473C164.667 460 161.8 431.6 161 422C192.6 427.6 225.167 406 237.5 394.5L231.5 465C363.5 452.5 444 465 562.5 486.5C656.5 513.5 715.5 464 738.5 435L709.5 406.5C743 384.5 772.5 342 776.5 310.5C731.3 289.7 675.667 299.833 653.5 307.5V276.5H240V337C234 362.2 201.833 379.167 186.5 384.5Z" stroke="#2D2926" stroke-width="4"/>
<path d="M27.5 218.5L84 211M84 211C84.6667 204.833 88.9 191.2 100.5 186M84 211C83.6667 215.833 83.7 227.5 86.5 235.5M35 241.5L96 234L99.0927 260M125.5 482L117.59 415.5M99.0927 260L42 267.5M99.0927 260L102.245 286.5M102.245 286.5L59.5 292M102.245 286.5L105.397 313M53.5 293L50 293.5M105.397 313L53.5 319.5M105.397 313L108.49 339M108.49 339L65.5 344.5M108.49 339L111.702 366M59.5 345.5L57.5 346M53.5 382L82.5 369L111.702 366M111.702 366L114.794 392M64 405L85 395L114.794 392M114.794 392L117.59 415.5M117.59 415.5L158.5 410L160.5 421M98.5 172L104.5 179L107.7 206M128.5 381.5L126.367 363.5M126.367 363.5L120.144 311M126.367 363.5L148 360.66M183.5 356L148 360.66M120.144 311L177 303.5M120.144 311L113.922 258.5M120.144 284L164.5 278.5M171 277.5H173M113.922 258.5L171 251M113.922 258.5L107.7 206M113.922 231.5L158.5 226M107.7 206L164.5 199M131.5 391L177 385M140 377C140.306 377 145.301 376.416 149.5 375.918M153 375.5C152.017 375.618 150.796 375.764 149.5 375.918M148 360.66L149.5 375.918M233.5 351.5L241.5 356.5M247.5 358H323M592 276.5V301.5M297 284V355M323 358V277.5M323 358H349M349 284V358M349 358H401.5M401.5 284V358M401.5 358H421L489 358.596M489 358.596V276.5M489 358.596L533 358.982M533 358.982L592 359.5V318.5M533 358.982V278M592 301.5H613.5M592 301.5V318.5M613.5 301.5V285M613.5 301.5V318.5M592 318.5H613.5M613.5 318.5V357.5H623.5M640.5 357.5H650.5M650.5 357.5V317M650.5 357.5H669V364.5M611.5 401.5V423.5H650.5V401.5H669V364.5M650.5 429.5V440M650.5 488.5V440M650.5 440H611.5V429.5M669 364.5C671 364.9 694.5 364.667 706 364.5V377M708 406V384.5H735.5M634 452.5H621.5M594 452.5V491.5M594 452.5H621.5M594 452.5L593 380.5L542.5 380.232M621.5 452.5V494M404.5 379.5H366.5M404.5 379.5V464.5M404.5 379.5L440.5 379.691M238 394L239.5 379.5H314M314 379.5V461M314 379.5H366.5M366.5 379.5V461M440.5 379.691V468.5M440.5 379.691L476 379.879M476 379.879V473M476 379.879L510 380.06M510 380.06V479M510 380.06L542.5 380.232M542.5 380.232V483" stroke="#2D2926" stroke-width="3" stroke-linecap="square" stroke-linejoin="round"/>
<path d="M375 276V358" stroke="#2D2926" stroke-dasharray="6 6"/>
<path d="M68.8613 358.348H72.9863V360H74.2051V358.348H75.3652V357.258H74.2051V351.516H72.6113L68.8613 357.305V358.348ZM70.2207 357.258V357.188L72.8926 353.051H72.9863V357.258H70.2207ZM79.6191 360.117C81.582 360.117 82.7305 358.535 82.7363 355.758C82.7305 352.998 81.5645 351.398 79.6191 351.398C77.668 351.398 76.502 352.998 76.502 355.758C76.502 358.535 77.6562 360.117 79.6191 360.117ZM77.791 355.758C77.791 353.648 78.4766 352.494 79.6191 352.488C80.7559 352.494 81.4473 353.648 81.4473 355.758C81.4473 357.873 80.7617 359.004 79.6191 359.004C78.4707 359.004 77.7852 357.873 77.791 355.758ZM87.2949 351.516H86.0293L83.9199 352.898V354.129L85.9473 352.805H85.9941V360H87.2949V351.516Z" fill="#2D2926"/>
<path d="M65.9824 334.348H70.1074V336H71.3262V334.348H72.4863V333.258H71.3262V327.516H69.7324L65.9824 333.305V334.348ZM67.3418 333.258V333.188L70.0137 329.051H70.1074V333.258H67.3418ZM76.7402 336.117C78.7031 336.117 79.8516 334.535 79.8574 331.758C79.8516 328.998 78.6855 327.398 76.7402 327.398C74.7891 327.398 73.623 328.998 73.623 331.758C73.623 334.535 74.7773 336.117 76.7402 336.117ZM74.9121 331.758C74.9121 329.648 75.5977 328.494 76.7402 328.488C77.877 328.494 78.5684 329.648 78.5684 331.758C78.5684 333.873 77.8828 335.004 76.7402 335.004C75.5918 335.004 74.9062 333.873 74.9121 331.758ZM81.1934 336H86.9004V334.898H82.9863V334.828L84.709 333.082C86.3027 331.518 86.748 330.762 86.7598 329.812C86.748 328.436 85.6172 327.398 83.9824 327.398C82.3652 327.398 81.1816 328.424 81.1934 329.977H82.4121C82.418 329.074 83.0156 328.477 83.959 328.477C84.8496 328.477 85.5293 329.01 85.5293 329.848C85.5293 330.592 85.0664 331.131 84.1348 332.098L81.1934 335.062V336Z" fill="#2D2926"/>
<path d="M61.8066 307.348H65.9316V309H67.1504V307.348H68.3105V306.258H67.1504V300.516H65.5566L61.8066 306.305V307.348ZM63.166 306.258V306.188L65.8379 302.051H65.9316V306.258H63.166ZM72.5645 309.117C74.5273 309.117 75.6758 307.535 75.6816 304.758C75.6758 301.998 74.5098 300.398 72.5645 300.398C70.6133 300.398 69.4473 301.998 69.4473 304.758C69.4473 307.535 70.6016 309.117 72.5645 309.117ZM70.7363 304.758C70.7363 302.648 71.4219 301.494 72.5645 301.488C73.7012 301.494 74.3926 302.648 74.3926 304.758C74.3926 306.873 73.707 308.004 72.5645 308.004C71.416 308.004 70.7305 306.873 70.7363 304.758ZM80.0293 309.117C81.7871 309.117 83.0938 308.08 83.0879 306.668C83.0938 305.596 82.4199 304.816 81.2598 304.652V304.594C82.1738 304.365 82.7715 303.674 82.7598 302.707C82.7715 301.453 81.7227 300.398 80.0527 300.398C78.4707 300.398 77.1934 301.336 77.1582 302.719H78.4004C78.4297 301.951 79.1914 301.477 80.041 301.477C80.9375 301.477 81.5176 302.004 81.5176 302.777C81.5176 303.592 80.8438 304.131 79.877 304.125H79.1504V305.18H79.877C81.0898 305.186 81.7871 305.783 81.7871 306.621C81.7871 307.447 81.043 308.004 80.0176 308.004C79.0684 308.004 78.3301 307.529 78.2832 306.785H76.9707C77.0234 308.174 78.2715 309.117 80.0293 309.117Z" fill="#2D2926"/>
<path d="M57.7422 282.348H61.8672V284H63.0859V282.348H64.2461V281.258H63.0859V275.516H61.4922L57.7422 281.305V282.348ZM59.1016 281.258V281.188L61.7734 277.051H61.8672V281.258H59.1016ZM68.5 284.117C70.4629 284.117 71.6113 282.535 71.6172 279.758C71.6113 276.998 70.4453 275.398 68.5 275.398C66.5488 275.398 65.3828 276.998 65.3828 279.758C65.3828 282.535 66.5371 284.117 68.5 284.117ZM66.6719 279.758C66.6719 277.648 67.3574 276.494 68.5 276.488C69.6367 276.494 70.3281 277.648 70.3281 279.758C70.3281 281.873 69.6426 283.004 68.5 283.004C67.3516 283.004 66.666 281.873 66.6719 279.758ZM72.7656 282.348H76.8906V284H78.1094V282.348H79.2695V281.258H78.1094V275.516H76.5156L72.7656 281.305V282.348ZM74.125 281.258V281.188L76.7969 277.051H76.8906V281.258H74.125Z" fill="#2D2926"/>
<path d="M55.9121 255.348H60.0371V257H61.2559V255.348H62.416V254.258H61.2559V248.516H59.6621L55.9121 254.305V255.348ZM57.2715 254.258V254.188L59.9434 250.051H60.0371V254.258H57.2715ZM66.6699 257.117C68.6328 257.117 69.7812 255.535 69.7871 252.758C69.7812 249.998 68.6152 248.398 66.6699 248.398C64.7188 248.398 63.5527 249.998 63.5527 252.758C63.5527 255.535 64.707 257.117 66.6699 257.117ZM64.8418 252.758C64.8418 250.648 65.5273 249.494 66.6699 249.488C67.8066 249.494 68.498 250.648 68.498 252.758C68.498 254.873 67.8125 256.004 66.6699 256.004C65.5215 256.004 64.8359 254.873 64.8418 252.758ZM74.0059 257.117C75.7754 257.117 77.0293 255.916 77.0293 254.246C77.0293 252.611 75.8516 251.428 74.252 251.422C73.6074 251.428 73.0098 251.656 72.6582 251.996H72.5762L72.8574 249.617H76.5957V248.516H71.791L71.2402 253.238H72.459C72.7461 252.717 73.2676 252.488 73.9473 252.488C75.0137 252.5 75.7754 253.25 75.7754 254.281C75.7754 255.289 75.0371 256.033 74.0059 256.039C73.1504 256.033 72.459 255.506 72.3887 254.785H71.1348C71.1934 256.139 72.4004 257.117 74.0059 257.117Z" fill="#2D2926"/>
<path d="M43.8125 231.348H47.9375V233H49.1562V231.348H50.3164V230.258H49.1562V224.516H47.5625L43.8125 230.305V231.348ZM45.1719 230.258V230.188L47.8438 226.051H47.9375V230.258H45.1719ZM54.5703 233.117C56.5332 233.117 57.6816 231.535 57.6875 228.758C57.6816 225.998 56.5156 224.398 54.5703 224.398C52.6191 224.398 51.4531 225.998 51.4531 228.758C51.4531 231.535 52.6074 233.117 54.5703 233.117ZM52.7422 228.758C52.7422 226.648 53.4277 225.494 54.5703 225.488C55.707 225.494 56.3984 226.648 56.3984 228.758C56.3984 230.873 55.7129 232.004 54.5703 232.004C53.4219 232.004 52.7363 230.873 52.7422 228.758ZM62.0938 233.117C63.916 233.129 65.1289 231.869 65.1289 230.223C65.1289 228.6 63.9102 227.439 62.3984 227.434C61.4785 227.439 60.6816 227.861 60.2188 228.582H60.125C60.125 226.666 60.8867 225.529 62.1992 225.523C63.0547 225.529 63.5996 226.027 63.7695 226.719H65.0469C64.8477 225.371 63.7637 224.398 62.1992 224.398C60.166 224.398 58.8887 226.086 58.8828 229.039C58.8828 232.174 60.5234 233.105 62.0938 233.117ZM60.2773 230.258C60.2891 229.314 61.0801 228.482 62.1172 228.488C63.1367 228.482 63.875 229.273 63.875 230.246C63.875 231.236 63.1074 232.033 62.082 232.039C61.0391 232.033 60.2832 231.201 60.2773 230.258Z" fill="#2D2926"/>
<path d="M119.811 181.348H123.936V183H125.154V181.348H126.314V180.258H125.154V174.516H123.561L119.811 180.305V181.348ZM121.17 180.258V180.188L123.842 176.051H123.936V180.258H121.17ZM130.568 183.117C132.531 183.117 133.68 181.535 133.686 178.758C133.68 175.998 132.514 174.398 130.568 174.398C128.617 174.398 127.451 175.998 127.451 178.758C127.451 181.535 128.605 183.117 130.568 183.117ZM128.74 178.758C128.74 176.648 129.426 175.494 130.568 175.488C131.705 175.494 132.396 176.648 132.396 178.758C132.396 180.873 131.711 182.004 130.568 182.004C129.42 182.004 128.734 180.873 128.74 178.758ZM135.08 183H136.428L140.201 175.664V174.516H134.494V175.617H138.865V175.688L135.08 183Z" fill="#2D2926"/>
<path d="M123.842 219.348H127.967V221H129.186V219.348H130.346V218.258H129.186V212.516H127.592L123.842 218.305V219.348ZM125.201 218.258V218.188L127.873 214.051H127.967V218.258H125.201ZM134.6 221.117C136.562 221.117 137.711 219.535 137.717 216.758C137.711 213.998 136.545 212.398 134.6 212.398C132.648 212.398 131.482 213.998 131.482 216.758C131.482 219.535 132.637 221.117 134.6 221.117ZM132.771 216.758C132.771 214.648 133.457 213.494 134.6 213.488C135.736 213.494 136.428 214.648 136.428 216.758C136.428 218.873 135.742 220.004 134.6 220.004C133.451 220.004 132.766 218.873 132.771 216.758ZM142.018 221.117C143.834 221.117 145.129 220.121 145.135 218.738C145.129 217.648 144.344 216.758 143.354 216.605V216.559C144.209 216.359 144.801 215.586 144.807 214.66C144.801 213.354 143.617 212.398 142.018 212.398C140.395 212.398 139.217 213.354 139.217 214.66C139.217 215.586 139.797 216.359 140.67 216.559V216.605C139.668 216.758 138.889 217.648 138.9 218.738C138.889 220.121 140.172 221.117 142.018 221.117ZM140.213 218.645C140.195 217.771 140.963 217.133 142.018 217.133C143.061 217.133 143.822 217.771 143.822 218.645C143.822 219.477 143.119 220.051 142.018 220.051C140.898 220.051 140.195 219.477 140.213 218.645ZM140.471 214.777C140.477 213.986 141.086 213.447 142.018 213.453C142.926 213.447 143.547 213.986 143.541 214.777C143.547 215.574 142.902 216.119 142.018 216.113C141.109 216.119 140.477 215.568 140.471 214.777Z" fill="#2D2926"/>
<path d="M127.812 245.348H131.938V247H133.156V245.348H134.316V244.258H133.156V238.516H131.562L127.812 244.305V245.348ZM129.172 244.258V244.188L131.844 240.051H131.938V244.258H129.172ZM138.57 247.117C140.533 247.117 141.682 245.535 141.688 242.758C141.682 239.998 140.516 238.398 138.57 238.398C136.619 238.398 135.453 239.998 135.453 242.758C135.453 245.535 136.607 247.117 138.57 247.117ZM136.742 242.758C136.742 240.648 137.428 239.494 138.57 239.488C139.707 239.494 140.398 240.648 140.398 242.758C140.398 244.873 139.713 246.004 138.57 246.004C137.422 246.004 136.736 244.873 136.742 242.758ZM145.941 238.398C144.096 238.387 142.895 239.652 142.895 241.27C142.895 242.893 144.113 244.059 145.637 244.059C146.551 244.059 147.348 243.625 147.805 242.91H147.91C147.898 244.85 147.131 245.986 145.824 245.992C144.969 245.986 144.418 245.488 144.242 244.773H142.965C143.17 246.15 144.26 247.117 145.824 247.117C147.857 247.117 149.141 245.43 149.141 242.453C149.135 239.348 147.5 238.41 145.941 238.398ZM144.148 241.246C144.143 240.273 144.916 239.477 145.941 239.477C146.979 239.477 147.734 240.314 147.734 241.234C147.734 242.172 146.943 243.01 145.918 243.004C144.887 243.01 144.154 242.23 144.148 241.246Z" fill="#2D2926"/>
<path d="M130.92 272.348H135.045V274H136.264V272.348H137.424V271.258H136.264V265.516H134.67L130.92 271.305V272.348ZM132.279 271.258V271.188L134.951 267.051H135.045V271.258H132.279ZM141.83 265.516H140.564L138.455 266.898V268.129L140.482 266.805H140.529V274H141.83V265.516ZM146.939 274.117C148.902 274.117 150.051 272.535 150.057 269.758C150.051 266.998 148.885 265.398 146.939 265.398C144.988 265.398 143.822 266.998 143.822 269.758C143.822 272.535 144.977 274.117 146.939 274.117ZM145.111 269.758C145.111 267.648 145.797 266.494 146.939 266.488C148.076 266.494 148.768 267.648 148.768 269.758C148.768 271.873 148.082 273.004 146.939 273.004C145.791 273.004 145.105 271.873 145.111 269.758Z" fill="#2D2926"/>
<path d="M136.934 296.348H141.059V298H142.277V296.348H143.438V295.258H142.277V289.516H140.684L136.934 295.305V296.348ZM138.293 295.258V295.188L140.965 291.051H141.059V295.258H138.293ZM147.844 289.516H146.578L144.469 290.898V292.129L146.496 290.805H146.543V298H147.844V289.516ZM153.223 289.516H151.957L149.848 290.898V292.129L151.875 290.805H151.922V298H153.223V289.516Z" fill="#2D2926"/>
<path d="M138.055 338.348H142.18V340H143.398V338.348H144.559V337.258H143.398V331.516H141.805L138.055 337.305V338.348ZM139.414 337.258V337.188L142.086 333.051H142.18V337.258H139.414ZM148.965 331.516H147.699L145.59 332.898V334.129L147.617 332.805H147.664V340H148.965V331.516ZM151.121 340H156.828V338.898H152.914V338.828L154.637 337.082C156.23 335.518 156.676 334.762 156.688 333.812C156.676 332.436 155.545 331.398 153.91 331.398C152.293 331.398 151.109 332.424 151.121 333.977H152.34C152.346 333.074 152.943 332.477 153.887 332.477C154.777 332.477 155.457 333.01 155.457 333.848C155.457 334.592 154.994 335.131 154.062 336.098L151.121 339.062V340Z" fill="#2D2926"/>
<path d="M258.984 319.348H263.109V321H264.328V319.348H265.488V318.258H264.328V312.516H262.734L258.984 318.305V319.348ZM260.344 318.258V318.188L263.016 314.051H263.109V318.258H260.344ZM269.895 312.516H268.629L266.52 313.898V315.129L268.547 313.805H268.594V321H269.895V312.516ZM274.934 321.117C276.703 321.117 277.957 319.916 277.957 318.246C277.957 316.611 276.779 315.428 275.18 315.422C274.535 315.428 273.938 315.656 273.586 315.996H273.504L273.785 313.617H277.523V312.516H272.719L272.168 317.238H273.387C273.674 316.717 274.195 316.488 274.875 316.488C275.941 316.5 276.703 317.25 276.703 318.281C276.703 319.289 275.965 320.033 274.934 320.039C274.078 320.033 273.387 319.506 273.316 318.785H272.062C272.121 320.139 273.328 321.117 274.934 321.117Z" fill="#2D2926"/>
<path d="M300.885 319.348H305.01V321H306.229V319.348H307.389V318.258H306.229V312.516H304.635L300.885 318.305V319.348ZM302.244 318.258V318.188L304.916 314.051H305.01V318.258H302.244ZM311.795 312.516H310.529L308.42 313.898V315.129L310.447 313.805H310.494V321H311.795V312.516ZM317.021 321.117C318.844 321.129 320.057 319.869 320.057 318.223C320.057 316.6 318.838 315.439 317.326 315.434C316.406 315.439 315.609 315.861 315.146 316.582H315.053C315.053 314.666 315.814 313.529 317.127 313.523C317.982 313.529 318.527 314.027 318.697 314.719H319.975C319.775 313.371 318.691 312.398 317.127 312.398C315.094 312.398 313.816 314.086 313.811 317.039C313.811 320.174 315.451 321.105 317.021 321.117ZM315.205 318.258C315.217 317.314 316.008 316.482 317.045 316.488C318.064 316.482 318.803 317.273 318.803 318.246C318.803 319.236 318.035 320.033 317.01 320.039C315.967 320.033 315.211 319.201 315.205 318.258Z" fill="#2D2926"/>
<path d="M326.766 319.348H330.891V321H332.109V319.348H333.27V318.258H332.109V312.516H330.516L326.766 318.305V319.348ZM328.125 318.258V318.188L330.797 314.051H330.891V318.258H328.125ZM337.676 312.516H336.41L334.301 313.898V315.129L336.328 313.805H336.375V321H337.676V312.516ZM340.125 321H341.473L345.246 313.664V312.516H339.539V313.617H343.91V313.688L340.125 321Z" fill="#2D2926"/>
<path d="M352.914 319.348H357.039V321H358.258V319.348H359.418V318.258H358.258V312.516H356.664L352.914 318.305V319.348ZM354.273 318.258V318.188L356.945 314.051H357.039V318.258H354.273ZM363.824 312.516H362.559L360.449 313.898V315.129L362.477 313.805H362.523V321H363.824V312.516ZM368.945 321.117C370.762 321.117 372.057 320.121 372.062 318.738C372.057 317.648 371.271 316.758 370.281 316.605V316.559C371.137 316.359 371.729 315.586 371.734 314.66C371.729 313.354 370.545 312.398 368.945 312.398C367.322 312.398 366.145 313.354 366.145 314.66C366.145 315.586 366.725 316.359 367.598 316.559V316.605C366.596 316.758 365.816 317.648 365.828 318.738C365.816 320.121 367.1 321.117 368.945 321.117ZM367.141 318.645C367.123 317.771 367.891 317.133 368.945 317.133C369.988 317.133 370.75 317.771 370.75 318.645C370.75 319.477 370.047 320.051 368.945 320.051C367.826 320.051 367.123 319.477 367.141 318.645ZM367.398 314.777C367.404 313.986 368.014 313.447 368.945 313.453C369.854 313.447 370.475 313.986 370.469 314.777C370.475 315.574 369.83 316.119 368.945 316.113C368.037 316.119 367.404 315.568 367.398 314.777Z" fill="#2D2926"/>
<path d="M377.885 319.348H382.01V321H383.229V319.348H384.389V318.258H383.229V312.516H381.635L377.885 318.305V319.348ZM379.244 318.258V318.188L381.916 314.051H382.01V318.258H379.244ZM388.795 312.516H387.529L385.42 313.898V315.129L387.447 313.805H387.494V321H388.795V312.516ZM393.869 312.398C392.023 312.387 390.822 313.652 390.822 315.27C390.822 316.893 392.041 318.059 393.564 318.059C394.479 318.059 395.275 317.625 395.732 316.91H395.838C395.826 318.85 395.059 319.986 393.752 319.992C392.896 319.986 392.346 319.488 392.17 318.773H390.893C391.098 320.15 392.188 321.117 393.752 321.117C395.785 321.117 397.068 319.43 397.068 316.453C397.062 313.348 395.428 312.41 393.869 312.398ZM392.076 315.246C392.07 314.273 392.844 313.477 393.869 313.477C394.906 313.477 395.662 314.314 395.662 315.234C395.662 316.172 394.871 317.01 393.846 317.004C392.814 317.01 392.082 316.23 392.076 315.246Z" fill="#2D2926"/>
<path d="M432.982 319.348H437.107V321H438.326V319.348H439.486V318.258H438.326V312.516H436.732L432.982 318.305V319.348ZM434.342 318.258V318.188L437.014 314.051H437.107V318.258H434.342ZM440.787 321H446.494V319.898H442.58V319.828L444.303 318.082C445.896 316.518 446.342 315.762 446.354 314.812C446.342 313.436 445.211 312.398 443.576 312.398C441.959 312.398 440.775 313.424 440.787 314.977H442.006C442.012 314.074 442.609 313.477 443.553 313.477C444.443 313.477 445.123 314.01 445.123 314.848C445.123 315.592 444.66 316.131 443.729 317.098L440.787 320.062V321ZM450.877 321.117C452.84 321.117 453.988 319.535 453.994 316.758C453.988 313.998 452.822 312.398 450.877 312.398C448.926 312.398 447.76 313.998 447.76 316.758C447.76 319.535 448.914 321.117 450.877 321.117ZM449.049 316.758C449.049 314.648 449.734 313.494 450.877 313.488C452.014 313.494 452.705 314.648 452.705 316.758C452.705 318.873 452.02 320.004 450.877 320.004C449.729 320.004 449.043 318.873 449.049 316.758Z" fill="#2D2926"/>
<path d="M500.996 319.348H505.121V321H506.34V319.348H507.5V318.258H506.34V312.516H504.746L500.996 318.305V319.348ZM502.355 318.258V318.188L505.027 314.051H505.121V318.258H502.355ZM508.801 321H514.508V319.898H510.594V319.828L512.316 318.082C513.91 316.518 514.355 315.762 514.367 314.812C514.355 313.436 513.225 312.398 511.59 312.398C509.973 312.398 508.789 313.424 508.801 314.977H510.02C510.025 314.074 510.623 313.477 511.566 313.477C512.457 313.477 513.137 314.01 513.137 314.848C513.137 315.592 512.674 316.131 511.742 317.098L508.801 320.062V321ZM519.16 312.516H517.895L515.785 313.898V315.129L517.812 313.805H517.859V321H519.16V312.516Z" fill="#2D2926"/>
<path d="M552.617 319.348H556.742V321H557.961V319.348H559.121V318.258H557.961V312.516H556.367L552.617 318.305V319.348ZM553.977 318.258V318.188L556.648 314.051H556.742V318.258H553.977ZM560.422 321H566.129V319.898H562.215V319.828L563.938 318.082C565.531 316.518 565.977 315.762 565.988 314.812C565.977 313.436 564.846 312.398 563.211 312.398C561.594 312.398 560.41 313.424 560.422 314.977H561.641C561.646 314.074 562.244 313.477 563.188 313.477C564.078 313.477 564.758 314.01 564.758 314.848C564.758 315.592 564.295 316.131 563.363 317.098L560.422 320.062V321ZM567.559 321H573.266V319.898H569.352V319.828L571.074 318.082C572.668 316.518 573.113 315.762 573.125 314.812C573.113 313.436 571.982 312.398 570.348 312.398C568.73 312.398 567.547 313.424 567.559 314.977H568.777C568.783 314.074 569.381 313.477 570.324 313.477C571.215 313.477 571.895 314.01 571.895 314.848C571.895 315.592 571.432 316.131 570.5 317.098L567.559 320.062V321Z" fill="#2D2926"/>
<path d="M696.971 337.348H701.096V339H702.314V337.348H703.475V336.258H702.314V330.516H700.721L696.971 336.305V337.348ZM698.33 336.258V336.188L701.002 332.051H701.096V336.258H698.33ZM704.775 339H710.482V337.898H706.568V337.828L708.291 336.082C709.885 334.518 710.33 333.762 710.342 332.812C710.33 331.436 709.199 330.398 707.564 330.398C705.947 330.398 704.764 331.424 704.775 332.977H705.994C706 332.074 706.598 331.477 707.541 331.477C708.432 331.477 709.111 332.01 709.111 332.848C709.111 333.592 708.648 334.131 707.717 335.098L704.775 338.062V339ZM711.537 337.348H715.662V339H716.881V337.348H718.041V336.258H716.881V330.516H715.287L711.537 336.305V337.348ZM712.896 336.258V336.188L715.568 332.051H715.662V336.258H712.896Z" fill="#2D2926"/>
<path d="M676.047 423.348H680.172V425H681.391V423.348H682.551V422.258H681.391V416.516H679.797L676.047 422.305V423.348ZM677.406 422.258V422.188L680.078 418.051H680.172V422.258H677.406ZM683.852 425H689.559V423.898H685.645V423.828L687.367 422.082C688.961 420.518 689.406 419.762 689.418 418.812C689.406 417.436 688.275 416.398 686.641 416.398C685.023 416.398 683.84 417.424 683.852 418.977H685.07C685.076 418.074 685.674 417.477 686.617 417.477C687.508 417.477 688.188 418.01 688.188 418.848C688.188 419.592 687.725 420.131 686.793 421.098L683.852 424.062V425ZM693.871 425.117C695.641 425.117 696.895 423.916 696.895 422.246C696.895 420.611 695.717 419.428 694.117 419.422C693.473 419.428 692.875 419.656 692.523 419.996H692.441L692.723 417.617H696.461V416.516H691.656L691.105 421.238H692.324C692.611 420.717 693.133 420.488 693.812 420.488C694.879 420.5 695.641 421.25 695.641 422.281C695.641 423.289 694.902 424.033 693.871 424.039C693.016 424.033 692.324 423.506 692.254 422.785H691C691.059 424.139 692.266 425.117 693.871 425.117Z" fill="#2D2926"/>
<path d="M516.947 429.348H521.072V431H522.291V429.348H523.451V428.258H522.291V422.516H520.697L516.947 428.305V429.348ZM518.307 428.258V428.188L520.979 424.051H521.072V428.258H518.307ZM524.752 431H530.459V429.898H526.545V429.828L528.268 428.082C529.861 426.518 530.307 425.762 530.318 424.812C530.307 423.436 529.176 422.398 527.541 422.398C525.924 422.398 524.74 423.424 524.752 424.977H525.971C525.977 424.074 526.574 423.477 527.518 423.477C528.408 423.477 529.088 424.01 529.088 424.848C529.088 425.592 528.625 426.131 527.693 427.098L524.752 430.062V431ZM534.959 431.117C536.781 431.129 537.994 429.869 537.994 428.223C537.994 426.6 536.775 425.439 535.264 425.434C534.344 425.439 533.547 425.861 533.084 426.582H532.99C532.99 424.666 533.752 423.529 535.064 423.523C535.92 423.529 536.465 424.027 536.635 424.719H537.912C537.713 423.371 536.629 422.398 535.064 422.398C533.031 422.398 531.754 424.086 531.748 427.039C531.748 430.174 533.389 431.105 534.959 431.117ZM533.143 428.258C533.154 427.314 533.945 426.482 534.982 426.488C536.002 426.482 536.74 427.273 536.74 428.246C536.74 429.236 535.973 430.033 534.947 430.039C533.904 430.033 533.148 429.201 533.143 428.258Z" fill="#2D2926"/>
<path d="M482.828 427.348H486.953V429H488.172V427.348H489.332V426.258H488.172V420.516H486.578L482.828 426.305V427.348ZM484.188 426.258V426.188L486.859 422.051H486.953V426.258H484.188ZM490.633 429H496.34V427.898H492.426V427.828L494.148 426.082C495.742 424.518 496.188 423.762 496.199 422.812C496.188 421.436 495.057 420.398 493.422 420.398C491.805 420.398 490.621 421.424 490.633 422.977H491.852C491.857 422.074 492.455 421.477 493.398 421.477C494.289 421.477 494.969 422.01 494.969 422.848C494.969 423.592 494.506 424.131 493.574 425.098L490.633 428.062V429ZM498.062 429H499.41L503.184 421.664V420.516H497.477V421.617H501.848V421.688L498.062 429Z" fill="#2D2926"/>
<path d="M448.977 425.348H453.102V427H454.32V425.348H455.48V424.258H454.32V418.516H452.727L448.977 424.305V425.348ZM450.336 424.258V424.188L453.008 420.051H453.102V424.258H450.336ZM456.781 427H462.488V425.898H458.574V425.828L460.297 424.082C461.891 422.518 462.336 421.762 462.348 420.812C462.336 419.436 461.205 418.398 459.57 418.398C457.953 418.398 456.77 419.424 456.781 420.977H458C458.006 420.074 458.604 419.477 459.547 419.477C460.438 419.477 461.117 420.01 461.117 420.848C461.117 421.592 460.654 422.131 459.723 423.098L456.781 426.062V427ZM466.883 427.117C468.699 427.117 469.994 426.121 470 424.738C469.994 423.648 469.209 422.758 468.219 422.605V422.559C469.074 422.359 469.666 421.586 469.672 420.66C469.666 419.354 468.482 418.398 466.883 418.398C465.26 418.398 464.082 419.354 464.082 420.66C464.082 421.586 464.662 422.359 465.535 422.559V422.605C464.533 422.758 463.754 423.648 463.766 424.738C463.754 426.121 465.037 427.117 466.883 427.117ZM465.078 424.645C465.061 423.771 465.828 423.133 466.883 423.133C467.926 423.133 468.688 423.771 468.688 424.645C468.688 425.477 467.984 426.051 466.883 426.051C465.764 426.051 465.061 425.477 465.078 424.645ZM465.336 420.777C465.342 419.986 465.951 419.447 466.883 419.453C467.791 419.447 468.412 419.986 468.406 420.777C468.412 421.574 467.768 422.119 466.883 422.113C465.975 422.119 465.342 421.568 465.336 420.777Z" fill="#2D2926"/>
<path d="M411.947 424.348H416.072V426H417.291V424.348H418.451V423.258H417.291V417.516H415.697L411.947 423.305V424.348ZM413.307 423.258V423.188L415.979 419.051H416.072V423.258H413.307ZM419.752 426H425.459V424.898H421.545V424.828L423.268 423.082C424.861 421.518 425.307 420.762 425.318 419.812C425.307 418.436 424.176 417.398 422.541 417.398C420.924 417.398 419.74 418.424 419.752 419.977H420.971C420.977 419.074 421.574 418.477 422.518 418.477C423.408 418.477 424.088 419.01 424.088 419.848C424.088 420.592 423.625 421.131 422.693 422.098L419.752 425.062V426ZM429.807 417.398C427.961 417.387 426.76 418.652 426.76 420.27C426.76 421.893 427.979 423.059 429.502 423.059C430.416 423.059 431.213 422.625 431.67 421.91H431.775C431.764 423.85 430.996 424.986 429.689 424.992C428.834 424.986 428.283 424.488 428.107 423.773H426.83C427.035 425.15 428.125 426.117 429.689 426.117C431.723 426.117 433.006 424.43 433.006 421.453C433 418.348 431.365 417.41 429.807 417.398ZM428.014 420.246C428.008 419.273 428.781 418.477 429.807 418.477C430.844 418.477 431.6 419.314 431.6 420.234C431.6 421.172 430.809 422.01 429.783 422.004C428.752 422.01 428.02 421.23 428.014 420.246Z" fill="#2D2926"/>
<path d="M374.807 425.348H378.932V427H380.15V425.348H381.311V424.258H380.15V418.516H378.557L374.807 424.305V425.348ZM376.166 424.258V424.188L378.838 420.051H378.932V424.258H376.166ZM385.623 427.117C387.381 427.117 388.688 426.08 388.682 424.668C388.688 423.596 388.014 422.816 386.854 422.652V422.594C387.768 422.365 388.365 421.674 388.354 420.707C388.365 419.453 387.316 418.398 385.646 418.398C384.064 418.398 382.787 419.336 382.752 420.719H383.994C384.023 419.951 384.785 419.477 385.635 419.477C386.531 419.477 387.111 420.004 387.111 420.777C387.111 421.592 386.438 422.131 385.471 422.125H384.744V423.18H385.471C386.684 423.186 387.381 423.783 387.381 424.621C387.381 425.447 386.637 426.004 385.611 426.004C384.662 426.004 383.924 425.529 383.877 424.785H382.564C382.617 426.174 383.865 427.117 385.623 427.117ZM393.053 427.117C395.016 427.117 396.164 425.535 396.17 422.758C396.164 419.998 394.998 418.398 393.053 418.398C391.102 418.398 389.936 419.998 389.936 422.758C389.936 425.535 391.09 427.117 393.053 427.117ZM391.225 422.758C391.225 420.648 391.91 419.494 393.053 419.488C394.189 419.494 394.881 420.648 394.881 422.758C394.881 424.873 394.195 426.004 393.053 426.004C391.904 426.004 391.219 424.873 391.225 422.758Z" fill="#2D2926"/>
<path d="M330.82 424.348H334.945V426H336.164V424.348H337.324V423.258H336.164V417.516H334.57L330.82 423.305V424.348ZM332.18 423.258V423.188L334.852 419.051H334.945V423.258H332.18ZM341.637 426.117C343.395 426.117 344.701 425.08 344.695 423.668C344.701 422.596 344.027 421.816 342.867 421.652V421.594C343.781 421.365 344.379 420.674 344.367 419.707C344.379 418.453 343.33 417.398 341.66 417.398C340.078 417.398 338.801 418.336 338.766 419.719H340.008C340.037 418.951 340.799 418.477 341.648 418.477C342.545 418.477 343.125 419.004 343.125 419.777C343.125 420.592 342.451 421.131 341.484 421.125H340.758V422.18H341.484C342.697 422.186 343.395 422.783 343.395 423.621C343.395 424.447 342.65 425.004 341.625 425.004C340.676 425.004 339.938 424.529 339.891 423.785H338.578C338.631 425.174 339.879 426.117 341.637 426.117ZM349.336 417.516H348.07L345.961 418.898V420.129L347.988 418.805H348.035V426H349.336V417.516Z" fill="#2D2926"/>
<path d="M265.941 422.348H270.066V424H271.285V422.348H272.445V421.258H271.285V415.516H269.691L265.941 421.305V422.348ZM267.301 421.258V421.188L269.973 417.051H270.066V421.258H267.301ZM276.758 424.117C278.516 424.117 279.822 423.08 279.816 421.668C279.822 420.596 279.148 419.816 277.988 419.652V419.594C278.902 419.365 279.5 418.674 279.488 417.707C279.5 416.453 278.451 415.398 276.781 415.398C275.199 415.398 273.922 416.336 273.887 417.719H275.129C275.158 416.951 275.92 416.477 276.77 416.477C277.666 416.477 278.246 417.004 278.246 417.777C278.246 418.592 277.572 419.131 276.605 419.125H275.879V420.18H276.605C277.818 420.186 278.516 420.783 278.516 421.621C278.516 422.447 277.771 423.004 276.746 423.004C275.797 423.004 275.059 422.529 275.012 421.785H273.699C273.752 423.174 275 424.117 276.758 424.117ZM281.234 424H286.941V422.898H283.027V422.828L284.75 421.082C286.344 419.518 286.789 418.762 286.801 417.812C286.789 416.436 285.658 415.398 284.023 415.398C282.406 415.398 281.223 416.424 281.234 417.977H282.453C282.459 417.074 283.057 416.477 284 416.477C284.891 416.477 285.57 417.01 285.57 417.848C285.57 418.592 285.107 419.131 284.176 420.098L281.234 423.062V424Z" fill="#2D2926"/>
<path d="M550.627 429.348H554.752V431H555.971V429.348H557.131V428.258H555.971V422.516H554.377L550.627 428.305V429.348ZM551.986 428.258V428.188L554.658 424.051H554.752V428.258H551.986ZM558.432 431H564.139V429.898H560.225V429.828L561.947 428.082C563.541 426.518 563.986 425.762 563.998 424.812C563.986 423.436 562.855 422.398 561.221 422.398C559.604 422.398 558.42 423.424 558.432 424.977H559.65C559.656 424.074 560.254 423.477 561.197 423.477C562.088 423.477 562.768 424.01 562.768 424.848C562.768 425.592 562.305 426.131 561.373 427.098L558.432 430.062V431ZM568.639 431.117C570.461 431.129 571.674 429.869 571.674 428.223C571.674 426.6 570.455 425.439 568.943 425.434C568.023 425.439 567.227 425.861 566.764 426.582H566.67C566.67 424.666 567.432 423.529 568.744 423.523C569.6 423.529 570.145 424.027 570.314 424.719H571.592C571.393 423.371 570.309 422.398 568.744 422.398C566.711 422.398 565.434 424.086 565.428 427.039C565.428 430.174 567.068 431.105 568.639 431.117ZM566.822 428.258C566.834 427.314 567.625 426.482 568.662 426.488C569.682 426.482 570.42 427.273 570.42 428.246C570.42 429.236 569.652 430.033 568.627 430.039C567.584 430.033 566.828 429.201 566.822 428.258ZM576.807 426.219H573.045V427.297H576.807V426.219ZM581.529 422.516H580.264L578.154 423.898V425.129L580.182 423.805H580.229V431H581.529V422.516Z" fill="#2D2926"/>
<g clip-path="url(#clip0_13_4537)">
<path d="M650.85 44.55H660.45V46.55C657.1 46.99 654.22 49.09 654.22 51.63C654.22 54.47 657.84 56.77 661.69 56.77H662.6C666.45 56.77 670.07 54.47 670.07 51.63C670.07 49.14 667.31 47.06 664.07 46.58V44.55H673.71V42.1H650.85V44.55ZM666.58 51.67C666.58 53.24 664.27 54.32 662.15 54.32C660.03 54.32 657.71 53.24 657.71 51.67C657.71 50.1 660.02 49 662.15 49C664.28 49 666.58 50.08 666.58 51.67Z" fill="#5A5B5D"/>
<path d="M693.77 43.59L696.94 43.55V34.59H693.77V43.59Z" fill="#5A5B5D"/>
<path d="M678.95 47H693.77V48.45H678.95V53C678.928 53.2532 678.958 53.5081 679.039 53.749C679.12 53.9898 679.25 54.2115 679.42 54.4C679.832 54.6951 680.335 54.8366 680.84 54.8H696.94V52.33H682.26V50.82H696.94V44.59H678.94L678.95 47Z" fill="#5A5B5D"/>
<path d="M745.33 34.59H742.15V45.53H745.31L745.33 40.37H748.52V37.87H745.33V34.59Z" fill="#5A5B5D"/>
<path d="M726.7 49H742.15V54.86L745.33 54.87V46.51H726.7V49Z" fill="#5A5B5D"/>
<path d="M725.8 40.19C725.797 40.9038 725.97 41.6074 726.303 42.2387C726.636 42.87 727.119 43.4096 727.71 43.81C728.964 44.7281 730.487 45.203 732.04 45.16C733.567 45.2111 735.064 44.7343 736.28 43.81C736.864 43.4051 737.339 42.8635 737.665 42.2325C737.991 41.6015 738.158 40.9002 738.15 40.19C738.142 39.7426 738.047 39.3011 737.87 38.89C737.672 38.4803 737.408 38.1054 737.09 37.78H739.6V35.38H733.6V33.44H730.18V35.38H724.11V37.78H726.84C726.501 38.0939 726.225 38.4709 726.03 38.89C725.866 39.3031 725.787 39.7455 725.8 40.19V40.19ZM729.8 38.49C730.413 38.0196 731.167 37.7695 731.94 37.78C732.7 37.7715 733.441 38.0219 734.04 38.49C734.328 38.6954 734.563 38.9651 734.728 39.2776C734.893 39.5901 734.983 39.9367 734.99 40.29C734.979 40.6314 734.887 40.9653 734.722 41.2643C734.557 41.5633 734.323 41.8188 734.04 42.01C733.454 42.5061 732.708 42.7726 731.94 42.76C731.16 42.775 730.4 42.5088 729.8 42.01C729.526 41.8128 729.301 41.555 729.143 41.2566C728.986 40.9583 728.899 40.6274 728.89 40.29C728.9 39.9373 728.991 39.5918 729.156 39.2797C729.321 38.9677 729.555 38.6976 729.84 38.49H729.8Z" fill="#5A5B5D"/>
<path d="M718.78 41.06H716.09V34.59H713.16V54.91L716.09 54.88V43.56H718.78V54.91L721.8 54.88V34.59H718.78V41.06Z" fill="#5A5B5D"/>
<path d="M704.2 37.08H710.71V34.59H701.01V48C700.989 48.243 701.033 48.4873 701.139 48.7072C701.244 48.9272 701.407 49.1146 701.61 49.25C702.046 49.4793 702.539 49.5799 703.03 49.54H711.16V47.04H704.16L704.2 37.08Z" fill="#5A5B5D"/>
<path d="M764.99 49.18L768.17 49.16L768.18 34.59H750.51V37.08H764.99V49.18Z" fill="#5A5B5D"/>
<path d="M761.87 51.29V42.94H758.73V51.29H756.01V42.94H752.89V51.29H749.05V53.78H770V51.29H761.87Z" fill="#5A5B5D"/>
<path d="M657.5 39.93C659.287 39.5946 660.937 38.7468 662.25 37.49C663.542 38.7507 665.183 39.5939 666.96 39.91C668.711 40.3624 670.504 40.6306 672.31 40.71L672.87 38.17C670.822 38.1222 668.795 37.7405 666.87 37.04C665.11 36.39 663.87 35.3 663.87 34.35H660.57C660.57 35.2 659.34 36.35 657.57 37.04C655.651 37.7654 653.621 38.1545 651.57 38.19V38.19L652.13 40.68C653.942 40.628 655.743 40.3765 657.5 39.93V39.93Z" fill="#5A5B5D"/>
<path d="M683.86 39.43C684.686 40.5424 685.757 41.4493 686.99 42.08C688.35 42.6789 689.787 43.0829 691.26 43.28L691.88 40.75C689.855 40.5338 687.968 39.622 686.54 38.17C685.815 37.1339 685.462 35.8824 685.54 34.62H682.13C682.198 35.8981 681.82 37.16 681.06 38.19C679.63 39.6457 677.739 40.5609 675.71 40.78V40.78L676.31 43.25C677.735 43.0374 679.127 42.6407 680.45 42.07C681.787 41.485 682.959 40.578 683.86 39.43V39.43Z" fill="#5A5B5D"/>
<path d="M590.61 63.55H581.49C581.59 63.55 581.93 63.11 582.01 63.02C582.19 62.8243 582.357 62.6172 582.51 62.4C582.903 61.8649 583.217 61.2754 583.44 60.65C584.229 58.5312 584.175 56.1904 583.29 54.11C582.27 52.2488 581.141 50.4491 579.91 48.72C578.145 46.0992 577.252 42.9879 577.36 39.83C577.558 37.694 578.418 35.6731 579.82 34.05H588.6C587.411 35.2032 586.564 36.662 586.151 38.2658C585.738 39.8696 585.776 41.5562 586.26 43.14C586.869 44.964 587.76 46.6814 588.9 48.23C589.957 49.7248 590.897 51.2996 591.71 52.94C592.61 54.9815 592.868 57.2484 592.45 59.44C592.249 60.4887 591.888 61.5005 591.38 62.44C591.25 62.61 590.81 63.55 590.61 63.55Z" fill="#00A3C9"/>
<path d="M595.71 54.94H610.8V30H590.89C590.034 30.8616 589.419 31.9335 589.109 33.1079C588.798 34.2822 588.802 35.5176 589.12 36.69C589.64 38.82 591.18 40.69 592.55 42.55C594.73 45.44 597.11 48.7 596.44 52.55C596.327 53.3808 596.081 54.1879 595.71 54.94V54.94Z" fill="#5AC5C4"/>
<path d="M561.71 30V54.94H576.6C577.204 53.4591 577.204 51.8009 576.6 50.32C575.16 46.8 572.82 44.9 571.52 41.84C570.27 38.93 570.13 36.28 571.19 32.46C571.472 31.62 571.806 30.7984 572.19 30L561.71 30Z" fill="#00678F"/>
<path d="M641.37 30H629.01V49.78C629.01 49.88 629.01 50.36 629.01 50.85C628.88 53.95 628.15 54.57 627.38 54.94H641.38L641.37 30Z" fill="#00A3C9"/>
<path d="M614.17 34.08V59.2C614.211 60.2497 614.654 61.2434 615.407 61.9754C616.16 62.7073 617.167 63.1214 618.217 63.1317C619.267 63.1419 620.281 62.7477 621.049 62.0306C621.817 61.3136 622.279 60.3287 622.34 59.28V34.08H614.17Z" fill="#00678F"/>
</g>
<path d="M615.25 174.175H659.25V188.55H682V174.175H692.5V155.55H682V98.05H651.875L615.25 155.675V174.175ZM638.75 155.55V154.925L659 122.8H659.75V155.55H638.75ZM703 188.55H726.75V152.925H762.125V133.675H726.75V117.3H766.125V98.05H703V188.55Z" fill="#2D2926"/>
<path d="M632.809 205.745H626.375V202.511H621.91V205.745H615.02V209.296H632.809V205.745ZM616.602 216.362C616.566 219.948 619.678 222.321 624.09 222.304C628.484 222.321 631.648 219.948 631.684 216.362C631.648 212.812 628.484 210.368 624.09 210.351C619.678 210.368 616.566 212.812 616.602 216.362ZM620.012 229.195C619.994 232.675 624.213 234.802 631.051 234.784C637.854 234.802 642.072 232.675 642.09 229.195C642.072 225.644 637.854 223.552 631.051 223.57C624.213 223.552 619.994 225.644 620.012 229.195ZM620.785 216.362C620.768 214.657 622.068 213.708 624.09 213.691C626.094 213.708 627.5 214.657 627.5 216.362C627.5 218.085 626.094 218.999 624.09 218.999C622.068 218.999 620.768 218.085 620.785 216.362ZM624.723 229.195C624.723 227.665 626.955 226.98 631.051 226.945C635.059 226.98 637.273 227.665 637.273 229.195C637.273 230.654 635.059 231.409 631.051 231.409C626.955 231.409 624.723 230.654 624.723 229.195ZM633.09 219.808H637.449V223.183H641.914V202.792H637.449V209.823H633.16V213.409H637.449V216.222H633.09V219.808ZM671.445 202.827H666.945V220.862H671.445V213.234H675.77V209.577H671.445V202.827ZM647.363 219.14H650.105C654.623 219.14 659.598 218.859 664.871 217.804L664.344 214.148C659.914 215.009 655.748 215.378 651.863 215.466V204.339H647.363V219.14ZM650.492 234.398H671.445V222.304H650.492V234.398ZM654.887 230.882V225.784H667.051V230.882H654.887ZM691.59 222.726C684.646 222.726 680.182 224.941 680.199 228.773C680.182 232.552 684.646 234.802 691.59 234.784C698.586 234.802 702.98 232.552 703.016 228.773C702.98 224.941 698.586 222.726 691.59 222.726ZM677.246 220.687H706.285V217.066H692.574V211.476H688.145V217.066H677.246V220.687ZM680.516 207.749H698.375C698.34 209.929 698.252 212.091 697.531 214.991L701.926 215.413C702.857 212.126 702.857 209.384 702.84 206.835V204.234H680.516V207.749ZM684.664 228.773C684.646 226.997 687.178 226.048 691.59 226.066C696.002 226.048 698.551 226.997 698.551 228.773C698.551 230.495 696.002 231.374 691.59 231.374C687.178 231.374 684.646 230.495 684.664 228.773ZM727.273 205.64H720.031V202.616H715.566V205.64H708.289V209.191H727.273V205.64ZM709.836 216.116C709.836 219.632 713.141 222.005 717.781 222.023C722.439 222.005 725.656 219.632 725.656 216.116C725.656 212.601 722.439 210.228 717.781 210.21C713.141 210.228 709.836 212.601 709.836 216.116ZM712.121 227.788H729.172V234.784H733.672V224.202H712.121V227.788ZM714.23 216.116C714.213 214.464 715.637 213.585 717.781 213.585C719.943 213.585 721.402 214.464 721.402 216.116C721.402 217.751 719.943 218.595 717.781 218.577C715.637 218.595 714.213 217.751 714.23 216.116ZM729.172 222.866H733.672V214.745H737.996V211.089H733.672V202.792H729.172V222.866ZM757.332 205.112H740.879V208.769H752.955C752.92 210.685 752.779 213.023 752.199 216.081L756.594 216.503C757.332 212.53 757.332 209.331 757.332 207.116V205.112ZM738.98 218.823L739.367 222.409C744.939 222.392 752.428 222.269 759.09 221.038L758.844 217.804C755.838 218.243 752.586 218.489 749.387 218.63V212.495H744.922V218.771C742.795 218.823 740.773 218.823 738.98 218.823ZM743.691 234.222H766.156V230.636H748.191V224.589H743.691V234.222ZM760.566 226.734H765.172V216.292H769.039V212.53H765.172V202.792H760.566V226.734Z" fill="#2D2926"/>
<path d="M508.012 254.55H509.516V250.23H514.438V254.55H515.941V244.652H514.438V248.945H509.516V244.652H508.012V254.55ZM518.744 257.339C519.968 257.332 520.72 256.71 521.15 255.534L524.213 247.126H522.641L520.768 252.882H520.686L518.812 247.126H517.254L519.975 254.646L519.797 255.138C519.448 256.074 519.072 256.102 518.621 256.109C518.416 256.102 518.129 256.095 517.965 256.081V257.298C518.149 257.325 518.443 257.332 518.744 257.339ZM530.119 251.46C530.119 252.725 529.183 253.32 528.369 253.32C527.48 253.32 526.865 252.677 526.865 251.665V247.126H525.402V251.843C525.402 253.682 526.414 254.646 527.85 254.646C528.964 254.646 529.723 254.058 530.064 253.265H530.146V254.55H531.568V247.126H530.119V251.46ZM534.809 250.148C534.809 248.965 535.526 248.288 536.531 248.288C537.516 248.288 538.097 248.931 538.104 250.011V254.55H539.553V249.833C539.56 247.994 538.548 247.03 537.023 247.03C535.916 247.03 535.185 247.543 534.836 248.343H534.754V247.126H533.346V254.55H534.809V250.148ZM544.447 257.489C546.361 257.489 547.804 256.621 547.797 254.714V247.126H546.375V248.329H546.279C546.006 247.864 545.5 247.03 544.119 247.03C542.335 247.03 541.002 248.391 541.002 250.763C541.002 253.135 542.355 254.441 544.105 254.441C545.473 254.441 546.006 253.675 546.266 253.196H546.361V254.659C546.354 255.815 545.623 256.32 544.461 256.314C543.497 256.32 542.841 255.979 542.697 255.275H541.207C541.337 256.662 542.574 257.489 544.447 257.489ZM542.492 250.79C542.485 249.368 543.142 248.268 544.434 248.275C545.691 248.268 546.375 249.286 546.375 250.79C546.375 252.321 545.678 253.231 544.434 253.237C543.155 253.231 542.485 252.246 542.492 250.79ZM551.037 250.148C551.037 248.965 551.755 248.288 552.76 248.288C553.744 248.288 554.325 248.931 554.332 250.011V254.55H555.781V249.833C555.788 247.994 554.776 247.03 553.252 247.03C552.145 247.03 551.413 247.543 551.064 248.343H550.982V247.126H549.574V254.55H551.037V250.148ZM557.217 252.458C557.21 253.907 558.311 254.714 559.719 254.714C560.949 254.714 561.633 254.092 561.92 253.538H561.975V254.55H563.396V249.614C563.39 247.461 561.667 247.03 560.484 247.03C558.728 247.03 557.579 247.919 557.449 249.15H558.898C559.049 248.603 559.568 248.206 560.43 248.206C561.421 248.206 561.94 248.692 561.934 249.532L561.94 250.127C561.599 250.141 560.484 250.202 559.992 250.23C558.652 250.325 557.21 250.763 557.217 252.458ZM558.639 252.472C558.639 251.74 559.24 251.378 560.197 251.31C560.546 251.289 561.605 251.214 561.94 251.194L561.947 251.87C561.947 252.752 561.236 253.545 560.047 253.552C559.227 253.545 558.639 253.183 558.639 252.472ZM565.16 254.55H566.623V249.97C566.623 248.972 567.32 248.288 568.141 248.288C568.94 248.288 569.494 248.815 569.494 249.628V254.55H570.943V249.82C570.943 248.931 571.483 248.288 572.42 248.288C573.186 248.288 573.814 248.705 573.814 249.71V254.55H575.277V249.573C575.271 247.871 574.32 247.03 572.98 247.03C571.907 247.03 571.101 247.543 570.752 248.343H570.67C570.355 247.516 569.665 247.03 568.674 247.03C567.696 247.03 566.965 247.516 566.65 248.343H566.568V247.126H565.16V254.55ZM580.582 244.652V254.55H582.018V247.386H582.1L585.012 254.536H586.201L589.1 247.4H589.195V254.55H590.631V244.652H588.799L585.668 252.321H585.545L582.414 244.652H580.582ZM595.73 254.7C597.364 254.7 598.506 253.894 598.834 252.691H597.357C597.111 253.142 596.571 253.497 595.744 253.497C594.527 253.497 593.693 252.697 593.652 251.282H598.93V250.763C598.93 248.076 597.323 247.03 595.635 247.03C593.563 247.03 592.196 248.603 592.203 250.886C592.196 253.19 593.543 254.7 595.73 254.7ZM593.659 250.189C593.721 249.143 594.479 248.227 595.648 248.234C596.763 248.227 597.494 249.061 597.494 250.189H593.659ZM600.379 254.55H601.842V249.97C601.842 248.972 602.539 248.288 603.359 248.288C604.159 248.288 604.713 248.815 604.713 249.628V254.55H606.162V249.82C606.162 248.931 606.702 248.288 607.639 248.288C608.404 248.288 609.033 248.705 609.033 249.71V254.55H610.496V249.573C610.489 247.871 609.539 247.03 608.199 247.03C607.126 247.03 606.319 247.543 605.971 248.343H605.889C605.574 247.516 604.884 247.03 603.893 247.03C602.915 247.03 602.184 247.516 601.869 248.343H601.787V247.126H600.379V254.55ZM615.404 254.7C617.496 254.7 618.863 253.169 618.863 250.872C618.863 248.562 617.496 247.03 615.404 247.03C613.299 247.03 611.925 248.562 611.932 250.872C611.925 253.169 613.299 254.7 615.404 254.7ZM613.395 250.872C613.395 249.45 614.044 248.24 615.404 248.234C616.744 248.24 617.387 249.45 617.387 250.872C617.387 252.287 616.744 253.484 615.404 253.484C614.044 253.484 613.395 252.287 613.395 250.872ZM620.299 254.55H621.762V250.025C621.762 249.054 622.514 248.35 623.525 248.357C623.826 248.35 624.168 248.411 624.291 248.439V247.044C624.141 247.03 623.854 247.01 623.676 247.017C622.808 247.01 622.062 247.509 621.789 248.302H621.707V247.126H620.299V254.55ZM625.385 254.55H626.848V247.126H625.385V254.55ZM625.193 245.116C625.2 245.595 625.617 245.985 626.123 245.978C626.622 245.985 627.039 245.595 627.039 245.116C627.039 244.638 626.622 244.255 626.123 244.255C625.617 244.255 625.2 244.638 625.193 245.116ZM628.283 252.458C628.276 253.907 629.377 254.714 630.785 254.714C632.016 254.714 632.699 254.092 632.986 253.538H633.041V254.55H634.463V249.614C634.456 247.461 632.733 247.03 631.551 247.03C629.794 247.03 628.646 247.919 628.516 249.15H629.965C630.115 248.603 630.635 248.206 631.496 248.206C632.487 248.206 633.007 248.692 633 249.532L633.007 250.127C632.665 250.141 631.551 250.202 631.059 250.23C629.719 250.325 628.276 250.763 628.283 252.458ZM629.705 252.472C629.705 251.74 630.307 251.378 631.264 251.31C631.612 251.289 632.672 251.214 633.007 251.194L633.014 251.87C633.014 252.752 632.303 253.545 631.113 253.552C630.293 253.545 629.705 253.183 629.705 252.472ZM637.689 244.652H636.227V254.55H637.689V244.652ZM643.008 254.55H649.27V253.251H644.512V250.23H648.887V248.945H644.512V245.95H649.215V244.652H643.008V254.55ZM652.4 250.148C652.4 248.965 653.118 248.288 654.123 248.288C655.107 248.288 655.688 248.931 655.695 250.011V254.55H657.145V249.833C657.151 247.994 656.14 247.03 654.615 247.03C653.508 247.03 652.776 247.543 652.428 248.343H652.346V247.126H650.938V254.55H652.4V250.148ZM662.039 257.489C663.953 257.489 665.396 256.621 665.389 254.714V247.126H663.967V248.329H663.871C663.598 247.864 663.092 247.03 661.711 247.03C659.927 247.03 658.594 248.391 658.594 250.763C658.594 253.135 659.947 254.441 661.697 254.441C663.064 254.441 663.598 253.675 663.857 253.196H663.953V254.659C663.946 255.815 663.215 256.32 662.053 256.314C661.089 256.32 660.433 255.979 660.289 255.275H658.799C658.929 256.662 660.166 257.489 662.039 257.489ZM660.084 250.79C660.077 249.368 660.733 248.268 662.025 248.275C663.283 248.268 663.967 249.286 663.967 250.79C663.967 252.321 663.27 253.231 662.025 253.237C660.747 253.231 660.077 252.246 660.084 250.79ZM667.166 254.55H668.629V247.126H667.166V254.55ZM666.975 245.116C666.981 245.595 667.398 245.985 667.904 245.978C668.403 245.985 668.82 245.595 668.82 245.116C668.82 244.638 668.403 244.255 667.904 244.255C667.398 244.255 666.981 244.638 666.975 245.116ZM671.869 250.148C671.869 248.965 672.587 248.288 673.592 248.288C674.576 248.288 675.157 248.931 675.164 250.011V254.55H676.613V249.833C676.62 247.994 675.608 247.03 674.084 247.03C672.977 247.03 672.245 247.543 671.896 248.343H671.814V247.126H670.406V254.55H671.869V250.148ZM681.59 254.7C683.224 254.7 684.365 253.894 684.693 252.691H683.217C682.971 253.142 682.431 253.497 681.604 253.497C680.387 253.497 679.553 252.697 679.512 251.282H684.789V250.763C684.789 248.076 683.183 247.03 681.494 247.03C679.423 247.03 678.056 248.603 678.062 250.886C678.056 253.19 679.402 254.7 681.59 254.7ZM679.519 250.189C679.58 249.143 680.339 248.227 681.508 248.234C682.622 248.227 683.354 249.061 683.354 250.189H679.519ZM686.238 254.55H687.701V250.025C687.701 249.054 688.453 248.35 689.465 248.357C689.766 248.35 690.107 248.411 690.23 248.439V247.044C690.08 247.03 689.793 247.01 689.615 247.017C688.747 247.01 688.002 247.509 687.729 248.302H687.646V247.126H686.238V254.55ZM691.324 254.55H692.787V250.025C692.787 249.054 693.539 248.35 694.551 248.357C694.852 248.35 695.193 248.411 695.316 248.439V247.044C695.166 247.03 694.879 247.01 694.701 247.017C693.833 247.01 693.088 247.509 692.814 248.302H692.732V247.126H691.324V254.55ZM696.41 254.55H697.873V247.126H696.41V254.55ZM696.219 245.116C696.226 245.595 696.643 245.985 697.148 245.978C697.647 245.985 698.064 245.595 698.064 245.116C698.064 244.638 697.647 244.255 697.148 244.255C696.643 244.255 696.226 244.638 696.219 245.116ZM701.113 250.148C701.113 248.965 701.831 248.288 702.836 248.288C703.82 248.288 704.401 248.931 704.408 250.011V254.55H705.857V249.833C705.864 247.994 704.853 247.03 703.328 247.03C702.221 247.03 701.489 247.543 701.141 248.343H701.059V247.126H699.65V254.55H701.113V250.148ZM710.752 257.489C712.666 257.489 714.108 256.621 714.102 254.714V247.126H712.68V248.329H712.584C712.311 247.864 711.805 247.03 710.424 247.03C708.64 247.03 707.307 248.391 707.307 250.763C707.307 253.135 708.66 254.441 710.41 254.441C711.777 254.441 712.311 253.675 712.57 253.196H712.666V254.659C712.659 255.815 711.928 256.32 710.766 256.314C709.802 256.32 709.146 255.979 709.002 255.275H707.512C707.642 256.662 708.879 257.489 710.752 257.489ZM708.797 250.79C708.79 249.368 709.446 248.268 710.738 248.275C711.996 248.268 712.68 249.286 712.68 250.79C712.68 252.321 711.982 253.231 710.738 253.237C709.46 253.231 708.79 252.246 708.797 250.79ZM719.42 254.55H723.207C725.518 254.55 726.557 253.402 726.557 251.884C726.557 250.353 725.49 249.491 724.506 249.437V249.341C725.415 249.109 726.174 248.487 726.174 247.249C726.174 245.779 725.155 244.652 723.043 244.652H719.42V254.55ZM720.924 253.265V250.107H723.125C724.314 250.107 725.066 250.865 725.066 251.816C725.066 252.636 724.492 253.258 723.07 253.265H720.924ZM720.924 248.931V245.937H722.947C724.13 245.937 724.697 246.552 724.697 247.372C724.697 248.322 723.918 248.924 722.92 248.931H720.924ZM732.764 251.46C732.764 252.725 731.827 253.32 731.014 253.32C730.125 253.32 729.51 252.677 729.51 251.665V247.126H728.047V251.843C728.047 253.682 729.059 254.646 730.494 254.646C731.608 254.646 732.367 254.058 732.709 253.265H732.791V254.55H734.213V247.126H732.764V251.46ZM735.99 254.55H737.453V247.126H735.99V254.55ZM735.799 245.116C735.806 245.595 736.223 245.985 736.729 245.978C737.228 245.985 737.645 245.595 737.645 245.116C737.645 244.638 737.228 244.255 736.729 244.255C736.223 244.255 735.806 244.638 735.799 245.116ZM740.693 244.652H739.23V254.55H740.693V244.652ZM745.246 254.7C746.6 254.694 747.133 253.873 747.406 253.388H747.516V254.55H748.938V244.652H747.475V248.329H747.406C747.14 247.864 746.641 247.03 745.26 247.03C743.476 247.03 742.143 248.439 742.143 250.859C742.143 253.251 743.455 254.694 745.246 254.7ZM743.633 250.831C743.626 249.368 744.282 248.268 745.574 248.275C746.832 248.268 747.516 249.286 747.516 250.831C747.516 252.39 746.818 253.449 745.574 253.456C744.296 253.449 743.626 252.321 743.633 250.831ZM750.838 254.55H752.301V247.126H750.838V254.55ZM750.646 245.116C750.653 245.595 751.07 245.985 751.576 245.978C752.075 245.985 752.492 245.595 752.492 245.116C752.492 244.638 752.075 244.255 751.576 244.255C751.07 244.255 750.653 244.638 750.646 245.116ZM755.541 250.148C755.541 248.965 756.259 248.288 757.264 248.288C758.248 248.288 758.829 248.931 758.836 250.011V254.55H760.285V249.833C760.292 247.994 759.28 247.03 757.756 247.03C756.648 247.03 755.917 247.543 755.568 248.343H755.486V247.126H754.078V254.55H755.541V250.148ZM765.18 257.489C767.094 257.489 768.536 256.621 768.529 254.714V247.126H767.107V248.329H767.012C766.738 247.864 766.232 247.03 764.852 247.03C763.067 247.03 761.734 248.391 761.734 250.763C761.734 253.135 763.088 254.441 764.838 254.441C766.205 254.441 766.738 253.675 766.998 253.196H767.094V254.659C767.087 255.815 766.355 256.32 765.193 256.314C764.229 256.32 763.573 255.979 763.43 255.275H761.939C762.069 256.662 763.307 257.489 765.18 257.489ZM763.225 250.79C763.218 249.368 763.874 248.268 765.166 248.275C766.424 248.268 767.107 249.286 767.107 250.79C767.107 252.321 766.41 253.231 765.166 253.237C763.888 253.231 763.218 252.246 763.225 250.79Z" fill="#2D2926"/>
<defs>
<clipPath id="clip0_13_4537">
<rect width="208.29" height="33.55" fill="white" transform="translate(561.71 30)"/>
</clipPath>
</defs>
</svg>
