<svg width="800" height="600" viewBox="0 0 800 600" fill="none" xmlns="http://www.w3.org/2000/svg">
<path d="M364 310V150L154 147.928L60 147C60.1667 196.5 60.5 303.5 60.5 322.5C60.5 341.5 73 369.5 80 379L154 348.5L163 363L170 396V423L141 437.5L139 507.5L363.5 515V528L489 532.5V518.5L535.5 520.5L536 500C619.5 556.5 745 510 745 384V346L381 343L379.5 310H364Z" stroke="#2D2926" stroke-width="4"/>
<path d="M60.5 257H153.5M153.5 257V240.5M153.5 257H219.5M199.5 149V240.5H153.5M153.5 240.5V148M152 344H138.5V330.5H118M152 344V304.5M152 344H161C162.5 344 164.6 360.1 165 362.5L194 359.117M110.5 344V330.5H118M110.5 344H96M110.5 344H118V330.5M96 344L89 347.348M96 344L105.5 361M73 355C70 349 65.5 331.2 65.5 322C65.5 312.8 65.1667 277.167 65 260.5H88M73 355L89 347.348M73 355L81 372.5L105.5 361M89 347.348L88 260.5M88 260.5H152V304.5M105.5 361L110.5 359L113 365.5M155 297C160.5 282.5 171 278 179 275.5V258.5H155V297ZM155 297L152 304.5M152 315H156M162 314L182 312L195 328V359L194 359.117M194 359.117L196.5 375.5M172 423.5L180.5 419.5H181.5M181.5 419.5C180 425.667 180.3 438.4 193.5 440L222 437.5L219 408L194.5 411C190.833 411.833 183.1 414.7 181.5 419.5ZM140 469H145.5M167 469.5L181 470M181 470L181.5 457.5H200M181 470V480.5H184.5M201 480.5V474M201 480.5V485M201 480.5H184.5M184.5 480.5V496H201V492.5M206.5 257L207.019 261.5M207.019 261.5H245.5M207.019 261.5L207.885 269M245.5 261.5H247M245.5 261.5V269M245.5 269H357.5M245.5 269H238M207.885 269L209.5 283M207.885 269H238M238 269V297.5H211.5M211.5 297.5L210.5 291M211.5 297.5L220 364L266 358H285.5M310.5 323V344M310.5 318.5V310.5M310.5 272.5V310.5M310.5 310.5H361.5M362 310.5H361.5M361.5 310.5V318.5M361.5 323V344M361.5 344H310.5M361.5 344L363.5 346V421.5H285V416.5M310.5 344V358H285.5M285.5 358V405M252 467.5H271.5L299 437H347.5M347.5 437H405M347.5 437V490.5M347.5 512.5V490.5M405 437V490M405 437H446.318M405 512.5V490M405 512.5L446.318 515M405 512.5H367.5V514.5H365.5M347.5 490.5L405 490M405 490L446.318 492M536.5 498L537.75 467.5M446.318 437H539L537.75 467.5M446.318 437V492M446.318 515V492M446.318 515L486 517M446.318 492L486 495.5M488 498V517M490 496L526.5 501M379.5 345H373.5V370.5M436 421.5H373.5V396M436 421.5H517.5M436 421.5V396M436 345V370.5M517.5 421.5V345M517.5 421.5H596.5V407.5M610 364.5H596.5V376.5M596.5 376.5H614V346.795V407.5M596.5 376.5V407.5M596.5 407.5H614M614 407.5V421.5H642.5V386M642.5 347.5V386M642.5 386H663.5M743.5 386H663.5M663.5 386L663.826 408.5M664.5 455H727M664.5 455L663.826 408.5M664.5 455H642.5M663.826 408.5H743.5M642.5 455V452M642.5 455V471H612V455M642.5 455H638M612 452V455M612 455H617M625 455H631M642 520.5V484.5H619.5L618 486V490.5L619.5 493M619.5 493H629M619.5 493V522M619.5 493H599V512.5H602V517.5H599V522M537.75 467.5L595.5 458L597 484.5V522M373.5 370.5H436M373.5 370.5V396M436 370.5V396M373.5 396H436" stroke="#2D2926" stroke-width="3" stroke-linejoin="round"/>
<path d="M95.0967 209H97.8018C99.4521 209 100.194 208.18 100.194 207.096C100.194 206.002 99.4326 205.387 98.7295 205.348V205.279C99.3789 205.113 99.9209 204.669 99.9209 203.785C99.9209 202.735 99.1934 201.93 97.6846 201.93H95.0967V209ZM96.1709 208.082V205.826H97.7432C98.5928 205.826 99.1299 206.368 99.1299 207.047C99.1299 207.633 98.7197 208.077 97.7041 208.082H96.1709ZM96.1709 204.986V202.848H97.6162C98.4609 202.848 98.8662 203.287 98.8662 203.873C98.8662 204.552 98.3096 204.981 97.5967 204.986H96.1709ZM103.935 201.93H102.88L101.122 203.082V204.107L102.812 203.004H102.851V209H103.935V201.93ZM108.192 209.098C109.828 209.098 110.785 207.779 110.79 205.465C110.785 203.165 109.813 201.832 108.192 201.832C106.566 201.832 105.595 203.165 105.595 205.465C105.595 207.779 106.557 209.098 108.192 209.098ZM106.669 205.465C106.669 203.707 107.24 202.745 108.192 202.74C109.14 202.745 109.716 203.707 109.716 205.465C109.716 207.228 109.145 208.17 108.192 208.17C107.235 208.17 106.664 207.228 106.669 205.465ZM111.747 207.623H115.185V209H116.2V207.623H117.167V206.715H116.2V201.93H114.872L111.747 206.754V207.623ZM112.88 206.715V206.656L115.106 203.209H115.185V206.715H112.88Z" fill="#2D2926"/>
<path d="M109.797 295H112.502C114.152 295 114.895 294.18 114.895 293.096C114.895 292.002 114.133 291.387 113.43 291.348V291.279C114.079 291.113 114.621 290.669 114.621 289.785C114.621 288.735 113.894 287.93 112.385 287.93H109.797V295ZM110.871 294.082V291.826H112.443C113.293 291.826 113.83 292.368 113.83 293.047C113.83 293.633 113.42 294.077 112.404 294.082H110.871ZM110.871 290.986V288.848H112.316C113.161 288.848 113.566 289.287 113.566 289.873C113.566 290.552 113.01 290.981 112.297 290.986H110.871ZM118.635 287.93H117.58L115.822 289.082V290.107L117.512 289.004H117.551V295H118.635V287.93ZM122.893 295.098C124.528 295.098 125.485 293.779 125.49 291.465C125.485 289.165 124.514 287.832 122.893 287.832C121.267 287.832 120.295 289.165 120.295 291.465C120.295 293.779 121.257 295.098 122.893 295.098ZM121.369 291.465C121.369 289.707 121.94 288.745 122.893 288.74C123.84 288.745 124.416 289.707 124.416 291.465C124.416 293.228 123.845 294.17 122.893 294.17C121.936 294.17 121.364 293.228 121.369 291.465ZM126.604 295H131.359V294.082H128.098V294.023L129.533 292.568C130.861 291.265 131.232 290.635 131.242 289.844C131.232 288.696 130.29 287.832 128.928 287.832C127.58 287.832 126.594 288.687 126.604 289.98H127.619C127.624 289.229 128.122 288.73 128.908 288.73C129.65 288.73 130.217 289.175 130.217 289.873C130.217 290.493 129.831 290.942 129.055 291.748L126.604 294.219V295Z" fill="#2D2926"/>
<path d="M156.15 274H158.855C160.506 274 161.248 273.18 161.248 272.096C161.248 271.002 160.486 270.387 159.783 270.348V270.279C160.433 270.113 160.975 269.669 160.975 268.785C160.975 267.735 160.247 266.93 158.738 266.93H156.15V274ZM157.225 273.082V270.826H158.797C159.646 270.826 160.184 271.368 160.184 272.047C160.184 272.633 159.773 273.077 158.758 273.082H157.225ZM157.225 269.986V267.848H158.67C159.515 267.848 159.92 268.287 159.92 268.873C159.92 269.552 159.363 269.981 158.65 269.986H157.225ZM164.988 266.93H163.934L162.176 268.082V269.107L163.865 268.004H163.904V274H164.988V266.93ZM169.246 274.098C170.882 274.098 171.839 272.779 171.844 270.465C171.839 268.165 170.867 266.832 169.246 266.832C167.62 266.832 166.648 268.165 166.648 270.465C166.648 272.779 167.61 274.098 169.246 274.098ZM167.723 270.465C167.723 268.707 168.294 267.745 169.246 267.74C170.193 267.745 170.77 268.707 170.77 270.465C170.77 272.228 170.198 273.17 169.246 273.17C168.289 273.17 167.718 272.228 167.723 270.465ZM175.467 274.098C176.932 274.098 178.021 273.233 178.016 272.057C178.021 271.163 177.459 270.514 176.492 270.377V270.328C177.254 270.138 177.752 269.562 177.742 268.756C177.752 267.711 176.878 266.832 175.486 266.832C174.168 266.832 173.104 267.613 173.074 268.766H174.109C174.134 268.126 174.769 267.73 175.477 267.73C176.224 267.73 176.707 268.17 176.707 268.814C176.707 269.493 176.146 269.942 175.34 269.938H174.734V270.816H175.34C176.351 270.821 176.932 271.319 176.932 272.018C176.932 272.706 176.312 273.17 175.457 273.17C174.666 273.17 174.051 272.774 174.012 272.154H172.918C172.962 273.312 174.002 274.098 175.467 274.098Z" fill="#2D2926"/>
<path d="M162.029 339H164.734C166.385 339 167.127 338.18 167.127 337.096C167.127 336.002 166.365 335.387 165.662 335.348V335.279C166.312 335.113 166.854 334.669 166.854 333.785C166.854 332.735 166.126 331.93 164.617 331.93H162.029V339ZM163.104 338.082V335.826H164.676C165.525 335.826 166.062 336.368 166.062 337.047C166.062 337.633 165.652 338.077 164.637 338.082H163.104ZM163.104 334.986V332.848H164.549C165.394 332.848 165.799 333.287 165.799 333.873C165.799 334.552 165.242 334.981 164.529 334.986H163.104ZM170.867 331.93H169.812L168.055 333.082V334.107L169.744 333.004H169.783V339H170.867V331.93ZM175.125 339.098C176.761 339.098 177.718 337.779 177.723 335.465C177.718 333.165 176.746 331.832 175.125 331.832C173.499 331.832 172.527 333.165 172.527 335.465C172.527 337.779 173.489 339.098 175.125 339.098ZM173.602 335.465C173.602 333.707 174.173 332.745 175.125 332.74C176.072 332.745 176.648 333.707 176.648 335.465C176.648 337.228 176.077 338.17 175.125 338.17C174.168 338.17 173.597 337.228 173.602 335.465ZM181.521 331.93H180.467L178.709 333.082V334.107L180.398 333.004H180.438V339H181.521V331.93Z" fill="#2D2926"/>
<path d="M253.07 321H255.775C257.426 321 258.168 320.18 258.168 319.096C258.168 318.002 257.406 317.387 256.703 317.348V317.279C257.353 317.113 257.895 316.669 257.895 315.785C257.895 314.735 257.167 313.93 255.658 313.93H253.07V321ZM254.145 320.082V317.826H255.717C256.566 317.826 257.104 318.368 257.104 319.047C257.104 319.633 256.693 320.077 255.678 320.082H254.145ZM254.145 316.986V314.848H255.59C256.435 314.848 256.84 315.287 256.84 315.873C256.84 316.552 256.283 316.981 255.57 316.986H254.145ZM261.908 313.93H260.854L259.096 315.082V316.107L260.785 315.004H260.824V321H261.908V313.93ZM266.166 321.098C267.802 321.098 268.759 319.779 268.764 317.465C268.759 315.165 267.787 313.832 266.166 313.832C264.54 313.832 263.568 315.165 263.568 317.465C263.568 319.779 264.53 321.098 266.166 321.098ZM264.643 317.465C264.643 315.707 265.214 314.745 266.166 314.74C267.113 314.745 267.689 315.707 267.689 317.465C267.689 319.228 267.118 320.17 266.166 320.17C265.209 320.17 264.638 319.228 264.643 317.465ZM269.926 321H271.049L274.193 314.887V313.93H269.438V314.848H273.08V314.906L269.926 321Z" fill="#2D2926"/>
<path d="M320.746 295H323.451C325.102 295 325.844 294.18 325.844 293.096C325.844 292.002 325.082 291.387 324.379 291.348V291.279C325.028 291.113 325.57 290.669 325.57 289.785C325.57 288.735 324.843 287.93 323.334 287.93H320.746V295ZM321.82 294.082V291.826H323.393C324.242 291.826 324.779 292.368 324.779 293.047C324.779 293.633 324.369 294.077 323.354 294.082H321.82ZM321.82 290.986V288.848H323.266C324.11 288.848 324.516 289.287 324.516 289.873C324.516 290.552 323.959 290.981 323.246 290.986H321.82ZM329.584 287.93H328.529L326.771 289.082V290.107L328.461 289.004H328.5V295H329.584V287.93ZM333.842 295.098C335.478 295.098 336.435 293.779 336.439 291.465C336.435 289.165 335.463 287.832 333.842 287.832C332.216 287.832 331.244 289.165 331.244 291.465C331.244 293.779 332.206 295.098 333.842 295.098ZM332.318 291.465C332.318 289.707 332.89 288.745 333.842 288.74C334.789 288.745 335.365 289.707 335.365 291.465C335.365 293.228 334.794 294.17 333.842 294.17C332.885 294.17 332.313 293.228 332.318 291.465ZM340.023 295.098C341.537 295.098 342.616 294.268 342.621 293.115C342.616 292.207 341.962 291.465 341.137 291.338V291.299C341.85 291.133 342.343 290.488 342.348 289.717C342.343 288.628 341.356 287.832 340.023 287.832C338.671 287.832 337.689 288.628 337.689 289.717C337.689 290.488 338.173 291.133 338.9 291.299V291.338C338.065 291.465 337.416 292.207 337.426 293.115C337.416 294.268 338.485 295.098 340.023 295.098ZM338.52 293.037C338.505 292.31 339.145 291.777 340.023 291.777C340.893 291.777 341.527 292.31 341.527 293.037C341.527 293.73 340.941 294.209 340.023 294.209C339.091 294.209 338.505 293.73 338.52 293.037ZM338.734 289.814C338.739 289.155 339.247 288.706 340.023 288.711C340.78 288.706 341.298 289.155 341.293 289.814C341.298 290.479 340.761 290.933 340.023 290.928C339.267 290.933 338.739 290.474 338.734 289.814ZM346.869 291.016H343.734V291.914H346.869V291.016ZM350.805 287.93H349.75L347.992 289.082V290.107L349.682 289.004H349.721V295H350.805V287.93Z" fill="#2D2926"/>
<path d="M325.18 330H327.885C329.535 330 330.277 329.18 330.277 328.096C330.277 327.002 329.516 326.387 328.812 326.348V326.279C329.462 326.113 330.004 325.669 330.004 324.785C330.004 323.735 329.276 322.93 327.768 322.93H325.18V330ZM326.254 329.082V326.826H327.826C328.676 326.826 329.213 327.368 329.213 328.047C329.213 328.633 328.803 329.077 327.787 329.082H326.254ZM326.254 325.986V323.848H327.699C328.544 323.848 328.949 324.287 328.949 324.873C328.949 325.552 328.393 325.981 327.68 325.986H326.254ZM334.018 322.93H332.963L331.205 324.082V325.107L332.895 324.004H332.934V330H334.018V322.93ZM338.275 330.098C339.911 330.098 340.868 328.779 340.873 326.465C340.868 324.165 339.896 322.832 338.275 322.832C336.649 322.832 335.678 324.165 335.678 326.465C335.678 328.779 336.64 330.098 338.275 330.098ZM336.752 326.465C336.752 324.707 337.323 323.745 338.275 323.74C339.223 323.745 339.799 324.707 339.799 326.465C339.799 328.228 339.228 329.17 338.275 329.17C337.318 329.17 336.747 328.228 336.752 326.465ZM344.457 330.098C345.971 330.098 347.05 329.268 347.055 328.115C347.05 327.207 346.396 326.465 345.57 326.338V326.299C346.283 326.133 346.776 325.488 346.781 324.717C346.776 323.628 345.79 322.832 344.457 322.832C343.104 322.832 342.123 323.628 342.123 324.717C342.123 325.488 342.606 326.133 343.334 326.299V326.338C342.499 326.465 341.85 327.207 341.859 328.115C341.85 329.268 342.919 330.098 344.457 330.098ZM342.953 328.037C342.938 327.31 343.578 326.777 344.457 326.777C345.326 326.777 345.961 327.31 345.961 328.037C345.961 328.73 345.375 329.209 344.457 329.209C343.524 329.209 342.938 328.73 342.953 328.037ZM343.168 324.814C343.173 324.155 343.681 323.706 344.457 323.711C345.214 323.706 345.731 324.155 345.727 324.814C345.731 325.479 345.194 325.933 344.457 325.928C343.7 325.933 343.173 325.474 343.168 324.814Z" fill="#2D2926"/>
<path d="M318.155 391H320.86C322.511 391 323.253 390.18 323.253 389.096C323.253 388.002 322.491 387.387 321.788 387.348V387.279C322.438 387.113 322.979 386.669 322.979 385.785C322.979 384.735 322.252 383.93 320.743 383.93H318.155V391ZM319.229 390.082V387.826H320.802C321.651 387.826 322.188 388.368 322.188 389.047C322.188 389.633 321.778 390.077 320.763 390.082H319.229ZM319.229 386.986V384.848H320.675C321.52 384.848 321.925 385.287 321.925 385.873C321.925 386.552 321.368 386.981 320.655 386.986H319.229ZM326.993 383.93H325.938L324.181 385.082V386.107L325.87 385.004H325.909V391H326.993V383.93ZM331.251 391.098C332.887 391.098 333.844 389.779 333.849 387.465C333.844 385.165 332.872 383.832 331.251 383.832C329.625 383.832 328.653 385.165 328.653 387.465C328.653 389.779 329.615 391.098 331.251 391.098ZM329.728 387.465C329.728 385.707 330.299 384.745 331.251 384.74C332.198 384.745 332.774 385.707 332.774 387.465C332.774 389.228 332.203 390.17 331.251 390.17C330.294 390.17 329.723 389.228 329.728 387.465ZM337.394 383.832C335.855 383.822 334.854 384.877 334.854 386.225C334.854 387.577 335.87 388.549 337.14 388.549C337.901 388.549 338.565 388.188 338.946 387.592H339.034C339.024 389.208 338.385 390.155 337.296 390.16C336.583 390.155 336.124 389.74 335.978 389.145H334.913C335.084 390.292 335.992 391.098 337.296 391.098C338.99 391.098 340.06 389.691 340.06 387.211C340.055 384.623 338.692 383.842 337.394 383.832ZM335.899 386.205C335.895 385.395 336.539 384.73 337.394 384.73C338.258 384.73 338.888 385.429 338.888 386.195C338.888 386.977 338.229 387.675 337.374 387.67C336.515 387.675 335.904 387.025 335.899 386.205Z" fill="#2D2926"/>
<path d="M395.029 364H397.734C399.385 364 400.127 363.18 400.127 362.096C400.127 361.002 399.365 360.387 398.662 360.348V360.279C399.312 360.113 399.854 359.669 399.854 358.785C399.854 357.735 399.126 356.93 397.617 356.93H395.029V364ZM396.104 363.082V360.826H397.676C398.525 360.826 399.062 361.368 399.062 362.047C399.062 362.633 398.652 363.077 397.637 363.082H396.104ZM396.104 359.986V357.848H397.549C398.394 357.848 398.799 358.287 398.799 358.873C398.799 359.552 398.242 359.981 397.529 359.986H396.104ZM403.867 356.93H402.812L401.055 358.082V359.107L402.744 358.004H402.783V364H403.867V356.93ZM408.35 356.93H407.295L405.537 358.082V359.107L407.227 358.004H407.266V364H408.35V356.93ZM412.607 364.098C414.243 364.098 415.2 362.779 415.205 360.465C415.2 358.165 414.229 356.832 412.607 356.832C410.981 356.832 410.01 358.165 410.01 360.465C410.01 362.779 410.972 364.098 412.607 364.098ZM411.084 360.465C411.084 358.707 411.655 357.745 412.607 357.74C413.555 357.745 414.131 358.707 414.131 360.465C414.131 362.228 413.56 363.17 412.607 363.17C411.65 363.17 411.079 362.228 411.084 360.465Z" fill="#2D2926"/>
<path d="M395.874 389H398.579C400.229 389 400.972 388.18 400.972 387.096C400.972 386.002 400.21 385.387 399.507 385.348V385.279C400.156 385.113 400.698 384.669 400.698 383.785C400.698 382.735 399.971 381.93 398.462 381.93H395.874V389ZM396.948 388.082V385.826H398.521C399.37 385.826 399.907 386.368 399.907 387.047C399.907 387.633 399.497 388.077 398.481 388.082H396.948ZM396.948 384.986V382.848H398.394C399.238 382.848 399.644 383.287 399.644 383.873C399.644 384.552 399.087 384.981 398.374 384.986H396.948ZM404.712 381.93H403.657L401.899 383.082V384.107L403.589 383.004H403.628V389H404.712V381.93ZM409.194 381.93H408.14L406.382 383.082V384.107L408.071 383.004H408.11V389H409.194V381.93ZM413.677 381.93H412.622L410.864 383.082V384.107L412.554 383.004H412.593V389H413.677V381.93Z" fill="#2D2926"/>
<path d="M466.995 389H469.7C471.351 389 472.093 388.18 472.093 387.096C472.093 386.002 471.331 385.387 470.628 385.348V385.279C471.277 385.113 471.819 384.669 471.819 383.785C471.819 382.735 471.092 381.93 469.583 381.93H466.995V389ZM468.069 388.082V385.826H469.642C470.491 385.826 471.028 386.368 471.028 387.047C471.028 387.633 470.618 388.077 469.603 388.082H468.069ZM468.069 384.986V382.848H469.515C470.359 382.848 470.765 383.287 470.765 383.873C470.765 384.552 470.208 384.981 469.495 384.986H468.069ZM475.833 381.93H474.778L473.021 383.082V384.107L474.71 383.004H474.749V389H475.833V381.93ZM480.315 381.93H479.261L477.503 383.082V384.107L479.192 383.004H479.231V389H480.315V381.93ZM484.622 389.098C486.087 389.098 487.176 388.233 487.171 387.057C487.176 386.163 486.614 385.514 485.647 385.377V385.328C486.409 385.138 486.907 384.562 486.897 383.756C486.907 382.711 486.033 381.832 484.642 381.832C483.323 381.832 482.259 382.613 482.229 383.766H483.265C483.289 383.126 483.924 382.73 484.632 382.73C485.379 382.73 485.862 383.17 485.862 383.814C485.862 384.493 485.301 384.942 484.495 384.938H483.89V385.816H484.495C485.506 385.821 486.087 386.319 486.087 387.018C486.087 387.706 485.467 388.17 484.612 388.17C483.821 388.17 483.206 387.774 483.167 387.154H482.073C482.117 388.312 483.157 389.098 484.622 389.098Z" fill="#2D2926"/>
<path d="M549.941 389H552.646C554.297 389 555.039 388.18 555.039 387.096C555.039 386.002 554.277 385.387 553.574 385.348V385.279C554.224 385.113 554.766 384.669 554.766 383.785C554.766 382.735 554.038 381.93 552.529 381.93H549.941V389ZM551.016 388.082V385.826H552.588C553.438 385.826 553.975 386.368 553.975 387.047C553.975 387.633 553.564 388.077 552.549 388.082H551.016ZM551.016 384.986V382.848H552.461C553.306 382.848 553.711 383.287 553.711 383.873C553.711 384.552 553.154 384.981 552.441 384.986H551.016ZM558.779 381.93H557.725L555.967 383.082V384.107L557.656 383.004H557.695V389H558.779V381.93ZM563.262 381.93H562.207L560.449 383.082V384.107L562.139 383.004H562.178V389H563.262V381.93ZM564.902 387.623H568.34V389H569.355V387.623H570.322V386.715H569.355V381.93H568.027L564.902 386.754V387.623ZM566.035 386.715V386.656L568.262 383.209H568.34V386.715H566.035Z" fill="#2D2926"/>
<path d="M679 368H681.705C683.355 368 684.098 367.18 684.098 366.096C684.098 365.002 683.336 364.387 682.633 364.348V364.279C683.282 364.113 683.824 363.669 683.824 362.785C683.824 361.735 683.097 360.93 681.588 360.93H679V368ZM680.074 367.082V364.826H681.646C682.496 364.826 683.033 365.368 683.033 366.047C683.033 366.633 682.623 367.077 681.607 367.082H680.074ZM680.074 363.986V361.848H681.52C682.364 361.848 682.77 362.287 682.77 362.873C682.77 363.552 682.213 363.981 681.5 363.986H680.074ZM687.838 360.93H686.783L685.025 362.082V363.107L686.715 362.004H686.754V368H687.838V360.93ZM692.32 360.93H691.266L689.508 362.082V363.107L691.197 362.004H691.236V368H692.32V360.93ZM696.676 368.098C698.194 368.107 699.205 367.058 699.205 365.686C699.205 364.333 698.189 363.366 696.93 363.361C696.163 363.366 695.499 363.718 695.113 364.318H695.035C695.035 362.722 695.67 361.774 696.764 361.77C697.477 361.774 697.931 362.189 698.072 362.766H699.137C698.971 361.643 698.067 360.832 696.764 360.832C695.069 360.832 694.005 362.238 694 364.699C694 367.312 695.367 368.088 696.676 368.098ZM695.162 365.715C695.172 364.929 695.831 364.235 696.695 364.24C697.545 364.235 698.16 364.895 698.16 365.705C698.16 366.53 697.521 367.194 696.666 367.199C695.797 367.194 695.167 366.501 695.162 365.715Z" fill="#2D2926"/>
<path d="M693.817 400H696.522C698.173 400 698.915 399.18 698.915 398.096C698.915 397.002 698.153 396.387 697.45 396.348V396.279C698.1 396.113 698.642 395.669 698.642 394.785C698.642 393.735 697.914 392.93 696.405 392.93H693.817V400ZM694.892 399.082V396.826H696.464C697.313 396.826 697.851 397.368 697.851 398.047C697.851 398.633 697.44 399.077 696.425 399.082H694.892ZM694.892 395.986V393.848H696.337C697.182 393.848 697.587 394.287 697.587 394.873C697.587 395.552 697.03 395.981 696.317 395.986H694.892ZM702.655 392.93H701.601L699.843 394.082V395.107L701.532 394.004H701.571V400H702.655V392.93ZM707.138 392.93H706.083L704.325 394.082V395.107L706.015 394.004H706.054V400H707.138V392.93ZM709.179 400H710.302L713.446 393.887V392.93H708.69V393.848H712.333V393.906L709.179 400Z" fill="#2D2926"/>
<path d="M689.024 437H691.729C693.38 437 694.122 436.18 694.122 435.096C694.122 434.002 693.36 433.387 692.657 433.348V433.279C693.307 433.113 693.849 432.669 693.849 431.785C693.849 430.735 693.121 429.93 691.612 429.93H689.024V437ZM690.099 436.082V433.826H691.671C692.521 433.826 693.058 434.368 693.058 435.047C693.058 435.633 692.647 436.077 691.632 436.082H690.099ZM690.099 432.986V430.848H691.544C692.389 430.848 692.794 431.287 692.794 431.873C692.794 432.552 692.237 432.981 691.524 432.986H690.099ZM697.862 429.93H696.808L695.05 431.082V432.107L696.739 431.004H696.778V437H697.862V429.93ZM702.345 429.93H701.29L699.532 431.082V432.107L701.222 431.004H701.261V437H702.345V429.93ZM706.612 437.098C708.126 437.098 709.205 436.268 709.21 435.115C709.205 434.207 708.551 433.465 707.726 433.338V433.299C708.438 433.133 708.932 432.488 708.937 431.717C708.932 430.628 707.945 429.832 706.612 429.832C705.26 429.832 704.278 430.628 704.278 431.717C704.278 432.488 704.762 433.133 705.489 433.299V433.338C704.654 433.465 704.005 434.207 704.015 435.115C704.005 436.268 705.074 437.098 706.612 437.098ZM705.108 435.037C705.094 434.31 705.733 433.777 706.612 433.777C707.481 433.777 708.116 434.31 708.116 435.037C708.116 435.73 707.53 436.209 706.612 436.209C705.68 436.209 705.094 435.73 705.108 435.037ZM705.323 431.814C705.328 431.155 705.836 430.706 706.612 430.711C707.369 430.706 707.887 431.155 707.882 431.814C707.887 432.479 707.35 432.933 706.612 432.928C705.855 432.933 705.328 432.474 705.323 431.814Z" fill="#2D2926"/>
<path d="M665 489H667.705C669.355 489 670.098 488.18 670.098 487.096C670.098 486.002 669.336 485.387 668.633 485.348V485.279C669.282 485.113 669.824 484.669 669.824 483.785C669.824 482.735 669.097 481.93 667.588 481.93H665V489ZM666.074 488.082V485.826H667.646C668.496 485.826 669.033 486.368 669.033 487.047C669.033 487.633 668.623 488.077 667.607 488.082H666.074ZM666.074 484.986V482.848H667.52C668.364 482.848 668.77 483.287 668.77 483.873C668.77 484.552 668.213 484.981 667.5 484.986H666.074ZM673.838 481.93H672.783L671.025 483.082V484.107L672.715 483.004H672.754V489H673.838V481.93ZM678.32 481.93H677.266L675.508 483.082V484.107L677.197 483.004H677.236V489H678.32V481.93ZM682.549 481.832C681.011 481.822 680.01 482.877 680.01 484.225C680.01 485.577 681.025 486.549 682.295 486.549C683.057 486.549 683.721 486.188 684.102 485.592H684.189C684.18 487.208 683.54 488.155 682.451 488.16C681.738 488.155 681.279 487.74 681.133 487.145H680.068C680.239 488.292 681.147 489.098 682.451 489.098C684.146 489.098 685.215 487.691 685.215 485.211C685.21 482.623 683.848 481.842 682.549 481.832ZM681.055 484.205C681.05 483.395 681.694 482.73 682.549 482.73C683.413 482.73 684.043 483.429 684.043 484.195C684.043 484.977 683.384 485.675 682.529 485.67C681.67 485.675 681.06 485.025 681.055 484.205Z" fill="#2D2926"/>
<path d="M480.797 472H483.502C485.152 472 485.895 471.18 485.895 470.096C485.895 469.002 485.133 468.387 484.43 468.348V468.279C485.079 468.113 485.621 467.669 485.621 466.785C485.621 465.735 484.894 464.93 483.385 464.93H480.797V472ZM481.871 471.082V468.826H483.443C484.293 468.826 484.83 469.368 484.83 470.047C484.83 470.633 484.42 471.077 483.404 471.082H481.871ZM481.871 467.986V465.848H483.316C484.161 465.848 484.566 466.287 484.566 466.873C484.566 467.552 484.01 467.981 483.297 467.986H481.871ZM489.635 464.93H488.58L486.822 466.082V467.107L488.512 466.004H488.551V472H489.635V464.93ZM491.432 472H496.188V471.082H492.926V471.023L494.361 469.568C495.689 468.265 496.061 467.635 496.07 466.844C496.061 465.696 495.118 464.832 493.756 464.832C492.408 464.832 491.422 465.687 491.432 466.98H492.447C492.452 466.229 492.95 465.73 493.736 465.73C494.479 465.73 495.045 466.175 495.045 466.873C495.045 467.493 494.659 467.942 493.883 468.748L491.432 471.219V472ZM499.84 472.098C501.476 472.098 502.433 470.779 502.438 468.465C502.433 466.165 501.461 464.832 499.84 464.832C498.214 464.832 497.242 466.165 497.242 468.465C497.242 470.779 498.204 472.098 499.84 472.098ZM498.316 468.465C498.316 466.707 498.888 465.745 499.84 465.74C500.787 465.745 501.363 466.707 501.363 468.465C501.363 470.228 500.792 471.17 499.84 471.17C498.883 471.17 498.312 470.228 498.316 468.465Z" fill="#2D2926"/>
<path d="M416.142 472H418.847C420.497 472 421.239 471.18 421.239 470.096C421.239 469.002 420.478 468.387 419.774 468.348V468.279C420.424 468.113 420.966 467.669 420.966 466.785C420.966 465.735 420.238 464.93 418.729 464.93H416.142V472ZM417.216 471.082V468.826H418.788C419.638 468.826 420.175 469.368 420.175 470.047C420.175 470.633 419.765 471.077 418.749 471.082H417.216ZM417.216 467.986V465.848H418.661C419.506 465.848 419.911 466.287 419.911 466.873C419.911 467.552 419.354 467.981 418.642 467.986H417.216ZM424.979 464.93H423.925L422.167 466.082V467.107L423.856 466.004H423.896V472H424.979V464.93ZM426.776 472H431.532V471.082H428.271V471.023L429.706 469.568C431.034 468.265 431.405 467.635 431.415 466.844C431.405 465.696 430.463 464.832 429.101 464.832C427.753 464.832 426.767 465.687 426.776 466.98H427.792C427.797 466.229 428.295 465.73 429.081 465.73C429.823 465.73 430.39 466.175 430.39 466.873C430.39 467.493 430.004 467.942 429.228 468.748L426.776 471.219V472ZM435.409 464.93H434.354L432.597 466.082V467.107L434.286 466.004H434.325V472H435.409V464.93Z" fill="#2D2926"/>
<path d="M364.909 472H367.614C369.265 472 370.007 471.18 370.007 470.096C370.007 469.002 369.245 468.387 368.542 468.348V468.279C369.191 468.113 369.733 467.669 369.733 466.785C369.733 465.735 369.006 464.93 367.497 464.93H364.909V472ZM365.983 471.082V468.826H367.556C368.405 468.826 368.942 469.368 368.942 470.047C368.942 470.633 368.532 471.077 367.517 471.082H365.983ZM365.983 467.986V465.848H367.429C368.273 465.848 368.679 466.287 368.679 466.873C368.679 467.552 368.122 467.981 367.409 467.986H365.983ZM373.747 464.93H372.692L370.935 466.082V467.107L372.624 466.004H372.663V472H373.747V464.93ZM375.544 472H380.3V471.082H377.038V471.023L378.474 469.568C379.802 468.265 380.173 467.635 380.183 466.844C380.173 465.696 379.23 464.832 377.868 464.832C376.521 464.832 375.534 465.687 375.544 466.98H376.56C376.564 466.229 377.062 465.73 377.849 465.73C378.591 465.73 379.157 466.175 379.157 466.873C379.157 467.493 378.771 467.942 377.995 468.748L375.544 471.219V472ZM381.491 472H386.247V471.082H382.985V471.023L384.421 469.568C385.749 468.265 386.12 467.635 386.13 466.844C386.12 465.696 385.178 464.832 383.815 464.832C382.468 464.832 381.481 465.687 381.491 466.98H382.507C382.512 466.229 383.01 465.73 383.796 465.73C384.538 465.73 385.104 466.175 385.104 466.873C385.104 467.493 384.719 467.942 383.942 468.748L381.491 471.219V472Z" fill="#2D2926"/>
<path d="M297.763 483H300.468C302.118 483 302.86 482.18 302.86 481.096C302.86 480.002 302.099 479.387 301.396 479.348V479.279C302.045 479.113 302.587 478.669 302.587 477.785C302.587 476.735 301.859 475.93 300.351 475.93H297.763V483ZM298.837 482.082V479.826H300.409C301.259 479.826 301.796 480.368 301.796 481.047C301.796 481.633 301.386 482.077 300.37 482.082H298.837ZM298.837 478.986V476.848H300.282C301.127 476.848 301.532 477.287 301.532 477.873C301.532 478.552 300.976 478.981 300.263 478.986H298.837ZM306.601 475.93H305.546L303.788 477.082V478.107L305.478 477.004H305.517V483H306.601V475.93ZM308.397 483H313.153V482.082H309.892V482.023L311.327 480.568C312.655 479.265 313.026 478.635 313.036 477.844C313.026 476.696 312.084 475.832 310.722 475.832C309.374 475.832 308.388 476.687 308.397 477.98H309.413C309.418 477.229 309.916 476.73 310.702 476.73C311.444 476.73 312.011 477.175 312.011 477.873C312.011 478.493 311.625 478.942 310.849 479.748L308.397 482.219V483ZM316.854 483.098C318.319 483.098 319.408 482.233 319.403 481.057C319.408 480.163 318.847 479.514 317.88 479.377V479.328C318.642 479.138 319.14 478.562 319.13 477.756C319.14 476.711 318.266 475.832 316.874 475.832C315.556 475.832 314.491 476.613 314.462 477.766H315.497C315.521 477.126 316.156 476.73 316.864 476.73C317.611 476.73 318.095 477.17 318.095 477.814C318.095 478.493 317.533 478.942 316.728 478.938H316.122V479.816H316.728C317.738 479.821 318.319 480.319 318.319 481.018C318.319 481.706 317.699 482.17 316.845 482.17C316.054 482.17 315.438 481.774 315.399 481.154H314.306C314.35 482.312 315.39 483.098 316.854 483.098Z" fill="#2D2926"/>
<path d="M147.787 492H150.492C152.143 492 152.885 491.18 152.885 490.096C152.885 489.002 152.123 488.387 151.42 488.348V488.279C152.069 488.113 152.611 487.669 152.611 486.785C152.611 485.735 151.884 484.93 150.375 484.93H147.787V492ZM148.861 491.082V488.826H150.434C151.283 488.826 151.82 489.368 151.82 490.047C151.82 490.633 151.41 491.077 150.395 491.082H148.861ZM148.861 487.986V485.848H150.307C151.151 485.848 151.557 486.287 151.557 486.873C151.557 487.552 151 487.981 150.287 487.986H148.861ZM156.625 484.93H155.57L153.812 486.082V487.107L155.502 486.004H155.541V492H156.625V484.93ZM158.422 492H163.178V491.082H159.916V491.023L161.352 489.568C162.68 488.265 163.051 487.635 163.061 486.844C163.051 485.696 162.108 484.832 160.746 484.832C159.398 484.832 158.412 485.687 158.422 486.98H159.438C159.442 486.229 159.94 485.73 160.727 485.73C161.469 485.73 162.035 486.175 162.035 486.873C162.035 487.493 161.649 487.942 160.873 488.748L158.422 491.219V492ZM164.057 490.623H167.494V492H168.51V490.623H169.477V489.715H168.51V484.93H167.182L164.057 489.754V490.623ZM165.189 489.715V489.656L167.416 486.209H167.494V489.715H165.189Z" fill="#2D2926"/>
<path d="M149.851 454H152.556C154.206 454 154.948 453.18 154.948 452.096C154.948 451.002 154.187 450.387 153.483 450.348V450.279C154.133 450.113 154.675 449.669 154.675 448.785C154.675 447.735 153.947 446.93 152.438 446.93H149.851V454ZM150.925 453.082V450.826H152.497C153.347 450.826 153.884 451.368 153.884 452.047C153.884 452.633 153.474 453.077 152.458 453.082H150.925ZM150.925 449.986V447.848H152.37C153.215 447.848 153.62 448.287 153.62 448.873C153.62 449.552 153.063 449.981 152.351 449.986H150.925ZM158.688 446.93H157.634L155.876 448.082V449.107L157.565 448.004H157.604V454H158.688V446.93ZM160.485 454H165.241V453.082H161.979V453.023L163.415 451.568C164.743 450.265 165.114 449.635 165.124 448.844C165.114 447.696 164.172 446.832 162.81 446.832C161.462 446.832 160.476 447.687 160.485 448.98H161.501C161.506 448.229 162.004 447.73 162.79 447.73C163.532 447.73 164.099 448.175 164.099 448.873C164.099 449.493 163.713 449.942 162.937 450.748L160.485 453.219V454ZM168.835 454.098C170.31 454.098 171.354 453.097 171.354 451.705C171.354 450.343 170.373 449.356 169.04 449.352C168.503 449.356 168.005 449.547 167.712 449.83H167.644L167.878 447.848H170.993V446.93H166.989L166.53 450.865H167.546C167.785 450.431 168.22 450.24 168.786 450.24C169.675 450.25 170.31 450.875 170.31 451.734C170.31 452.574 169.694 453.194 168.835 453.199C168.122 453.194 167.546 452.755 167.487 452.154H166.442C166.491 453.282 167.497 454.098 168.835 454.098Z" fill="#2D2926"/>
<path d="M395.142 413H397.847C399.497 413 400.239 412.18 400.239 411.096C400.239 410.002 399.478 409.387 398.774 409.348V409.279C399.424 409.113 399.966 408.669 399.966 407.785C399.966 406.735 399.238 405.93 397.729 405.93H395.142V413ZM396.216 412.082V409.826H397.788C398.638 409.826 399.175 410.368 399.175 411.047C399.175 411.633 398.765 412.077 397.749 412.082H396.216ZM396.216 408.986V406.848H397.661C398.506 406.848 398.911 407.287 398.911 407.873C398.911 408.552 398.354 408.981 397.642 408.986H396.216ZM403.979 405.93H402.925L401.167 407.082V408.107L402.856 407.004H402.896V413H403.979V405.93ZM408.462 405.93H407.407L405.649 407.082V408.107L407.339 407.004H407.378V413H408.462V405.93ZM410.259 413H415.015V412.082H411.753V412.023L413.188 410.568C414.517 409.265 414.888 408.635 414.897 407.844C414.888 406.696 413.945 405.832 412.583 405.832C411.235 405.832 410.249 406.687 410.259 407.98H411.274C411.279 407.229 411.777 406.73 412.563 406.73C413.306 406.73 413.872 407.175 413.872 407.873C413.872 408.493 413.486 408.942 412.71 409.748L410.259 412.219V413Z" fill="#2D2926"/>
<path d="M206.137 290H208.842C210.492 290 211.234 289.18 211.234 288.096C211.234 287.002 210.473 286.387 209.77 286.348V286.279C210.419 286.113 210.961 285.669 210.961 284.785C210.961 283.735 210.233 282.93 208.725 282.93H206.137V290ZM207.211 289.082V286.826H208.783C209.633 286.826 210.17 287.368 210.17 288.047C210.17 288.633 209.76 289.077 208.744 289.082H207.211ZM207.211 285.986V283.848H208.656C209.501 283.848 209.906 284.287 209.906 284.873C209.906 285.552 209.35 285.981 208.637 285.986H207.211ZM214.975 282.93H213.92L212.162 284.082V285.107L213.852 284.004H213.891V290H214.975V282.93ZM219.232 290.098C220.868 290.098 221.825 288.779 221.83 286.465C221.825 284.165 220.854 282.832 219.232 282.832C217.606 282.832 216.635 284.165 216.635 286.465C216.635 288.779 217.597 290.098 219.232 290.098ZM217.709 286.465C217.709 284.707 218.28 283.745 219.232 283.74C220.18 283.745 220.756 284.707 220.756 286.465C220.756 288.228 220.185 289.17 219.232 289.17C218.275 289.17 217.704 288.228 217.709 286.465ZM222.992 290H224.115L227.26 283.887V282.93H222.504V283.848H226.146V283.906L222.992 290ZM231.479 286.016H228.344V286.914H231.479V286.016ZM235.414 282.93H234.359L232.602 284.082V285.107L234.291 284.004H234.33V290H235.414V282.93Z" fill="#2D2926"/>
<path d="M70 272.863V275.568C70 277.219 70.8203 277.961 71.9043 277.961C72.998 277.961 73.6133 277.199 73.6523 276.496H73.7207C73.8867 277.146 74.3311 277.688 75.2148 277.688C76.2646 277.688 77.0703 276.96 77.0703 275.451V272.863H70ZM70.918 273.938H73.1738V275.51C73.1738 276.359 72.6318 276.896 71.9531 276.896C71.3672 276.896 70.9229 276.486 70.918 275.471V273.938ZM74.0137 273.938H76.1523V275.383C76.1523 276.228 75.7129 276.633 75.127 276.633C74.4482 276.633 74.0186 276.076 74.0137 275.363V273.938ZM77.0703 281.701V280.646L75.918 278.889H74.8926L75.9961 280.578V280.617H70V281.701H77.0703ZM69.9023 285.959C69.9023 287.595 71.2207 288.552 73.5352 288.557C75.835 288.552 77.168 287.58 77.168 285.959C77.168 284.333 75.835 283.361 73.5352 283.361C71.2207 283.361 69.9023 284.323 69.9023 285.959ZM73.5352 284.436C75.293 284.436 76.2549 285.007 76.2598 285.959C76.2549 286.906 75.293 287.482 73.5352 287.482C71.7725 287.482 70.8301 286.911 70.8301 285.959C70.8301 285.002 71.7725 284.431 73.5352 284.436ZM70 289.67V294.426H70.918V291.164H70.9766L72.4316 292.6C73.7354 293.928 74.3652 294.299 75.1562 294.309C76.3037 294.299 77.168 293.356 77.168 291.994C77.168 290.646 76.3135 289.66 75.0195 289.67V290.686C75.7715 290.69 76.2695 291.188 76.2695 291.975C76.2695 292.717 75.8252 293.283 75.127 293.283C74.5068 293.283 74.0576 292.897 73.252 292.121L70.7812 289.67H70ZM73.9844 298.752V295.617H73.0859V298.752H73.9844ZM77.0703 302.688V301.633L75.918 299.875H74.8926L75.9961 301.564V301.604H70V302.688H77.0703Z" fill="#2D2926"/>
<path d="M166.738 209H169.443C171.094 209 171.836 208.18 171.836 207.096C171.836 206.002 171.074 205.387 170.371 205.348V205.279C171.021 205.113 171.562 204.669 171.562 203.785C171.562 202.735 170.835 201.93 169.326 201.93H166.738V209ZM167.812 208.082V205.826H169.385C170.234 205.826 170.771 206.368 170.771 207.047C170.771 207.633 170.361 208.077 169.346 208.082H167.812ZM167.812 204.986V202.848H169.258C170.103 202.848 170.508 203.287 170.508 203.873C170.508 204.552 169.951 204.981 169.238 204.986H167.812ZM175.576 201.93H174.521L172.764 203.082V204.107L174.453 203.004H174.492V209H175.576V201.93ZM179.834 209.098C181.47 209.098 182.427 207.779 182.432 205.465C182.427 203.165 181.455 201.832 179.834 201.832C178.208 201.832 177.236 203.165 177.236 205.465C177.236 207.779 178.198 209.098 179.834 209.098ZM178.311 205.465C178.311 203.707 178.882 202.745 179.834 202.74C180.781 202.745 181.357 203.707 181.357 205.465C181.357 207.228 180.786 208.17 179.834 208.17C178.877 208.17 178.306 207.228 178.311 205.465ZM185.947 209.098C187.422 209.098 188.467 208.097 188.467 206.705C188.467 205.343 187.485 204.356 186.152 204.352C185.615 204.356 185.117 204.547 184.824 204.83H184.756L184.99 202.848H188.105V201.93H184.102L183.643 205.865H184.658C184.897 205.431 185.332 205.24 185.898 205.24C186.787 205.25 187.422 205.875 187.422 206.734C187.422 207.574 186.807 208.194 185.947 208.199C185.234 208.194 184.658 207.755 184.6 207.154H183.555C183.604 208.282 184.609 209.098 185.947 209.098Z" fill="#2D2926"/>
<path d="M269.155 209H271.86C273.511 209 274.253 208.18 274.253 207.096C274.253 206.002 273.491 205.387 272.788 205.348V205.279C273.438 205.113 273.979 204.669 273.979 203.785C273.979 202.735 273.252 201.93 271.743 201.93H269.155V209ZM270.229 208.082V205.826H271.802C272.651 205.826 273.188 206.368 273.188 207.047C273.188 207.633 272.778 208.077 271.763 208.082H270.229ZM270.229 204.986V202.848H271.675C272.52 202.848 272.925 203.287 272.925 203.873C272.925 204.552 272.368 204.981 271.655 204.986H270.229ZM277.993 201.93H276.938L275.181 203.082V204.107L276.87 203.004H276.909V209H277.993V201.93ZM282.251 209.098C283.887 209.098 284.844 207.779 284.849 205.465C284.844 203.165 283.872 201.832 282.251 201.832C280.625 201.832 279.653 203.165 279.653 205.465C279.653 207.779 280.615 209.098 282.251 209.098ZM280.728 205.465C280.728 203.707 281.299 202.745 282.251 202.74C283.198 202.745 283.774 203.707 283.774 205.465C283.774 207.228 283.203 208.17 282.251 208.17C281.294 208.17 280.723 207.228 280.728 205.465ZM288.521 209.098C290.039 209.107 291.05 208.058 291.05 206.686C291.05 205.333 290.034 204.366 288.774 204.361C288.008 204.366 287.344 204.718 286.958 205.318H286.88C286.88 203.722 287.515 202.774 288.608 202.77C289.321 202.774 289.775 203.189 289.917 203.766H290.981C290.815 202.643 289.912 201.832 288.608 201.832C286.914 201.832 285.85 203.238 285.845 205.699C285.845 208.312 287.212 209.088 288.521 209.098ZM287.007 206.715C287.017 205.929 287.676 205.235 288.54 205.24C289.39 205.235 290.005 205.895 290.005 206.705C290.005 207.53 289.365 208.194 288.511 208.199C287.642 208.194 287.012 207.501 287.007 206.715Z" fill="#2D2926"/>
<g clip-path="url(#clip0_13_4474)">
<path d="M650.85 44.55H660.45V46.55C657.1 46.99 654.22 49.09 654.22 51.63C654.22 54.47 657.84 56.77 661.69 56.77H662.6C666.45 56.77 670.07 54.47 670.07 51.63C670.07 49.14 667.31 47.06 664.07 46.58V44.55H673.71V42.1H650.85V44.55ZM666.58 51.67C666.58 53.24 664.27 54.32 662.15 54.32C660.03 54.32 657.71 53.24 657.71 51.67C657.71 50.1 660.02 49 662.15 49C664.28 49 666.58 50.08 666.58 51.67Z" fill="#5A5B5D"/>
<path d="M693.77 43.59L696.94 43.55V34.59H693.77V43.59Z" fill="#5A5B5D"/>
<path d="M678.95 47H693.77V48.45H678.95V53C678.928 53.2531 678.958 53.5081 679.039 53.7489C679.12 53.9898 679.25 54.2114 679.42 54.4C679.832 54.6951 680.335 54.8366 680.84 54.8H696.94V52.33H682.26V50.82H696.94V44.59H678.94L678.95 47Z" fill="#5A5B5D"/>
<path d="M745.33 34.59H742.15V45.53H745.31L745.33 40.37H748.52V37.87H745.33V34.59Z" fill="#5A5B5D"/>
<path d="M726.7 49H742.15V54.86L745.33 54.87V46.51H726.7V49Z" fill="#5A5B5D"/>
<path d="M725.8 40.19C725.797 40.9038 725.97 41.6074 726.303 42.2387C726.636 42.87 727.119 43.4096 727.71 43.81C728.964 44.7281 730.487 45.203 732.04 45.16C733.567 45.2111 735.064 44.7343 736.28 43.81C736.864 43.4051 737.339 42.8635 737.665 42.2325C737.991 41.6015 738.158 40.9002 738.15 40.19C738.142 39.7426 738.047 39.3011 737.87 38.89C737.672 38.4803 737.408 38.1054 737.09 37.78H739.6V35.38H733.6V33.44H730.18V35.38H724.11V37.78H726.84C726.501 38.0939 726.225 38.4709 726.03 38.89C725.866 39.3031 725.787 39.7455 725.8 40.19V40.19ZM729.8 38.49C730.413 38.0196 731.167 37.7695 731.94 37.78C732.7 37.7715 733.441 38.0219 734.04 38.49C734.328 38.6954 734.563 38.9651 734.728 39.2776C734.893 39.5901 734.983 39.9367 734.99 40.29C734.979 40.6314 734.887 40.9653 734.722 41.2643C734.557 41.5633 734.323 41.8188 734.04 42.01C733.454 42.5061 732.708 42.7726 731.94 42.76C731.16 42.775 730.4 42.5088 729.8 42.01C729.526 41.8128 729.301 41.555 729.143 41.2566C728.986 40.9583 728.899 40.6274 728.89 40.29C728.9 39.9373 728.991 39.5918 729.156 39.2797C729.321 38.9677 729.555 38.6976 729.84 38.49H729.8Z" fill="#5A5B5D"/>
<path d="M718.78 41.06H716.09V34.59H713.16V54.91L716.09 54.88V43.56H718.78V54.91L721.8 54.88V34.59H718.78V41.06Z" fill="#5A5B5D"/>
<path d="M704.2 37.08H710.71V34.59H701.01V48C700.989 48.243 701.033 48.4873 701.139 48.7072C701.244 48.9271 701.407 49.1146 701.61 49.25C702.046 49.4793 702.539 49.5799 703.03 49.54H711.16V47.04H704.16L704.2 37.08Z" fill="#5A5B5D"/>
<path d="M764.99 49.18L768.17 49.16L768.18 34.59H750.51V37.08H764.99V49.18Z" fill="#5A5B5D"/>
<path d="M761.87 51.29V42.94H758.73V51.29H756.01V42.94H752.89V51.29H749.05V53.78H770V51.29H761.87Z" fill="#5A5B5D"/>
<path d="M657.5 39.93C659.287 39.5946 660.937 38.7469 662.25 37.49C663.542 38.7507 665.183 39.5939 666.96 39.91C668.711 40.3625 670.504 40.6306 672.31 40.71L672.87 38.17C670.822 38.1222 668.795 37.7406 666.87 37.04C665.11 36.39 663.87 35.3 663.87 34.35H660.57C660.57 35.2 659.34 36.35 657.57 37.04C655.651 37.7655 653.621 38.1545 651.57 38.19V38.19L652.13 40.68C653.942 40.6281 655.743 40.3766 657.5 39.93V39.93Z" fill="#5A5B5D"/>
<path d="M683.86 39.43C684.686 40.5424 685.757 41.4493 686.99 42.08C688.35 42.6789 689.787 43.0829 691.26 43.28L691.88 40.75C689.855 40.5338 687.968 39.622 686.54 38.17C685.815 37.1339 685.462 35.8824 685.54 34.62H682.13C682.198 35.8981 681.82 37.16 681.06 38.19C679.63 39.6457 677.739 40.5609 675.71 40.78V40.78L676.31 43.25C677.735 43.0374 679.127 42.6407 680.45 42.07C681.787 41.485 682.959 40.578 683.86 39.43V39.43Z" fill="#5A5B5D"/>
<path d="M590.61 63.55H581.49C581.59 63.55 581.93 63.11 582.01 63.02C582.19 62.8244 582.357 62.6173 582.51 62.4C582.903 61.8649 583.217 61.2754 583.44 60.65C584.229 58.5312 584.175 56.1904 583.29 54.11C582.27 52.2488 581.141 50.4491 579.91 48.72C578.145 46.0992 577.252 42.988 577.36 39.83C577.558 37.694 578.418 35.6732 579.82 34.05H588.6C587.411 35.2032 586.564 36.662 586.151 38.2658C585.738 39.8696 585.776 41.5562 586.26 43.14C586.869 44.964 587.76 46.6815 588.9 48.23C589.957 49.7249 590.897 51.2996 591.71 52.94C592.61 54.9815 592.868 57.2484 592.45 59.44C592.249 60.4888 591.888 61.5005 591.38 62.44C591.25 62.61 590.81 63.55 590.61 63.55Z" fill="#00A3C9"/>
<path d="M595.71 54.94H610.8V30H590.89C590.034 30.8616 589.419 31.9335 589.109 33.1079C588.798 34.2822 588.802 35.5176 589.12 36.69C589.64 38.82 591.18 40.69 592.55 42.55C594.73 45.44 597.11 48.7 596.44 52.55C596.327 53.3808 596.081 54.1879 595.71 54.94V54.94Z" fill="#5AC5C4"/>
<path d="M561.71 30V54.94H576.6C577.204 53.4591 577.204 51.8009 576.6 50.32C575.16 46.8 572.82 44.9 571.52 41.84C570.27 38.93 570.13 36.28 571.19 32.46C571.472 31.62 571.806 30.7984 572.19 30L561.71 30Z" fill="#00678F"/>
<path d="M641.37 30H629.01V49.78C629.01 49.88 629.01 50.36 629.01 50.85C628.88 53.95 628.15 54.57 627.38 54.94H641.38L641.37 30Z" fill="#00A3C9"/>
<path d="M614.17 34.08V59.2C614.211 60.2496 614.654 61.2434 615.407 61.9754C616.16 62.7073 617.167 63.1214 618.217 63.1316C619.267 63.1419 620.281 62.7477 621.049 62.0306C621.817 61.3136 622.279 60.3286 622.34 59.28V34.08H614.17Z" fill="#00678F"/>
</g>
<path d="M630.125 188.55H672.125C691.875 188.55 703.875 177.8 703.875 163.05C703.875 150.113 694.438 141.8 683 141.425V140.55C693.312 138.425 700.312 130.8 700.375 120.8C700.312 106.988 689.5 98.05 668.875 98.05H630.125V188.55ZM653.875 169.425V149.675H666.375C674 149.675 678.75 153.488 678.75 160.05C678.75 166.175 674.562 169.488 666 169.425H653.875ZM653.875 134.8V116.8H664.875C671.312 116.8 675.875 120.05 675.875 125.8C675.875 131.55 671.188 134.8 664.5 134.8H653.875ZM756.75 98.05H734.75L712.375 111.675V132.05L732.375 120.05H732.875V188.55H756.75V98.05Z" fill="#2D2926"/>
<path d="M632.809 205.745H626.375V202.511H621.91V205.745H615.02V209.296H632.809V205.745ZM616.602 216.363C616.566 219.948 619.678 222.321 624.09 222.304C628.484 222.321 631.648 219.948 631.684 216.363C631.648 212.812 628.484 210.368 624.09 210.351C619.678 210.368 616.566 212.812 616.602 216.363ZM620.012 229.195C619.994 232.675 624.213 234.802 631.051 234.784C637.854 234.802 642.072 232.675 642.09 229.195C642.072 225.644 637.854 223.552 631.051 223.57C624.213 223.552 619.994 225.644 620.012 229.195ZM620.785 216.363C620.768 214.657 622.068 213.708 624.09 213.691C626.094 213.708 627.5 214.657 627.5 216.363C627.5 218.085 626.094 218.999 624.09 218.999C622.068 218.999 620.768 218.085 620.785 216.363ZM624.723 229.195C624.723 227.665 626.955 226.98 631.051 226.945C635.059 226.98 637.273 227.665 637.273 229.195C637.273 230.654 635.059 231.409 631.051 231.409C626.955 231.409 624.723 230.654 624.723 229.195ZM633.09 219.808H637.449V223.183H641.914V202.792H637.449V209.823H633.16V213.409H637.449V216.222H633.09V219.808ZM671.445 202.827H666.945V220.863H671.445V213.234H675.77V209.577H671.445V202.827ZM647.363 219.14H650.105C654.623 219.14 659.598 218.859 664.871 217.804L664.344 214.148C659.914 215.009 655.748 215.378 651.863 215.466V204.339H647.363V219.14ZM650.492 234.398H671.445V222.304H650.492V234.398ZM654.887 230.882V225.784H667.051V230.882H654.887ZM691.59 222.726C684.646 222.726 680.182 224.941 680.199 228.773C680.182 232.552 684.646 234.802 691.59 234.784C698.586 234.802 702.98 232.552 703.016 228.773C702.98 224.941 698.586 222.726 691.59 222.726ZM677.246 220.687H706.285V217.066H692.574V211.476H688.145V217.066H677.246V220.687ZM680.516 207.749H698.375C698.34 209.929 698.252 212.091 697.531 214.991L701.926 215.413C702.857 212.126 702.857 209.384 702.84 206.835V204.234H680.516V207.749ZM684.664 228.773C684.646 226.997 687.178 226.048 691.59 226.066C696.002 226.048 698.551 226.997 698.551 228.773C698.551 230.495 696.002 231.374 691.59 231.374C687.178 231.374 684.646 230.495 684.664 228.773ZM727.273 205.64H720.031V202.616H715.566V205.64H708.289V209.191H727.273V205.64ZM709.836 216.116C709.836 219.632 713.141 222.005 717.781 222.023C722.439 222.005 725.656 219.632 725.656 216.116C725.656 212.601 722.439 210.228 717.781 210.21C713.141 210.228 709.836 212.601 709.836 216.116ZM712.121 227.788H729.172V234.784H733.672V224.202H712.121V227.788ZM714.23 216.116C714.213 214.464 715.637 213.585 717.781 213.585C719.943 213.585 721.402 214.464 721.402 216.116C721.402 217.751 719.943 218.595 717.781 218.577C715.637 218.595 714.213 217.751 714.23 216.116ZM729.172 222.866H733.672V214.745H737.996V211.089H733.672V202.792H729.172V222.866ZM757.332 205.113H740.879V208.769H752.955C752.92 210.685 752.779 213.023 752.199 216.081L756.594 216.503C757.332 212.53 757.332 209.331 757.332 207.116V205.113ZM738.98 218.823L739.367 222.409C744.939 222.392 752.428 222.269 759.09 221.038L758.844 217.804C755.838 218.243 752.586 218.489 749.387 218.63V212.495H744.922V218.771C742.795 218.823 740.773 218.823 738.98 218.823ZM743.691 234.222H766.156V230.636H748.191V224.589H743.691V234.222ZM760.566 226.734H765.172V216.292H769.039V212.53H765.172V202.792H760.566V226.734Z" fill="#2D2926"/>
<path d="M508.012 254.55H509.516V250.23H514.438V254.55H515.941V244.652H514.438V248.945H509.516V244.652H508.012V254.55ZM518.744 257.339C519.968 257.332 520.72 256.71 521.15 255.534L524.213 247.126H522.641L520.768 252.882H520.686L518.812 247.126H517.254L519.975 254.646L519.797 255.138C519.448 256.074 519.072 256.102 518.621 256.109C518.416 256.102 518.129 256.095 517.965 256.081V257.298C518.149 257.325 518.443 257.332 518.744 257.339ZM530.119 251.46C530.119 252.725 529.183 253.32 528.369 253.32C527.48 253.32 526.865 252.677 526.865 251.665V247.126H525.402V251.843C525.402 253.682 526.414 254.646 527.85 254.646C528.964 254.646 529.723 254.058 530.064 253.265H530.146V254.55H531.568V247.126H530.119V251.46ZM534.809 250.148C534.809 248.965 535.526 248.288 536.531 248.288C537.516 248.288 538.097 248.931 538.104 250.011V254.55H539.553V249.833C539.56 247.994 538.548 247.03 537.023 247.03C535.916 247.03 535.185 247.543 534.836 248.343H534.754V247.126H533.346V254.55H534.809V250.148ZM544.447 257.489C546.361 257.489 547.804 256.621 547.797 254.714V247.126H546.375V248.329H546.279C546.006 247.864 545.5 247.03 544.119 247.03C542.335 247.03 541.002 248.391 541.002 250.763C541.002 253.135 542.355 254.441 544.105 254.441C545.473 254.441 546.006 253.675 546.266 253.196H546.361V254.659C546.354 255.815 545.623 256.321 544.461 256.314C543.497 256.321 542.841 255.979 542.697 255.275H541.207C541.337 256.662 542.574 257.489 544.447 257.489ZM542.492 250.79C542.485 249.368 543.142 248.268 544.434 248.275C545.691 248.268 546.375 249.286 546.375 250.79C546.375 252.321 545.678 253.231 544.434 253.238C543.155 253.231 542.485 252.246 542.492 250.79ZM551.037 250.148C551.037 248.965 551.755 248.288 552.76 248.288C553.744 248.288 554.325 248.931 554.332 250.011V254.55H555.781V249.833C555.788 247.994 554.776 247.03 553.252 247.03C552.145 247.03 551.413 247.543 551.064 248.343H550.982V247.126H549.574V254.55H551.037V250.148ZM557.217 252.458C557.21 253.907 558.311 254.714 559.719 254.714C560.949 254.714 561.633 254.092 561.92 253.538H561.975V254.55H563.396V249.614C563.39 247.461 561.667 247.03 560.484 247.03C558.728 247.03 557.579 247.919 557.449 249.15H558.898C559.049 248.603 559.568 248.206 560.43 248.206C561.421 248.206 561.94 248.692 561.934 249.532L561.94 250.127C561.599 250.141 560.484 250.202 559.992 250.23C558.652 250.325 557.21 250.763 557.217 252.458ZM558.639 252.472C558.639 251.74 559.24 251.378 560.197 251.31C560.546 251.289 561.605 251.214 561.94 251.194L561.947 251.87C561.947 252.752 561.236 253.545 560.047 253.552C559.227 253.545 558.639 253.183 558.639 252.472ZM565.16 254.55H566.623V249.97C566.623 248.972 567.32 248.288 568.141 248.288C568.94 248.288 569.494 248.815 569.494 249.628V254.55H570.943V249.82C570.943 248.931 571.483 248.288 572.42 248.288C573.186 248.288 573.814 248.705 573.814 249.71V254.55H575.277V249.573C575.271 247.871 574.32 247.03 572.98 247.03C571.907 247.03 571.101 247.543 570.752 248.343H570.67C570.355 247.516 569.665 247.03 568.674 247.03C567.696 247.03 566.965 247.516 566.65 248.343H566.568V247.126H565.16V254.55ZM580.582 244.652V254.55H582.018V247.386H582.1L585.012 254.536H586.201L589.1 247.4H589.195V254.55H590.631V244.652H588.799L585.668 252.321H585.545L582.414 244.652H580.582ZM595.73 254.7C597.364 254.7 598.506 253.894 598.834 252.691H597.357C597.111 253.142 596.571 253.497 595.744 253.497C594.527 253.497 593.693 252.697 593.652 251.282H598.93V250.763C598.93 248.076 597.323 247.03 595.635 247.03C593.563 247.03 592.196 248.603 592.203 250.886C592.196 253.19 593.543 254.7 595.73 254.7ZM593.659 250.189C593.721 249.143 594.479 248.227 595.648 248.234C596.763 248.227 597.494 249.061 597.494 250.189H593.659ZM600.379 254.55H601.842V249.97C601.842 248.972 602.539 248.288 603.359 248.288C604.159 248.288 604.713 248.815 604.713 249.628V254.55H606.162V249.82C606.162 248.931 606.702 248.288 607.639 248.288C608.404 248.288 609.033 248.705 609.033 249.71V254.55H610.496V249.573C610.489 247.871 609.539 247.03 608.199 247.03C607.126 247.03 606.319 247.543 605.971 248.343H605.889C605.574 247.516 604.884 247.03 603.893 247.03C602.915 247.03 602.184 247.516 601.869 248.343H601.787V247.126H600.379V254.55ZM615.404 254.7C617.496 254.7 618.863 253.169 618.863 250.872C618.863 248.562 617.496 247.03 615.404 247.03C613.299 247.03 611.925 248.562 611.932 250.872C611.925 253.169 613.299 254.7 615.404 254.7ZM613.395 250.872C613.395 249.45 614.044 248.24 615.404 248.234C616.744 248.24 617.387 249.45 617.387 250.872C617.387 252.287 616.744 253.484 615.404 253.484C614.044 253.484 613.395 252.287 613.395 250.872ZM620.299 254.55H621.762V250.025C621.762 249.054 622.514 248.35 623.525 248.357C623.826 248.35 624.168 248.411 624.291 248.439V247.044C624.141 247.03 623.854 247.01 623.676 247.017C622.808 247.01 622.062 247.509 621.789 248.302H621.707V247.126H620.299V254.55ZM625.385 254.55H626.848V247.126H625.385V254.55ZM625.193 245.116C625.2 245.595 625.617 245.985 626.123 245.978C626.622 245.985 627.039 245.595 627.039 245.116C627.039 244.638 626.622 244.255 626.123 244.255C625.617 244.255 625.2 244.638 625.193 245.116ZM628.283 252.458C628.276 253.907 629.377 254.714 630.785 254.714C632.016 254.714 632.699 254.092 632.986 253.538H633.041V254.55H634.463V249.614C634.456 247.461 632.733 247.03 631.551 247.03C629.794 247.03 628.646 247.919 628.516 249.15H629.965C630.115 248.603 630.635 248.206 631.496 248.206C632.487 248.206 633.007 248.692 633 249.532L633.007 250.127C632.665 250.141 631.551 250.202 631.059 250.23C629.719 250.325 628.276 250.763 628.283 252.458ZM629.705 252.472C629.705 251.74 630.307 251.378 631.264 251.31C631.612 251.289 632.672 251.214 633.007 251.194L633.014 251.87C633.014 252.752 632.303 253.545 631.113 253.552C630.293 253.545 629.705 253.183 629.705 252.472ZM637.689 244.652H636.227V254.55H637.689V244.652ZM643.008 254.55H649.27V253.251H644.512V250.23H648.887V248.945H644.512V245.95H649.215V244.652H643.008V254.55ZM652.4 250.148C652.4 248.965 653.118 248.288 654.123 248.288C655.107 248.288 655.688 248.931 655.695 250.011V254.55H657.145V249.833C657.151 247.994 656.14 247.03 654.615 247.03C653.508 247.03 652.776 247.543 652.428 248.343H652.346V247.126H650.938V254.55H652.4V250.148ZM662.039 257.489C663.953 257.489 665.396 256.621 665.389 254.714V247.126H663.967V248.329H663.871C663.598 247.864 663.092 247.03 661.711 247.03C659.927 247.03 658.594 248.391 658.594 250.763C658.594 253.135 659.947 254.441 661.697 254.441C663.064 254.441 663.598 253.675 663.857 253.196H663.953V254.659C663.946 255.815 663.215 256.321 662.053 256.314C661.089 256.321 660.433 255.979 660.289 255.275H658.799C658.929 256.662 660.166 257.489 662.039 257.489ZM660.084 250.79C660.077 249.368 660.733 248.268 662.025 248.275C663.283 248.268 663.967 249.286 663.967 250.79C663.967 252.321 663.27 253.231 662.025 253.238C660.747 253.231 660.077 252.246 660.084 250.79ZM667.166 254.55H668.629V247.126H667.166V254.55ZM666.975 245.116C666.981 245.595 667.398 245.985 667.904 245.978C668.403 245.985 668.82 245.595 668.82 245.116C668.82 244.638 668.403 244.255 667.904 244.255C667.398 244.255 666.981 244.638 666.975 245.116ZM671.869 250.148C671.869 248.965 672.587 248.288 673.592 248.288C674.576 248.288 675.157 248.931 675.164 250.011V254.55H676.613V249.833C676.62 247.994 675.608 247.03 674.084 247.03C672.977 247.03 672.245 247.543 671.896 248.343H671.814V247.126H670.406V254.55H671.869V250.148ZM681.59 254.7C683.224 254.7 684.365 253.894 684.693 252.691H683.217C682.971 253.142 682.431 253.497 681.604 253.497C680.387 253.497 679.553 252.697 679.512 251.282H684.789V250.763C684.789 248.076 683.183 247.03 681.494 247.03C679.423 247.03 678.056 248.603 678.062 250.886C678.056 253.19 679.402 254.7 681.59 254.7ZM679.519 250.189C679.58 249.143 680.339 248.227 681.508 248.234C682.622 248.227 683.354 249.061 683.354 250.189H679.519ZM686.238 254.55H687.701V250.025C687.701 249.054 688.453 248.35 689.465 248.357C689.766 248.35 690.107 248.411 690.23 248.439V247.044C690.08 247.03 689.793 247.01 689.615 247.017C688.747 247.01 688.002 247.509 687.729 248.302H687.646V247.126H686.238V254.55ZM691.324 254.55H692.787V250.025C692.787 249.054 693.539 248.35 694.551 248.357C694.852 248.35 695.193 248.411 695.316 248.439V247.044C695.166 247.03 694.879 247.01 694.701 247.017C693.833 247.01 693.088 247.509 692.814 248.302H692.732V247.126H691.324V254.55ZM696.41 254.55H697.873V247.126H696.41V254.55ZM696.219 245.116C696.226 245.595 696.643 245.985 697.148 245.978C697.647 245.985 698.064 245.595 698.064 245.116C698.064 244.638 697.647 244.255 697.148 244.255C696.643 244.255 696.226 244.638 696.219 245.116ZM701.113 250.148C701.113 248.965 701.831 248.288 702.836 248.288C703.82 248.288 704.401 248.931 704.408 250.011V254.55H705.857V249.833C705.864 247.994 704.853 247.03 703.328 247.03C702.221 247.03 701.489 247.543 701.141 248.343H701.059V247.126H699.65V254.55H701.113V250.148ZM710.752 257.489C712.666 257.489 714.108 256.621 714.102 254.714V247.126H712.68V248.329H712.584C712.311 247.864 711.805 247.03 710.424 247.03C708.64 247.03 707.307 248.391 707.307 250.763C707.307 253.135 708.66 254.441 710.41 254.441C711.777 254.441 712.311 253.675 712.57 253.196H712.666V254.659C712.659 255.815 711.928 256.321 710.766 256.314C709.802 256.321 709.146 255.979 709.002 255.275H707.512C707.642 256.662 708.879 257.489 710.752 257.489ZM708.797 250.79C708.79 249.368 709.446 248.268 710.738 248.275C711.996 248.268 712.68 249.286 712.68 250.79C712.68 252.321 711.982 253.231 710.738 253.238C709.46 253.231 708.79 252.246 708.797 250.79ZM719.42 254.55H723.207C725.518 254.55 726.557 253.402 726.557 251.884C726.557 250.353 725.49 249.491 724.506 249.437V249.341C725.415 249.109 726.174 248.487 726.174 247.249C726.174 245.779 725.155 244.652 723.043 244.652H719.42V254.55ZM720.924 253.265V250.107H723.125C724.314 250.107 725.066 250.865 725.066 251.816C725.066 252.636 724.492 253.258 723.07 253.265H720.924ZM720.924 248.931V245.937H722.947C724.13 245.937 724.697 246.552 724.697 247.372C724.697 248.322 723.918 248.924 722.92 248.931H720.924ZM732.764 251.46C732.764 252.725 731.827 253.32 731.014 253.32C730.125 253.32 729.51 252.677 729.51 251.665V247.126H728.047V251.843C728.047 253.682 729.059 254.646 730.494 254.646C731.608 254.646 732.367 254.058 732.709 253.265H732.791V254.55H734.213V247.126H732.764V251.46ZM735.99 254.55H737.453V247.126H735.99V254.55ZM735.799 245.116C735.806 245.595 736.223 245.985 736.729 245.978C737.228 245.985 737.645 245.595 737.645 245.116C737.645 244.638 737.228 244.255 736.729 244.255C736.223 244.255 735.806 244.638 735.799 245.116ZM740.693 244.652H739.23V254.55H740.693V244.652ZM745.246 254.7C746.6 254.694 747.133 253.873 747.406 253.388H747.516V254.55H748.938V244.652H747.475V248.329H747.406C747.14 247.864 746.641 247.03 745.26 247.03C743.476 247.03 742.143 248.439 742.143 250.859C742.143 253.251 743.455 254.694 745.246 254.7ZM743.633 250.831C743.626 249.368 744.282 248.268 745.574 248.275C746.832 248.268 747.516 249.286 747.516 250.831C747.516 252.39 746.818 253.449 745.574 253.456C744.296 253.449 743.626 252.321 743.633 250.831ZM750.838 254.55H752.301V247.126H750.838V254.55ZM750.646 245.116C750.653 245.595 751.07 245.985 751.576 245.978C752.075 245.985 752.492 245.595 752.492 245.116C752.492 244.638 752.075 244.255 751.576 244.255C751.07 244.255 750.653 244.638 750.646 245.116ZM755.541 250.148C755.541 248.965 756.259 248.288 757.264 248.288C758.248 248.288 758.829 248.931 758.836 250.011V254.55H760.285V249.833C760.292 247.994 759.28 247.03 757.756 247.03C756.648 247.03 755.917 247.543 755.568 248.343H755.486V247.126H754.078V254.55H755.541V250.148ZM765.18 257.489C767.094 257.489 768.536 256.621 768.529 254.714V247.126H767.107V248.329H767.012C766.738 247.864 766.232 247.03 764.852 247.03C763.067 247.03 761.734 248.391 761.734 250.763C761.734 253.135 763.088 254.441 764.838 254.441C766.205 254.441 766.738 253.675 766.998 253.196H767.094V254.659C767.087 255.815 766.355 256.321 765.193 256.314C764.229 256.321 763.573 255.979 763.43 255.275H761.939C762.069 256.662 763.307 257.489 765.18 257.489ZM763.225 250.79C763.218 249.368 763.874 248.268 765.166 248.275C766.424 248.268 767.107 249.286 767.107 250.79C767.107 252.321 766.41 253.231 765.166 253.238C763.888 253.231 763.218 252.246 763.225 250.79Z" fill="#2D2926"/>
<defs>
<clipPath id="clip0_13_4474">
<rect width="208.29" height="33.55" fill="white" transform="translate(561.71 30)"/>
</clipPath>
</defs>
</svg>
