<svg xmlns="http://www.w3.org/2000/svg" viewBox="0 0 729.2 485.79"><defs><style>.cls-1,.cls-2{fill:none;stroke:#221e1f;stroke-linecap:square;stroke-miterlimit:10;}.cls-1{stroke-width:5px;}.cls-2{stroke-width:2px;}.cls-3{fill:#221e1f;}</style></defs><g id="레이어_2" data-name="레이어 2"><g id="_1F" data-name="1F"><polygon class="cls-1" points="327.75 64.42 348.13 64.42 348.13 156.72 434.7 156.72 434.7 221.72 460.46 221.72 460.46 255.79 460.75 380.75 460.75 412.38 398.2 412.38 398.2 483.28 683.18 482.52 683.18 413.9 655.13 413.9 655.13 156.72 726.7 156.72 726.7 39.32 327.75 39.32 327.75 64.42"/><line class="cls-2" x1="655.02" y1="349.25" x2="528.31" y2="349.25"/><line class="cls-2" x1="655.13" y1="413.9" x2="528.19" y2="413.9"/><line class="cls-2" x1="528.2" y1="413.9" x2="528.31" y2="349.25"/><line class="cls-2" x1="460.46" y1="221.72" x2="499.35" y2="221.72"/><line class="cls-2" x1="499.35" y1="369.84" x2="499.35" y2="483.28"/><rect class="cls-2" x="539.36" y="413.9" width="26.65" height="45.67"/><rect class="cls-2" x="566.01" y="413.9" width="89.12" height="45.67"/><rect class="cls-2" x="655.13" y="413.9" width="28.06" height="68.61"/><line class="cls-2" x1="460.46" y1="369.84" x2="499.35" y2="369.84"/><line class="cls-2" x1="499.79" y1="221.72" x2="499.79" y2="264.88"/><line class="cls-2" x1="499.79" y1="264.88" x2="460.48" y2="264.88"/><line class="cls-2" x1="527.22" y1="221.72" x2="655.13" y2="221.72"/><line class="cls-2" x1="655.13" y1="156.51" x2="527.22" y2="156.51"/><line class="cls-2" x1="527.22" y1="39.32" x2="527.22" y2="156.51"/><line class="cls-2" x1="434.7" y1="156.72" x2="463.12" y2="156.51"/><line class="cls-2" x1="527.22" y1="221.72" x2="527.22" y2="176.35"/><line class="cls-2" x1="591.18" y1="156.51" x2="591.18" y2="221.72"/><line class="cls-2" x1="463.12" y1="156.51" x2="462.48" y2="39.32"/><line class="cls-2" x1="348.13" y1="69.07" x2="397.81" y2="68.78"/><line class="cls-2" x1="397.81" y1="68.78" x2="397.52" y2="39.32"/><line class="cls-2" x1="413.36" y1="39.32" x2="413.36" y2="68.78"/><line class="cls-2" x1="462.64" y1="68.78" x2="413.36" y2="68.78"/><line class="cls-2" x1="558.28" y1="221.72" x2="558.28" y2="170.41"/><line class="cls-2" x1="499.79" y1="264.88" x2="499.79" y2="297.48"/><line class="cls-2" x1="499.35" y1="369.84" x2="499.35" y2="333.12"/><line class="cls-2" x1="591.66" y1="349.25" x2="591.66" y2="413.9"/><line class="cls-2" x1="585.29" y1="413.9" x2="585.29" y2="431.03"/><line class="cls-2" x1="598.21" y1="431.03" x2="585.29" y2="431.03"/><line class="cls-2" x1="591.66" y1="431.03" x2="591.66" y2="446.3"/><line class="cls-2" x1="598.21" y1="459.57" x2="598.21" y2="446.3"/><line class="cls-2" x1="591.66" y1="446.3" x2="598.21" y2="446.3"/><line class="cls-2" x1="617.4" y1="413.9" x2="617.4" y2="459.57"/><line class="cls-2" x1="634.82" y1="413.9" x2="634.82" y2="459.57"/><line class="cls-2" x1="634.82" y1="447.28" x2="655.13" y2="447.28"/><line class="cls-2" x1="438.86" y1="412.65" x2="438.86" y2="483.17"/><line class="cls-2" x1="460.75" y1="412.38" x2="499.79" y2="412.65"/><path class="cls-3" d="M10.76,11.06v1.79c4.13.13,7.39,1,7.39,3.46,0,2.66-3.87,3.54-8.5,3.54S1.16,19,1.16,16.31c0-2.42,3.26-3.33,7.38-3.46V11.06H0V9.25H19.33v1.81ZM.7,7.7V5.82C4.44,5.69,8.61,3.4,9.36,0L11.6.39a7.13,7.13,0,0,1-.88,2.24l8,3.42L18,7.75,9.54,4.12A13,13,0,0,1,.7,7.7Zm9,6.89c-3.12,0-6.11.41-6.11,1.72s3,1.77,6.11,1.77,6.14-.43,6.14-1.77S12.78,14.59,9.65,14.59Z"/><path class="cls-3" d="M22.09,9.74v-2a7.09,7.09,0,0,0,6-7.12l2.24.14a8.88,8.88,0,0,1-.72,3.58l6.14,3.38-1.09,1.7-6-3.4A9.45,9.45,0,0,1,22.09,9.74Zm18.24,8v1.77H23.47V14.43H37.63V12.76H23.43V11H39.85v5.12H25.69v1.68Zm-.48-7.87H37.61V.45h2.24Z"/><path class="cls-3" d="M48.87,16.65a13,13,0,0,0,4.51-.74v2a13.25,13.25,0,0,1-4.76.77H44.18V1.16h8.36v2H46.38v13.5ZM62.19.45V19.8H60.06V10.36H56.91v9.1H54.78V.57h2.13V8.25h3.15V.45Z"/><path class="cls-3" d="M78.46,4H65.31V2.22h5.44V.11H73V2.22h5.44ZM66.15,8.79c0-2.33,2.52-3.74,5.74-3.74S77.6,6.46,77.6,8.79s-2.5,3.76-5.71,3.76S66.15,11.15,66.15,8.79Zm.39,5.05H82.9v6H80.63v-4H66.54Zm1.79-5.05c0,1.2,1.38,2.06,3.56,2.06s3.55-.86,3.55-2.06-1.4-2-3.55-2S68.33,7.61,68.33,8.79ZM85.62,7.55H82.9V12.8H80.65V.45H82.9V5.39h2.72Z"/><path class="cls-3" d="M106.5,16.81v2.07H87.18V16.81h3.76V9h2.24v7.77H97V9h2.26v7.77ZM103,3.22H88.33V1.13h16.93V13.91H103Z"/><path class="cls-3" d="M115.7,10.76v-2a6.12,6.12,0,0,0,5.46-5.87H116V1H128.3V2.88h-4.9A8.87,8.87,0,0,1,123,5.14l6,3.77-1.11,1.67-5.69-3.65A8.35,8.35,0,0,1,115.7,10.76Zm18,5.12c0,2.84-3.67,3.92-8.36,3.92S117,18.72,117,15.88,120.64,12,125.33,12,133.69,13.05,133.69,15.88Zm-2.38,0c0-1.42-2.65-2.08-6-2.08s-6,.66-6,2.08S122,18,125.33,18,131.31,17.31,131.31,15.88Zm0-11.78V.45h2.24V11.33h-2.24V6.05h-3.76V4.1Z"/><path class="cls-3" d="M156.44,16.77v2.11H137.11V16.77h8.5V12.42h-7.23V1h2.22V4.49h12.32V1h2.22v11.4h-7.25v4.35ZM140.6,10.4h12.32V6.5H140.6Z"/><path class="cls-3" d="M166.27,16.54a18.47,18.47,0,0,0,6.34-.81v2.1a18.36,18.36,0,0,1-6.32.82H158.9V16.54h3.38V8.34h2.26v8.2Zm2.15-13.25H159.6V1.2h11.08V13.53h-2.26Zm10.72,7h-2.68V19.8h-2.24V.45h2.24V8.11h2.68Z"/><path class="cls-3" d="M193.77,4H180.63V2.22h5.44V.11h2.26V2.22h5.44Zm-12.3,4.78c0-2.33,2.51-3.74,5.73-3.74s5.71,1.41,5.71,3.74-2.49,3.76-5.71,3.76S181.47,11.15,181.47,8.79Zm.38,5.05h16.36v6H196v-4h-14.1Zm1.79-5.05c0,1.2,1.38,2.06,3.56,2.06s3.56-.86,3.56-2.06-1.41-2-3.56-2S183.64,7.61,183.64,8.79Zm17.29-1.24h-2.72V12.8H196V.45h2.24V5.39h2.72Z"/><path class="cls-3" d="M209.79,11.94h-7.3V10h3.78V5.42h2.22V10h1.36a18.94,18.94,0,0,0,6.35-.75v1.92C215,11.74,212.55,11.94,209.79,11.94Zm2.31-9.22h-8.68V.77h10.92v7.5H212.1Zm-6,14.89h14.45v1.95H203.85V13.87h2.27Zm16.6-11.92v2.1h-2.67v7.37h-2.24V.45h2.24V5.69Z"/><path class="cls-3" d="M22.66,37.15H3.85V26.73h30.7v90.74H22.66Z"/><path class="cls-3" d="M123.13,26.73V37.38H71.59V68.31l46.56-.12V78.84H71.59v38.63H59.7V26.73Z"/><path class="cls-3" d="M352,49.56h-2V48.45h3.25v9.61H352Z"/><path class="cls-3" d="M355.53,53.25c0-3.36,1.52-5,3.55-5s3.54,1.66,3.54,5-1.53,5-3.54,5S355.53,56.61,355.53,53.25Zm5.87,0c0-2.6-1-3.91-2.32-3.91s-2.34,1.31-2.34,3.91,1,3.91,2.34,3.91S361.4,55.87,361.4,53.25Z"/><path class="cls-3" d="M365.76,49.56h-2V48.45H367v9.61h-1.26Z"/><path class="cls-3" d="M373.53,54h-4.2V52.92h4.2Z"/><path class="cls-3" d="M376.73,49.56h-2V48.45H378v9.61h-1.26Z"/><path class="cls-3" d="M425.46,49.56h-2V48.45h3.25v9.61h-1.26Z"/><path class="cls-3" d="M429,53.25c0-3.36,1.52-5,3.55-5s3.54,1.66,3.54,5-1.53,5-3.54,5S429,56.61,429,53.25Zm5.88,0c0-2.6-1-3.91-2.33-3.91s-2.34,1.31-2.34,3.91,1,3.91,2.34,3.91S434.85,55.87,434.85,53.25Z"/><path class="cls-3" d="M439.2,49.56h-2V48.45h3.25v9.61H439.2Z"/><path class="cls-3" d="M447,54h-4.2V52.92H447Z"/><path class="cls-3" d="M450.17,49.56h-2V48.45h3.25v9.61h-1.26Z"/><path class="cls-3" d="M398.86,106.34h-2v-1.1h3.25v9.6h-1.26Z"/><path class="cls-3" d="M402.37,110c0-3.35,1.52-5,3.55-5s3.53,1.67,3.53,5-1.52,5-3.53,5S402.37,113.39,402.37,110Zm5.87,0c0-2.6-1-3.91-2.32-3.91s-2.34,1.31-2.34,3.91,1,3.91,2.34,3.91S408.24,112.65,408.24,110Z"/><path class="cls-3" d="M412.6,106.34h-2v-1.1h3.25v9.6H412.6Z"/><path class="cls-3" d="M617.21,95.6h-2V94.5h3.25v9.61h-1.26Z"/><path class="cls-3" d="M620.72,99.3c0-3.36,1.52-5,3.55-5s3.54,1.67,3.54,5-1.52,5-3.54,5S620.72,102.66,620.72,99.3Zm5.88,0c0-2.61-1-3.91-2.33-3.91s-2.34,1.3-2.34,3.91,1,3.91,2.34,3.91S626.6,101.91,626.6,99.3Z"/><path class="cls-3" d="M629,103.29l3.41-3.42c1.22-1.23,1.7-2,1.7-2.7a1.74,1.74,0,0,0-2-1.78,1.94,1.94,0,0,0-2,2H628.9a3.1,3.1,0,0,1,3.27-3.17,2.89,2.89,0,0,1,3.2,2.89c0,1-.59,1.91-2,3.38L630.82,103h4.87v1.09H629Z"/><path class="cls-3" d="M536.74,185.56h-2v-1.11H538v9.61h-1.26Z"/><path class="cls-3" d="M542.16,185.56h-2v-1.11h3.25v9.61h-1.26Z"/><path class="cls-3" d="M545.57,191.35h1.25a1.92,1.92,0,0,0,2.16,1.83c1.34,0,2.14-.76,2.14-1.72s-.86-1.72-2.31-1.72h-1.06v-1h1.06c1.22,0,2.05-.7,2.05-1.69a1.79,1.79,0,0,0-2-1.71,1.89,1.89,0,0,0-2,1.94h-1.26a3,3,0,0,1,3.26-3c2,0,3.27,1.24,3.27,2.75a2.26,2.26,0,0,1-1.72,2.21,2.29,2.29,0,0,1,2,2.26c0,1.61-1.37,2.84-3.38,2.84A3.09,3.09,0,0,1,545.57,191.35Z"/><path class="cls-3" d="M567.59,185.56h-2v-1.11h3.25v9.61h-1.26Z"/><path class="cls-3" d="M573,185.56h-2v-1.11h3.25v9.61H573Z"/><path class="cls-3" d="M581.07,191.89h-4.85v-1.07l4.56-6.37h1.49v6.37h1.57v1.07h-1.57v2.17h-1.2Zm0-1.07v-5l-3.55,5Z"/><path class="cls-3" d="M612.75,185.56h-2v-1.11H614v9.61h-1.26Z"/><path class="cls-3" d="M616.26,189.25c0-3.36,1.52-5,3.55-5s3.54,1.67,3.54,5-1.53,5-3.54,5S616.26,192.61,616.26,189.25Zm5.88,0c0-2.6-1-3.91-2.33-3.91s-2.34,1.31-2.34,3.91,1,3.91,2.34,3.91S622.14,191.86,622.14,189.25Z"/><path class="cls-3" d="M624.48,191.35h1.25a1.92,1.92,0,0,0,2.15,1.83c1.35,0,2.15-.76,2.15-1.72s-.86-1.72-2.31-1.72h-1.06v-1h1.06c1.22,0,2-.7,2-1.69a1.8,1.8,0,0,0-2-1.71,1.89,1.89,0,0,0-2,1.94h-1.26a3,3,0,0,1,3.26-3c2,0,3.26,1.24,3.26,2.75a2.25,2.25,0,0,1-1.71,2.21,2.29,2.29,0,0,1,2,2.26c0,1.61-1.37,2.84-3.39,2.84A3.08,3.08,0,0,1,624.48,191.35Z"/><path class="cls-3" d="M466.5,239.79h-2v-1.11h3.25v9.61H466.5Z"/><path class="cls-3" d="M470,243.48c0-3.36,1.52-5,3.55-5s3.54,1.67,3.54,5-1.53,5-3.54,5S470,246.84,470,243.48Zm5.88,0c0-2.6-1-3.91-2.33-3.91s-2.34,1.31-2.34,3.91,1,3.91,2.34,3.91S475.89,246.09,475.89,243.48Z"/><path class="cls-3" d="M478.25,245.77a2.58,2.58,0,0,1,2-2.46,2.38,2.38,0,0,1-1.68-2.23,3.1,3.1,0,0,1,6.13,0,2.4,2.4,0,0,1-1.68,2.23,2.56,2.56,0,0,1,2,2.46c0,1.61-1.39,2.73-3.39,2.73S478.25,247.38,478.25,245.77Zm5.58-.07a2.22,2.22,0,0,0-4.35,0c0,1,.85,1.75,2.18,1.75S483.83,246.69,483.83,245.7Zm-.31-4.58a1.88,1.88,0,0,0-3.72,0,1.87,1.87,0,0,0,3.72,0Z"/><path class="cls-3" d="M490.47,244.22h-4.2v-1.08h4.2Z"/><path class="cls-3" d="M493.67,239.79h-2v-1.11h3.25v9.61h-1.26Z"/><path class="cls-3" d="M472,386.19h-2v-1.1h3.25v9.61H472Z"/><path class="cls-3" d="M475.49,389.89c0-3.36,1.53-5,3.55-5s3.54,1.67,3.54,5-1.52,5-3.54,5S475.49,393.25,475.49,389.89Zm5.88,0c0-2.61-1-3.91-2.33-3.91s-2.33,1.3-2.33,3.91,1,3.91,2.33,3.91S481.37,392.5,481.37,389.89Z"/><path class="cls-3" d="M483.74,392.18a2.56,2.56,0,0,1,2-2.46,2.4,2.4,0,0,1-1.68-2.23,3.1,3.1,0,0,1,6.13,0,2.38,2.38,0,0,1-1.68,2.23,2.55,2.55,0,0,1,2,2.46c0,1.6-1.39,2.73-3.4,2.73S483.74,393.78,483.74,392.18Zm5.57-.07a2.22,2.22,0,0,0-4.35,0c0,1,.85,1.75,2.18,1.75S489.31,393.1,489.31,392.11Zm-.31-4.59a1.69,1.69,0,0,0-1.86-1.6,1.66,1.66,0,0,0-1.85,1.58,1.87,1.87,0,0,0,3.71,0Z"/><path class="cls-3" d="M552.4,377.35h-2v-1.1h3.25v9.6H552.4Z"/><path class="cls-3" d="M555.9,381c0-3.35,1.52-5,3.55-5s3.54,1.67,3.54,5-1.52,5-3.54,5S555.9,384.4,555.9,381Zm5.88,0c0-2.6-1-3.91-2.33-3.91s-2.34,1.31-2.34,3.91,1,3.91,2.34,3.91S561.78,383.66,561.78,381Z"/><path class="cls-3" d="M568.76,383.68h-4.84v-1.07l4.55-6.36H570v6.36h1.57v1.07H570v2.17h-1.2Zm0-1.07v-5l-3.55,5Z"/><path class="cls-3" d="M614.43,377.35h-2v-1.1h3.25v9.6h-1.26Z"/><path class="cls-3" d="M617.94,381c0-3.35,1.52-5,3.55-5s3.53,1.67,3.53,5-1.52,5-3.53,5S617.94,384.4,617.94,381Zm5.87,0c0-2.6-1-3.91-2.32-3.91s-2.34,1.31-2.34,3.91,1,3.91,2.34,3.91S623.81,383.66,623.81,381Z"/><path class="cls-3" d="M626.16,383.14h1.24a1.93,1.93,0,0,0,2.15,1.84,2.17,2.17,0,0,0,0-4.34,2.13,2.13,0,0,0-2,1.13h-1.23l.27-5.52h5.83v1.09h-4.67l-.17,3.14a2.72,2.72,0,0,1,2.17-.92,3.06,3.06,0,0,1,3.16,3.22,3.2,3.2,0,0,1-3.39,3.29A3.08,3.08,0,0,1,626.16,383.14Z"/><path class="cls-3" d="M411.39,441.91h-2v-1.1h3.25v9.61h-1.26Z"/><path class="cls-3" d="M414.9,445.61c0-3.36,1.52-5,3.55-5s3.54,1.67,3.54,5-1.53,5-3.54,5S414.9,449,414.9,445.61Zm5.88,0c0-2.6-1-3.91-2.33-3.91s-2.34,1.31-2.34,3.91,1,3.91,2.34,3.91S420.78,448.22,420.78,445.61Z"/><path class="cls-3" d="M427.75,441.91h-5.13v-1.1h6.58v.84l-4,8.77h-1.33Z"/><path class="cls-3" d="M460.42,441.91h-2v-1.1h3.25v9.61h-1.26Z"/><path class="cls-3" d="M463.93,445.61c0-3.36,1.52-5,3.55-5s3.54,1.67,3.54,5-1.52,5-3.54,5S463.93,449,463.93,445.61Zm5.88,0c0-2.6-1-3.91-2.33-3.91s-2.34,1.31-2.34,3.91,1,3.91,2.34,3.91S469.81,448.22,469.81,445.61Z"/><path class="cls-3" d="M475.74,444.11a3.21,3.21,0,0,1,3.38,3.24,3.49,3.49,0,0,1-7,0,4.54,4.54,0,0,1,.93-2.64l2.61-3.9h1.44l-2.43,3.53A2.54,2.54,0,0,1,475.74,444.11Zm2.14,3.25a2.12,2.12,0,0,0-2.24-2.2,2.19,2.19,0,1,0,0,4.38A2.12,2.12,0,0,0,477.88,447.36Z"/><path class="cls-3" d="M549.09,432v1.11h-5.57v3h5.15v1.12h-5.15v3.24h5.68v1.11h-6.94V432Z"/><path class="cls-3" d="M550.16,442.38l4.39-11.22h1.25l-4.39,11.22Z"/><path class="cls-3" d="M558.46,440.43h5.28v1.14H557.2V432h1.26Z"/><path class="cls-3" d="M571.57,439.77h-2v-1.1h3.25v9.61h-1.26Z"/><path class="cls-3" d="M577,439.77h-2v-1.1h3.25v9.61H577Z"/><path class="cls-3" d="M580.4,445.57h1.25a1.91,1.91,0,0,0,2.14,1.83,2.17,2.17,0,0,0,0-4.34,2.12,2.12,0,0,0-2,1.14h-1.24l.28-5.53h5.83v1.09H582l-.17,3.15A2.71,2.71,0,0,1,584,442a3.08,3.08,0,0,1,3.17,3.23,3.2,3.2,0,0,1-3.4,3.28A3.07,3.07,0,0,1,580.4,445.57Z"/><path class="cls-3" d="M598.84,419.05h-2V418h3.25v9.61h-1.26Z"/><path class="cls-3" d="M604.26,419.05h-2V418h3.25v9.61h-1.26Z"/><path class="cls-3" d="M611.26,421.25a3.21,3.21,0,0,1,3.38,3.24,3.49,3.49,0,0,1-7,0,4.48,4.48,0,0,1,.94-2.64l2.6-3.9h1.44l-2.42,3.53A2.49,2.49,0,0,1,611.26,421.25Zm2.15,3.25a2.25,2.25,0,1,0-2.25,2.18A2.13,2.13,0,0,0,613.41,424.5Z"/><path class="cls-3" d="M638.5,428.23h-2v-1.11h3.25v9.61H638.5Z"/><path class="cls-3" d="M643.92,428.23h-2v-1.11h3.25v9.61h-1.26Z"/><path class="cls-3" d="M652.14,428.23H647v-1.11h6.59V428l-4,8.77h-1.33Z"/></g></g></svg>