<svg xmlns="http://www.w3.org/2000/svg" viewBox="0 0 729.2 485.02"><defs><style>.cls-1,.cls-2{fill:none;stroke:#221e1f;stroke-linecap:square;stroke-miterlimit:10;}.cls-1{stroke-width:5px;}.cls-2{stroke-width:2px;}.cls-3{fill:#221e1f;}</style></defs><g id="레이어_2" data-name="레이어 2"><g id="_3F" data-name="3F"><polygon class="cls-1" points="364.56 64.42 272.89 64.42 272.89 157.61 434.7 157.61 434.7 221.72 460.46 221.72 460.46 255.79 460.75 380.75 460.75 412.38 118.75 412.38 118.75 482.52 683.18 482.52 683.18 413.9 655.13 413.9 655.13 156.72 690.91 156.72 690.91 133.42 726.7 133.42 726.7 39.32 364.56 39.32 364.56 64.42"/><line class="cls-2" x1="364.56" y1="64.42" x2="364.56" y2="157.61"/><line class="cls-2" x1="364.56" y1="133" x2="657.87" y2="133"/><line class="cls-2" x1="657.87" y1="39.32" x2="657.87" y2="133"/><line class="cls-2" x1="655.13" y1="156.72" x2="528.42" y2="156.72"/><line class="cls-2" x1="655.13" y1="413.9" x2="528.19" y2="413.9"/><line class="cls-2" x1="528.19" y1="413.9" x2="528.19" y2="156.72"/><line class="cls-2" x1="460.46" y1="221.72" x2="499.35" y2="221.72"/><line class="cls-2" x1="499.35" y1="221.72" x2="499.35" y2="460.84"/><line class="cls-2" x1="499.35" y1="460.84" x2="147.77" y2="460.84"/><rect class="cls-2" x="539.36" y="413.9" width="26.65" height="45.67"/><rect class="cls-2" x="566.01" y="413.9" width="89.12" height="45.67"/><rect class="cls-2" x="655.13" y="413.9" width="28.06" height="68.61"/><line class="cls-2" x1="147.77" y1="412.38" x2="147.77" y2="482.52"/><line class="cls-2" x1="463.87" y1="39.32" x2="463.87" y2="133"/><line class="cls-2" x1="560.37" y1="39.32" x2="560.37" y2="133"/><line class="cls-2" x1="528.19" y1="285.31" x2="655.13" y2="285.31"/><line class="cls-2" x1="528.19" y1="348.77" x2="655.13" y2="348.77"/><line class="cls-2" x1="617.66" y1="413.9" x2="617.66" y2="459.58"/><line class="cls-2" x1="635.73" y1="413.9" x2="635.73" y2="459.57"/><line class="cls-2" x1="460.75" y1="412.38" x2="499.35" y2="412.38"/><line class="cls-2" x1="444.78" y1="412.38" x2="444.78" y2="460.84"/><line class="cls-2" x1="400.79" y1="412.38" x2="401.13" y2="460.84"/><line class="cls-2" x1="359.87" y1="412.38" x2="359.87" y2="460.84"/><line class="cls-2" x1="305.99" y1="412.38" x2="305.99" y2="460.84"/><line class="cls-2" x1="253.82" y1="410.67" x2="253.82" y2="459.12"/><line class="cls-2" x1="209.57" y1="412.38" x2="209.57" y2="460.84"/><line class="cls-2" x1="175.85" y1="460.84" x2="175.85" y2="412.38"/><path class="cls-3" d="M10.76,11.06v1.79c4.13.13,7.39,1,7.39,3.46,0,2.66-3.87,3.54-8.5,3.54S1.16,19,1.16,16.31c0-2.42,3.26-3.33,7.38-3.46V11.06H0V9.25H19.33v1.81ZM.7,7.7V5.82C4.44,5.69,8.61,3.4,9.36,0L11.6.39a7.13,7.13,0,0,1-.88,2.24l8,3.42L18,7.75,9.54,4.12A13,13,0,0,1,.7,7.7Zm9,6.89c-3.12,0-6.11.41-6.11,1.72s3,1.77,6.11,1.77,6.14-.43,6.14-1.77S12.78,14.59,9.65,14.59Z"/><path class="cls-3" d="M22.09,9.74v-2a7.09,7.09,0,0,0,6-7.12l2.24.14a8.88,8.88,0,0,1-.72,3.58l6.14,3.38-1.09,1.7-6-3.4A9.45,9.45,0,0,1,22.09,9.74Zm18.24,8v1.77H23.47V14.43H37.63V12.76H23.43V11H39.85v5.12H25.69v1.68Zm-.48-7.87H37.61V.45h2.24Z"/><path class="cls-3" d="M48.87,16.65a13,13,0,0,0,4.51-.74v2a13.25,13.25,0,0,1-4.76.77H44.18V1.16h8.36v2H46.38v13.5ZM62.19.45V19.8H60.06V10.36H56.91v9.1H54.78V.57h2.13V8.25h3.15V.45Z"/><path class="cls-3" d="M78.46,4H65.31V2.22h5.44V.11H73V2.22h5.44ZM66.15,8.79c0-2.33,2.52-3.74,5.74-3.74S77.6,6.46,77.6,8.79s-2.5,3.76-5.71,3.76S66.15,11.15,66.15,8.79Zm.39,5.05H82.9v6H80.63v-4H66.54Zm1.79-5.05c0,1.2,1.38,2.06,3.56,2.06s3.55-.86,3.55-2.06-1.4-2-3.55-2S68.33,7.61,68.33,8.79ZM85.62,7.55H82.9V12.8H80.65V.45H82.9V5.39h2.72Z"/><path class="cls-3" d="M106.5,16.81v2.07H87.18V16.81h3.76V9h2.24v7.77H97V9h2.26v7.77ZM103,3.22H88.33V1.13h16.93V13.91H103Z"/><path class="cls-3" d="M115.7,10.76v-2a6.12,6.12,0,0,0,5.46-5.87H116V1H128.3V2.88h-4.9A8.87,8.87,0,0,1,123,5.14l6,3.77-1.11,1.67-5.69-3.65A8.35,8.35,0,0,1,115.7,10.76Zm18,5.12c0,2.84-3.67,3.92-8.36,3.92S117,18.72,117,15.88,120.64,12,125.33,12,133.69,13.05,133.69,15.88Zm-2.38,0c0-1.42-2.65-2.08-6-2.08s-6,.66-6,2.08S122,18,125.33,18,131.31,17.31,131.31,15.88Zm0-11.78V.45h2.24V11.33h-2.24V6.05h-3.76V4.1Z"/><path class="cls-3" d="M156.44,16.77v2.11H137.11V16.77h8.5V12.42h-7.23V1h2.22V4.49h12.32V1h2.22v11.4h-7.25v4.35ZM140.6,10.4h12.32V6.5H140.6Z"/><path class="cls-3" d="M166.27,16.54a18.47,18.47,0,0,0,6.34-.81v2.1a18.36,18.36,0,0,1-6.32.82H158.9V16.54h3.38V8.34h2.26v8.2Zm2.15-13.25H159.6V1.2h11.08V13.53h-2.26Zm10.72,7h-2.68V19.8h-2.24V.45h2.24V8.11h2.68Z"/><path class="cls-3" d="M193.77,4H180.63V2.22h5.44V.11h2.26V2.22h5.44Zm-12.3,4.78c0-2.33,2.51-3.74,5.73-3.74s5.71,1.41,5.71,3.74-2.49,3.76-5.71,3.76S181.47,11.15,181.47,8.79Zm.38,5.05h16.36v6H196v-4h-14.1Zm1.79-5.05c0,1.2,1.38,2.06,3.56,2.06s3.56-.86,3.56-2.06-1.41-2-3.56-2S183.64,7.61,183.64,8.79Zm17.29-1.24h-2.72V12.8H196V.45h2.24V5.39h2.72Z"/><path class="cls-3" d="M209.79,11.94h-7.3V10h3.78V5.42h2.22V10h1.36a18.94,18.94,0,0,0,6.35-.75v1.92C215,11.74,212.55,11.94,209.79,11.94Zm2.31-9.22h-8.68V.77h10.92v7.5H212.1Zm-6,14.89h14.45v1.95H203.85V13.87h2.27Zm16.6-11.92v2.1h-2.67v7.37h-2.24V.45h2.24V5.69Z"/><path class="cls-3" d="M3.62,91.87H15.41c.34,9.74,7.59,17.33,20.39,17.33S56.07,102,56.07,92.89c0-10.2-8.15-16.2-21.86-16.2h-10V66.83h10c11.56,0,19.37-6.57,19.37-16,0-8.83-7-16.08-19-16.08-12.23,0-18.92,8.6-18.92,18.23H3.74C3.74,37,16,24.58,34.55,24.58S65.36,36.25,65.36,50.52a21.31,21.31,0,0,1-16.2,20.85c9.18,1.69,18.58,8.83,18.58,21.41,0,15.18-12.91,26.73-31.94,26.73C16.31,119.51,4.3,107.73,3.62,91.87Z"/><path class="cls-3" d="M146.47,26.73V37.38H94.92V68.31l46.56-.12V78.84H94.92v38.63H83V26.73Z"/><path class="cls-3" d="M309.77,111.16H311a1.93,1.93,0,0,0,2.16,1.83c1.35,0,2.15-.76,2.15-1.72s-.86-1.72-2.32-1.72H312v-1H313c1.23,0,2.06-.7,2.06-1.69a1.8,1.8,0,0,0-2-1.71,1.89,1.89,0,0,0-2,1.94h-1.26a3,3,0,0,1,3.26-3c2,0,3.26,1.23,3.26,2.74a2.25,2.25,0,0,1-1.71,2.21,2.28,2.28,0,0,1,2,2.27c0,1.6-1.36,2.83-3.38,2.83A3.08,3.08,0,0,1,309.77,111.16Z"/><path class="cls-3" d="M317.76,109.06c0-3.36,1.52-5,3.55-5s3.54,1.66,3.54,5-1.53,5-3.54,5S317.76,112.42,317.76,109.06Zm5.87,0c0-2.6-1-3.91-2.32-3.91s-2.34,1.31-2.34,3.91,1,3.91,2.34,3.91S323.63,111.68,323.63,109.06Z"/><path class="cls-3" d="M328,105.37h-2v-1.11h3.25v9.61H328Z"/><path class="cls-3" d="M404.54,88.44h1.25A1.93,1.93,0,0,0,408,90.27c1.34,0,2.15-.76,2.15-1.72s-.87-1.72-2.32-1.72h-1v-1h1c1.23,0,2.05-.7,2.05-1.69a1.79,1.79,0,0,0-2-1.71,1.88,1.88,0,0,0-2,1.94h-1.26a3,3,0,0,1,3.26-3c2,0,3.26,1.24,3.26,2.75a2.26,2.26,0,0,1-1.71,2.21,2.28,2.28,0,0,1,2,2.26c0,1.61-1.36,2.84-3.38,2.84A3.1,3.1,0,0,1,404.54,88.44Z"/><path class="cls-3" d="M412.54,86.34c0-3.36,1.52-5,3.55-5s3.53,1.67,3.53,5-1.52,5-3.53,5S412.54,89.7,412.54,86.34Zm5.87,0c0-2.6-1-3.91-2.32-3.91s-2.34,1.31-2.34,3.91,1,3.91,2.34,3.91S418.41,89,418.41,86.34Z"/><path class="cls-3" d="M420.83,90.33l3.4-3.41c1.23-1.24,1.71-2,1.71-2.7a1.74,1.74,0,0,0-2-1.79,1.93,1.93,0,0,0-2,2h-1.26A3.1,3.1,0,0,1,424,81.31a2.89,2.89,0,0,1,3.2,2.9c0,1-.58,1.9-2,3.38l-2.52,2.47h4.87v1.09h-6.68Z"/><path class="cls-3" d="M501.63,88.44h1.25A1.93,1.93,0,0,0,505,90.27c1.34,0,2.15-.76,2.15-1.72s-.87-1.72-2.32-1.72h-1.05v-1h1.05c1.23,0,2.05-.7,2.05-1.69a1.79,1.79,0,0,0-2-1.71,1.88,1.88,0,0,0-2,1.94h-1.26a3,3,0,0,1,3.26-3c2,0,3.26,1.24,3.26,2.75a2.26,2.26,0,0,1-1.71,2.21,2.28,2.28,0,0,1,2,2.26c0,1.61-1.37,2.84-3.38,2.84A3.1,3.1,0,0,1,501.63,88.44Z"/><path class="cls-3" d="M509.62,86.34c0-3.36,1.53-5,3.56-5s3.53,1.67,3.53,5-1.52,5-3.53,5S509.62,89.7,509.62,86.34Zm5.88,0c0-2.6-1-3.91-2.32-3.91s-2.34,1.31-2.34,3.91,1,3.91,2.34,3.91S515.5,89,515.5,86.34Z"/><path class="cls-3" d="M517.85,88.44h1.24a1.93,1.93,0,0,0,2.16,1.83c1.34,0,2.15-.76,2.15-1.72s-.86-1.72-2.32-1.72H520v-1h1.05c1.23,0,2-.7,2-1.69a1.79,1.79,0,0,0-2-1.71,1.88,1.88,0,0,0-2,1.94h-1.26a3,3,0,0,1,3.26-3c2,0,3.26,1.24,3.26,2.75a2.26,2.26,0,0,1-1.71,2.21,2.28,2.28,0,0,1,2,2.26c0,1.61-1.36,2.84-3.38,2.84A3.08,3.08,0,0,1,517.85,88.44Z"/><path class="cls-3" d="M598.84,88.44h1.24a1.93,1.93,0,0,0,2.16,1.83c1.34,0,2.15-.76,2.15-1.72s-.86-1.72-2.32-1.72H601v-1h1.05c1.23,0,2-.7,2-1.69a1.79,1.79,0,0,0-2-1.71,1.89,1.89,0,0,0-2,1.94h-1.26a3,3,0,0,1,3.26-3c2,0,3.26,1.24,3.26,2.75a2.26,2.26,0,0,1-1.71,2.21,2.28,2.28,0,0,1,2,2.26c0,1.61-1.36,2.84-3.38,2.84A3.08,3.08,0,0,1,598.84,88.44Z"/><path class="cls-3" d="M606.83,86.34c0-3.36,1.52-5,3.55-5s3.54,1.67,3.54,5-1.53,5-3.54,5S606.83,89.7,606.83,86.34Zm5.87,0c0-2.6-1-3.91-2.32-3.91S608,83.74,608,86.34s1,3.91,2.34,3.91S612.7,89,612.7,86.34Z"/><path class="cls-3" d="M619.69,89h-4.85V87.91l4.56-6.37h1.49v6.37h1.57V89h-1.57v2.17h-1.2Zm0-1.07v-5l-3.55,5Z"/><path class="cls-3" d="M581,220h1.25a1.92,1.92,0,0,0,2.16,1.84c1.34,0,2.14-.77,2.14-1.73s-.86-1.71-2.31-1.71h-1.06v-1.05h1.06c1.22,0,2-.69,2-1.69a1.79,1.79,0,0,0-2-1.7,1.88,1.88,0,0,0-2,1.93H581a3,3,0,0,1,3.26-3c2,0,3.27,1.24,3.27,2.75a2.25,2.25,0,0,1-1.72,2.2,2.3,2.3,0,0,1,2,2.27c0,1.61-1.37,2.83-3.38,2.83A3.09,3.09,0,0,1,581,220Z"/><path class="cls-3" d="M589,217.91c0-3.36,1.52-5,3.55-5s3.54,1.67,3.54,5-1.52,5-3.54,5S589,221.26,589,217.91Zm5.88,0c0-2.61-1-3.91-2.33-3.91s-2.34,1.3-2.34,3.91,1,3.91,2.34,3.91S594.86,220.52,594.86,217.91Z"/><path class="cls-3" d="M597.2,220h1.25a1.92,1.92,0,0,0,2.15,1.84,2.17,2.17,0,0,0,0-4.34,2.13,2.13,0,0,0-2,1.14h-1.24l.28-5.53h5.83v1.09h-4.68l-.17,3.14a2.74,2.74,0,0,1,2.17-.92,3.07,3.07,0,0,1,3.17,3.22,3.2,3.2,0,0,1-3.39,3.29A3.08,3.08,0,0,1,597.2,220Z"/><path class="cls-3" d="M581,319.27h1.25a1.94,1.94,0,0,0,2.16,1.84c1.34,0,2.15-.77,2.15-1.73s-.87-1.71-2.32-1.71h-1v-1.05h1c1.23,0,2-.69,2-1.69a1.79,1.79,0,0,0-2-1.7,1.88,1.88,0,0,0-2,1.93H581a3,3,0,0,1,3.26-3c2,0,3.26,1.23,3.26,2.74a2.25,2.25,0,0,1-1.72,2.21,2.29,2.29,0,0,1,2,2.27c0,1.61-1.37,2.83-3.38,2.83A3.1,3.1,0,0,1,581,319.27Z"/><path class="cls-3" d="M589,317.17c0-3.35,1.53-5,3.56-5s3.53,1.67,3.53,5-1.52,5-3.53,5S589,320.53,589,317.17Zm5.88,0c0-2.6-1-3.91-2.32-3.91s-2.34,1.31-2.34,3.91,1,3.91,2.34,3.91S594.88,319.79,594.88,317.17Z"/><path class="cls-3" d="M600.81,315.67a3.21,3.21,0,0,1,3.38,3.24,3.49,3.49,0,0,1-7,0,4.5,4.5,0,0,1,.94-2.64l2.6-3.89h1.44l-2.42,3.52A2.49,2.49,0,0,1,600.81,315.67Zm2.15,3.25a2.25,2.25,0,1,0-2.25,2.19A2.13,2.13,0,0,0,603,318.92Z"/><path class="cls-3" d="M581.44,382.63h1.25a1.92,1.92,0,0,0,2.16,1.83c1.34,0,2.14-.76,2.14-1.72s-.86-1.72-2.31-1.72h-1.06v-1h1.06c1.22,0,2.05-.7,2.05-1.69a1.79,1.79,0,0,0-2-1.71,1.88,1.88,0,0,0-2,1.93h-1.26a3,3,0,0,1,3.26-3c2,0,3.27,1.24,3.27,2.75a2.26,2.26,0,0,1-1.72,2.21,2.29,2.29,0,0,1,2,2.26c0,1.61-1.37,2.83-3.38,2.83A3.08,3.08,0,0,1,581.44,382.63Z"/><path class="cls-3" d="M589.43,380.53c0-3.36,1.52-5,3.55-5s3.54,1.67,3.54,5-1.52,5-3.54,5S589.43,383.89,589.43,380.53Zm5.88,0c0-2.6-1-3.91-2.33-3.91s-2.34,1.31-2.34,3.91,1,3.91,2.34,3.91S595.31,383.14,595.31,380.53Z"/><path class="cls-3" d="M602.28,376.83h-5.13v-1.1h6.58v.84l-4,8.77h-1.33Z"/><path class="cls-3" d="M469.81,320.48h1.25a1.93,1.93,0,0,0,2.16,1.84c1.34,0,2.15-.77,2.15-1.73s-.87-1.71-2.32-1.71H472v-1.05h1.05c1.22,0,2.05-.69,2.05-1.69a1.79,1.79,0,0,0-2-1.7,1.88,1.88,0,0,0-2,1.93h-1.26a3,3,0,0,1,3.27-3c2,0,3.26,1.24,3.26,2.75a2.25,2.25,0,0,1-1.72,2.2,2.29,2.29,0,0,1,2,2.27c0,1.61-1.37,2.83-3.38,2.83A3.09,3.09,0,0,1,469.81,320.48Z"/><path class="cls-3" d="M479.72,314.69h-2v-1.1H481v9.6h-1.26Z"/><path class="cls-3" d="M483.13,320.48h1.25a1.93,1.93,0,0,0,2.16,1.84c1.34,0,2.14-.77,2.14-1.73s-.86-1.71-2.31-1.71h-1.06v-1.05h1.06c1.22,0,2.05-.69,2.05-1.69a1.79,1.79,0,0,0-2-1.7,1.88,1.88,0,0,0-2,1.93h-1.26a3,3,0,0,1,3.27-3c2,0,3.26,1.24,3.26,2.75a2.25,2.25,0,0,1-1.72,2.2,2.3,2.3,0,0,1,2,2.27c0,1.61-1.37,2.83-3.38,2.83A3.09,3.09,0,0,1,483.13,320.48Z"/><path class="cls-3" d="M463.22,438.67h1.25a1.92,1.92,0,0,0,2.16,1.83c1.34,0,2.14-.77,2.14-1.73s-.86-1.71-2.31-1.71H465.4v-1h1.06c1.22,0,2.05-.7,2.05-1.7a1.79,1.79,0,0,0-2-1.7,1.88,1.88,0,0,0-2,1.93h-1.26a3,3,0,0,1,3.27-3c2,0,3.26,1.24,3.26,2.75A2.27,2.27,0,0,1,468,436.5a2.29,2.29,0,0,1,2,2.26c0,1.61-1.37,2.83-3.38,2.83A3.08,3.08,0,0,1,463.22,438.67Z"/><path class="cls-3" d="M471.19,440.56l3.4-3.42c1.23-1.23,1.71-2,1.71-2.7a1.74,1.74,0,0,0-2-1.78,1.94,1.94,0,0,0-2,2h-1.26a3.1,3.1,0,0,1,3.26-3.17,2.89,2.89,0,0,1,3.2,2.89c0,1-.58,1.91-2,3.38L473,440.29h4.87v1.09h-6.68Z"/><path class="cls-3" d="M481,432.87h-2v-1.1h3.25v9.61H481Z"/><path class="cls-3" d="M411.42,438.67h1.25a1.93,1.93,0,0,0,2.16,1.83c1.34,0,2.15-.77,2.15-1.73s-.87-1.71-2.32-1.71h-1.05v-1h1.05c1.22,0,2-.7,2-1.7a1.79,1.79,0,0,0-2-1.7,1.88,1.88,0,0,0-2,1.93h-1.26a3,3,0,0,1,3.27-3c2,0,3.26,1.24,3.26,2.75a2.27,2.27,0,0,1-1.72,2.21,2.28,2.28,0,0,1,2,2.26c0,1.61-1.37,2.83-3.38,2.83A3.09,3.09,0,0,1,411.42,438.67Z"/><path class="cls-3" d="M419.39,440.56l3.41-3.42c1.22-1.23,1.7-2,1.7-2.7a1.74,1.74,0,0,0-2-1.78,1.94,1.94,0,0,0-2,2h-1.26a3.1,3.1,0,0,1,3.26-3.17,2.89,2.89,0,0,1,3.21,2.89c0,1-.59,1.91-2,3.38l-2.52,2.48h4.87v1.09h-6.68Z"/><path class="cls-3" d="M427.26,440.56l3.41-3.42c1.22-1.23,1.7-2,1.7-2.7a1.74,1.74,0,0,0-2-1.78,1.94,1.94,0,0,0-2,2h-1.26a3.1,3.1,0,0,1,3.27-3.17,2.89,2.89,0,0,1,3.2,2.89c0,1-.59,1.91-2,3.38l-2.52,2.48h4.87v1.09h-6.68Z"/><path class="cls-3" d="M369.25,438.67h1.25a1.93,1.93,0,0,0,2.16,1.83c1.34,0,2.14-.77,2.14-1.73s-.86-1.71-2.31-1.71h-1.06v-1h1.06c1.22,0,2.05-.7,2.05-1.7a1.79,1.79,0,0,0-2-1.7,1.88,1.88,0,0,0-2,1.93h-1.26a3,3,0,0,1,3.27-3c2,0,3.26,1.24,3.26,2.75a2.27,2.27,0,0,1-1.72,2.21,2.29,2.29,0,0,1,2,2.26c0,1.61-1.37,2.83-3.38,2.83A3.09,3.09,0,0,1,369.25,438.67Z"/><path class="cls-3" d="M377.22,440.56l3.41-3.42c1.22-1.23,1.7-2,1.7-2.7a1.74,1.74,0,0,0-2-1.78,1.94,1.94,0,0,0-2,2h-1.26a3.1,3.1,0,0,1,3.26-3.17,2.9,2.9,0,0,1,3.21,2.89c0,1-.59,1.91-2,3.38L379,440.29h4.87v1.09h-6.68Z"/><path class="cls-3" d="M385,438.67h1.25a1.92,1.92,0,0,0,2.16,1.83c1.34,0,2.14-.77,2.14-1.73s-.86-1.71-2.31-1.71H387.2v-1h1.06c1.22,0,2.05-.7,2.05-1.7a1.79,1.79,0,0,0-2-1.7,1.88,1.88,0,0,0-2,1.93H385a3,3,0,0,1,3.26-3c2,0,3.27,1.24,3.27,2.75a2.27,2.27,0,0,1-1.72,2.21,2.29,2.29,0,0,1,2,2.26c0,1.61-1.37,2.83-3.38,2.83A3.08,3.08,0,0,1,385,438.67Z"/><path class="cls-3" d="M322.55,438.67h1.25A1.93,1.93,0,0,0,326,440.5c1.34,0,2.15-.77,2.15-1.73s-.87-1.71-2.32-1.71h-1.05v-1h1.05c1.22,0,2-.7,2-1.7a1.79,1.79,0,0,0-2-1.7,1.88,1.88,0,0,0-2,1.93h-1.26a3,3,0,0,1,3.27-3c2,0,3.26,1.24,3.26,2.75a2.27,2.27,0,0,1-1.72,2.21,2.28,2.28,0,0,1,2,2.26c0,1.61-1.37,2.83-3.38,2.83A3.09,3.09,0,0,1,322.55,438.67Z"/><path class="cls-3" d="M330.52,440.56l3.41-3.42c1.22-1.23,1.7-2,1.7-2.7a1.74,1.74,0,0,0-2-1.78,1.94,1.94,0,0,0-2,2h-1.26a3.1,3.1,0,0,1,3.26-3.17,2.89,2.89,0,0,1,3.21,2.89c0,1-.59,1.91-2,3.38l-2.52,2.48h4.87v1.09h-6.68Z"/><path class="cls-3" d="M342.61,439.21h-4.84v-1.07l4.56-6.37h1.48v6.37h1.57v1.07h-1.57v2.17h-1.2Zm0-1.07v-5l-3.55,5Z"/><path class="cls-3" d="M269.23,438.67h1.25a1.92,1.92,0,0,0,2.16,1.83c1.34,0,2.14-.77,2.14-1.73s-.86-1.71-2.31-1.71h-1.06v-1h1.06c1.22,0,2-.7,2-1.7a1.79,1.79,0,0,0-2-1.7,1.88,1.88,0,0,0-2,1.93h-1.26a3,3,0,0,1,3.26-3c2,0,3.27,1.24,3.27,2.75a2.27,2.27,0,0,1-1.72,2.21,2.29,2.29,0,0,1,2,2.26c0,1.61-1.37,2.83-3.38,2.83A3.08,3.08,0,0,1,269.23,438.67Z"/><path class="cls-3" d="M277.2,440.56l3.4-3.42c1.23-1.23,1.71-2,1.71-2.7a1.74,1.74,0,0,0-2-1.78,1.93,1.93,0,0,0-2,2h-1.26a3.1,3.1,0,0,1,3.26-3.17,2.89,2.89,0,0,1,3.2,2.89c0,1-.58,1.91-2,3.38L279,440.29h4.87v1.09H277.2Z"/><path class="cls-3" d="M285,438.67h1.24a1.92,1.92,0,0,0,2.15,1.83,2.17,2.17,0,0,0,0-4.34,2.15,2.15,0,0,0-2,1.14h-1.23l.27-5.53h5.83v1.09h-4.67l-.17,3.14a2.74,2.74,0,0,1,2.17-.92,3.08,3.08,0,0,1,3.17,3.23,3.2,3.2,0,0,1-3.4,3.28A3.07,3.07,0,0,1,285,438.67Z"/><path class="cls-3" d="M220.25,438.67h1.25a1.93,1.93,0,0,0,2.16,1.83c1.34,0,2.15-.77,2.15-1.73s-.87-1.71-2.32-1.71h-1.05v-1h1.05c1.23,0,2-.7,2-1.7a1.79,1.79,0,0,0-2-1.7,1.88,1.88,0,0,0-2,1.93h-1.26a3,3,0,0,1,3.26-3c2,0,3.26,1.24,3.26,2.75a2.27,2.27,0,0,1-1.71,2.21,2.28,2.28,0,0,1,2,2.26c0,1.61-1.37,2.83-3.38,2.83A3.09,3.09,0,0,1,220.25,438.67Z"/><path class="cls-3" d="M228.22,440.56l3.41-3.42c1.22-1.23,1.7-2,1.7-2.7a1.74,1.74,0,0,0-2-1.78,1.94,1.94,0,0,0-2,2h-1.26a3.1,3.1,0,0,1,3.27-3.17,2.89,2.89,0,0,1,3.2,2.89c0,1-.59,1.91-2,3.38L230,440.29h4.87v1.09h-6.68Z"/><path class="cls-3" d="M239.37,435.07a3.21,3.21,0,0,1,3.38,3.24,3.49,3.49,0,0,1-7,0,4.48,4.48,0,0,1,.94-2.64l2.6-3.9h1.44l-2.42,3.53A2.45,2.45,0,0,1,239.37,435.07Zm2.14,3.25a2.25,2.25,0,1,0-2.24,2.18A2.12,2.12,0,0,0,241.51,438.32Z"/><path class="cls-3" d="M180.92,438.67h1.25a1.92,1.92,0,0,0,2.15,1.83c1.35,0,2.15-.77,2.15-1.73s-.86-1.71-2.31-1.71H183.1v-1h1.06c1.22,0,2.05-.7,2.05-1.7a1.79,1.79,0,0,0-2-1.7,1.88,1.88,0,0,0-2,1.93h-1.26a3,3,0,0,1,3.26-3c2,0,3.26,1.24,3.26,2.75a2.26,2.26,0,0,1-1.71,2.21,2.29,2.29,0,0,1,2,2.26c0,1.61-1.37,2.83-3.39,2.83A3.08,3.08,0,0,1,180.92,438.67Z"/><path class="cls-3" d="M188.89,440.56l3.4-3.42c1.22-1.23,1.71-2,1.71-2.7a1.74,1.74,0,0,0-2-1.78,1.93,1.93,0,0,0-2,2h-1.26a3.1,3.1,0,0,1,3.26-3.17,2.89,2.89,0,0,1,3.2,2.89c0,1-.59,1.91-2,3.38l-2.51,2.48h4.87v1.09h-6.68Z"/><path class="cls-3" d="M201.7,432.87h-5.13v-1.1h6.58v.84l-4,8.77h-1.33Z"/><path class="cls-3" d="M150.49,438.67h1.25a1.92,1.92,0,0,0,2.16,1.83c1.34,0,2.14-.77,2.14-1.73s-.86-1.71-2.31-1.71h-1.06v-1h1.06c1.22,0,2.05-.7,2.05-1.7a1.79,1.79,0,0,0-2-1.7,1.88,1.88,0,0,0-2,1.93H150.5a3,3,0,0,1,3.26-3c2,0,3.27,1.24,3.27,2.75a2.27,2.27,0,0,1-1.72,2.21,2.29,2.29,0,0,1,2,2.26c0,1.61-1.37,2.83-3.38,2.83A3.08,3.08,0,0,1,150.49,438.67Z"/><path class="cls-3" d="M158.46,440.56l3.4-3.42c1.23-1.23,1.71-2,1.71-2.7a1.74,1.74,0,0,0-2-1.78,1.93,1.93,0,0,0-2,2h-1.26a3.1,3.1,0,0,1,3.26-3.17,2.89,2.89,0,0,1,3.2,2.89c0,1-.58,1.91-2,3.38l-2.52,2.48h4.87v1.09h-6.68Z"/><path class="cls-3" d="M166.28,438.86a2.56,2.56,0,0,1,2-2.46,2.38,2.38,0,0,1-1.68-2.23,3.1,3.1,0,0,1,6.13,0,2.4,2.4,0,0,1-1.68,2.23,2.55,2.55,0,0,1,2,2.46c0,1.61-1.39,2.73-3.39,2.73S166.28,440.47,166.28,438.86Zm5.58-.07a2.22,2.22,0,0,0-4.36,0c0,1,.86,1.75,2.19,1.75S171.86,439.78,171.86,438.79Zm-.31-4.59a1.69,1.69,0,0,0-1.86-1.6,1.67,1.67,0,0,0-1.86,1.58,1.87,1.87,0,0,0,3.72,0Z"/><path class="cls-3" d="M549.09,431.77v1.12h-5.56v3h5.14V437h-5.14v3.24h5.67v1.12h-6.93v-9.61Z"/><path class="cls-3" d="M550.16,442.18,554.55,431h1.25l-4.39,11.21Z"/><path class="cls-3" d="M558.46,440.24h5.28v1.14h-6.53v-9.61h1.25Z"/></g></g></svg>