<svg xmlns="http://www.w3.org/2000/svg" viewBox="0 0 729.2 485.02"><defs><style>.cls-1,.cls-2{fill:none;stroke:#221e1f;stroke-linecap:square;stroke-miterlimit:10;}.cls-1{stroke-width:5px;}.cls-2{stroke-width:2px;}.cls-3{fill:#221e1f;}</style></defs><g id="레이어_2" data-name="레이어 2"><g id="_6F" data-name="6F"><polygon class="cls-1" points="364.56 64.42 272.89 64.42 272.89 157.61 434.7 157.61 434.7 221.72 460.46 221.72 460.46 255.79 460.75 380.75 460.75 412.38 118.75 412.38 118.75 482.52 683.18 482.52 683.18 413.9 655.13 413.9 655.13 156.72 690.91 156.72 690.91 133.42 726.7 133.42 726.7 39.32 364.56 39.32 364.56 64.42"/><line class="cls-2" x1="364.56" y1="64.42" x2="364.56" y2="157.61"/><line class="cls-2" x1="364.56" y1="133" x2="657.87" y2="133"/><line class="cls-2" x1="657.87" y1="39.32" x2="657.87" y2="133"/><line class="cls-2" x1="655.13" y1="156.72" x2="528.42" y2="156.72"/><line class="cls-2" x1="655.13" y1="413.9" x2="528.19" y2="413.9"/><line class="cls-2" x1="528.19" y1="413.9" x2="528.19" y2="156.72"/><line class="cls-2" x1="460.46" y1="221.72" x2="499.35" y2="221.72"/><line class="cls-2" x1="499.35" y1="221.72" x2="499.35" y2="460.84"/><line class="cls-2" x1="499.35" y1="460.84" x2="147.77" y2="460.84"/><rect class="cls-2" x="539.36" y="413.9" width="26.65" height="45.67"/><rect class="cls-2" x="566.01" y="413.9" width="89.12" height="45.67"/><rect class="cls-2" x="655.13" y="413.9" width="28.06" height="68.61"/><line class="cls-2" x1="147.77" y1="412.38" x2="147.77" y2="482.52"/><line class="cls-2" x1="463.87" y1="39.32" x2="463.87" y2="133"/><line class="cls-2" x1="528.42" y1="39.32" x2="528.42" y2="133"/><line class="cls-2" x1="528.19" y1="348.77" x2="655.13" y2="348.77"/><line class="cls-2" x1="617.66" y1="413.9" x2="617.66" y2="459.58"/><line class="cls-2" x1="635.73" y1="413.9" x2="635.73" y2="459.57"/><line class="cls-2" x1="460.75" y1="412.38" x2="499.35" y2="412.38"/><line class="cls-2" x1="442.32" y1="412.09" x2="442.32" y2="460.55"/><line class="cls-2" x1="400.96" y1="412.38" x2="400.96" y2="460.84"/><line class="cls-2" x1="337.11" y1="412.09" x2="337.11" y2="460.55"/><line class="cls-2" x1="305.74" y1="412.38" x2="305.74" y2="460.84"/><line class="cls-2" x1="274.36" y1="412.38" x2="274.36" y2="460.84"/><line class="cls-2" x1="242.44" y1="412.09" x2="242.44" y2="460.55"/><line class="cls-2" x1="210.93" y1="460.57" x2="210.93" y2="412.12"/><line class="cls-2" x1="591.66" y1="133" x2="591.66" y2="39.32"/><line class="cls-2" x1="528.19" y1="218.45" x2="628.67" y2="218.05"/><line class="cls-2" x1="528.19" y1="282.39" x2="628.67" y2="282.39"/><line class="cls-2" x1="628.67" y1="348.77" x2="628.67" y2="218.05"/><line class="cls-2" x1="591.77" y1="156.72" x2="591.77" y2="218.17"/><line class="cls-2" x1="591.77" y1="413.9" x2="591.77" y2="348.77"/><line class="cls-2" x1="369.03" y1="411.11" x2="369.03" y2="459.57"/><line class="cls-2" x1="179.42" y1="460.69" x2="179.42" y2="412.52"/><path class="cls-3" d="M10.76,11.06v1.79c4.13.13,7.39,1,7.39,3.47,0,2.65-3.87,3.53-8.5,3.53S1.16,19,1.16,16.32c0-2.43,3.26-3.34,7.38-3.47V11.06H0V9.25H19.33v1.81ZM.7,7.7V5.82C4.44,5.69,8.61,3.4,9.36,0L11.6.39a7.13,7.13,0,0,1-.88,2.24l8,3.42L18,7.75,9.54,4.12A13,13,0,0,1,.7,7.7Zm9,6.89c-3.12,0-6.11.41-6.11,1.73s3,1.76,6.11,1.76,6.14-.43,6.14-1.76S12.78,14.59,9.65,14.59Z"/><path class="cls-3" d="M22.09,9.74v-2a7.09,7.09,0,0,0,6-7.12l2.24.14a9,9,0,0,1-.72,3.58l6.14,3.38-1.09,1.7-6-3.4A9.43,9.43,0,0,1,22.09,9.74Zm18.24,8v1.77H23.47V14.43H37.63V12.76H23.43V11H39.85v5.12H25.69v1.68Zm-.48-7.87H37.61V.45h2.24Z"/><path class="cls-3" d="M48.87,16.66a12.94,12.94,0,0,0,4.51-.75v2a13.25,13.25,0,0,1-4.76.77H44.18V1.16h8.36v2H46.38V16.66ZM62.19.45V19.8H60.06V10.36H56.91v9.1H54.78V.57h2.13V8.25h3.15V.45Z"/><path class="cls-3" d="M78.46,4H65.31V2.22h5.44V.11H73V2.22h5.44ZM66.15,8.79c0-2.33,2.52-3.74,5.74-3.74S77.6,6.46,77.6,8.79s-2.5,3.76-5.71,3.76S66.15,11.15,66.15,8.79Zm.39,5.05H82.9v6H80.63v-4H66.54Zm1.79-5.05c0,1.2,1.38,2.06,3.56,2.06s3.55-.86,3.55-2.06-1.4-2-3.55-2S68.33,7.61,68.33,8.79ZM85.62,7.55H82.9V12.8H80.65V.45H82.9V5.39h2.72Z"/><path class="cls-3" d="M106.5,16.81v2.07H87.18V16.81h3.76V9h2.24v7.77H97V9h2.26v7.77ZM103,3.22H88.33V1.13h16.93V13.91H103Z"/><path class="cls-3" d="M115.7,10.76v-2a6.12,6.12,0,0,0,5.46-5.87H116V1H128.3V2.88h-4.9A8.87,8.87,0,0,1,123,5.14l6,3.77-1.11,1.67-5.69-3.65A8.35,8.35,0,0,1,115.7,10.76Zm18,5.12c0,2.84-3.67,3.92-8.36,3.92S117,18.72,117,15.88,120.64,12,125.33,12,133.69,13.05,133.69,15.88Zm-2.38,0c0-1.42-2.65-2.08-6-2.08s-6,.66-6,2.08S122,18,125.33,18,131.31,17.31,131.31,15.88Zm0-11.78V.45h2.24V11.33h-2.24V6.05h-3.76V4.1Z"/><path class="cls-3" d="M156.44,16.77v2.11H137.11V16.77h8.49V12.42h-7.22V1h2.22V4.49h12.32V1h2.22v11.4h-7.25v4.35ZM140.6,10.4h12.32V6.5H140.6Z"/><path class="cls-3" d="M166.27,16.54a18.22,18.22,0,0,0,6.34-.81v2.1a18.36,18.36,0,0,1-6.32.82H158.9V16.54h3.38V8.34h2.26v8.2Zm2.15-13.25H159.6V1.2h11.08V13.53h-2.26Zm10.72,7h-2.68V19.8h-2.24V.45h2.24V8.11h2.68Z"/><path class="cls-3" d="M193.77,4H180.63V2.22h5.44V.11h2.26V2.22h5.44Zm-12.3,4.78c0-2.33,2.51-3.74,5.73-3.74s5.71,1.41,5.71,3.74-2.49,3.76-5.71,3.76S181.47,11.15,181.47,8.79Zm.38,5.05h16.36v6H196v-4h-14.1Zm1.79-5.05c0,1.2,1.38,2.06,3.56,2.06s3.56-.86,3.56-2.06-1.41-2-3.56-2S183.64,7.61,183.64,8.79Zm17.29-1.24h-2.72V12.8H196V.45h2.24V5.39h2.72Z"/><path class="cls-3" d="M209.79,11.94h-7.3V10h3.78V5.42h2.22V10h1.36a18.94,18.94,0,0,0,6.35-.75v1.92C215,11.74,212.55,11.94,209.79,11.94Zm2.31-9.22h-8.68V.77h10.92v7.5H212.1Zm-6,14.89h14.46v1.95H203.85V13.87h2.26ZM222.72,5.69v2.1h-2.67v7.37h-2.24V.45h2.24V5.69Z"/><path class="cls-3" d="M37.5,57.88c17.67,0,31.94,12.13,31.94,30.59,0,18.92-14.61,31-32.85,31s-33-12.12-33-31c0-9.29,3.18-16.54,8.84-24.92L37,26.73h13.6L27.75,60A23.91,23.91,0,0,1,37.5,57.88Zm20.27,30.7c0-11.66-8.15-20.73-21.18-20.73S15.29,77,15.29,88.58s8.16,20.62,21.3,20.62S57.77,100.14,57.77,88.58Z"/><path class="cls-3" d="M146,26.73V37.38H94.47V68.31L141,68.19V78.84H94.47v38.63H82.58V26.73Z"/><path class="cls-3" d="M409.38,84.84a3.21,3.21,0,0,1,3.38,3.24,3.49,3.49,0,0,1-7,0,4.48,4.48,0,0,1,.94-2.64l2.6-3.9h1.44l-2.42,3.53A2.49,2.49,0,0,1,409.38,84.84Zm2.15,3.25a2.25,2.25,0,1,0-2.25,2.18A2.13,2.13,0,0,0,411.53,88.09Z"/><path class="cls-3" d="M413.74,86.34c0-3.36,1.52-5,3.55-5s3.53,1.67,3.53,5-1.52,5-3.53,5S413.74,89.7,413.74,86.34Zm5.87,0c0-2.6-1-3.91-2.32-3.91S415,83.74,415,86.34s1,3.91,2.34,3.91S419.61,89,419.61,86.34Z"/><path class="cls-3" d="M424,82.65h-2V81.54h3.25v9.61H424Z"/><path class="cls-3" d="M488.81,84.84a3.21,3.21,0,0,1,3.38,3.24,3.49,3.49,0,0,1-7,0,4.48,4.48,0,0,1,.94-2.64l2.6-3.9h1.44l-2.42,3.53A2.45,2.45,0,0,1,488.81,84.84ZM491,88.09a2.25,2.25,0,1,0-2.24,2.18A2.12,2.12,0,0,0,491,88.09Z"/><path class="cls-3" d="M493.17,86.34c0-3.36,1.52-5,3.55-5s3.53,1.67,3.53,5-1.52,5-3.53,5S493.17,89.7,493.17,86.34Zm5.87,0c0-2.6-1-3.91-2.32-3.91s-2.34,1.31-2.34,3.91,1,3.91,2.34,3.91S499,89,499,86.34Z"/><path class="cls-3" d="M501.46,90.33l3.4-3.41c1.23-1.24,1.71-2,1.71-2.7a1.74,1.74,0,0,0-2-1.79,1.93,1.93,0,0,0-2,2h-1.26a3.1,3.1,0,0,1,3.26-3.17,2.89,2.89,0,0,1,3.2,2.89c0,1-.58,1.91-2,3.39l-2.52,2.47h4.87v1.09h-6.68Z"/><path class="cls-3" d="M552.18,84.84a3.21,3.21,0,0,1,3.39,3.24,3.49,3.49,0,0,1-7,0,4.47,4.47,0,0,1,.93-2.64l2.61-3.9h1.44l-2.43,3.53A2.49,2.49,0,0,1,552.18,84.84Zm2.15,3.25a2.25,2.25,0,1,0-2.24,2.18A2.12,2.12,0,0,0,554.33,88.09Z"/><path class="cls-3" d="M556.54,86.34c0-3.36,1.53-5,3.55-5s3.54,1.67,3.54,5-1.52,5-3.54,5S556.54,89.7,556.54,86.34Zm5.88,0c0-2.6-1-3.91-2.33-3.91s-2.34,1.31-2.34,3.91,1,3.91,2.34,3.91S562.42,89,562.42,86.34Z"/><path class="cls-3" d="M564.76,88.44H566a1.93,1.93,0,0,0,2.16,1.83c1.34,0,2.15-.76,2.15-1.72s-.87-1.72-2.32-1.72h-1v-1h1c1.22,0,2-.7,2-1.69a1.79,1.79,0,0,0-2-1.71,1.88,1.88,0,0,0-2,1.93h-1.26a3,3,0,0,1,3.27-3c2,0,3.26,1.24,3.26,2.75a2.26,2.26,0,0,1-1.72,2.21,2.28,2.28,0,0,1,2,2.26c0,1.61-1.37,2.83-3.38,2.83A3.09,3.09,0,0,1,564.76,88.44Z"/><path class="cls-3" d="M616.83,84.84a3.21,3.21,0,0,1,3.39,3.24,3.49,3.49,0,0,1-7,0,4.47,4.47,0,0,1,.93-2.64l2.61-3.9h1.44l-2.43,3.53A2.49,2.49,0,0,1,616.83,84.84ZM619,88.09a2.25,2.25,0,1,0-2.24,2.18A2.12,2.12,0,0,0,619,88.09Z"/><path class="cls-3" d="M621.19,86.34c0-3.36,1.52-5,3.55-5s3.54,1.67,3.54,5-1.52,5-3.54,5S621.19,89.7,621.19,86.34Zm5.88,0c0-2.6-1-3.91-2.33-3.91s-2.34,1.31-2.34,3.91,1,3.91,2.34,3.91S627.07,89,627.07,86.34Z"/><path class="cls-3" d="M634.05,89h-4.84V87.91l4.56-6.37h1.48v6.37h1.57V89h-1.57v2.17h-1.2Zm0-1.07v-5l-3.55,5Z"/><path class="cls-3" d="M552.18,185.28a3.21,3.21,0,0,1,3.39,3.24,3.49,3.49,0,0,1-7,0,4.47,4.47,0,0,1,.93-2.64l2.61-3.9h1.44l-2.43,3.53A2.49,2.49,0,0,1,552.18,185.28Zm2.15,3.25a2.12,2.12,0,0,0-2.24-2.2,2.19,2.19,0,1,0,0,4.38A2.12,2.12,0,0,0,554.33,188.53Z"/><path class="cls-3" d="M556.54,186.78c0-3.36,1.53-5,3.55-5s3.54,1.67,3.54,5-1.52,5-3.54,5S556.54,190.14,556.54,186.78Zm5.88,0c0-2.6-1-3.91-2.33-3.91s-2.34,1.31-2.34,3.91,1,3.91,2.34,3.91S562.42,189.39,562.42,186.78Z"/><path class="cls-3" d="M564.76,188.88H566a1.92,1.92,0,0,0,2.15,1.83,2.17,2.17,0,0,0,0-4.34,2.12,2.12,0,0,0-2,1.14H565l.28-5.53h5.83v1.09h-4.68l-.17,3.14a2.74,2.74,0,0,1,2.17-.92,3.07,3.07,0,0,1,3.17,3.23,3.2,3.2,0,0,1-3.39,3.28A3.08,3.08,0,0,1,564.76,188.88Z"/><path class="cls-3" d="M618.42,185.28a3.21,3.21,0,0,1,3.38,3.24,3.49,3.49,0,0,1-7,0,4.48,4.48,0,0,1,.94-2.64l2.6-3.9h1.44l-2.42,3.53A2.45,2.45,0,0,1,618.42,185.28Zm2.14,3.25a2.25,2.25,0,1,0-2.24,2.18A2.12,2.12,0,0,0,620.56,188.53Z"/><path class="cls-3" d="M624.69,183.08h-2V182H626v9.61h-1.26Z"/><path class="cls-3" d="M628.1,188.88h1.25a1.92,1.92,0,0,0,2.15,1.83,2.17,2.17,0,0,0,0-4.34,2.13,2.13,0,0,0-2,1.14H628.3l.27-5.53h5.83v1.09h-4.68l-.17,3.14a2.74,2.74,0,0,1,2.18-.92,3.07,3.07,0,0,1,3.16,3.23,3.2,3.2,0,0,1-3.39,3.28A3.08,3.08,0,0,1,628.1,188.88Z"/><path class="cls-3" d="M571,250.44a3.21,3.21,0,0,1,3.38,3.24,3.49,3.49,0,0,1-7,0,4.49,4.49,0,0,1,.93-2.64l2.6-3.9h1.44L570,250.67A2.49,2.49,0,0,1,571,250.44Zm2.15,3.25a2.25,2.25,0,1,0-2.24,2.19A2.12,2.12,0,0,0,573.16,253.69Z"/><path class="cls-3" d="M575.37,251.94c0-3.36,1.52-5,3.55-5s3.54,1.66,3.54,5-1.53,5-3.54,5S575.37,255.3,575.37,251.94Zm5.88,0c0-2.6-1-3.91-2.33-3.91s-2.34,1.31-2.34,3.91,1,3.91,2.34,3.91S581.25,254.56,581.25,251.94Z"/><path class="cls-3" d="M587.17,250.44a3.21,3.21,0,0,1,3.39,3.24,3.49,3.49,0,0,1-7,0,4.49,4.49,0,0,1,.93-2.64l2.61-3.9h1.44l-2.43,3.53A2.53,2.53,0,0,1,587.17,250.44Zm2.15,3.25a2.25,2.25,0,1,0-2.24,2.19A2.12,2.12,0,0,0,589.32,253.69Z"/><path class="cls-3" d="M572.44,313.87a3.2,3.2,0,0,1,3.38,3.23,3.49,3.49,0,0,1-7,0,4.5,4.5,0,0,1,.94-2.64l2.6-3.89h1.44l-2.42,3.52A2.64,2.64,0,0,1,572.44,313.87Zm2.14,3.25a2.25,2.25,0,1,0-2.24,2.18A2.12,2.12,0,0,0,574.58,317.12Z"/><path class="cls-3" d="M576.79,315.37c0-3.36,1.53-5,3.55-5s3.54,1.67,3.54,5-1.52,5-3.54,5S576.79,318.72,576.79,315.37Zm5.88,0c0-2.61-1-3.91-2.33-3.91s-2.33,1.3-2.33,3.91,1,3.9,2.33,3.9S582.67,318,582.67,315.37Z"/><path class="cls-3" d="M589.64,311.67h-5.13v-1.1h6.59v.84l-4,8.76h-1.34Z"/><path class="cls-3" d="M552.21,376.33a3.21,3.21,0,0,1,3.38,3.24,3.49,3.49,0,0,1-7,0,4.5,4.5,0,0,1,.94-2.64l2.6-3.9h1.44l-2.42,3.53A2.45,2.45,0,0,1,552.21,376.33Zm2.14,3.25a2.25,2.25,0,1,0-2.24,2.19A2.12,2.12,0,0,0,554.35,379.58Z"/><path class="cls-3" d="M556.56,377.83c0-3.36,1.53-5,3.55-5s3.54,1.66,3.54,5-1.52,5-3.54,5S556.56,381.19,556.56,377.83Zm5.88,0c0-2.6-1-3.91-2.33-3.91s-2.33,1.31-2.33,3.91,1,3.91,2.33,3.91S562.44,380.45,562.44,377.83Z"/><path class="cls-3" d="M564.81,380.12a2.57,2.57,0,0,1,2-2.46,2.38,2.38,0,0,1-1.68-2.23,3.1,3.1,0,0,1,6.13,0,2.36,2.36,0,0,1-1.68,2.23,2.56,2.56,0,0,1,2,2.46c0,1.61-1.39,2.74-3.4,2.74S564.81,381.73,564.81,380.12Zm5.58-.07a2.22,2.22,0,0,0-4.36,0c0,1,.85,1.75,2.18,1.75S570.39,381.05,570.39,380.05Zm-.32-4.58a1.69,1.69,0,0,0-1.86-1.61,1.67,1.67,0,0,0-1.85,1.59,1.87,1.87,0,0,0,3.71,0Z"/><path class="cls-3" d="M473.28,313.87a3.21,3.21,0,0,1,3.39,3.23,3.49,3.49,0,0,1-7,0,4.49,4.49,0,0,1,.93-2.64l2.61-3.89h1.44l-2.43,3.52A2.68,2.68,0,0,1,473.28,313.87Zm2.15,3.25a2.25,2.25,0,1,0-2.24,2.18A2.12,2.12,0,0,0,475.43,317.12Z"/><path class="cls-3" d="M479.56,311.67h-2v-1.1h3.25v9.6h-1.26Z"/><path class="cls-3" d="M487.61,318h-4.84v-1.06l4.55-6.37h1.49v6.37h1.57V318h-1.57v2.17h-1.2Zm0-1.06v-5l-3.55,5Z"/><path class="cls-3" d="M549.09,431.77v1.11h-5.57v3h5.15V437h-5.15v3.24h5.68v1.12h-6.93v-9.61Z"/><path class="cls-3" d="M550.16,442.18,554.55,431h1.25l-4.39,11.21Z"/><path class="cls-3" d="M558.46,440.24h5.28v1.14h-6.53v-9.61h1.25Z"/><path class="cls-3" d="M466.63,435.07a3.21,3.21,0,0,1,3.38,3.24,3.49,3.49,0,0,1-7,0,4.44,4.44,0,0,1,.93-2.64l2.6-3.9H468l-2.42,3.53A2.49,2.49,0,0,1,466.63,435.07Zm2.15,3.25a2.25,2.25,0,1,0-2.24,2.18A2.12,2.12,0,0,0,468.78,438.32Z"/><path class="cls-3" d="M471,440.56l3.4-3.42c1.23-1.23,1.71-2,1.71-2.7a1.74,1.74,0,0,0-2-1.78,1.93,1.93,0,0,0-2,2h-1.26a3.1,3.1,0,0,1,3.26-3.17,2.89,2.89,0,0,1,3.2,2.89c0,1-.59,1.91-2,3.38l-2.52,2.48h4.87v1.09H471Z"/><path class="cls-3" d="M480.78,432.87h-2v-1.1H482v9.61h-1.26Z"/><path class="cls-3" d="M414,435.07a3.21,3.21,0,0,1,3.38,3.24,3.49,3.49,0,0,1-7,0,4.44,4.44,0,0,1,.93-2.64l2.6-3.9h1.44L413,435.3A2.49,2.49,0,0,1,414,435.07Zm2.15,3.25a2.25,2.25,0,1,0-2.24,2.18A2.13,2.13,0,0,0,416.18,438.32Z"/><path class="cls-3" d="M418.37,440.56l3.4-3.42c1.22-1.23,1.7-2,1.7-2.7a1.73,1.73,0,0,0-2-1.78,1.93,1.93,0,0,0-2,2h-1.26a3.1,3.1,0,0,1,3.26-3.17,2.89,2.89,0,0,1,3.2,2.89c0,1-.59,1.91-2,3.38l-2.51,2.48h4.87v1.09h-6.68Z"/><path class="cls-3" d="M426.24,440.56l3.4-3.42c1.23-1.23,1.71-2,1.71-2.7a1.74,1.74,0,0,0-2-1.78,1.93,1.93,0,0,0-2,2h-1.26a3.1,3.1,0,0,1,3.26-3.17,2.89,2.89,0,0,1,3.2,2.89c0,1-.58,1.91-2,3.38l-2.52,2.48h4.87v1.09h-6.68Z"/><path class="cls-3" d="M377.62,435.07a3.21,3.21,0,0,1,3.39,3.24,3.49,3.49,0,0,1-7,0,4.44,4.44,0,0,1,.93-2.64l2.61-3.9H379l-2.43,3.53A2.49,2.49,0,0,1,377.62,435.07Zm2.15,3.25a2.25,2.25,0,1,0-2.24,2.18A2.12,2.12,0,0,0,379.77,438.32Z"/><path class="cls-3" d="M382,440.56l3.4-3.42c1.23-1.23,1.71-2,1.71-2.7a1.74,1.74,0,0,0-2-1.78,1.93,1.93,0,0,0-2,2h-1.26a3.1,3.1,0,0,1,3.26-3.17,2.89,2.89,0,0,1,3.2,2.89c0,1-.58,1.91-2,3.38l-2.52,2.48h4.87v1.09H382Z"/><path class="cls-3" d="M389.76,438.67H391a1.92,1.92,0,0,0,2.15,1.83c1.35,0,2.15-.77,2.15-1.73s-.86-1.71-2.31-1.71h-1.06v-1H393c1.22,0,2.05-.7,2.05-1.7a1.79,1.79,0,0,0-2-1.7,1.88,1.88,0,0,0-2,1.93h-1.26a3,3,0,0,1,3.26-3c2,0,3.26,1.24,3.26,2.75a2.26,2.26,0,0,1-1.71,2.21,2.28,2.28,0,0,1,2,2.26c0,1.61-1.37,2.83-3.39,2.83A3.08,3.08,0,0,1,389.76,438.67Z"/><path class="cls-3" d="M345.57,435.07a3.21,3.21,0,0,1,3.38,3.24,3.49,3.49,0,0,1-7,0,4.46,4.46,0,0,1,.94-2.64l2.6-3.9H347l-2.42,3.53A2.49,2.49,0,0,1,345.57,435.07Zm2.15,3.25a2.25,2.25,0,1,0-2.25,2.18A2.13,2.13,0,0,0,347.72,438.32Z"/><path class="cls-3" d="M349.9,440.56l3.41-3.42c1.22-1.23,1.7-2,1.7-2.7a1.74,1.74,0,0,0-2-1.78,1.94,1.94,0,0,0-2,2h-1.26a3.1,3.1,0,0,1,3.27-3.17,2.89,2.89,0,0,1,3.2,2.89c0,1-.59,1.91-2,3.38l-2.52,2.48h4.87v1.09H349.9Z"/><path class="cls-3" d="M362,439.21h-4.85v-1.07l4.56-6.37h1.49v6.37h1.57v1.07H363.2v2.17H362Zm0-1.07v-5l-3.55,5Z"/><path class="cls-3" d="M313.5,435.07a3.21,3.21,0,0,1,3.38,3.24,3.49,3.49,0,0,1-7,0,4.46,4.46,0,0,1,.94-2.64l2.6-3.9h1.44l-2.42,3.53A2.49,2.49,0,0,1,313.5,435.07Zm2.15,3.25a2.25,2.25,0,1,0-2.25,2.18A2.13,2.13,0,0,0,315.65,438.32Z"/><path class="cls-3" d="M317.83,440.56l3.41-3.42c1.22-1.23,1.7-2,1.7-2.7a1.73,1.73,0,0,0-2-1.78,1.93,1.93,0,0,0-2,2h-1.26a3.1,3.1,0,0,1,3.26-3.17,2.89,2.89,0,0,1,3.2,2.89c0,1-.59,1.91-2,3.38l-2.52,2.48h4.87v1.09h-6.68Z"/><path class="cls-3" d="M325.63,438.67h1.25A1.92,1.92,0,0,0,329,440.5a2.17,2.17,0,0,0,0-4.34,2.13,2.13,0,0,0-2,1.14h-1.23l.27-5.53h5.83v1.09h-4.68l-.17,3.14a2.74,2.74,0,0,1,2.18-.92,3.07,3.07,0,0,1,3.16,3.23,3.2,3.2,0,0,1-3.39,3.28A3.08,3.08,0,0,1,325.63,438.67Z"/><path class="cls-3" d="M282.67,435.07a3.21,3.21,0,0,1,3.38,3.24,3.49,3.49,0,0,1-7,0,4.46,4.46,0,0,1,.94-2.64l2.6-3.9h1.44l-2.42,3.53A2.45,2.45,0,0,1,282.67,435.07Zm2.14,3.25a2.25,2.25,0,1,0-2.24,2.18A2.12,2.12,0,0,0,284.81,438.32Z"/><path class="cls-3" d="M287,440.56l3.41-3.42c1.22-1.23,1.7-2,1.7-2.7a1.74,1.74,0,0,0-2-1.78,1.94,1.94,0,0,0-2,2h-1.26a3.1,3.1,0,0,1,3.27-3.17,2.89,2.89,0,0,1,3.2,2.89c0,1-.59,1.91-2,3.38l-2.52,2.48h4.87v1.09H287Z"/><path class="cls-3" d="M298.15,435.07a3.21,3.21,0,0,1,3.38,3.24,3.49,3.49,0,0,1-7,0,4.46,4.46,0,0,1,.94-2.64l2.6-3.9h1.44l-2.42,3.53A2.45,2.45,0,0,1,298.15,435.07Zm2.14,3.25a2.25,2.25,0,1,0-2.24,2.18A2.12,2.12,0,0,0,300.29,438.32Z"/><path class="cls-3" d="M250.46,435.07a3.21,3.21,0,0,1,3.38,3.24,3.49,3.49,0,0,1-7,0,4.46,4.46,0,0,1,.94-2.64l2.6-3.9h1.44l-2.42,3.53A2.45,2.45,0,0,1,250.46,435.07Zm2.14,3.25a2.25,2.25,0,1,0-2.24,2.18A2.12,2.12,0,0,0,252.6,438.32Z"/><path class="cls-3" d="M254.79,440.56l3.41-3.42c1.22-1.23,1.7-2,1.7-2.7a1.74,1.74,0,0,0-2-1.78,1.94,1.94,0,0,0-2,2h-1.26a3.1,3.1,0,0,1,3.27-3.17,2.89,2.89,0,0,1,3.2,2.89c0,1-.59,1.91-2,3.38l-2.52,2.48h4.87v1.09h-6.68Z"/><path class="cls-3" d="M267.6,432.87h-5.13v-1.1h6.59v.84l-4,8.77h-1.34Z"/><path class="cls-3" d="M218.41,435.07a3.21,3.21,0,0,1,3.38,3.24,3.49,3.49,0,0,1-7,0,4.46,4.46,0,0,1,.94-2.64l2.6-3.9h1.44l-2.42,3.53A2.45,2.45,0,0,1,218.41,435.07Zm2.14,3.25a2.25,2.25,0,1,0-2.24,2.18A2.12,2.12,0,0,0,220.55,438.32Z"/><path class="cls-3" d="M222.74,440.56l3.41-3.42c1.22-1.23,1.7-2,1.7-2.7a1.74,1.74,0,0,0-2-1.78,1.94,1.94,0,0,0-2,2h-1.26a3.1,3.1,0,0,1,3.26-3.17,2.89,2.89,0,0,1,3.21,2.89c0,1-.59,1.91-2,3.38l-2.52,2.48h4.87v1.09h-6.68Z"/><path class="cls-3" d="M230.56,438.86a2.57,2.57,0,0,1,2-2.46,2.4,2.4,0,0,1-1.68-2.23,3.1,3.1,0,0,1,6.13,0,2.4,2.4,0,0,1-1.68,2.23,2.54,2.54,0,0,1,2,2.46c0,1.6-1.39,2.73-3.39,2.73S230.56,440.46,230.56,438.86Zm5.58-.07a2.22,2.22,0,0,0-4.35,0c0,1,.85,1.75,2.18,1.75S236.14,439.78,236.14,438.79Zm-.31-4.59a1.69,1.69,0,0,0-1.86-1.6,1.67,1.67,0,0,0-1.86,1.58,1.87,1.87,0,0,0,3.72,0Z"/><path class="cls-3" d="M187.57,435.07a3.21,3.21,0,0,1,3.39,3.24,3.49,3.49,0,0,1-7,0,4.44,4.44,0,0,1,.93-2.64l2.61-3.9H189l-2.43,3.53A2.49,2.49,0,0,1,187.57,435.07Zm2.15,3.25a2.25,2.25,0,1,0-2.24,2.18A2.12,2.12,0,0,0,189.72,438.32Z"/><path class="cls-3" d="M191.91,440.56l3.4-3.42c1.23-1.23,1.71-2,1.71-2.7a1.74,1.74,0,0,0-2-1.78,1.93,1.93,0,0,0-2,2H191.8a3.1,3.1,0,0,1,3.26-3.17,2.89,2.89,0,0,1,3.2,2.89c0,1-.58,1.91-2,3.38l-2.52,2.48h4.87v1.09h-6.68Z"/><path class="cls-3" d="M202.93,438.07a3.21,3.21,0,0,1-3.38-3.24,3.49,3.49,0,0,1,7,0,4.55,4.55,0,0,1-.94,2.64l-2.6,3.89h-1.44l2.43-3.52A2.54,2.54,0,0,1,202.93,438.07Zm-2.14-3.25a2.25,2.25,0,1,0,2.24-2.19A2.12,2.12,0,0,0,200.79,434.82Z"/><path class="cls-3" d="M155.83,435.07a3.21,3.21,0,0,1,3.38,3.24,3.49,3.49,0,0,1-7,0,4.46,4.46,0,0,1,.94-2.64l2.6-3.9h1.44l-2.43,3.53A2.54,2.54,0,0,1,155.83,435.07Zm2.14,3.25a2.25,2.25,0,1,0-2.24,2.18A2.12,2.12,0,0,0,158,438.32Z"/><path class="cls-3" d="M160.09,438.67h1.25a1.92,1.92,0,0,0,2.15,1.83c1.35,0,2.15-.77,2.15-1.73s-.86-1.71-2.31-1.71h-1.06v-1h1.06c1.22,0,2-.7,2-1.7a1.79,1.79,0,0,0-2-1.7,1.88,1.88,0,0,0-2,1.93H160.1a3,3,0,0,1,3.26-3c2,0,3.26,1.24,3.26,2.75a2.26,2.26,0,0,1-1.71,2.21,2.28,2.28,0,0,1,2,2.26c0,1.61-1.37,2.83-3.39,2.83A3.08,3.08,0,0,1,160.09,438.67Z"/><path class="cls-3" d="M168.08,436.57c0-3.36,1.52-5,3.55-5s3.54,1.67,3.54,5-1.52,5-3.54,5S168.08,439.92,168.08,436.57Zm5.88,0c0-2.61-1-3.91-2.33-3.91s-2.34,1.3-2.34,3.91,1,3.91,2.34,3.91S174,439.18,174,436.57Z"/></g></g></svg>