<svg xmlns="http://www.w3.org/2000/svg" viewBox="0 0 684.91 485.02"><defs><style>.cls-1,.cls-2,.cls-3,.cls-4{fill:none;stroke:#221e1f;stroke-miterlimit:10;}.cls-1{stroke-width:5px;}.cls-2,.cls-3{stroke-width:2px;}.cls-3{stroke-linecap:square;}.cls-5{fill:#221e1f;}</style></defs><g id="레이어_2" data-name="레이어 2"><g id="B1"><polygon class="cls-1" points="282.69 337.15 282.69 348.11 251.58 348.11 251.58 272.68 157.3 272.68 84.75 445.66 84.75 482.52 682.41 482.52 682.41 413.9 654.35 413.9 654.35 337.15 282.69 337.15"/><line class="cls-2" x1="654.35" y1="413.9" x2="538.58" y2="413.9"/><line class="cls-2" x1="175.07" y1="460.84" x2="175.07" y2="480.59"/><rect class="cls-2" x="538.58" y="413.9" width="26.65" height="45.67"/><rect class="cls-2" x="565.23" y="413.9" width="89.12" height="45.67"/><rect class="cls-2" x="654.35" y="413.9" width="28.06" height="68.61"/><line class="cls-2" x1="136.65" y1="321.91" x2="137.88" y2="413.9"/><line class="cls-3" x1="137.88" y1="413.9" x2="256.38" y2="413.9"/><line class="cls-3" x1="256.38" y1="348.11" x2="256.38" y2="413.9"/><line class="cls-2" x1="165.45" y1="413.9" x2="165.45" y2="482.52"/><line class="cls-2" x1="137.88" y1="413.9" x2="137.88" y2="482.52"/><path class="cls-3" d="M503.35,337.15V381m-219.11,0,219.11,0m-219.11,0V348.12"/><line class="cls-3" x1="503.35" y1="413.9" x2="277.44" y2="413.9"/><line class="cls-2" x1="287.07" y1="413.9" x2="287.07" y2="482.52"/><line class="cls-3" x1="503.35" y1="413.9" x2="503.35" y2="482.52"/><path class="cls-3" d="M528.72,337.15v37.74m0,0H654"/><line class="cls-4" x1="393.68" y1="337.15" x2="393.35" y2="381.03"/><line class="cls-4" x1="431.12" y1="337.15" x2="431.45" y2="381.03"/><line class="cls-4" x1="469.55" y1="337.15" x2="469.88" y2="381.03"/><line class="cls-4" x1="582.86" y1="337.15" x2="582.86" y2="374.89"/><line class="cls-4" x1="591.38" y1="413.9" x2="591.38" y2="459.57"/><line class="cls-4" x1="615.71" y1="413.9" x2="615.71" y2="459.57"/><line class="cls-4" x1="635.42" y1="413.9" x2="635.42" y2="459.57"/><line class="cls-4" x1="638.37" y1="374.89" x2="638.37" y2="413.9"/><line class="cls-4" x1="408.46" y1="413.9" x2="408.46" y2="482.52"/><path class="cls-5" d="M10.76,11.06v1.79c4.13.13,7.39,1,7.39,3.46,0,2.66-3.87,3.54-8.5,3.54S1.16,19,1.16,16.31c0-2.42,3.26-3.33,7.38-3.46V11.06H0V9.25H19.33v1.81ZM.7,7.7V5.82C4.44,5.69,8.61,3.4,9.36,0L11.6.39a7.13,7.13,0,0,1-.88,2.24l8,3.42L18,7.75,9.54,4.12A13,13,0,0,1,.7,7.7Zm9,6.89c-3.12,0-6.11.41-6.11,1.72s3,1.77,6.11,1.77,6.14-.43,6.14-1.77S12.78,14.59,9.65,14.59Z"/><path class="cls-5" d="M22.09,9.74v-2a7.09,7.09,0,0,0,6-7.12l2.24.14a9,9,0,0,1-.72,3.58l6.14,3.38-1.09,1.7-6-3.4A9.43,9.43,0,0,1,22.09,9.74Zm18.24,8v1.77H23.47V14.43H37.63V12.76H23.43V11H39.85v5.12H25.69v1.68Zm-.48-7.87H37.61V.45h2.24Z"/><path class="cls-5" d="M48.87,16.65a13,13,0,0,0,4.51-.74v2a13.25,13.25,0,0,1-4.76.77H44.18V1.16h8.36v2H46.38v13.5ZM62.19.45V19.8H60.06V10.36H56.91v9.1H54.78V.57h2.13V8.25h3.15V.45Z"/><path class="cls-5" d="M78.46,4H65.31V2.22h5.44V.11H73V2.22h5.44ZM66.15,8.79c0-2.33,2.52-3.74,5.74-3.74S77.6,6.46,77.6,8.79s-2.5,3.76-5.71,3.76S66.15,11.15,66.15,8.79Zm.39,5.05H82.9v6H80.63v-4H66.54Zm1.79-5.05c0,1.2,1.38,2.06,3.56,2.06s3.55-.86,3.55-2.06-1.4-2-3.55-2S68.33,7.61,68.33,8.79ZM85.62,7.55H82.9V12.8H80.65V.45H82.9V5.39h2.72Z"/><path class="cls-5" d="M106.5,16.81v2.07H87.18V16.81h3.76V9h2.24v7.77H97V9h2.26v7.77ZM103,3.22H88.33V1.13h16.93V13.91H103Z"/><path class="cls-5" d="M115.7,10.76v-2a6.12,6.12,0,0,0,5.46-5.87H116V1H128.3V2.88h-4.9A8.87,8.87,0,0,1,123,5.14l6,3.77-1.11,1.67-5.69-3.65A8.35,8.35,0,0,1,115.7,10.76Zm18,5.12c0,2.84-3.67,3.92-8.36,3.92S117,18.72,117,15.88,120.64,12,125.33,12,133.69,13.05,133.69,15.88Zm-2.38,0c0-1.42-2.65-2.08-6-2.08s-6,.66-6,2.08S122,18,125.33,18,131.31,17.31,131.31,15.88Zm0-11.78V.45h2.24V11.33h-2.24V6.05h-3.76V4.1Z"/><path class="cls-5" d="M156.44,16.77v2.11H137.11V16.77h8.49V12.42h-7.22V1h2.22V4.49h12.32V1h2.22v11.4h-7.25v4.35ZM140.6,10.4h12.32V6.5H140.6Z"/><path class="cls-5" d="M166.27,16.54a18.47,18.47,0,0,0,6.34-.81v2.1a18.36,18.36,0,0,1-6.32.82H158.9V16.54h3.38V8.34h2.26v8.2Zm2.15-13.25H159.6V1.2h11.08V13.53h-2.26Zm10.72,7h-2.68V19.8h-2.24V.45h2.24V8.11h2.68Z"/><path class="cls-5" d="M193.77,4H180.63V2.22h5.44V.11h2.26V2.22h5.44Zm-12.3,4.78c0-2.33,2.51-3.74,5.73-3.74s5.71,1.41,5.71,3.74-2.49,3.76-5.71,3.76S181.47,11.15,181.47,8.79Zm.38,5.05h16.36v6H196v-4h-14.1Zm1.79-5.05c0,1.2,1.38,2.06,3.56,2.06s3.56-.86,3.56-2.06-1.41-2-3.56-2S183.64,7.61,183.64,8.79Zm17.29-1.24h-2.72V12.8H196V.45h2.24V5.39h2.72Z"/><path class="cls-5" d="M209.79,11.94h-7.3V10h3.78V5.42h2.22V10h1.36a18.94,18.94,0,0,0,6.35-.75v1.92C215,11.74,212.55,11.94,209.79,11.94Zm2.31-9.22h-8.68V.77h10.92v7.5H212.1Zm-6,14.89h14.46v1.95H203.85V13.87h2.26ZM222.72,5.69v2.1h-2.67v7.37h-2.24V.45h2.24V5.69Z"/><path class="cls-5" d="M45.54,26.73c20.05,0,31.38,9.63,31.38,25.15,0,8.5-5.89,16.77-14.05,18.69,10.31,2,18.35,10.08,18.35,21.3,0,15.63-11.89,25.6-32.28,25.6H8.5V26.73ZM64.91,51.88C64.91,42.25,57.77,37,45.2,37H20.39V66.72H45.2C57.77,66.72,64.91,61.51,64.91,51.88Zm4.3,40c0-10-7.92-15.29-20.61-15.29H20.39v30.58H48.6C61.29,107.16,69.21,101.84,69.21,91.87Z"/><path class="cls-5" d="M110.67,37.15H91.87V26.73h30.69v90.74H110.67Z"/><path class="cls-5" d="M185.87,339.5c2.12,0,3.32,1,3.32,2.66a2.05,2.05,0,0,1-1.48,2,2.29,2.29,0,0,1,1.94,2.25c0,1.66-1.26,2.71-3.42,2.71H182v-9.6Zm2,2.66c0-1-.75-1.57-2.09-1.57h-2.62v3.14h2.62C187.17,343.73,187.92,343.18,187.92,342.16Zm.46,4.23c0-1.05-.84-1.62-2.19-1.62h-3V348h3C187.54,348,188.38,347.45,188.38,346.39Z"/><path class="cls-5" d="M192.77,340.6h-2v-1.1H194v9.6h-1.26Z"/><path class="cls-5" d="M196.28,344.29c0-3.35,1.52-5,3.55-5s3.53,1.67,3.53,5-1.52,5-3.53,5S196.28,347.65,196.28,344.29Zm5.87,0c0-2.6-1-3.91-2.32-3.91s-2.34,1.31-2.34,3.91,1,3.91,2.34,3.91S202.15,346.91,202.15,344.29Z"/><path class="cls-5" d="M206.51,340.6h-2v-1.1h3.25v9.6h-1.26Z"/><path class="cls-5" d="M329.44,354c2.12,0,3.32,1,3.32,2.67a2.06,2.06,0,0,1-1.49,2,2.28,2.28,0,0,1,1.94,2.25c0,1.66-1.26,2.71-3.41,2.71h-4.29V354Zm2.05,2.67c0-1-.76-1.57-2.09-1.57h-2.63v3.14h2.63C330.73,358.2,331.49,357.65,331.49,356.63Zm.45,4.23c0-1.05-.84-1.62-2.18-1.62h-3v3.24h3C331.1,362.48,331.94,361.92,331.94,360.86Z"/><path class="cls-5" d="M336.34,355.07h-2V354h3.25v9.61h-1.26Z"/><path class="cls-5" d="M339.84,358.76c0-3.36,1.53-5,3.55-5s3.54,1.66,3.54,5-1.52,5-3.54,5S339.84,362.12,339.84,358.76Zm5.88,0c0-2.6-1-3.91-2.33-3.91s-2.34,1.31-2.34,3.91,1,3.91,2.34,3.91S345.72,361.38,345.72,358.76Z"/><path class="cls-5" d="M352.7,361.4h-4.84v-1.07l4.56-6.37h1.48v6.37h1.57v1.07H353.9v2.17h-1.2Zm0-1.07v-5l-3.55,5Z"/><path class="cls-5" d="M401.78,354c2.13,0,3.33,1,3.33,2.67a2.06,2.06,0,0,1-1.49,2,2.28,2.28,0,0,1,1.94,2.25c0,1.66-1.26,2.71-3.42,2.71h-4.28V354Zm2.06,2.67c0-1-.76-1.57-2.09-1.57h-2.63v3.14h2.63C403.08,358.2,403.84,357.65,403.84,356.63Zm.45,4.23c0-1.05-.84-1.62-2.18-1.62h-3v3.24h3C403.45,362.48,404.29,361.92,404.29,360.86Z"/><path class="cls-5" d="M408.69,355.07h-2V354h3.25v9.61h-1.25Z"/><path class="cls-5" d="M412.19,358.76c0-3.36,1.52-5,3.55-5s3.54,1.66,3.54,5-1.52,5-3.54,5S412.19,362.12,412.19,358.76Zm5.88,0c0-2.6-1-3.91-2.33-3.91s-2.34,1.31-2.34,3.91,1,3.91,2.34,3.91S418.07,361.38,418.07,358.76Z"/><path class="cls-5" d="M420.41,360.86h1.25a1.92,1.92,0,0,0,2.14,1.84,2.18,2.18,0,0,0,0-4.35,2.12,2.12,0,0,0-2,1.14H420.6l.28-5.53h5.83v1.1H422l-.17,3.14a2.71,2.71,0,0,1,2.17-.93,3.07,3.07,0,0,1,3.17,3.23,3.21,3.21,0,0,1-3.4,3.29A3.08,3.08,0,0,1,420.41,360.86Z"/><path class="cls-5" d="M439.86,354c2.13,0,3.33,1,3.33,2.67a2.06,2.06,0,0,1-1.49,2,2.28,2.28,0,0,1,1.94,2.25c0,1.66-1.26,2.71-3.42,2.71h-4.28V354Zm2.05,2.67c0-1-.75-1.57-2.08-1.57H437.2v3.14h2.63C441.16,358.2,441.91,357.65,441.91,356.63Zm.46,4.23c0-1.05-.84-1.62-2.18-1.62h-3v3.24h3C441.53,362.48,442.37,361.92,442.37,360.86Z"/><path class="cls-5" d="M446.77,355.07h-2V354H448v9.61h-1.25Z"/><path class="cls-5" d="M450.27,358.76c0-3.36,1.52-5,3.55-5s3.54,1.66,3.54,5-1.53,5-3.54,5S450.27,362.12,450.27,358.76Zm5.88,0c0-2.6-1-3.91-2.33-3.91s-2.34,1.31-2.34,3.91,1,3.91,2.34,3.91S456.15,361.38,456.15,358.76Z"/><path class="cls-5" d="M462.08,357.26a3.21,3.21,0,0,1,3.38,3.24,3.49,3.49,0,0,1-7,0,4.5,4.5,0,0,1,.94-2.64L462,354h1.44L461,357.49A2.54,2.54,0,0,1,462.08,357.26Zm2.14,3.25A2.25,2.25,0,1,0,462,362.7,2.12,2.12,0,0,0,464.22,360.51Z"/><path class="cls-5" d="M476.58,354c2.13,0,3.33,1,3.33,2.67a2.06,2.06,0,0,1-1.49,2,2.28,2.28,0,0,1,1.94,2.25c0,1.66-1.26,2.71-3.42,2.71h-4.28V354Zm2.05,2.67c0-1-.75-1.57-2.08-1.57h-2.63v3.14h2.63C477.88,358.2,478.63,357.65,478.63,356.63Zm.46,4.23c0-1.05-.84-1.62-2.18-1.62h-3v3.24h3C478.25,362.48,479.09,361.92,479.09,360.86Z"/><path class="cls-5" d="M483.49,355.07h-2V354h3.25v9.61h-1.25Z"/><path class="cls-5" d="M487,358.76c0-3.36,1.52-5,3.55-5s3.54,1.66,3.54,5-1.52,5-3.54,5S487,362.12,487,358.76Zm5.88,0c0-2.6-1-3.91-2.33-3.91s-2.34,1.31-2.34,3.91,1,3.91,2.34,3.91S492.87,361.38,492.87,358.76Z"/><path class="cls-5" d="M499.84,355.07h-5.13V354h6.58v.84l-4,8.77h-1.33Z"/><path class="cls-5" d="M545.55,350.4c2.12,0,3.32,1,3.32,2.66a2,2,0,0,1-1.49,2,2.31,2.31,0,0,1,2,2.26c0,1.65-1.26,2.71-3.42,2.71h-4.29V350.4Zm2.05,2.66c0-1-.76-1.57-2.09-1.57h-2.63v3.14h2.63C546.84,354.63,547.6,354.08,547.6,353.06Zm.45,4.24c0-1.06-.84-1.62-2.18-1.62h-3v3.23h3C547.21,358.91,548.05,358.35,548.05,357.3Z"/><path class="cls-5" d="M552.45,351.5h-2v-1.1h3.25V360h-1.26Z"/><path class="cls-5" d="M556,355.2c0-3.36,1.53-5,3.55-5s3.54,1.67,3.54,5-1.52,5-3.54,5S556,358.55,556,355.2Zm5.88,0c0-2.61-1-3.91-2.33-3.91s-2.34,1.3-2.34,3.91,1,3.91,2.34,3.91S561.83,357.81,561.83,355.2Z"/><path class="cls-5" d="M564.2,357.49a2.56,2.56,0,0,1,2-2.46,2.4,2.4,0,0,1-1.68-2.23,3.1,3.1,0,0,1,6.13,0A2.38,2.38,0,0,1,569,355a2.55,2.55,0,0,1,2,2.46c0,1.6-1.39,2.73-3.4,2.73S564.2,359.09,564.2,357.49Zm5.57-.07a2.22,2.22,0,0,0-4.35,0c0,1,.85,1.75,2.18,1.75S569.77,358.41,569.77,357.42Zm-.31-4.59a1.88,1.88,0,0,0-3.72,0,1.87,1.87,0,0,0,3.72,0Z"/><path class="cls-5" d="M607.18,350.4c2.12,0,3.32,1,3.32,2.66a2.05,2.05,0,0,1-1.49,2A2.3,2.3,0,0,1,611,357.3c0,1.65-1.26,2.71-3.41,2.71h-4.29V350.4Zm2.05,2.66c0-1-.76-1.57-2.09-1.57h-2.63v3.14h2.63C608.47,354.63,609.23,354.08,609.23,353.06Zm.45,4.24c0-1.06-.84-1.62-2.18-1.62h-3v3.23h3C608.84,358.91,609.68,358.35,609.68,357.3Z"/><path class="cls-5" d="M614.08,351.5h-2v-1.1h3.25V360h-1.26Z"/><path class="cls-5" d="M617.58,355.2c0-3.36,1.52-5,3.55-5s3.54,1.67,3.54,5-1.52,5-3.54,5S617.58,358.55,617.58,355.2Zm5.88,0c0-2.61-1-3.91-2.33-3.91s-2.34,1.3-2.34,3.91,1,3.91,2.34,3.91S623.46,357.81,623.46,355.2Z"/><path class="cls-5" d="M629,356.7a3.21,3.21,0,0,1-3.38-3.24,3.49,3.49,0,0,1,7,0,4.54,4.54,0,0,1-.93,2.64l-2.6,3.89h-1.44l2.42-3.52A2.49,2.49,0,0,1,629,356.7Zm-2.15-3.25a2.25,2.25,0,1,0,2.24-2.19A2.12,2.12,0,0,0,626.88,353.45Z"/><path class="cls-5" d="M335.8,439.6c2.12,0,3.32,1,3.32,2.66a2,2,0,0,1-1.49,2,2.3,2.3,0,0,1,1.95,2.26c0,1.65-1.26,2.71-3.42,2.71h-4.28V439.6Zm2.05,2.66c0-1-.76-1.57-2.09-1.57h-2.62v3.14h2.62C337.09,443.83,337.85,443.28,337.85,442.26Zm.46,4.24c0-1.06-.84-1.62-2.19-1.62h-3v3.23h3C337.47,448.11,338.31,447.55,338.31,446.5Z"/><path class="cls-5" d="M342.7,440.7h-2v-1.1H344v9.61H342.7Z"/><path class="cls-5" d="M346.21,444.4c0-3.36,1.52-5,3.54-5s3.54,1.67,3.54,5-1.52,5-3.54,5S346.21,447.75,346.21,444.4Zm5.87,0c0-2.61-1-3.91-2.33-3.91s-2.33,1.3-2.33,3.91,1,3.91,2.33,3.91S352.08,447,352.08,444.4Z"/><path class="cls-5" d="M354.5,448.39l3.4-3.42c1.23-1.23,1.71-2,1.71-2.7a1.74,1.74,0,0,0-2-1.78,1.93,1.93,0,0,0-2,2.05h-1.26a3.1,3.1,0,0,1,3.26-3.17,2.88,2.88,0,0,1,3.2,2.89c0,1-.58,1.91-2,3.38l-2.52,2.47h4.87v1.1H354.5Z"/><path class="cls-5" d="M446.65,439.6c2.12,0,3.32,1,3.32,2.66a2.05,2.05,0,0,1-1.49,2,2.3,2.3,0,0,1,1.94,2.26c0,1.65-1.26,2.71-3.41,2.71h-4.29V439.6Zm2.05,2.66c0-1-.76-1.57-2.09-1.57H444v3.14h2.63C447.94,443.83,448.7,443.28,448.7,442.26Zm.45,4.24c0-1.06-.84-1.62-2.18-1.62h-3v3.23h3C448.31,448.11,449.15,447.55,449.15,446.5Z"/><path class="cls-5" d="M453.55,440.7h-2v-1.1h3.25v9.61h-1.26Z"/><path class="cls-5" d="M457.05,444.4c0-3.36,1.52-5,3.55-5s3.54,1.67,3.54,5-1.52,5-3.54,5S457.05,447.75,457.05,444.4Zm5.88,0c0-2.61-1-3.91-2.33-3.91s-2.34,1.3-2.34,3.91,1,3.91,2.34,3.91S462.93,447,462.93,444.4Z"/><path class="cls-5" d="M465.27,446.5h1.25a1.92,1.92,0,0,0,2.16,1.83c1.34,0,2.14-.77,2.14-1.73s-.86-1.71-2.31-1.71h-1.06v-1.05h1.06c1.22,0,2.05-.69,2.05-1.69a1.79,1.79,0,0,0-2-1.7,1.88,1.88,0,0,0-2,1.93h-1.26a3,3,0,0,1,3.27-3c2,0,3.26,1.24,3.26,2.75a2.25,2.25,0,0,1-1.72,2.2,2.3,2.3,0,0,1,2,2.27c0,1.61-1.37,2.83-3.38,2.83A3.09,3.09,0,0,1,465.27,446.5Z"/><path class="cls-5" d="M548.31,430.75v1.12h-5.56v3h5.14V436h-5.14v3.24h5.67v1.11h-6.93v-9.61Z"/><path class="cls-5" d="M549.39,441.17,553.77,430H555l-4.39,11.22Z"/><path class="cls-5" d="M557.69,439.22H563v1.14h-6.54v-9.61h1.26Z"/><path class="cls-5" d="M574.25,446c0-2.12,1-3.32,2.66-3.32a2,2,0,0,1,2,1.48,2.3,2.3,0,0,1,2.26-1.94c1.65,0,2.71,1.26,2.71,3.42V450h-9.61Zm2.66-2c-1,0-1.57.75-1.57,2.09v2.62h3.15v-2.62C578.49,444.73,577.93,444,576.91,444Zm4.24-.46c-1.06,0-1.62.84-1.62,2.19v3h3.24v-3C582.77,444.36,582.2,443.52,581.15,443.52Z"/><path class="cls-5" d="M575.36,439.13v2h-1.11v-3.25h9.61v1.26Z"/><path class="cls-5" d="M575.36,433.7v2h-1.11v-3.25h9.61v1.25Z"/><path class="cls-5" d="M579.05,430.2c-3.36,0-5-1.52-5-3.55s1.67-3.54,5-3.54,5,1.52,5,3.54S582.41,430.2,579.05,430.2Zm0-5.88c-2.6,0-3.91,1-3.91,2.33s1.31,2.34,3.91,2.34,3.91-1,3.91-2.34S581.66,424.32,579.05,424.32Z"/><path class="cls-5" d="M598.9,444.58c0-2.12,1-3.32,2.66-3.32a2,2,0,0,1,2,1.49,2.3,2.3,0,0,1,2.26-1.94c1.65,0,2.71,1.25,2.71,3.41v4.29H598.9Zm2.66-2.05c-1,0-1.57.76-1.57,2.09v2.63h3.14v-2.63C603.13,443.29,602.58,442.53,601.56,442.53Zm4.24-.45c-1.06,0-1.62.84-1.62,2.18v3h3.24v-3C607.42,442.92,606.85,442.08,605.8,442.08Z"/><path class="cls-5" d="M600,437.68v2h-1.1v-3.25h9.61v1.26Z"/><path class="cls-5" d="M600,432.26v2h-1.1V431h9.61v1.26Z"/><path class="cls-5" d="M600,426.83v2h-1.1v-3.25h9.61v1.25Z"/><path class="cls-5" d="M640.16,445.81c0-2.12,1-3.32,2.66-3.32a2,2,0,0,1,2,1.48,2.3,2.3,0,0,1,2.26-1.94c1.65,0,2.71,1.26,2.71,3.42v4.28h-9.61Zm2.66-2.05c-1,0-1.57.75-1.57,2.08v2.63h3.15v-2.63C644.4,444.51,643.84,443.76,642.82,443.76Zm4.24-.46c-1.06,0-1.62.84-1.62,2.18v3h3.24v-3C648.68,444.14,648.11,443.3,647.06,443.3Z"/><path class="cls-5" d="M641.27,438.91v2h-1.11v-3.25h9.61v1.26Z"/><path class="cls-5" d="M641.27,433.48v2h-1.11v-3.25h9.61v1.26Z"/><path class="cls-5" d="M649,430l-3.42-3.4c-1.23-1.23-2-1.71-2.69-1.71a1.74,1.74,0,0,0-1.79,2,1.93,1.93,0,0,0,2.05,2v1.26a3.1,3.1,0,0,1-3.17-3.26,2.89,2.89,0,0,1,2.89-3.2c1,0,1.91.58,3.39,2l2.47,2.52v-4.87h1.09V430Z"/></g></g></svg>