<svg width="800" height="600" viewBox="0 0 800 600" fill="none" xmlns="http://www.w3.org/2000/svg">
<rect x="625" y="168" width="50" height="15" rx="5" fill="#854D0E"/>
<path d="M644.457 182.5H651.02C654.105 182.5 655.98 180.82 655.98 178.516C655.98 176.494 654.506 175.195 652.719 175.137V175C654.33 174.668 655.424 173.477 655.434 171.914C655.424 169.756 653.734 168.359 650.512 168.359H644.457V182.5ZM648.168 179.512V176.426H650.121C651.312 176.426 652.055 177.021 652.055 178.047C652.055 179.004 651.4 179.521 650.062 179.512H648.168ZM648.168 174.102V171.289H649.887C650.893 171.289 651.605 171.797 651.605 172.695C651.605 173.594 650.873 174.102 649.828 174.102H648.168Z" fill="white"/>
</svg>
