<svg width="800" height="600" viewBox="0 0 800 600" fill="none" xmlns="http://www.w3.org/2000/svg">
<rect x="583" y="168" width="35" height="15" rx="5" fill="#3F6212"/>
<path d="M603.273 173.613H607.043C606.73 170.137 604.182 168.164 600.656 168.164C596.857 168.164 593.869 170.723 593.859 175.43C593.869 180.117 596.779 182.695 600.656 182.695C604.729 182.695 606.838 179.883 607.043 177.461L603.273 177.422C603.068 178.682 602.17 179.443 600.734 179.453C598.82 179.443 597.688 178.086 597.688 175.43C597.688 172.9 598.791 171.406 600.754 171.406C602.258 171.406 603.146 172.285 603.273 173.613Z" fill="white"/>
</svg>
