<svg width="1600" height="1200" viewBox="0 0 800 600" fill="none" xmlns="http://www.w3.org/2000/svg">
    <rect x="457" y="168" width="50" height="15" rx="5" fill="#1287AF"/>
    <path d="M480.828 182.5C485.145 182.5 487.859 179.844 487.859 175.43C487.859 171.006 485.145 168.359 480.789 168.359H475.457V182.5H480.828ZM479.168 179.336V171.523H480.594C482.869 171.523 484.109 172.441 484.109 175.43C484.109 178.408 482.869 179.336 480.691 179.336H479.168Z"
          fill="white"/>
    <rect x="557" y="168" width="20" height="15" rx="5" fill="#1287AF"/>
    <path d="M565.828 182.5C570.145 182.5 572.859 179.844 572.859 175.43C572.859 171.006 570.145 168.359 565.789 168.359H560.457V182.5H565.828ZM564.168 179.336V171.523H565.594C567.869 171.523 569.109 172.441 569.109 175.43C569.109 178.408 567.869 179.336 565.691 179.336H564.168Z"
          fill="white"/>
</svg>
