<svg width="800" height="600" viewBox="0 0 800 600" fill="none" xmlns="http://www.w3.org/2000/svg">
<path d="M357.75 94.4199H378.13V186.72H464.7V251.72H490.46V285.79L490.75 410.75V442.38H428.2V513.28H713.18V443.9H685.13V186.72H756.7V69.3199H357.75V94.4199Z" stroke="#2D2926" stroke-width="5" stroke-miterlimit="10" stroke-linecap="square"/>
<path d="M685.02 379.25H558.31L558.2 443.9M685.13 443.9H558.19M685.13 443.9H596.01M685.13 443.9V489.57H596.01M685.13 443.9H713.19V512.51H685.13V443.9ZM490.46 251.72H529.35M529.35 399.84V513.28M529.35 399.84H490.46M529.35 399.84V363.12M596.01 443.9H569.36V489.57H596.01M596.01 443.9V489.57M529.79 251.72V294.88M529.79 294.88H490.48M529.79 294.88V327.48M685.13 251.72H557.22V206.35M685.13 186.51H557.22V69.3199M464.7 186.72L493.12 186.51L492.48 69.3199M621.18 186.51V251.72M378.13 99.0699L427.81 98.7799L427.52 69.3199M443.36 69.3199V98.7799H492.64M588.28 251.72V200.41M621.66 379.25V443.9M615.29 443.9V461.03H628.21M621.66 461.03V476.3H628.21V489.57M647.4 443.9V489.57M664.82 443.9V489.57M664.82 477.28H685.13M468.86 442.65V513.17M490.75 442.38H529" stroke="#2D2926" stroke-width="2" stroke-miterlimit="10" stroke-linecap="square"/>
<path d="M465.5 187H494.5M523.5 187H520.75M494.5 187V207M494.5 187H497.5M494.5 207V213.5L485 211.862M494.5 207C494.681 207 495.788 207 497.5 207M485 211.862L465.5 208.5V221.5H485M485 211.862H465.5M485 211.862V215.5M497.5 187V207M497.5 187H500.5M497.5 207C498.361 207 499.374 207 500.5 207M500.5 187V207M500.5 187H503.5M500.5 207C501.431 207 502.439 207 503.5 207M503.5 187V207M503.5 187H506.5M503.5 207C504.462 207 505.467 207 506.5 207M506.5 187V207M506.5 187H509M506.5 207C507.319 207 508.155 207 509 207M509 187V207M509 187H512M509 207C509.993 207 510.997 207 512 207M512 187V207M512 187H515M512 207C513.007 207 514.011 207 515 207M515 187V207M515 187H518M515 207C516.022 207 517.028 207 518 207M518 187V207M518 187H520.75M518 207C518.953 207 519.874 207 520.75 207M520.75 187V207M520.75 207C521.731 207 522.655 207 523.5 207V232H523M465.5 215.5H485M485 215.5V218.5M465.5 218.5H485M485 218.5V221.5M485 221.5V224.5M485 224.5H465.5M485 224.5V227.5M485 227.5H465.5M485 227.5V230.5M485 230.5V232H488M485 230.5H465.5M488 232V250.5M488 232H491M491 232H494M491 232V249M491 250.5V249M494 232V249M494 232H497M491 249H497M497 249V252M497 249V232M497 232H500M500 232V252M500 232H502.5M502.5 232V252M502.5 232H505.5M505.5 232V252M505.5 232H508.5M508.5 232V252M508.5 232H511M511 232V252M511 232H514M514 232V252M514 232H517M517 232V252M517 232H520M520 232V252M520 232H523M523 232V252" stroke="#2D2926"/>
<path d="M430.539 138.102H429.062L426.602 139.715V141.15L428.967 139.605H429.021V148H430.539V138.102ZM436.5 148.137C438.79 148.137 440.13 146.291 440.137 143.051C440.13 139.831 438.77 137.965 436.5 137.965C434.224 137.965 432.863 139.831 432.863 143.051C432.863 146.291 434.21 148.137 436.5 148.137ZM434.367 143.051C434.367 140.59 435.167 139.243 436.5 139.236C437.826 139.243 438.633 140.59 438.633 143.051C438.633 145.519 437.833 146.838 436.5 146.838C435.16 146.838 434.36 145.519 434.367 143.051ZM445.455 138.102H443.979L441.518 139.715V141.15L443.883 139.605H443.938V148H445.455V138.102Z" fill="#2D2926"/>
<path d="M380.832 80.1016H379.355L376.895 81.7148V83.1504L379.26 81.6055H379.314V90H380.832V80.1016ZM386.793 90.1367C389.083 90.1367 390.423 88.291 390.43 85.0508C390.423 81.8311 389.062 79.9648 386.793 79.9648C384.517 79.9648 383.156 81.8311 383.156 85.0508C383.156 88.291 384.503 90.1367 386.793 90.1367ZM384.66 85.0508C384.66 82.5898 385.46 81.2432 386.793 81.2363C388.119 81.2432 388.926 82.5898 388.926 85.0508C388.926 87.5186 388.126 88.8379 386.793 88.8379C385.453 88.8379 384.653 87.5186 384.66 85.0508ZM395.748 80.1016H394.271L391.811 81.7148V83.1504L394.176 81.6055H394.23V90H395.748V80.1016ZM402.652 84.4219H398.264V85.6797H402.652V84.4219ZM408.162 80.1016H406.686L404.225 81.7148V83.1504L406.59 81.6055H406.645V90H408.162V80.1016Z" fill="#2D2926"/>
<path d="M455.332 80.1016H453.855L451.395 81.7148V83.1504L453.76 81.6055H453.814V90H455.332V80.1016ZM461.293 90.1367C463.583 90.1367 464.923 88.291 464.93 85.0508C464.923 81.8311 463.562 79.9648 461.293 79.9648C459.017 79.9648 457.656 81.8311 457.656 85.0508C457.656 88.291 459.003 90.1367 461.293 90.1367ZM459.16 85.0508C459.16 82.5898 459.96 81.2432 461.293 81.2363C462.619 81.2432 463.426 82.5898 463.426 85.0508C463.426 87.5186 462.626 88.8379 461.293 88.8379C459.953 88.8379 459.153 87.5186 459.16 85.0508ZM470.248 80.1016H468.771L466.311 81.7148V83.1504L468.676 81.6055H468.73V90H470.248V80.1016ZM477.152 84.4219H472.764V85.6797H477.152V84.4219ZM482.662 80.1016H481.186L478.725 81.7148V83.1504L481.09 81.6055H481.145V90H482.662V80.1016Z" fill="#2D2926"/>
<path d="M649.014 124.102H647.537L645.076 125.715V127.15L647.441 125.605H647.496V134H649.014V124.102ZM654.975 134.137C657.265 134.137 658.604 132.291 658.611 129.051C658.604 125.831 657.244 123.965 654.975 123.965C652.698 123.965 651.338 125.831 651.338 129.051C651.338 132.291 652.685 134.137 654.975 134.137ZM652.842 129.051C652.842 126.59 653.642 125.243 654.975 125.236C656.301 125.243 657.107 126.59 657.107 129.051C657.107 131.519 656.308 132.838 654.975 132.838C653.635 132.838 652.835 131.519 652.842 129.051ZM660.17 134H666.828V132.715H662.262V132.633L664.271 130.596C666.131 128.771 666.65 127.889 666.664 126.781C666.65 125.175 665.331 123.965 663.424 123.965C661.537 123.965 660.156 125.161 660.17 126.973H661.592C661.599 125.92 662.296 125.223 663.396 125.223C664.436 125.223 665.229 125.845 665.229 126.822C665.229 127.69 664.688 128.319 663.602 129.447L660.17 132.906V134Z" fill="#2D2926"/>
<path d="M566.491 215.102H565.015L562.554 216.715V218.15L564.919 216.605H564.974V225H566.491V215.102ZM572.767 215.102H571.29L568.829 216.715V218.15L571.194 216.605H571.249V225H572.767V215.102ZM578.796 225.137C580.847 225.137 582.371 223.927 582.364 222.279C582.371 221.028 581.585 220.119 580.231 219.928V219.859C581.298 219.593 581.995 218.786 581.981 217.658C581.995 216.195 580.771 214.965 578.823 214.965C576.978 214.965 575.487 216.059 575.446 217.672H576.896C576.93 216.776 577.818 216.223 578.81 216.223C579.855 216.223 580.532 216.838 580.532 217.74C580.532 218.69 579.746 219.319 578.618 219.312H577.771V220.543H578.618C580.033 220.55 580.847 221.247 580.847 222.225C580.847 223.188 579.979 223.838 578.782 223.838C577.675 223.838 576.813 223.284 576.759 222.416H575.228C575.289 224.036 576.745 225.137 578.796 225.137Z" fill="#2D2926"/>
<path d="M598.416 215.102H596.939L594.479 216.715V218.15L596.844 216.605H596.898V225H598.416V215.102ZM604.691 215.102H603.215L600.754 216.715V218.15L603.119 216.605H603.174V225H604.691V215.102ZM606.988 223.072H611.801V225H613.223V223.072H614.576V221.801H613.223V215.102H611.363L606.988 221.855V223.072ZM608.574 221.801V221.719L611.691 216.893H611.801V221.801H608.574Z" fill="#2D2926"/>
<path d="M644.809 215.102H643.332L640.871 216.715V218.15L643.236 216.605H643.291V225H644.809V215.102ZM650.77 225.137C653.06 225.137 654.399 223.291 654.406 220.051C654.399 216.831 653.039 214.965 650.77 214.965C648.493 214.965 647.133 216.831 647.133 220.051C647.133 223.291 648.479 225.137 650.77 225.137ZM648.637 220.051C648.637 217.59 649.437 216.243 650.77 216.236C652.096 216.243 652.902 217.59 652.902 220.051C652.902 222.519 652.103 223.838 650.77 223.838C649.43 223.838 648.63 222.519 648.637 220.051ZM659.479 225.137C661.529 225.137 663.054 223.927 663.047 222.279C663.054 221.028 662.268 220.119 660.914 219.928V219.859C661.98 219.593 662.678 218.786 662.664 217.658C662.678 216.195 661.454 214.965 659.506 214.965C657.66 214.965 656.17 216.059 656.129 217.672H657.578C657.612 216.776 658.501 216.223 659.492 216.223C660.538 216.223 661.215 216.838 661.215 217.74C661.215 218.69 660.429 219.319 659.301 219.312H658.453V220.543H659.301C660.716 220.55 661.529 221.247 661.529 222.225C661.529 223.188 660.661 223.838 659.465 223.838C658.357 223.838 657.496 223.284 657.441 222.416H655.91C655.972 224.036 657.428 225.137 659.479 225.137Z" fill="#2D2926"/>
<path d="M497.643 269.102H496.166L493.705 270.715V272.15L496.07 270.605H496.125V279H497.643V269.102ZM503.604 279.137C505.894 279.137 507.233 277.291 507.24 274.051C507.233 270.831 505.873 268.965 503.604 268.965C501.327 268.965 499.967 270.831 499.967 274.051C499.967 277.291 501.313 279.137 503.604 279.137ZM501.471 274.051C501.471 271.59 502.271 270.243 503.604 270.236C504.93 270.243 505.736 271.59 505.736 274.051C505.736 276.519 504.937 277.838 503.604 277.838C502.264 277.838 501.464 276.519 501.471 274.051ZM512.258 279.137C514.377 279.137 515.888 277.975 515.895 276.361C515.888 275.09 514.972 274.051 513.816 273.873V273.818C514.814 273.586 515.505 272.684 515.512 271.604C515.505 270.079 514.124 268.965 512.258 268.965C510.364 268.965 508.99 270.079 508.99 271.604C508.99 272.684 509.667 273.586 510.686 273.818V273.873C509.517 274.051 508.607 275.09 508.621 276.361C508.607 277.975 510.104 279.137 512.258 279.137ZM510.152 276.252C510.132 275.233 511.027 274.488 512.258 274.488C513.475 274.488 514.363 275.233 514.363 276.252C514.363 277.223 513.543 277.893 512.258 277.893C510.952 277.893 510.132 277.223 510.152 276.252ZM510.453 271.74C510.46 270.817 511.171 270.188 512.258 270.195C513.317 270.188 514.042 270.817 514.035 271.74C514.042 272.67 513.29 273.306 512.258 273.299C511.198 273.306 510.46 272.663 510.453 271.74ZM521.842 273.422H517.453V274.68H521.842V273.422ZM527.352 269.102H525.875L523.414 270.715V272.15L525.779 270.605H525.834V279H527.352V269.102Z" fill="#2D2926"/>
<path d="M503.35 416.102H501.873L499.412 417.715V419.15L501.777 417.605H501.832V426H503.35V416.102ZM509.311 426.137C511.601 426.137 512.94 424.291 512.947 421.051C512.94 417.831 511.58 415.965 509.311 415.965C507.034 415.965 505.674 417.831 505.674 421.051C505.674 424.291 507.021 426.137 509.311 426.137ZM507.178 421.051C507.178 418.59 507.978 417.243 509.311 417.236C510.637 417.243 511.443 418.59 511.443 421.051C511.443 423.519 510.644 424.838 509.311 424.838C507.971 424.838 507.171 423.519 507.178 421.051ZM517.965 426.137C520.084 426.137 521.595 424.975 521.602 423.361C521.595 422.09 520.679 421.051 519.523 420.873V420.818C520.521 420.586 521.212 419.684 521.219 418.604C521.212 417.079 519.831 415.965 517.965 415.965C516.071 415.965 514.697 417.079 514.697 418.604C514.697 419.684 515.374 420.586 516.393 420.818V420.873C515.224 421.051 514.314 422.09 514.328 423.361C514.314 424.975 515.812 426.137 517.965 426.137ZM515.859 423.252C515.839 422.233 516.734 421.488 517.965 421.488C519.182 421.488 520.07 422.233 520.07 423.252C520.07 424.223 519.25 424.893 517.965 424.893C516.659 424.893 515.839 424.223 515.859 423.252ZM516.16 418.74C516.167 417.817 516.878 417.188 517.965 417.195C519.024 417.188 519.749 417.817 519.742 418.74C519.749 419.67 518.997 420.306 517.965 420.299C516.905 420.306 516.167 419.663 516.16 418.74Z" fill="#2D2926"/>
<path d="M442.896 473.102H441.42L438.959 474.715V476.15L441.324 474.605H441.379V483H442.896V473.102ZM448.857 483.137C451.147 483.137 452.487 481.291 452.494 478.051C452.487 474.831 451.127 472.965 448.857 472.965C446.581 472.965 445.221 474.831 445.221 478.051C445.221 481.291 446.567 483.137 448.857 483.137ZM446.725 478.051C446.725 475.59 447.524 474.243 448.857 474.236C450.184 474.243 450.99 475.59 450.99 478.051C450.99 480.519 450.19 481.838 448.857 481.838C447.518 481.838 446.718 480.519 446.725 478.051ZM454.121 483H455.693L460.096 474.441V473.102H453.438V474.387H458.537V474.469L454.121 483Z" fill="#2D2926"/>
<path d="M491.815 473.102H490.339L487.878 474.715V476.15L490.243 474.605H490.298V483H491.815V473.102ZM497.776 483.137C500.066 483.137 501.406 481.291 501.413 478.051C501.406 474.831 500.046 472.965 497.776 472.965C495.5 472.965 494.14 474.831 494.14 478.051C494.14 481.291 495.486 483.137 497.776 483.137ZM495.644 478.051C495.644 475.59 496.443 474.243 497.776 474.236C499.103 474.243 499.909 475.59 499.909 478.051C499.909 480.519 499.109 481.838 497.776 481.838C496.437 481.838 495.637 480.519 495.644 478.051ZM506.554 483.137C508.68 483.15 510.095 481.681 510.095 479.76C510.095 477.866 508.673 476.513 506.909 476.506C505.836 476.513 504.906 477.005 504.366 477.846H504.257C504.257 475.61 505.146 474.284 506.677 474.277C507.675 474.284 508.311 474.865 508.509 475.672H509.999C509.767 474.1 508.502 472.965 506.677 472.965C504.305 472.965 502.814 474.934 502.808 478.379C502.808 482.036 504.722 483.123 506.554 483.137ZM504.435 479.801C504.448 478.7 505.371 477.729 506.581 477.736C507.771 477.729 508.632 478.652 508.632 479.787C508.632 480.942 507.736 481.872 506.54 481.879C505.323 481.872 504.441 480.901 504.435 479.801Z" fill="#2D2926"/>
<path d="M573.799 472H580.061V470.701H575.303V467.68H579.678V466.395H575.303V463.4H580.006V462.102H573.799V472ZM585.502 461.637H584.203L581.018 473.49H582.316L585.502 461.637ZM586.705 472H592.68V470.701H588.209V462.102H586.705V472Z" fill="#2D2926"/>
<path d="M603.114 470.102H601.638L599.177 471.715V473.15L601.542 471.605H601.597V480H603.114V470.102ZM609.39 470.102H607.913L605.452 471.715V473.15L607.817 471.605H607.872V480H609.39V470.102ZM615.269 480.137C617.333 480.137 618.796 478.735 618.796 476.787C618.796 474.88 617.422 473.499 615.556 473.492C614.804 473.499 614.106 473.766 613.696 474.162H613.601L613.929 471.387H618.29V470.102H612.685L612.042 475.611H613.464C613.799 475.003 614.407 474.736 615.2 474.736C616.444 474.75 617.333 475.625 617.333 476.828C617.333 478.004 616.472 478.872 615.269 478.879C614.271 478.872 613.464 478.257 613.382 477.416H611.919C611.987 478.995 613.396 480.137 615.269 480.137Z" fill="#2D2926"/>
<path d="M624.998 448.102H623.521L621.061 449.715V451.15L623.426 449.605H623.48V458H624.998V448.102ZM631.273 448.102H629.797L627.336 449.715V451.15L629.701 449.605H629.756V458H631.273V448.102ZM637.371 458.137C639.497 458.15 640.912 456.681 640.912 454.76C640.912 452.866 639.49 451.513 637.727 451.506C636.653 451.513 635.724 452.005 635.184 452.846H635.074C635.074 450.61 635.963 449.284 637.494 449.277C638.492 449.284 639.128 449.865 639.326 450.672H640.816C640.584 449.1 639.319 447.965 637.494 447.965C635.122 447.965 633.632 449.934 633.625 453.379C633.625 457.036 635.539 458.123 637.371 458.137ZM635.252 454.801C635.266 453.7 636.188 452.729 637.398 452.736C638.588 452.729 639.449 453.652 639.449 454.787C639.449 455.942 638.554 456.872 637.357 456.879C636.141 456.872 635.259 455.901 635.252 454.801Z" fill="#2D2926"/>
<path d="M670.702 456.102H669.226L666.765 457.715V459.15L669.13 457.605H669.185V466H670.702V456.102ZM675.718 456.102H674.241L671.78 457.715V459.15L674.146 457.605H674.2V466H675.718V456.102ZM677.315 466H678.887L683.29 457.441V456.102H676.632V457.387H681.731V457.469L677.315 466Z" fill="#2D2926"/>
<path d="M582.733 407.102H581.257L578.796 408.715V410.15L581.161 408.605H581.216V417H582.733V407.102ZM588.694 417.137C590.984 417.137 592.324 415.291 592.331 412.051C592.324 408.831 590.964 406.965 588.694 406.965C586.418 406.965 585.058 408.831 585.058 412.051C585.058 415.291 586.404 417.137 588.694 417.137ZM586.562 412.051C586.562 409.59 587.361 408.243 588.694 408.236C590.021 408.243 590.827 409.59 590.827 412.051C590.827 414.519 590.027 415.838 588.694 415.838C587.354 415.838 586.555 414.519 586.562 412.051ZM593.671 415.072H598.483V417H599.905V415.072H601.259V413.801H599.905V407.102H598.046L593.671 413.855V415.072ZM595.257 413.801V413.719L598.374 408.893H598.483V413.801H595.257Z" fill="#2D2926"/>
<path d="M645.932 407.102H644.455L641.994 408.715V410.15L644.359 408.605H644.414V417H645.932V407.102ZM651.893 417.137C654.183 417.137 655.522 415.291 655.529 412.051C655.522 408.831 654.162 406.965 651.893 406.965C649.616 406.965 648.256 408.831 648.256 412.051C648.256 415.291 649.603 417.137 651.893 417.137ZM649.76 412.051C649.76 409.59 650.56 408.243 651.893 408.236C653.219 408.243 654.025 409.59 654.025 412.051C654.025 414.519 653.226 415.838 651.893 415.838C650.553 415.838 649.753 414.519 649.76 412.051ZM660.451 417.137C662.516 417.137 663.979 415.735 663.979 413.787C663.979 411.88 662.604 410.499 660.738 410.492C659.986 410.499 659.289 410.766 658.879 411.162H658.783L659.111 408.387H663.473V407.102H657.867L657.225 412.611H658.646C658.981 412.003 659.59 411.736 660.383 411.736C661.627 411.75 662.516 412.625 662.516 413.828C662.516 415.004 661.654 415.872 660.451 415.879C659.453 415.872 658.646 415.257 658.564 414.416H657.102C657.17 415.995 658.578 417.137 660.451 417.137Z" fill="#2D2926"/>
<g clip-path="url(#clip0_12_3)">
<path d="M119.14 44.55H128.74V46.55C125.39 46.99 122.51 49.09 122.51 51.63C122.51 54.47 126.13 56.77 129.98 56.77H130.89C134.74 56.77 138.36 54.47 138.36 51.63C138.36 49.14 135.6 47.06 132.36 46.58V44.55H142V42.1H119.14V44.55ZM134.87 51.67C134.87 53.24 132.56 54.32 130.44 54.32C128.32 54.32 126 53.24 126 51.67C126 50.1 128.31 49 130.44 49C132.57 49 134.87 50.08 134.87 51.67Z" fill="#5A5B5D"/>
<path d="M162.06 43.59L165.23 43.55V34.59H162.06V43.59Z" fill="#5A5B5D"/>
<path d="M147.24 47H162.06V48.45H147.24V53C147.218 53.2531 147.248 53.508 147.329 53.7489C147.41 53.9898 147.54 54.2114 147.71 54.4C148.122 54.695 148.624 54.8366 149.13 54.8H165.23V52.33H150.55V50.82H165.23V44.59H147.23L147.24 47Z" fill="#5A5B5D"/>
<path d="M213.62 34.59H210.44V45.53H213.6L213.62 40.37H216.81V37.87H213.62V34.59Z" fill="#5A5B5D"/>
<path d="M194.99 49H210.44V54.86L213.62 54.87V46.51H194.99V49Z" fill="#5A5B5D"/>
<path d="M194.09 40.1899C194.087 40.9037 194.26 41.6073 194.593 42.2386C194.926 42.8699 195.409 43.4096 196 43.8099C197.254 44.728 198.777 45.203 200.33 45.1599C201.857 45.211 203.354 44.7342 204.57 43.8099C205.154 43.4051 205.629 42.8634 205.955 42.2324C206.281 41.6014 206.448 40.9001 206.44 40.1899C206.432 39.7425 206.337 39.301 206.16 38.8899C205.962 38.4802 205.698 38.1053 205.38 37.7799H207.89V35.3799H201.89V33.4399H198.47V35.3799H192.4V37.7799H195.13C194.79 38.0938 194.515 38.4708 194.32 38.8899C194.155 39.3031 194.077 39.7455 194.09 40.1899V40.1899ZM198.09 38.4899C198.703 38.0196 199.457 37.7695 200.23 37.7799C200.99 37.7714 201.731 38.0218 202.33 38.4899C202.618 38.6953 202.853 38.965 203.018 39.2775C203.183 39.59 203.273 39.9367 203.28 40.2899C203.269 40.6313 203.177 40.9652 203.012 41.2642C202.847 41.5632 202.613 41.8188 202.33 42.0099C201.744 42.506 200.998 42.7725 200.23 42.7599C199.45 42.775 198.69 42.5088 198.09 42.0099C197.816 41.8128 197.591 41.5549 197.433 41.2566C197.276 40.9582 197.189 40.6274 197.18 40.2899C197.19 39.9373 197.281 39.5917 197.446 39.2797C197.611 38.9677 197.845 38.6975 198.13 38.4899H198.09Z" fill="#5A5B5D"/>
<path d="M187.07 41.06H184.38V34.59H181.45V54.91L184.38 54.88V43.56H187.07V54.91L190.09 54.88V34.59H187.07V41.06Z" fill="#5A5B5D"/>
<path d="M172.49 37.08H179V34.59H169.3V48C169.279 48.243 169.323 48.4872 169.429 48.7072C169.534 48.9271 169.697 49.1146 169.9 49.25C170.336 49.4793 170.829 49.5798 171.32 49.54H179.45V47.04H172.45L172.49 37.08Z" fill="#5A5B5D"/>
<path d="M233.28 49.18L236.46 49.16L236.47 34.59H218.8V37.08H233.28V49.18Z" fill="#5A5B5D"/>
<path d="M230.16 51.2899V42.9399H227.02V51.2899H224.3V42.9399H221.18V51.2899H217.34V53.7799H238.29V51.2899H230.16Z" fill="#5A5B5D"/>
<path d="M125.79 39.93C127.576 39.5946 129.227 38.7468 130.54 37.49C131.832 38.7507 133.473 39.5939 135.25 39.91C137.001 40.3624 138.794 40.6306 140.6 40.71L141.16 38.17C139.112 38.1222 137.085 37.7405 135.16 37.04C133.4 36.39 132.16 35.3 132.16 34.35H128.86C128.86 35.2 127.63 36.35 125.86 37.04C123.941 37.7654 121.911 38.1545 119.86 38.19V38.19L120.42 40.68C122.232 40.628 124.033 40.3765 125.79 39.93V39.93Z" fill="#5A5B5D"/>
<path d="M152.15 39.43C152.975 40.5424 154.047 41.4493 155.28 42.08C156.64 42.6789 158.077 43.0829 159.55 43.28L160.17 40.75C158.145 40.5338 156.258 39.622 154.83 38.17C154.105 37.1339 153.752 35.8824 153.83 34.62H150.42C150.488 35.8981 150.11 37.16 149.35 38.19C147.92 39.6457 146.029 40.5609 144 40.78V40.78L144.6 43.25C146.025 43.0374 147.417 42.6407 148.74 42.07C150.077 41.485 151.249 40.578 152.15 39.43V39.43Z" fill="#5A5B5D"/>
<path d="M58.9 63.55H49.78C49.88 63.55 50.22 63.1101 50.3 63.0201C50.4799 62.8244 50.6469 62.6173 50.8 62.4001C51.1933 61.865 51.5066 61.2754 51.73 60.65C52.5191 58.5312 52.4655 56.1904 51.58 54.1101C50.5596 52.2489 49.431 50.4491 48.2 48.72C46.4349 46.0993 45.5424 42.988 45.65 39.83C45.8475 37.6941 46.7076 35.6732 48.11 34.05H56.89C55.7014 35.2032 54.854 36.662 54.4411 38.2658C54.0283 39.8696 54.0659 41.5563 54.55 43.14C55.1591 44.9641 56.0498 46.6815 57.19 48.23C58.2472 49.7249 59.1867 51.2996 60 52.94C60.9001 54.9815 61.1582 57.2485 60.74 59.44C60.5386 60.4888 60.1777 61.5005 59.67 62.44C59.54 62.61 59.1 63.55 58.9 63.55Z" fill="#00A3C9"/>
<path d="M64 54.94H79.09V30H59.18C58.3237 30.8616 57.7094 31.9335 57.3987 33.1079C57.088 34.2822 57.0919 35.5176 57.41 36.69C57.93 38.82 59.47 40.69 60.84 42.55C63.02 45.44 65.4 48.7 64.73 52.55C64.617 53.3808 64.3705 54.1879 64 54.94V54.94Z" fill="#5AC5C4"/>
<path d="M30 30V54.94H44.89C45.4936 53.4591 45.4936 51.8009 44.89 50.32C43.45 46.8 41.11 44.9 39.81 41.84C38.56 38.93 38.42 36.28 39.48 32.46C39.7619 31.62 40.0959 30.7984 40.48 30L30 30Z" fill="#00678F"/>
<path d="M109.66 30H97.3V49.78C97.3 49.88 97.3 50.36 97.3 50.85C97.17 53.95 96.44 54.57 95.67 54.94H109.67L109.66 30Z" fill="#00A3C9"/>
<path d="M82.46 34.08V59.2C82.5006 60.2496 82.9435 61.2434 83.6969 61.9753C84.4504 62.7073 85.4565 63.1213 86.5069 63.1316C87.5573 63.1419 88.5713 62.7476 89.3389 62.0306C90.1065 61.3135 90.5688 60.3286 90.63 59.28V34.08H82.46Z" fill="#00678F"/>
</g>
<path d="M79.875 98.05H57.875L35.5 111.675V132.05L55.5 120.05H56V188.55H79.875V98.05ZM98.625 188.55H122.375V152.925H157.75V133.675H122.375V117.3H161.75V98.05H98.625V188.55Z" fill="#2D2926"/>
<path d="M57.9141 202.792H53.4492V210.597H48.457V214.218H53.4492V221.777H57.9141V202.792ZM30.7383 218.261L33.0586 221.812C36.8555 220.511 39.4219 217.892 40.8281 214.64C42.2168 217.505 44.6602 219.825 48.1758 220.968L50.3906 217.452C45.416 215.8 43.1309 212.038 43.043 208.312H49.4062V204.726H32.0391V208.312H38.4727C38.3672 212.32 35.9766 216.503 30.7383 218.261ZM35.9766 228.667C35.9766 232.552 40.1602 234.82 46.9805 234.82C53.8184 234.82 58.002 232.552 58.0195 228.667C58.002 224.782 53.8184 222.497 46.9805 222.48C40.1602 222.497 35.9766 224.782 35.9766 228.667ZM40.4414 228.667C40.4414 226.822 42.7441 225.907 46.9805 225.925C51.2344 225.907 53.5371 226.822 53.5547 228.667C53.5371 230.495 51.2344 231.409 46.9805 231.409C42.7441 231.409 40.4414 230.495 40.4414 228.667ZM91.3477 227.402H78.8672V221.495H88.0781V204.831H83.6133V209.788H69.6562V204.831H65.1562V221.495H74.4023V227.402H62.0625V231.058H91.3477V227.402ZM69.6562 217.909V213.374H83.6133V217.909H69.6562ZM111.176 205.991H94.582V209.577H106.711C106.676 212.407 106.605 215.835 105.867 220.476L110.297 220.827C111.141 215.501 111.141 211.564 111.176 208.558V205.991ZM92.8945 224.659L93.3164 228.245C98.9238 228.281 106.166 228.157 112.758 227.05L112.477 223.71C109.523 224.097 106.342 224.325 103.195 224.448V215.167H98.7656V224.589C96.6914 224.642 94.6875 224.659 92.8945 224.659ZM113.988 234.784H118.523V219.386H122.883V215.659H118.523V202.792H113.988V234.784ZM143.273 205.64H136.031V202.616H131.566V205.64H124.289V209.191H143.273V205.64ZM125.836 216.116C125.836 219.632 129.141 222.005 133.781 222.023C138.439 222.005 141.656 219.632 141.656 216.116C141.656 212.601 138.439 210.228 133.781 210.21C129.141 210.228 125.836 212.601 125.836 216.116ZM128.121 227.788H145.172V234.784H149.672V224.202H128.121V227.788ZM130.23 216.116C130.213 214.464 131.637 213.585 133.781 213.585C135.943 213.585 137.402 214.464 137.402 216.116C137.402 217.751 135.943 218.595 133.781 218.577C131.637 218.595 130.213 217.751 130.23 216.116ZM145.172 222.866H149.672V214.745H153.996V211.089H149.672V202.792H145.172V222.866ZM173.332 205.113H156.879V208.769H168.955C168.92 210.685 168.779 213.023 168.199 216.081L172.594 216.503C173.332 212.531 173.332 209.331 173.332 207.116V205.113ZM154.98 218.823L155.367 222.409C160.939 222.392 168.428 222.269 175.09 221.038L174.844 217.804C171.838 218.243 168.586 218.49 165.387 218.63V212.495H160.922V218.771C158.795 218.823 156.773 218.823 154.98 218.823ZM159.691 234.222H182.156V230.636H164.191V224.589H159.691V234.222ZM176.566 226.734H181.172V216.292H185.039V212.531H181.172V202.792H176.566V226.734Z" fill="#2D2926"/>
<path d="M32.5156 244.652H31.0117V254.55H32.5156V244.652ZM35.8652 250.148C35.8652 248.965 36.583 248.288 37.5879 248.288C38.5723 248.288 39.1533 248.931 39.1602 250.011V254.55H40.6094V249.833C40.6162 247.994 39.6045 247.031 38.0801 247.031C36.9727 247.031 36.2412 247.543 35.8926 248.343H35.8105V247.126H34.4023V254.55H35.8652V250.148ZM45.9277 247.126H44.3281V246.484C44.3281 245.759 44.6904 245.445 45.4629 245.445C45.5928 245.445 45.8047 245.458 46.0781 245.499V244.282C45.791 244.228 45.4287 244.187 45.0801 244.187C43.7197 244.187 42.8721 244.939 42.8652 246.265V247.126H41.7168V248.288H42.8652V254.55H44.3281V248.288H45.9277V247.126ZM50.0977 254.7C52.1895 254.7 53.5566 253.169 53.5566 250.872C53.5566 248.562 52.1895 247.031 50.0977 247.031C47.9922 247.031 46.6182 248.562 46.625 250.872C46.6182 253.169 47.9922 254.7 50.0977 254.7ZM48.0879 250.872C48.0879 249.45 48.7373 248.24 50.0977 248.234C51.4375 248.24 52.0801 249.45 52.0801 250.872C52.0801 252.287 51.4375 253.484 50.0977 253.484C48.7373 253.484 48.0879 252.287 48.0879 250.872ZM54.9922 254.55H56.4551V250.025C56.4551 249.054 57.207 248.35 58.2188 248.357C58.5195 248.35 58.8613 248.411 58.9844 248.439V247.044C58.834 247.031 58.5469 247.01 58.3691 247.017C57.501 247.01 56.7559 247.509 56.4824 248.302H56.4004V247.126H54.9922V254.55ZM60.0781 254.55H61.541V249.97C61.541 248.972 62.2383 248.288 63.0586 248.288C63.8584 248.288 64.4121 248.815 64.4121 249.628V254.55H65.8613V249.82C65.8613 248.931 66.4014 248.288 67.3379 248.288C68.1035 248.288 68.7324 248.705 68.7324 249.71V254.55H70.1953V249.573C70.1885 247.871 69.2383 247.031 67.8984 247.031C66.8252 247.031 66.0186 247.543 65.6699 248.343H65.5879C65.2734 247.516 64.583 247.031 63.5918 247.031C62.6143 247.031 61.8828 247.516 61.5684 248.343H61.4863V247.126H60.0781V254.55ZM71.6172 252.458C71.6104 253.907 72.7109 254.714 74.1191 254.714C75.3496 254.714 76.0332 254.092 76.3203 253.538H76.375V254.55H77.7969V249.615C77.79 247.461 76.0674 247.031 74.8848 247.031C73.1279 247.031 71.9795 247.919 71.8496 249.15H73.2988C73.4492 248.603 73.9688 248.206 74.8301 248.206C75.8213 248.206 76.3408 248.692 76.334 249.532L76.3408 250.127C75.999 250.141 74.8848 250.202 74.3926 250.23C73.0527 250.325 71.6104 250.763 71.6172 252.458ZM73.0391 252.472C73.0391 251.74 73.6406 251.378 74.5977 251.31C74.9463 251.289 76.0059 251.214 76.3408 251.194L76.3477 251.87C76.3477 252.752 75.6367 253.545 74.4473 253.552C73.627 253.545 73.0391 253.183 73.0391 252.472ZM83.0332 247.126H81.5156V245.349H80.0664V247.126H78.9727V248.288H80.0664V252.663C80.0527 254.017 81.085 254.646 82.2266 254.646C82.6299 254.646 82.9443 254.618 83.1426 254.591V253.32C82.9375 253.34 82.6162 253.361 82.4043 253.361C81.9326 253.354 81.5225 253.203 81.5156 252.363V248.288H83.0332V247.126ZM84.4551 254.55H85.918V247.126H84.4551V254.55ZM84.2637 245.116C84.2705 245.595 84.6875 245.985 85.1934 245.978C85.6924 245.985 86.1094 245.595 86.1094 245.116C86.1094 244.638 85.6924 244.255 85.1934 244.255C84.6875 244.255 84.2705 244.638 84.2637 245.116ZM90.8398 254.7C92.9316 254.7 94.2988 253.169 94.2988 250.872C94.2988 248.562 92.9316 247.031 90.8398 247.031C88.7344 247.031 87.3604 248.562 87.3672 250.872C87.3604 253.169 88.7344 254.7 90.8398 254.7ZM88.8301 250.872C88.8301 249.45 89.4795 248.24 90.8398 248.234C92.1797 248.24 92.8223 249.45 92.8223 250.872C92.8223 252.287 92.1797 253.484 90.8398 253.484C89.4795 253.484 88.8301 252.287 88.8301 250.872ZM97.1973 250.148C97.1973 248.965 97.915 248.288 98.9199 248.288C99.9043 248.288 100.485 248.931 100.492 250.011V254.55H101.941V249.833C101.948 247.994 100.937 247.031 99.4121 247.031C98.3047 247.031 97.5732 247.543 97.2246 248.343H97.1426V247.126H95.7344V254.55H97.1973V250.148ZM112.646 247.263H114.109C114.062 245.663 112.66 244.515 110.65 244.515C108.647 244.515 107.13 245.65 107.123 247.359C107.13 248.74 108.114 249.546 109.707 249.984L110.883 250.298C111.929 250.578 112.749 250.927 112.756 251.788C112.749 252.759 111.833 253.395 110.568 253.402C109.413 253.395 108.456 252.882 108.367 251.802H106.863C106.959 253.607 108.354 254.714 110.568 254.714C112.906 254.714 114.239 253.49 114.246 251.816C114.239 250.025 112.653 249.334 111.389 249.027L110.432 248.767C109.646 248.582 108.627 248.213 108.627 247.277C108.634 246.436 109.399 245.814 110.609 245.814C111.744 245.814 112.551 246.34 112.646 247.263ZM118.881 254.7C120.631 254.7 121.772 253.641 121.93 252.198H120.508C120.323 252.998 119.708 253.463 118.881 253.456C117.657 253.463 116.871 252.458 116.871 250.831C116.871 249.252 117.678 248.254 118.881 248.247C119.804 248.254 120.357 248.835 120.508 249.532H121.93C121.772 248.029 120.549 247.031 118.854 247.031C116.762 247.031 115.401 248.61 115.408 250.872C115.401 253.108 116.714 254.7 118.881 254.7ZM123.311 254.55H124.773V247.126H123.311V254.55ZM123.119 245.116C123.126 245.595 123.543 245.985 124.049 245.978C124.548 245.985 124.965 245.595 124.965 245.116C124.965 244.638 124.548 244.255 124.049 244.255C123.543 244.255 123.126 244.638 123.119 245.116ZM129.75 254.7C131.384 254.7 132.525 253.894 132.854 252.691H131.377C131.131 253.142 130.591 253.497 129.764 253.497C128.547 253.497 127.713 252.698 127.672 251.282H132.949V250.763C132.949 248.076 131.343 247.031 129.654 247.031C127.583 247.031 126.216 248.603 126.223 250.886C126.216 253.19 127.562 254.7 129.75 254.7ZM127.679 250.189C127.74 249.143 128.499 248.227 129.668 248.234C130.782 248.227 131.514 249.061 131.514 250.189H127.679ZM135.861 250.148C135.861 248.965 136.579 248.288 137.584 248.288C138.568 248.288 139.149 248.931 139.156 250.011V254.55H140.605V249.833C140.612 247.994 139.601 247.031 138.076 247.031C136.969 247.031 136.237 247.543 135.889 248.343H135.807V247.126H134.398V254.55H135.861V250.148ZM145.527 254.7C147.277 254.7 148.419 253.641 148.576 252.198H147.154C146.97 252.998 146.354 253.463 145.527 253.456C144.304 253.463 143.518 252.458 143.518 250.831C143.518 249.252 144.324 248.254 145.527 248.247C146.45 248.254 147.004 248.835 147.154 249.532H148.576C148.419 248.029 147.195 247.031 145.5 247.031C143.408 247.031 142.048 248.61 142.055 250.872C142.048 253.108 143.36 254.7 145.527 254.7ZM153.156 254.7C154.79 254.7 155.932 253.894 156.26 252.691H154.783C154.537 253.142 153.997 253.497 153.17 253.497C151.953 253.497 151.119 252.698 151.078 251.282H156.355V250.763C156.355 248.076 154.749 247.031 153.061 247.031C150.989 247.031 149.622 248.603 149.629 250.886C149.622 253.19 150.969 254.7 153.156 254.7ZM151.085 250.189C151.146 249.143 151.905 248.227 153.074 248.234C154.188 248.227 154.92 249.061 154.92 250.189H151.085ZM161.346 254.55H165.133C167.443 254.55 168.482 253.402 168.482 251.884C168.482 250.353 167.416 249.491 166.432 249.437V249.341C167.341 249.109 168.1 248.487 168.1 247.249C168.1 245.78 167.081 244.652 164.969 244.652H161.346V254.55ZM162.85 253.265V250.107H165.051C166.24 250.107 166.992 250.865 166.992 251.816C166.992 252.636 166.418 253.258 164.996 253.265H162.85ZM162.85 248.931V245.937H164.873C166.056 245.937 166.623 246.552 166.623 247.372C166.623 248.323 165.844 248.924 164.846 248.931H162.85ZM174.689 251.46C174.689 252.725 173.753 253.32 172.939 253.32C172.051 253.32 171.436 252.677 171.436 251.665V247.126H169.973V251.843C169.973 253.682 170.984 254.646 172.42 254.646C173.534 254.646 174.293 254.058 174.635 253.265H174.717V254.55H176.139V247.126H174.689V251.46ZM177.916 254.55H179.379V247.126H177.916V254.55ZM177.725 245.116C177.731 245.595 178.148 245.985 178.654 245.978C179.153 245.985 179.57 245.595 179.57 245.116C179.57 244.638 179.153 244.255 178.654 244.255C178.148 244.255 177.731 244.638 177.725 245.116ZM182.619 244.652H181.156V254.55H182.619V244.652ZM187.172 254.7C188.525 254.694 189.059 253.873 189.332 253.388H189.441V254.55H190.863V244.652H189.4V248.329H189.332C189.065 247.865 188.566 247.031 187.186 247.031C185.401 247.031 184.068 248.439 184.068 250.859C184.068 253.251 185.381 254.694 187.172 254.7ZM185.559 250.831C185.552 249.368 186.208 248.268 187.5 248.275C188.758 248.268 189.441 249.286 189.441 250.831C189.441 252.39 188.744 253.449 187.5 253.456C186.222 253.449 185.552 252.322 185.559 250.831ZM192.764 254.55H194.227V247.126H192.764V254.55ZM192.572 245.116C192.579 245.595 192.996 245.985 193.502 245.978C194.001 245.985 194.418 245.595 194.418 245.116C194.418 244.638 194.001 244.255 193.502 244.255C192.996 244.255 192.579 244.638 192.572 245.116ZM197.467 250.148C197.467 248.965 198.185 248.288 199.189 248.288C200.174 248.288 200.755 248.931 200.762 250.011V254.55H202.211V249.833C202.218 247.994 201.206 247.031 199.682 247.031C198.574 247.031 197.843 247.543 197.494 248.343H197.412V247.126H196.004V254.55H197.467V250.148ZM207.105 257.49C209.02 257.49 210.462 256.621 210.455 254.714V247.126H209.033V248.329H208.938C208.664 247.865 208.158 247.031 206.777 247.031C204.993 247.031 203.66 248.391 203.66 250.763C203.66 253.135 205.014 254.441 206.764 254.441C208.131 254.441 208.664 253.675 208.924 253.197H209.02V254.659C209.013 255.815 208.281 256.321 207.119 256.314C206.155 256.321 205.499 255.979 205.355 255.275H203.865C203.995 256.662 205.232 257.49 207.105 257.49ZM205.15 250.79C205.144 249.368 205.8 248.268 207.092 248.275C208.35 248.268 209.033 249.286 209.033 250.79C209.033 252.322 208.336 253.231 207.092 253.238C205.813 253.231 205.144 252.246 205.15 250.79Z" fill="#2D2926"/>
<defs>
<clipPath id="clip0_12_3">
<rect width="208.29" height="33.55" fill="white" transform="translate(30 30)"/>
</clipPath>
</defs>
</svg>
