<svg width="800" height="600" viewBox="0 0 800 600" fill="none" xmlns="http://www.w3.org/2000/svg">
<g clip-path="url(#clip0_12_4)">
<path d="M394.56 94.4199H302.89V187.61H464.7V251.72H490.46V285.79H460.97V410.75H490.75V442.38H148.75V512.52H713.18V443.9H685.13V186.72H720.91V163.42H756.7V69.3199H394.56V94.4199Z" stroke="#2D2926" stroke-width="5" stroke-miterlimit="10" stroke-linecap="square"/>
<path d="M394.56 94.4199V187.61M394.56 163H687.87L687.87 69.3199M685.13 186.72H558.42M685.13 443.9H558.19V186.72M685.13 443.9H596.01M685.13 443.9V489.57H596.01M685.13 443.9H713.19V512.51H685.13V443.9ZM490.46 251.72H529.35V490.84L205.85 490.84M205.85 442.38V510.59M596.01 443.9H569.36V489.57H596.01M596.01 443.9V489.57M177.77 442.38V512.52M493.87 69.3199V163M590.37 69.3199V163.01M558.19 315.31H685.13M558.19 378.77H685.13M647.66 443.9V489.58M665.73 443.9V489.58M490.75 442.38H529.35M474.78 442.38V490.84M430.79 442.38L431.13 490.84M389.87 442.38V490.84M335.99 442.38V490.84M303.94 442.38V490.84M261.31 442.38V490.84" stroke="#2D2926" stroke-width="2" stroke-miterlimit="10" stroke-linecap="square"/>
<path d="M466.5 187H495.5M524.5 187H521.75M495.5 187V207M495.5 187H498.5M495.5 207V213.5L486 211.862M495.5 207C495.681 207 496.788 207 498.5 207M486 211.862L466.5 208.5V221.5H486M486 211.862H466.5M486 211.862V215.5M498.5 187V207M498.5 187H501.5M498.5 207C499.361 207 500.374 207 501.5 207M501.5 187V207M501.5 187H504.5M501.5 207C502.431 207 503.439 207 504.5 207M504.5 187V207M504.5 187H507.5M504.5 207C505.462 207 506.467 207 507.5 207M507.5 187V207M507.5 187H510M507.5 207C508.319 207 509.155 207 510 207M510 187V207M510 187H513M510 207C510.993 207 511.997 207 513 207M513 187V207M513 187H516M513 207C514.007 207 515.011 207 516 207M516 187V207M516 187H519M516 207C517.022 207 518.028 207 519 207M519 187V207M519 187H521.75M519 207C519.953 207 520.874 207 521.75 207M521.75 187V207M521.75 207C522.731 207 523.655 207 524.5 207V232H524M466.5 215.5H486M486 215.5V218.5M466.5 218.5H486M486 218.5V221.5M486 221.5V224.5M486 224.5H466.5M486 224.5V227.5M486 227.5H466.5M486 227.5V230.5M486 230.5V232H489M486 230.5H466.5M489 232V250.5M489 232H492M492 232H495M492 232V249M492 250.5V249M495 232V249M495 232H498M492 249H498M498 249V252M498 249V232M498 232H501M501 232V252M501 232H503.5M503.5 232V252M503.5 232H506.5M506.5 232V252M506.5 232H509.5M509.5 232V252M509.5 232H512M512 232V252M512 232H515M515 232V252M515 232H518M518 232V252M518 232H521M521 232V252M521 232H524M524 232V252" stroke="#2D2926"/>
<path d="M339.254 146H345.912V144.715H341.346V144.633L343.355 142.596C345.215 140.771 345.734 139.889 345.748 138.781C345.734 137.175 344.415 135.965 342.508 135.965C340.621 135.965 339.24 137.161 339.254 138.973H340.676C340.683 137.92 341.38 137.223 342.48 137.223C343.52 137.223 344.312 137.845 344.312 138.822C344.312 139.69 343.772 140.319 342.686 141.447L339.254 144.906V146ZM351.025 146.137C353.315 146.137 354.655 144.291 354.662 141.051C354.655 137.831 353.295 135.965 351.025 135.965C348.749 135.965 347.389 137.831 347.389 141.051C347.389 144.291 348.735 146.137 351.025 146.137ZM348.893 141.051C348.893 138.59 349.692 137.243 351.025 137.236C352.352 137.243 353.158 138.59 353.158 141.051C353.158 143.519 352.358 144.838 351.025 144.838C349.686 144.838 348.886 143.519 348.893 141.051ZM359.98 136.102H358.504L356.043 137.715V139.15L358.408 137.605H358.463V146H359.98V136.102Z" fill="#2D2926"/>
<path d="M432.729 122H439.387V120.715H434.82V120.633L436.83 118.596C438.689 116.771 439.209 115.889 439.223 114.781C439.209 113.175 437.89 111.965 435.982 111.965C434.096 111.965 432.715 113.161 432.729 114.973H434.15C434.157 113.92 434.854 113.223 435.955 113.223C436.994 113.223 437.787 113.845 437.787 114.822C437.787 115.69 437.247 116.319 436.16 117.447L432.729 120.906V122ZM444.5 122.137C446.79 122.137 448.13 120.291 448.137 117.051C448.13 113.831 446.77 111.965 444.5 111.965C442.224 111.965 440.863 113.831 440.863 117.051C440.863 120.291 442.21 122.137 444.5 122.137ZM442.367 117.051C442.367 114.59 443.167 113.243 444.5 113.236C445.826 113.243 446.633 114.59 446.633 117.051C446.633 119.519 445.833 120.838 444.5 120.838C443.16 120.838 442.36 119.519 442.367 117.051ZM449.695 122H456.354V120.715H451.787V120.633L453.797 118.596C455.656 116.771 456.176 115.889 456.189 114.781C456.176 113.175 454.856 111.965 452.949 111.965C451.062 111.965 449.682 113.161 449.695 114.973H451.117C451.124 113.92 451.821 113.223 452.922 113.223C453.961 113.223 454.754 113.845 454.754 114.822C454.754 115.69 454.214 116.319 453.127 117.447L449.695 120.906V122Z" fill="#2D2926"/>
<path d="M530.523 122H537.182V120.715H532.615V120.633L534.625 118.596C536.484 116.771 537.004 115.889 537.018 114.781C537.004 113.175 535.685 111.965 533.777 111.965C531.891 111.965 530.51 113.161 530.523 114.973H531.945C531.952 113.92 532.649 113.223 533.75 113.223C534.789 113.223 535.582 113.845 535.582 114.822C535.582 115.69 535.042 116.319 533.955 117.447L530.523 120.906V122ZM542.295 122.137C544.585 122.137 545.925 120.291 545.932 117.051C545.925 113.831 544.564 111.965 542.295 111.965C540.019 111.965 538.658 113.831 538.658 117.051C538.658 120.291 540.005 122.137 542.295 122.137ZM540.162 117.051C540.162 114.59 540.962 113.243 542.295 113.236C543.621 113.243 544.428 114.59 544.428 117.051C544.428 119.519 543.628 120.838 542.295 120.838C540.955 120.838 540.155 119.519 540.162 117.051ZM551.004 122.137C553.055 122.137 554.579 120.927 554.572 119.279C554.579 118.028 553.793 117.119 552.439 116.928V116.859C553.506 116.593 554.203 115.786 554.189 114.658C554.203 113.195 552.979 111.965 551.031 111.965C549.186 111.965 547.695 113.059 547.654 114.672H549.104C549.138 113.776 550.026 113.223 551.018 113.223C552.063 113.223 552.74 113.838 552.74 114.74C552.74 115.69 551.954 116.319 550.826 116.312H549.979V117.543H550.826C552.241 117.55 553.055 118.247 553.055 119.225C553.055 120.188 552.187 120.838 550.99 120.838C549.883 120.838 549.021 120.284 548.967 119.416H547.436C547.497 121.036 548.953 122.137 551.004 122.137Z" fill="#2D2926"/>
<path d="M626.448 122H633.106V120.715H628.54V120.633L630.55 118.596C632.409 116.771 632.929 115.889 632.942 114.781C632.929 113.175 631.609 111.965 629.702 111.965C627.815 111.965 626.435 113.161 626.448 114.973H627.87C627.877 113.92 628.574 113.223 629.675 113.223C630.714 113.223 631.507 113.845 631.507 114.822C631.507 115.69 630.967 116.319 629.88 117.447L626.448 120.906V122ZM638.22 122.137C640.51 122.137 641.85 120.291 641.856 117.051C641.85 113.831 640.489 111.965 638.22 111.965C635.943 111.965 634.583 113.831 634.583 117.051C634.583 120.291 635.93 122.137 638.22 122.137ZM636.087 117.051C636.087 114.59 636.887 113.243 638.22 113.236C639.546 113.243 640.353 114.59 640.353 117.051C640.353 119.519 639.553 120.838 638.22 120.838C636.88 120.838 636.08 119.519 636.087 117.051ZM643.196 120.072H648.009V122H649.431V120.072H650.784V118.801H649.431V112.102H647.571L643.196 118.855V120.072ZM644.782 118.801V118.719L647.899 113.893H648.009V118.801H644.782Z" fill="#2D2926"/>
<path d="M608.646 257H615.305V255.715H610.738V255.633L612.748 253.596C614.607 251.771 615.127 250.889 615.141 249.781C615.127 248.175 613.808 246.965 611.9 246.965C610.014 246.965 608.633 248.161 608.646 249.973H610.068C610.075 248.92 610.772 248.223 611.873 248.223C612.912 248.223 613.705 248.845 613.705 249.822C613.705 250.69 613.165 251.319 612.078 252.447L608.646 255.906V257ZM620.418 257.137C622.708 257.137 624.048 255.291 624.055 252.051C624.048 248.831 622.688 246.965 620.418 246.965C618.142 246.965 616.781 248.831 616.781 252.051C616.781 255.291 618.128 257.137 620.418 257.137ZM618.285 252.051C618.285 249.59 619.085 248.243 620.418 248.236C621.744 248.243 622.551 249.59 622.551 252.051C622.551 254.519 621.751 255.838 620.418 255.838C619.078 255.838 618.278 254.519 618.285 252.051ZM628.977 257.137C631.041 257.137 632.504 255.735 632.504 253.787C632.504 251.88 631.13 250.499 629.264 250.492C628.512 250.499 627.814 250.766 627.404 251.162H627.309L627.637 248.387H631.998V247.102H626.393L625.75 252.611H627.172C627.507 252.003 628.115 251.736 628.908 251.736C630.152 251.75 631.041 252.625 631.041 253.828C631.041 255.004 630.18 255.872 628.977 255.879C627.979 255.872 627.172 255.257 627.09 254.416H625.627C625.695 255.995 627.104 257.137 628.977 257.137Z" fill="#2D2926"/>
<path d="M608.53 352H615.188V350.715H610.622V350.633L612.632 348.596C614.491 346.771 615.011 345.889 615.024 344.781C615.011 343.175 613.691 341.965 611.784 341.965C609.897 341.965 608.517 343.161 608.53 344.973H609.952C609.959 343.92 610.656 343.223 611.757 343.223C612.796 343.223 613.589 343.845 613.589 344.822C613.589 345.69 613.049 346.319 611.962 347.447L608.53 350.906V352ZM620.302 352.137C622.592 352.137 623.932 350.291 623.938 347.051C623.932 343.831 622.571 341.965 620.302 341.965C618.025 341.965 616.665 343.831 616.665 347.051C616.665 350.291 618.012 352.137 620.302 352.137ZM618.169 347.051C618.169 344.59 618.969 343.243 620.302 343.236C621.628 343.243 622.435 344.59 622.435 347.051C622.435 349.519 621.635 350.838 620.302 350.838C618.962 350.838 618.162 349.519 618.169 347.051ZM629.079 352.137C631.205 352.15 632.62 350.681 632.62 348.76C632.62 346.866 631.198 345.513 629.435 345.506C628.361 345.513 627.432 346.005 626.892 346.846H626.782C626.782 344.61 627.671 343.284 629.202 343.277C630.2 343.284 630.836 343.865 631.034 344.672H632.524C632.292 343.1 631.027 341.965 629.202 341.965C626.83 341.965 625.34 343.934 625.333 347.379C625.333 351.036 627.247 352.123 629.079 352.137ZM626.96 348.801C626.974 347.7 627.896 346.729 629.106 346.736C630.296 346.729 631.157 347.652 631.157 348.787C631.157 349.942 630.262 350.872 629.065 350.879C627.849 350.872 626.967 349.901 626.96 348.801Z" fill="#2D2926"/>
<path d="M609.111 417H615.77V415.715H611.203V415.633L613.213 413.596C615.072 411.771 615.592 410.889 615.605 409.781C615.592 408.175 614.272 406.965 612.365 406.965C610.479 406.965 609.098 408.161 609.111 409.973H610.533C610.54 408.92 611.237 408.223 612.338 408.223C613.377 408.223 614.17 408.845 614.17 409.822C614.17 410.69 613.63 411.319 612.543 412.447L609.111 415.906V417ZM620.883 417.137C623.173 417.137 624.513 415.291 624.52 412.051C624.513 408.831 623.152 406.965 620.883 406.965C618.606 406.965 617.246 408.831 617.246 412.051C617.246 415.291 618.593 417.137 620.883 417.137ZM618.75 412.051C618.75 409.59 619.55 408.243 620.883 408.236C622.209 408.243 623.016 409.59 623.016 412.051C623.016 414.519 622.216 415.838 620.883 415.838C619.543 415.838 618.743 414.519 618.75 412.051ZM626.146 417H627.719L632.121 408.441V407.102H625.463V408.387H630.562V408.469L626.146 417Z" fill="#2D2926"/>
<path d="M485.206 352H491.864V350.715H487.298V350.633L489.308 348.596C491.167 346.771 491.687 345.889 491.7 344.781C491.687 343.175 490.367 341.965 488.46 341.965C486.573 341.965 485.192 343.161 485.206 344.973H486.628C486.635 343.92 487.332 343.223 488.433 343.223C489.472 343.223 490.265 343.845 490.265 344.822C490.265 345.69 489.725 346.319 488.638 347.447L485.206 350.906V352ZM497.292 342.102H495.815L493.354 343.715V345.15L495.72 343.605H495.774V352H497.292V342.102ZM503.321 352.137C505.372 352.137 506.896 350.927 506.89 349.279C506.896 348.028 506.11 347.119 504.757 346.928V346.859C505.823 346.593 506.521 345.786 506.507 344.658C506.521 343.195 505.297 341.965 503.349 341.965C501.503 341.965 500.013 343.059 499.972 344.672H501.421C501.455 343.776 502.344 343.223 503.335 343.223C504.381 343.223 505.058 343.838 505.058 344.74C505.058 345.69 504.271 346.319 503.144 346.312H502.296V347.543H503.144C504.559 347.55 505.372 348.247 505.372 349.225C505.372 350.188 504.504 350.838 503.308 350.838C502.2 350.838 501.339 350.284 501.284 349.416H499.753C499.814 351.036 501.271 352.137 503.321 352.137Z" fill="#2D2926"/>
<path d="M491.411 473H498.069V471.715H493.503V471.633L495.513 469.596C497.372 467.771 497.892 466.889 497.905 465.781C497.892 464.175 496.572 462.965 494.665 462.965C492.778 462.965 491.397 464.161 491.411 465.973H492.833C492.84 464.92 493.537 464.223 494.638 464.223C495.677 464.223 496.47 464.845 496.47 465.822C496.47 466.69 495.93 467.319 494.843 468.447L491.411 471.906V473ZM499.737 473H506.396V471.715H501.829V471.633L503.839 469.596C505.698 467.771 506.218 466.889 506.231 465.781C506.218 464.175 504.898 462.965 502.991 462.965C501.104 462.965 499.724 464.161 499.737 465.973H501.159C501.166 464.92 501.863 464.223 502.964 464.223C504.003 464.223 504.796 464.845 504.796 465.822C504.796 466.69 504.256 467.319 503.169 468.447L499.737 471.906V473ZM511.823 463.102H510.347L507.886 464.715V466.15L510.251 464.605H510.306V473H511.823V463.102Z" fill="#2D2926"/>
<path d="M573.299 473H579.561V471.701H574.803V468.68H579.178V467.395H574.803V464.4H579.506V463.102H573.299V473ZM585.002 462.637H583.703L580.518 474.49H581.816L585.002 462.637ZM586.205 473H592.18V471.701H587.709V463.102H586.205V473Z" fill="#2D2926"/>
<path d="M441.386 473H448.044V471.715H443.478V471.633L445.487 469.596C447.347 467.771 447.866 466.889 447.88 465.781C447.866 464.175 446.547 462.965 444.64 462.965C442.753 462.965 441.372 464.161 441.386 465.973H442.808C442.814 464.92 443.512 464.223 444.612 464.223C445.651 464.223 446.444 464.845 446.444 465.822C446.444 466.69 445.904 467.319 444.817 468.447L441.386 471.906V473ZM449.712 473H456.37V471.715H451.804V471.633L453.813 469.596C455.673 467.771 456.192 466.889 456.206 465.781C456.192 464.175 454.873 462.965 452.966 462.965C451.079 462.965 449.698 464.161 449.712 465.973H451.134C451.141 464.92 451.838 464.223 452.938 464.223C453.978 464.223 454.771 464.845 454.771 465.822C454.771 466.69 454.23 467.319 453.144 468.447L449.712 471.906V473ZM458.038 473H464.696V471.715H460.13V471.633L462.14 469.596C463.999 467.771 464.519 466.889 464.532 465.781C464.519 464.175 463.199 462.965 461.292 462.965C459.405 462.965 458.024 464.161 458.038 465.973H459.46C459.467 464.92 460.164 464.223 461.265 464.223C462.304 464.223 463.097 464.845 463.097 465.822C463.097 466.69 462.557 467.319 461.47 468.447L458.038 471.906V473Z" fill="#2D2926"/>
<path d="M398.681 473H405.339V471.715H400.772V471.633L402.782 469.596C404.642 467.771 405.161 466.889 405.175 465.781C405.161 464.175 403.842 462.965 401.935 462.965C400.048 462.965 398.667 464.161 398.681 465.973H400.103C400.109 464.92 400.807 464.223 401.907 464.223C402.946 464.223 403.739 464.845 403.739 465.822C403.739 466.69 403.199 467.319 402.112 468.447L398.681 471.906V473ZM407.007 473H413.665V471.715H409.099V471.633L411.108 469.596C412.968 467.771 413.487 466.889 413.501 465.781C413.487 464.175 412.168 462.965 410.261 462.965C408.374 462.965 406.993 464.161 407.007 465.973H408.429C408.436 464.92 409.133 464.223 410.233 464.223C411.272 464.223 412.065 464.845 412.065 465.822C412.065 466.69 411.525 467.319 410.438 468.447L407.007 471.906V473ZM418.847 473.137C420.897 473.137 422.422 471.927 422.415 470.279C422.422 469.028 421.636 468.119 420.282 467.928V467.859C421.349 467.593 422.046 466.786 422.032 465.658C422.046 464.195 420.822 462.965 418.874 462.965C417.028 462.965 415.538 464.059 415.497 465.672H416.946C416.98 464.776 417.869 464.223 418.86 464.223C419.906 464.223 420.583 464.838 420.583 465.74C420.583 466.69 419.797 467.319 418.669 467.312H417.821V468.543H418.669C420.084 468.55 420.897 469.247 420.897 470.225C420.897 471.188 420.029 471.838 418.833 471.838C417.726 471.838 416.864 471.284 416.81 470.416H415.278C415.34 472.036 416.796 473.137 418.847 473.137Z" fill="#2D2926"/>
<path d="M351.215 473H357.873V471.715H353.307V471.633L355.316 469.596C357.176 467.771 357.695 466.889 357.709 465.781C357.695 464.175 356.376 462.965 354.469 462.965C352.582 462.965 351.201 464.161 351.215 465.973H352.637C352.644 464.92 353.341 464.223 354.441 464.223C355.48 464.223 356.273 464.845 356.273 465.822C356.273 466.69 355.733 467.319 354.646 468.447L351.215 471.906V473ZM359.541 473H366.199V471.715H361.633V471.633L363.643 469.596C365.502 467.771 366.021 466.889 366.035 465.781C366.021 464.175 364.702 462.965 362.795 462.965C360.908 462.965 359.527 464.161 359.541 465.973H360.963C360.97 464.92 361.667 464.223 362.768 464.223C363.807 464.223 364.6 464.845 364.6 465.822C364.6 466.69 364.06 467.319 362.973 468.447L359.541 471.906V473ZM367.43 471.072H372.242V473H373.664V471.072H375.018V469.801H373.664V463.102H371.805L367.43 469.855V471.072ZM369.016 469.801V469.719L372.133 464.893H372.242V469.801H369.016Z" fill="#2D2926"/>
<path d="M308.304 473H314.962V471.715H310.396V471.633L312.405 469.596C314.265 467.771 314.784 466.889 314.798 465.781C314.784 464.175 313.465 462.965 311.558 462.965C309.671 462.965 308.29 464.161 308.304 465.973H309.726C309.732 464.92 310.43 464.223 311.53 464.223C312.569 464.223 313.362 464.845 313.362 465.822C313.362 466.69 312.822 467.319 311.735 468.447L308.304 471.906V473ZM316.63 473H323.288V471.715H318.722V471.633L320.731 469.596C322.591 467.771 323.11 466.889 323.124 465.781C323.11 464.175 321.791 462.965 319.884 462.965C317.997 462.965 316.616 464.161 316.63 465.973H318.052C318.059 464.92 318.756 464.223 319.856 464.223C320.896 464.223 321.688 464.845 321.688 465.822C321.688 466.69 321.148 467.319 320.062 468.447L316.63 471.906V473ZM328.319 473.137C330.384 473.137 331.847 471.735 331.847 469.787C331.847 467.88 330.473 466.499 328.606 466.492C327.854 466.499 327.157 466.766 326.747 467.162H326.651L326.979 464.387H331.341V463.102H325.735L325.093 468.611H326.515C326.85 468.003 327.458 467.736 328.251 467.736C329.495 467.75 330.384 468.625 330.384 469.828C330.384 471.004 329.522 471.872 328.319 471.879C327.321 471.872 326.515 471.257 326.433 470.416H324.97C325.038 471.995 326.446 473.137 328.319 473.137Z" fill="#2D2926"/>
<path d="M270.688 473H277.346V471.715H272.779V471.633L274.789 469.596C276.648 467.771 277.168 466.889 277.182 465.781C277.168 464.175 275.849 462.965 273.941 462.965C272.055 462.965 270.674 464.161 270.688 465.973H272.109C272.116 464.92 272.813 464.223 273.914 464.223C274.953 464.223 275.746 464.845 275.746 465.822C275.746 466.69 275.206 467.319 274.119 468.447L270.688 471.906V473ZM279.014 473H285.672V471.715H281.105V471.633L283.115 469.596C284.975 467.771 285.494 466.889 285.508 465.781C285.494 464.175 284.175 462.965 282.268 462.965C280.381 462.965 279 464.161 279.014 465.973H280.436C280.442 464.92 281.14 464.223 282.24 464.223C283.279 464.223 284.072 464.845 284.072 465.822C284.072 466.69 283.532 467.319 282.445 468.447L279.014 471.906V473ZM290.922 473.137C293.048 473.15 294.463 471.681 294.463 469.76C294.463 467.866 293.041 466.513 291.277 466.506C290.204 466.513 289.274 467.005 288.734 467.846H288.625C288.625 465.61 289.514 464.284 291.045 464.277C292.043 464.284 292.679 464.865 292.877 465.672H294.367C294.135 464.1 292.87 462.965 291.045 462.965C288.673 462.965 287.183 464.934 287.176 468.379C287.176 472.036 289.09 473.123 290.922 473.137ZM288.803 469.801C288.816 468.7 289.739 467.729 290.949 467.736C292.139 467.729 293 468.652 293 469.787C293 470.942 292.104 471.872 290.908 471.879C289.691 471.872 288.81 470.901 288.803 469.801Z" fill="#2D2926"/>
<path d="M222.132 473H228.79V471.715H224.224V471.633L226.233 469.596C228.093 467.771 228.612 466.889 228.626 465.781C228.612 464.175 227.293 462.965 225.386 462.965C223.499 462.965 222.118 464.161 222.132 465.973H223.554C223.561 464.92 224.258 464.223 225.358 464.223C226.397 464.223 227.19 464.845 227.19 465.822C227.19 466.69 226.65 467.319 225.563 468.447L222.132 471.906V473ZM230.458 473H237.116V471.715H232.55V471.633L234.56 469.596C236.419 467.771 236.938 466.889 236.952 465.781C236.938 464.175 235.619 462.965 233.712 462.965C231.825 462.965 230.444 464.161 230.458 465.973H231.88C231.887 464.92 232.584 464.223 233.685 464.223C234.724 464.223 235.517 464.845 235.517 465.822C235.517 466.69 234.977 467.319 233.89 468.447L230.458 471.906V473ZM239.126 473H240.698L245.101 464.441V463.102H238.442V464.387H243.542V464.469L239.126 473Z" fill="#2D2926"/>
<g clip-path="url(#clip1_12_4)">
<path d="M119.14 44.55H128.74V46.55C125.39 46.99 122.51 49.09 122.51 51.63C122.51 54.47 126.13 56.77 129.98 56.77H130.89C134.74 56.77 138.36 54.47 138.36 51.63C138.36 49.14 135.6 47.06 132.36 46.58V44.55H142V42.1H119.14V44.55ZM134.87 51.67C134.87 53.24 132.56 54.32 130.44 54.32C128.32 54.32 126 53.24 126 51.67C126 50.1 128.31 49 130.44 49C132.57 49 134.87 50.08 134.87 51.67Z" fill="#5A5B5D"/>
<path d="M162.06 43.59L165.23 43.55V34.59H162.06V43.59Z" fill="#5A5B5D"/>
<path d="M147.24 47H162.06V48.45H147.24V53C147.218 53.2531 147.248 53.508 147.329 53.7489C147.41 53.9898 147.54 54.2114 147.71 54.4C148.122 54.695 148.624 54.8366 149.13 54.8H165.23V52.33H150.55V50.82H165.23V44.59H147.23L147.24 47Z" fill="#5A5B5D"/>
<path d="M213.62 34.59H210.44V45.53H213.6L213.62 40.37H216.81V37.87H213.62V34.59Z" fill="#5A5B5D"/>
<path d="M194.99 49H210.44V54.86L213.62 54.87V46.51H194.99V49Z" fill="#5A5B5D"/>
<path d="M194.09 40.1899C194.087 40.9037 194.26 41.6073 194.593 42.2386C194.926 42.8699 195.409 43.4096 196 43.8099C197.254 44.728 198.777 45.203 200.33 45.1599C201.857 45.211 203.354 44.7342 204.57 43.8099C205.154 43.4051 205.629 42.8634 205.955 42.2324C206.281 41.6014 206.448 40.9001 206.44 40.1899C206.432 39.7425 206.337 39.301 206.16 38.8899C205.962 38.4802 205.698 38.1053 205.38 37.7799H207.89V35.3799H201.89V33.4399H198.47V35.3799H192.4V37.7799H195.13C194.79 38.0938 194.515 38.4708 194.32 38.8899C194.155 39.3031 194.077 39.7455 194.09 40.1899V40.1899ZM198.09 38.4899C198.703 38.0196 199.457 37.7695 200.23 37.7799C200.99 37.7714 201.731 38.0218 202.33 38.4899C202.618 38.6953 202.853 38.965 203.018 39.2775C203.183 39.59 203.273 39.9367 203.28 40.2899C203.269 40.6313 203.177 40.9652 203.012 41.2642C202.847 41.5632 202.613 41.8188 202.33 42.0099C201.744 42.506 200.998 42.7725 200.23 42.7599C199.45 42.775 198.69 42.5088 198.09 42.0099C197.816 41.8128 197.591 41.5549 197.433 41.2566C197.276 40.9582 197.189 40.6274 197.18 40.2899C197.19 39.9373 197.281 39.5917 197.446 39.2797C197.611 38.9677 197.845 38.6975 198.13 38.4899H198.09Z" fill="#5A5B5D"/>
<path d="M187.07 41.06H184.38V34.59H181.45V54.91L184.38 54.88V43.56H187.07V54.91L190.09 54.88V34.59H187.07V41.06Z" fill="#5A5B5D"/>
<path d="M172.49 37.08H179V34.59H169.3V48C169.279 48.243 169.323 48.4872 169.429 48.7072C169.534 48.9271 169.697 49.1146 169.9 49.25C170.336 49.4793 170.829 49.5798 171.32 49.54H179.45V47.04H172.45L172.49 37.08Z" fill="#5A5B5D"/>
<path d="M233.28 49.18L236.46 49.16L236.47 34.59H218.8V37.08H233.28V49.18Z" fill="#5A5B5D"/>
<path d="M230.16 51.2899V42.9399H227.02V51.2899H224.3V42.9399H221.18V51.2899H217.34V53.7799H238.29V51.2899H230.16Z" fill="#5A5B5D"/>
<path d="M125.79 39.93C127.576 39.5946 129.227 38.7468 130.54 37.49C131.832 38.7507 133.473 39.5939 135.25 39.91C137.001 40.3624 138.794 40.6306 140.6 40.71L141.16 38.17C139.112 38.1222 137.085 37.7405 135.16 37.04C133.4 36.39 132.16 35.3 132.16 34.35H128.86C128.86 35.2 127.63 36.35 125.86 37.04C123.941 37.7654 121.911 38.1545 119.86 38.19V38.19L120.42 40.68C122.232 40.628 124.033 40.3765 125.79 39.93V39.93Z" fill="#5A5B5D"/>
<path d="M152.15 39.43C152.975 40.5424 154.047 41.4493 155.28 42.08C156.64 42.6789 158.077 43.0829 159.55 43.28L160.17 40.75C158.145 40.5338 156.258 39.622 154.83 38.17C154.105 37.1339 153.752 35.8824 153.83 34.62H150.42C150.488 35.8981 150.11 37.16 149.35 38.19C147.92 39.6457 146.029 40.5609 144 40.78V40.78L144.6 43.25C146.025 43.0374 147.417 42.6407 148.74 42.07C150.077 41.485 151.249 40.578 152.15 39.43V39.43Z" fill="#5A5B5D"/>
<path d="M58.9 63.55H49.78C49.88 63.55 50.22 63.1101 50.3 63.0201C50.4799 62.8244 50.6469 62.6173 50.8 62.4001C51.1933 61.865 51.5066 61.2754 51.73 60.65C52.5191 58.5312 52.4655 56.1904 51.58 54.1101C50.5596 52.2489 49.431 50.4491 48.2 48.72C46.4349 46.0993 45.5424 42.988 45.65 39.83C45.8475 37.6941 46.7076 35.6732 48.11 34.05H56.89C55.7014 35.2032 54.854 36.662 54.4411 38.2658C54.0283 39.8696 54.0659 41.5563 54.55 43.14C55.1591 44.9641 56.0498 46.6815 57.19 48.23C58.2472 49.7249 59.1867 51.2996 60 52.94C60.9001 54.9815 61.1582 57.2485 60.74 59.44C60.5386 60.4888 60.1777 61.5005 59.67 62.44C59.54 62.61 59.1 63.55 58.9 63.55Z" fill="#00A3C9"/>
<path d="M64 54.94H79.09V30H59.18C58.3237 30.8616 57.7094 31.9335 57.3987 33.1079C57.088 34.2822 57.0919 35.5176 57.41 36.69C57.93 38.82 59.47 40.69 60.84 42.55C63.02 45.44 65.4 48.7 64.73 52.55C64.617 53.3808 64.3705 54.1879 64 54.94V54.94Z" fill="#5AC5C4"/>
<path d="M30 30V54.94H44.89C45.4936 53.4591 45.4936 51.8009 44.89 50.32C43.45 46.8 41.11 44.9 39.81 41.84C38.56 38.93 38.42 36.28 39.48 32.46C39.7619 31.62 40.0959 30.7984 40.48 30L30 30Z" fill="#00678F"/>
<path d="M109.66 30H97.3V49.78C97.3 49.88 97.3 50.36 97.3 50.85C97.17 53.95 96.44 54.57 95.67 54.94H109.67L109.66 30Z" fill="#00A3C9"/>
<path d="M82.46 34.08V59.2C82.5006 60.2496 82.9435 61.2434 83.6969 61.9753C84.4504 62.7073 85.4565 63.1213 86.5069 63.1316C87.5573 63.1419 88.5713 62.7476 89.3389 62.0306C90.1065 61.3135 90.5688 60.3286 90.63 59.28V34.08H82.46Z" fill="#00678F"/>
</g>
<path d="M36.125 188.55H105V169.425H69.25V168.925L78.375 161.05C98.8125 143.863 104 135.05 104 124.55C104 107.863 90.3125 96.8 68.875 96.8C48.0625 96.8 34.4375 108.425 34.5 127.3H57.125C57.0625 119.613 61.875 115.175 68.875 115.175C75.8125 115.175 80.8125 119.488 80.875 126.55C80.8125 133.113 76.625 137.363 69.75 143.175L36.125 171.425V188.55ZM116.25 188.55H140V152.925H175.375V133.675H140V117.3H179.375V98.05H116.25V188.55Z" fill="#2D2926"/>
<path d="M57.9141 202.792H53.4492V210.597H48.457V214.218H53.4492V221.777H57.9141V202.792ZM30.7383 218.261L33.0586 221.812C36.8555 220.511 39.4219 217.892 40.8281 214.64C42.2168 217.505 44.6602 219.825 48.1758 220.968L50.3906 217.452C45.416 215.8 43.1309 212.038 43.043 208.312H49.4062V204.726H32.0391V208.312H38.4727C38.3672 212.32 35.9766 216.503 30.7383 218.261ZM35.9766 228.667C35.9766 232.552 40.1602 234.82 46.9805 234.82C53.8184 234.82 58.002 232.552 58.0195 228.667C58.002 224.782 53.8184 222.497 46.9805 222.48C40.1602 222.497 35.9766 224.782 35.9766 228.667ZM40.4414 228.667C40.4414 226.822 42.7441 225.907 46.9805 225.925C51.2344 225.907 53.5371 226.822 53.5547 228.667C53.5371 230.495 51.2344 231.409 46.9805 231.409C42.7441 231.409 40.4414 230.495 40.4414 228.667ZM91.3477 227.402H78.8672V221.495H88.0781V204.831H83.6133V209.788H69.6562V204.831H65.1562V221.495H74.4023V227.402H62.0625V231.058H91.3477V227.402ZM69.6562 217.909V213.374H83.6133V217.909H69.6562ZM111.176 205.991H94.582V209.577H106.711C106.676 212.407 106.605 215.835 105.867 220.476L110.297 220.827C111.141 215.501 111.141 211.564 111.176 208.558V205.991ZM92.8945 224.659L93.3164 228.245C98.9238 228.281 106.166 228.157 112.758 227.05L112.477 223.71C109.523 224.097 106.342 224.325 103.195 224.448V215.167H98.7656V224.589C96.6914 224.642 94.6875 224.659 92.8945 224.659ZM113.988 234.784H118.523V219.386H122.883V215.659H118.523V202.792H113.988V234.784ZM143.273 205.64H136.031V202.616H131.566V205.64H124.289V209.191H143.273V205.64ZM125.836 216.116C125.836 219.632 129.141 222.005 133.781 222.023C138.439 222.005 141.656 219.632 141.656 216.116C141.656 212.601 138.439 210.228 133.781 210.21C129.141 210.228 125.836 212.601 125.836 216.116ZM128.121 227.788H145.172V234.784H149.672V224.202H128.121V227.788ZM130.23 216.116C130.213 214.464 131.637 213.585 133.781 213.585C135.943 213.585 137.402 214.464 137.402 216.116C137.402 217.751 135.943 218.595 133.781 218.577C131.637 218.595 130.213 217.751 130.23 216.116ZM145.172 222.866H149.672V214.745H153.996V211.089H149.672V202.792H145.172V222.866ZM173.332 205.113H156.879V208.769H168.955C168.92 210.685 168.779 213.023 168.199 216.081L172.594 216.503C173.332 212.531 173.332 209.331 173.332 207.116V205.113ZM154.98 218.823L155.367 222.409C160.939 222.392 168.428 222.269 175.09 221.038L174.844 217.804C171.838 218.243 168.586 218.49 165.387 218.63V212.495H160.922V218.771C158.795 218.823 156.773 218.823 154.98 218.823ZM159.691 234.222H182.156V230.636H164.191V224.589H159.691V234.222ZM176.566 226.734H181.172V216.292H185.039V212.531H181.172V202.792H176.566V226.734Z" fill="#2D2926"/>
<path d="M32.5156 244.652H31.0117V254.55H32.5156V244.652ZM35.8652 250.148C35.8652 248.965 36.583 248.288 37.5879 248.288C38.5723 248.288 39.1533 248.931 39.1602 250.011V254.55H40.6094V249.833C40.6162 247.994 39.6045 247.031 38.0801 247.031C36.9727 247.031 36.2412 247.543 35.8926 248.343H35.8105V247.126H34.4023V254.55H35.8652V250.148ZM45.9277 247.126H44.3281V246.484C44.3281 245.759 44.6904 245.445 45.4629 245.445C45.5928 245.445 45.8047 245.458 46.0781 245.499V244.282C45.791 244.228 45.4287 244.187 45.0801 244.187C43.7197 244.187 42.8721 244.939 42.8652 246.265V247.126H41.7168V248.288H42.8652V254.55H44.3281V248.288H45.9277V247.126ZM50.0977 254.7C52.1895 254.7 53.5566 253.169 53.5566 250.872C53.5566 248.562 52.1895 247.031 50.0977 247.031C47.9922 247.031 46.6182 248.562 46.625 250.872C46.6182 253.169 47.9922 254.7 50.0977 254.7ZM48.0879 250.872C48.0879 249.45 48.7373 248.24 50.0977 248.234C51.4375 248.24 52.0801 249.45 52.0801 250.872C52.0801 252.287 51.4375 253.484 50.0977 253.484C48.7373 253.484 48.0879 252.287 48.0879 250.872ZM54.9922 254.55H56.4551V250.025C56.4551 249.054 57.207 248.35 58.2188 248.357C58.5195 248.35 58.8613 248.411 58.9844 248.439V247.044C58.834 247.031 58.5469 247.01 58.3691 247.017C57.501 247.01 56.7559 247.509 56.4824 248.302H56.4004V247.126H54.9922V254.55ZM60.0781 254.55H61.541V249.97C61.541 248.972 62.2383 248.288 63.0586 248.288C63.8584 248.288 64.4121 248.815 64.4121 249.628V254.55H65.8613V249.82C65.8613 248.931 66.4014 248.288 67.3379 248.288C68.1035 248.288 68.7324 248.705 68.7324 249.71V254.55H70.1953V249.573C70.1885 247.871 69.2383 247.031 67.8984 247.031C66.8252 247.031 66.0186 247.543 65.6699 248.343H65.5879C65.2734 247.516 64.583 247.031 63.5918 247.031C62.6143 247.031 61.8828 247.516 61.5684 248.343H61.4863V247.126H60.0781V254.55ZM71.6172 252.458C71.6104 253.907 72.7109 254.714 74.1191 254.714C75.3496 254.714 76.0332 254.092 76.3203 253.538H76.375V254.55H77.7969V249.615C77.79 247.461 76.0674 247.031 74.8848 247.031C73.1279 247.031 71.9795 247.919 71.8496 249.15H73.2988C73.4492 248.603 73.9688 248.206 74.8301 248.206C75.8213 248.206 76.3408 248.692 76.334 249.532L76.3408 250.127C75.999 250.141 74.8848 250.202 74.3926 250.23C73.0527 250.325 71.6104 250.763 71.6172 252.458ZM73.0391 252.472C73.0391 251.74 73.6406 251.378 74.5977 251.31C74.9463 251.289 76.0059 251.214 76.3408 251.194L76.3477 251.87C76.3477 252.752 75.6367 253.545 74.4473 253.552C73.627 253.545 73.0391 253.183 73.0391 252.472ZM83.0332 247.126H81.5156V245.349H80.0664V247.126H78.9727V248.288H80.0664V252.663C80.0527 254.017 81.085 254.646 82.2266 254.646C82.6299 254.646 82.9443 254.618 83.1426 254.591V253.32C82.9375 253.34 82.6162 253.361 82.4043 253.361C81.9326 253.354 81.5225 253.203 81.5156 252.363V248.288H83.0332V247.126ZM84.4551 254.55H85.918V247.126H84.4551V254.55ZM84.2637 245.116C84.2705 245.595 84.6875 245.985 85.1934 245.978C85.6924 245.985 86.1094 245.595 86.1094 245.116C86.1094 244.638 85.6924 244.255 85.1934 244.255C84.6875 244.255 84.2705 244.638 84.2637 245.116ZM90.8398 254.7C92.9316 254.7 94.2988 253.169 94.2988 250.872C94.2988 248.562 92.9316 247.031 90.8398 247.031C88.7344 247.031 87.3604 248.562 87.3672 250.872C87.3604 253.169 88.7344 254.7 90.8398 254.7ZM88.8301 250.872C88.8301 249.45 89.4795 248.24 90.8398 248.234C92.1797 248.24 92.8223 249.45 92.8223 250.872C92.8223 252.287 92.1797 253.484 90.8398 253.484C89.4795 253.484 88.8301 252.287 88.8301 250.872ZM97.1973 250.148C97.1973 248.965 97.915 248.288 98.9199 248.288C99.9043 248.288 100.485 248.931 100.492 250.011V254.55H101.941V249.833C101.948 247.994 100.937 247.031 99.4121 247.031C98.3047 247.031 97.5732 247.543 97.2246 248.343H97.1426V247.126H95.7344V254.55H97.1973V250.148ZM112.646 247.263H114.109C114.062 245.663 112.66 244.515 110.65 244.515C108.647 244.515 107.13 245.65 107.123 247.359C107.13 248.74 108.114 249.546 109.707 249.984L110.883 250.298C111.929 250.578 112.749 250.927 112.756 251.788C112.749 252.759 111.833 253.395 110.568 253.402C109.413 253.395 108.456 252.882 108.367 251.802H106.863C106.959 253.607 108.354 254.714 110.568 254.714C112.906 254.714 114.239 253.49 114.246 251.816C114.239 250.025 112.653 249.334 111.389 249.027L110.432 248.767C109.646 248.582 108.627 248.213 108.627 247.277C108.634 246.436 109.399 245.814 110.609 245.814C111.744 245.814 112.551 246.34 112.646 247.263ZM118.881 254.7C120.631 254.7 121.772 253.641 121.93 252.198H120.508C120.323 252.998 119.708 253.463 118.881 253.456C117.657 253.463 116.871 252.458 116.871 250.831C116.871 249.252 117.678 248.254 118.881 248.247C119.804 248.254 120.357 248.835 120.508 249.532H121.93C121.772 248.029 120.549 247.031 118.854 247.031C116.762 247.031 115.401 248.61 115.408 250.872C115.401 253.108 116.714 254.7 118.881 254.7ZM123.311 254.55H124.773V247.126H123.311V254.55ZM123.119 245.116C123.126 245.595 123.543 245.985 124.049 245.978C124.548 245.985 124.965 245.595 124.965 245.116C124.965 244.638 124.548 244.255 124.049 244.255C123.543 244.255 123.126 244.638 123.119 245.116ZM129.75 254.7C131.384 254.7 132.525 253.894 132.854 252.691H131.377C131.131 253.142 130.591 253.497 129.764 253.497C128.547 253.497 127.713 252.698 127.672 251.282H132.949V250.763C132.949 248.076 131.343 247.031 129.654 247.031C127.583 247.031 126.216 248.603 126.223 250.886C126.216 253.19 127.562 254.7 129.75 254.7ZM127.679 250.189C127.74 249.143 128.499 248.227 129.668 248.234C130.782 248.227 131.514 249.061 131.514 250.189H127.679ZM135.861 250.148C135.861 248.965 136.579 248.288 137.584 248.288C138.568 248.288 139.149 248.931 139.156 250.011V254.55H140.605V249.833C140.612 247.994 139.601 247.031 138.076 247.031C136.969 247.031 136.237 247.543 135.889 248.343H135.807V247.126H134.398V254.55H135.861V250.148ZM145.527 254.7C147.277 254.7 148.419 253.641 148.576 252.198H147.154C146.97 252.998 146.354 253.463 145.527 253.456C144.304 253.463 143.518 252.458 143.518 250.831C143.518 249.252 144.324 248.254 145.527 248.247C146.45 248.254 147.004 248.835 147.154 249.532H148.576C148.419 248.029 147.195 247.031 145.5 247.031C143.408 247.031 142.048 248.61 142.055 250.872C142.048 253.108 143.36 254.7 145.527 254.7ZM153.156 254.7C154.79 254.7 155.932 253.894 156.26 252.691H154.783C154.537 253.142 153.997 253.497 153.17 253.497C151.953 253.497 151.119 252.698 151.078 251.282H156.355V250.763C156.355 248.076 154.749 247.031 153.061 247.031C150.989 247.031 149.622 248.603 149.629 250.886C149.622 253.19 150.969 254.7 153.156 254.7ZM151.085 250.189C151.146 249.143 151.905 248.227 153.074 248.234C154.188 248.227 154.92 249.061 154.92 250.189H151.085ZM161.346 254.55H165.133C167.443 254.55 168.482 253.402 168.482 251.884C168.482 250.353 167.416 249.491 166.432 249.437V249.341C167.341 249.109 168.1 248.487 168.1 247.249C168.1 245.78 167.081 244.652 164.969 244.652H161.346V254.55ZM162.85 253.265V250.107H165.051C166.24 250.107 166.992 250.865 166.992 251.816C166.992 252.636 166.418 253.258 164.996 253.265H162.85ZM162.85 248.931V245.937H164.873C166.056 245.937 166.623 246.552 166.623 247.372C166.623 248.323 165.844 248.924 164.846 248.931H162.85ZM174.689 251.46C174.689 252.725 173.753 253.32 172.939 253.32C172.051 253.32 171.436 252.677 171.436 251.665V247.126H169.973V251.843C169.973 253.682 170.984 254.646 172.42 254.646C173.534 254.646 174.293 254.058 174.635 253.265H174.717V254.55H176.139V247.126H174.689V251.46ZM177.916 254.55H179.379V247.126H177.916V254.55ZM177.725 245.116C177.731 245.595 178.148 245.985 178.654 245.978C179.153 245.985 179.57 245.595 179.57 245.116C179.57 244.638 179.153 244.255 178.654 244.255C178.148 244.255 177.731 244.638 177.725 245.116ZM182.619 244.652H181.156V254.55H182.619V244.652ZM187.172 254.7C188.525 254.694 189.059 253.873 189.332 253.388H189.441V254.55H190.863V244.652H189.4V248.329H189.332C189.065 247.865 188.566 247.031 187.186 247.031C185.401 247.031 184.068 248.439 184.068 250.859C184.068 253.251 185.381 254.694 187.172 254.7ZM185.559 250.831C185.552 249.368 186.208 248.268 187.5 248.275C188.758 248.268 189.441 249.286 189.441 250.831C189.441 252.39 188.744 253.449 187.5 253.456C186.222 253.449 185.552 252.322 185.559 250.831ZM192.764 254.55H194.227V247.126H192.764V254.55ZM192.572 245.116C192.579 245.595 192.996 245.985 193.502 245.978C194.001 245.985 194.418 245.595 194.418 245.116C194.418 244.638 194.001 244.255 193.502 244.255C192.996 244.255 192.579 244.638 192.572 245.116ZM197.467 250.148C197.467 248.965 198.185 248.288 199.189 248.288C200.174 248.288 200.755 248.931 200.762 250.011V254.55H202.211V249.833C202.218 247.994 201.206 247.031 199.682 247.031C198.574 247.031 197.843 247.543 197.494 248.343H197.412V247.126H196.004V254.55H197.467V250.148ZM207.105 257.49C209.02 257.49 210.462 256.621 210.455 254.714V247.126H209.033V248.329H208.938C208.664 247.865 208.158 247.031 206.777 247.031C204.993 247.031 203.66 248.391 203.66 250.763C203.66 253.135 205.014 254.441 206.764 254.441C208.131 254.441 208.664 253.675 208.924 253.197H209.02V254.659C209.013 255.815 208.281 256.321 207.119 256.314C206.155 256.321 205.499 255.979 205.355 255.275H203.865C203.995 256.662 205.232 257.49 207.105 257.49ZM205.15 250.79C205.144 249.368 205.8 248.268 207.092 248.275C208.35 248.268 209.033 249.286 209.033 250.79C209.033 252.322 208.336 253.231 207.092 253.238C205.813 253.231 205.144 252.246 205.15 250.79Z" fill="#2D2926"/>
</g>
<defs>
<clipPath id="clip0_12_4">
<rect width="800" height="600" fill="white"/>
</clipPath>
<clipPath id="clip1_12_4">
<rect width="208.29" height="33.55" fill="white" transform="translate(30 30)"/>
</clipPath>
</defs>
</svg>
