<svg width="800" height="600" viewBox="0 0 800 600" fill="none" xmlns="http://www.w3.org/2000/svg">
<path d="M394.56 94.4201H302.89V187.61H464.7V251.72H490.46V285.79L490.75 410.75V442.38H148.75V512.52H713.18V443.9H685.13V186.72H720.91V163.42H756.7V69.3201H394.56V94.4201Z" stroke="#2D2926" stroke-width="5" stroke-miterlimit="10" stroke-linecap="square"/>
<path d="M394.56 94.4201V187.61M394.56 163H687.87L687.87 69.3201M685.13 186.72H558.42M685.13 443.9H558.19V186.72M685.13 443.9H596.01M685.13 443.9V489.57H596.01M685.13 443.9H713.19V512.51H685.13V443.9ZM490.46 251.72H529.35V490.84H177.77M596.01 443.9H569.36V489.57H596.01M596.01 443.9V489.57M177.77 442.38V512.52M493.87 69.3201V163M590.37 69.3201V163M558.19 315.31H685.13M558.19 378.77H685.13M647.66 443.9V489.58M665.73 443.9V489.57M490.75 442.38H529.35M474.78 442.38V490.84M430.79 442.38L431.13 490.84M389.87 442.38V490.84M335.99 442.38V490.84M283.82 440.67V489.12M239.57 442.38V490.84M205.85 490.84V442.38" stroke="#2D2926" stroke-width="2" stroke-miterlimit="10" stroke-linecap="square"/>
<path d="M466.5 187H495.5M524.5 187H521.75M495.5 187V207M495.5 187H498.5M495.5 207V213.5L486 211.862M495.5 207C495.681 207 496.788 207 498.5 207M486 211.862L466.5 208.5V221.5H486M486 211.862H466.5M486 211.862V215.5M498.5 187V207M498.5 187H501.5M498.5 207C499.361 207 500.374 207 501.5 207M501.5 187V207M501.5 187H504.5M501.5 207C502.431 207 503.439 207 504.5 207M504.5 187V207M504.5 187H507.5M504.5 207C505.462 207 506.467 207 507.5 207M507.5 187V207M507.5 187H510M507.5 207C508.319 207 509.155 207 510 207M510 187V207M510 187H513M510 207C510.993 207 511.997 207 513 207M513 187V207M513 187H516M513 207C514.007 207 515.011 207 516 207M516 187V207M516 187H519M516 207C517.022 207 518.028 207 519 207M519 187V207M519 187H521.75M519 207C519.953 207 520.874 207 521.75 207M521.75 187V207M521.75 207C522.731 207 523.655 207 524.5 207V232H524M466.5 215.5H486M486 215.5V218.5M466.5 218.5H486M486 218.5V221.5M486 221.5V224.5M486 224.5H466.5M486 224.5V227.5M486 227.5H466.5M486 227.5V230.5M486 230.5V232H489M486 230.5H466.5M489 232V250.5M489 232H492M492 232H495M492 232V249M492 250.5V249M495 232V249M495 232H498M492 249H498M498 249V252M498 249V232M498 232H501M501 232V252M501 232H503.5M503.5 232V252M503.5 232H506.5M506.5 232V252M506.5 232H509.5M509.5 232V252M509.5 232H512M512 232V252M512 232H515M515 232V252M515 232H518M518 232V252M518 232H521M521 232V252M521 232H524M524 232V252" stroke="#2D2926"/>
<path d="M342.062 146.137C344.113 146.137 345.638 144.927 345.631 143.279C345.638 142.028 344.852 141.119 343.498 140.928V140.859C344.564 140.593 345.262 139.786 345.248 138.658C345.262 137.195 344.038 135.965 342.09 135.965C340.244 135.965 338.754 137.059 338.713 138.672H340.162C340.196 137.776 341.085 137.223 342.076 137.223C343.122 137.223 343.799 137.838 343.799 138.74C343.799 139.69 343.013 140.319 341.885 140.312H341.037V141.543H341.885C343.3 141.55 344.113 142.247 344.113 143.225C344.113 144.188 343.245 144.838 342.049 144.838C340.941 144.838 340.08 144.284 340.025 143.416H338.494C338.556 145.036 340.012 146.137 342.062 146.137ZM350.73 146.137C353.021 146.137 354.36 144.291 354.367 141.051C354.36 137.831 353 135.965 350.73 135.965C348.454 135.965 347.094 137.831 347.094 141.051C347.094 144.291 348.44 146.137 350.73 146.137ZM348.598 141.051C348.598 138.59 349.397 137.243 350.73 137.236C352.057 137.243 352.863 138.59 352.863 141.051C352.863 143.519 352.063 144.838 350.73 144.838C349.391 144.838 348.591 143.519 348.598 141.051ZM359.686 136.102H358.209L355.748 137.715V139.15L358.113 137.605H358.168V146H359.686V136.102Z" fill="#2D2926"/>
<path d="M436.037 122.137C438.088 122.137 439.612 120.927 439.605 119.279C439.612 118.028 438.826 117.119 437.473 116.928V116.859C438.539 116.593 439.236 115.786 439.223 114.658C439.236 113.195 438.013 111.965 436.064 111.965C434.219 111.965 432.729 113.059 432.688 114.672H434.137C434.171 113.776 435.06 113.223 436.051 113.223C437.097 113.223 437.773 113.838 437.773 114.74C437.773 115.69 436.987 116.319 435.859 116.312H435.012V117.543H435.859C437.274 117.55 438.088 118.247 438.088 119.225C438.088 120.188 437.22 120.838 436.023 120.838C434.916 120.838 434.055 120.284 434 119.416H432.469C432.53 121.036 433.986 122.137 436.037 122.137ZM444.705 122.137C446.995 122.137 448.335 120.291 448.342 117.051C448.335 113.831 446.975 111.965 444.705 111.965C442.429 111.965 441.068 113.831 441.068 117.051C441.068 120.291 442.415 122.137 444.705 122.137ZM442.572 117.051C442.572 114.59 443.372 113.243 444.705 113.236C446.031 113.243 446.838 114.59 446.838 117.051C446.838 119.519 446.038 120.838 444.705 120.838C443.365 120.838 442.565 119.519 442.572 117.051ZM449.9 122H456.559V120.715H451.992V120.633L454.002 118.596C455.861 116.771 456.381 115.889 456.395 114.781C456.381 113.175 455.062 111.965 453.154 111.965C451.268 111.965 449.887 113.161 449.9 114.973H451.322C451.329 113.92 452.026 113.223 453.127 113.223C454.166 113.223 454.959 113.845 454.959 114.822C454.959 115.69 454.419 116.319 453.332 117.447L449.9 120.906V122Z" fill="#2D2926"/>
<path d="M533.332 122.137C535.383 122.137 536.907 120.927 536.9 119.279C536.907 118.028 536.121 117.119 534.768 116.928V116.859C535.834 116.593 536.531 115.786 536.518 114.658C536.531 113.195 535.308 111.965 533.359 111.965C531.514 111.965 530.023 113.059 529.982 114.672H531.432C531.466 113.776 532.354 113.223 533.346 113.223C534.392 113.223 535.068 113.838 535.068 114.74C535.068 115.69 534.282 116.319 533.154 116.312H532.307V117.543H533.154C534.569 117.55 535.383 118.247 535.383 119.225C535.383 120.188 534.515 120.838 533.318 120.838C532.211 120.838 531.35 120.284 531.295 119.416H529.764C529.825 121.036 531.281 122.137 533.332 122.137ZM542 122.137C544.29 122.137 545.63 120.291 545.637 117.051C545.63 113.831 544.27 111.965 542 111.965C539.724 111.965 538.363 113.831 538.363 117.051C538.363 120.291 539.71 122.137 542 122.137ZM539.867 117.051C539.867 114.59 540.667 113.243 542 113.236C543.326 113.243 544.133 114.59 544.133 117.051C544.133 119.519 543.333 120.838 542 120.838C540.66 120.838 539.86 119.519 539.867 117.051ZM550.709 122.137C552.76 122.137 554.284 120.927 554.277 119.279C554.284 118.028 553.498 117.119 552.145 116.928V116.859C553.211 116.593 553.908 115.786 553.895 114.658C553.908 113.195 552.685 111.965 550.736 111.965C548.891 111.965 547.4 113.059 547.359 114.672H548.809C548.843 113.776 549.731 113.223 550.723 113.223C551.769 113.223 552.445 113.838 552.445 114.74C552.445 115.69 551.659 116.319 550.531 116.312H549.684V117.543H550.531C551.946 117.55 552.76 118.247 552.76 119.225C552.76 120.188 551.892 120.838 550.695 120.838C549.588 120.838 548.727 120.284 548.672 119.416H547.141C547.202 121.036 548.658 122.137 550.709 122.137Z" fill="#2D2926"/>
<path d="M630.257 122.137C632.308 122.137 633.832 120.927 633.825 119.279C633.832 118.028 633.046 117.119 631.692 116.928V116.859C632.759 116.593 633.456 115.786 633.442 114.658C633.456 113.195 632.232 111.965 630.284 111.965C628.438 111.965 626.948 113.059 626.907 114.672H628.356C628.391 113.776 629.279 113.223 630.271 113.223C631.316 113.223 631.993 113.838 631.993 114.74C631.993 115.69 631.207 116.319 630.079 116.312H629.231V117.543H630.079C631.494 117.55 632.308 118.247 632.308 119.225C632.308 120.188 631.439 120.838 630.243 120.838C629.136 120.838 628.274 120.284 628.22 119.416H626.688C626.75 121.036 628.206 122.137 630.257 122.137ZM638.925 122.137C641.215 122.137 642.555 120.291 642.562 117.051C642.555 113.831 641.194 111.965 638.925 111.965C636.648 111.965 635.288 113.831 635.288 117.051C635.288 120.291 636.635 122.137 638.925 122.137ZM636.792 117.051C636.792 114.59 637.592 113.243 638.925 113.236C640.251 113.243 641.058 114.59 641.058 117.051C641.058 119.519 640.258 120.838 638.925 120.838C637.585 120.838 636.785 119.519 636.792 117.051ZM643.901 120.072H648.714V122H650.136V120.072H651.489V118.801H650.136V112.102H648.276L643.901 118.855V120.072ZM645.487 118.801V118.719L648.604 113.893H648.714V118.801H645.487Z" fill="#2D2926"/>
<path d="M611.955 256.137C614.006 256.137 615.53 254.927 615.523 253.279C615.53 252.028 614.744 251.119 613.391 250.928V250.859C614.457 250.593 615.154 249.786 615.141 248.658C615.154 247.195 613.931 245.965 611.982 245.965C610.137 245.965 608.646 247.059 608.605 248.672H610.055C610.089 247.776 610.978 247.223 611.969 247.223C613.015 247.223 613.691 247.838 613.691 248.74C613.691 249.69 612.905 250.319 611.777 250.312H610.93V251.543H611.777C613.192 251.55 614.006 252.247 614.006 253.225C614.006 254.188 613.138 254.838 611.941 254.838C610.834 254.838 609.973 254.284 609.918 253.416H608.387C608.448 255.036 609.904 256.137 611.955 256.137ZM620.623 256.137C622.913 256.137 624.253 254.291 624.26 251.051C624.253 247.831 622.893 245.965 620.623 245.965C618.347 245.965 616.986 247.831 616.986 251.051C616.986 254.291 618.333 256.137 620.623 256.137ZM618.49 251.051C618.49 248.59 619.29 247.243 620.623 247.236C621.949 247.243 622.756 248.59 622.756 251.051C622.756 253.519 621.956 254.838 620.623 254.838C619.283 254.838 618.483 253.519 618.49 251.051ZM629.182 256.137C631.246 256.137 632.709 254.735 632.709 252.787C632.709 250.88 631.335 249.499 629.469 249.492C628.717 249.499 628.02 249.766 627.609 250.162H627.514L627.842 247.387H632.203V246.102H626.598L625.955 251.611H627.377C627.712 251.003 628.32 250.736 629.113 250.736C630.357 250.75 631.246 251.625 631.246 252.828C631.246 254.004 630.385 254.872 629.182 254.879C628.184 254.872 627.377 254.257 627.295 253.416H625.832C625.9 254.995 627.309 256.137 629.182 256.137Z" fill="#2D2926"/>
<path d="M611.839 352.137C613.89 352.137 615.414 350.927 615.407 349.279C615.414 348.028 614.628 347.119 613.274 346.928V346.859C614.341 346.593 615.038 345.786 615.024 344.658C615.038 343.195 613.814 341.965 611.866 341.965C610.021 341.965 608.53 343.059 608.489 344.672H609.938C609.973 343.776 610.861 343.223 611.853 343.223C612.898 343.223 613.575 343.838 613.575 344.74C613.575 345.69 612.789 346.319 611.661 346.312H610.813V347.543H611.661C613.076 347.55 613.89 348.247 613.89 349.225C613.89 350.188 613.021 350.838 611.825 350.838C610.718 350.838 609.856 350.284 609.802 349.416H608.271C608.332 351.036 609.788 352.137 611.839 352.137ZM620.507 352.137C622.797 352.137 624.137 350.291 624.144 347.051C624.137 343.831 622.776 341.965 620.507 341.965C618.23 341.965 616.87 343.831 616.87 347.051C616.87 350.291 618.217 352.137 620.507 352.137ZM618.374 347.051C618.374 344.59 619.174 343.243 620.507 343.236C621.833 343.243 622.64 344.59 622.64 347.051C622.64 349.519 621.84 350.838 620.507 350.838C619.167 350.838 618.367 349.519 618.374 347.051ZM629.284 352.137C631.41 352.15 632.825 350.681 632.825 348.76C632.825 346.866 631.403 345.513 629.64 345.506C628.566 345.513 627.637 346.005 627.097 346.846H626.987C626.987 344.61 627.876 343.284 629.407 343.277C630.405 343.284 631.041 343.865 631.239 344.672H632.729C632.497 343.1 631.232 341.965 629.407 341.965C627.035 341.965 625.545 343.934 625.538 347.379C625.538 351.036 627.452 352.123 629.284 352.137ZM627.165 348.801C627.179 347.7 628.102 346.729 629.312 346.736C630.501 346.729 631.362 347.652 631.362 348.787C631.362 349.942 630.467 350.872 629.271 350.879C628.054 350.872 627.172 349.901 627.165 348.801Z" fill="#2D2926"/>
<path d="M612.42 417.137C614.471 417.137 615.995 415.927 615.988 414.279C615.995 413.028 615.209 412.119 613.855 411.928V411.859C614.922 411.593 615.619 410.786 615.605 409.658C615.619 408.195 614.396 406.965 612.447 406.965C610.602 406.965 609.111 408.059 609.07 409.672H610.52C610.554 408.776 611.442 408.223 612.434 408.223C613.479 408.223 614.156 408.838 614.156 409.74C614.156 410.69 613.37 411.319 612.242 411.312H611.395V412.543H612.242C613.657 412.55 614.471 413.247 614.471 414.225C614.471 415.188 613.603 415.838 612.406 415.838C611.299 415.838 610.438 415.284 610.383 414.416H608.852C608.913 416.036 610.369 417.137 612.42 417.137ZM621.088 417.137C623.378 417.137 624.718 415.291 624.725 412.051C624.718 408.831 623.357 406.965 621.088 406.965C618.812 406.965 617.451 408.831 617.451 412.051C617.451 415.291 618.798 417.137 621.088 417.137ZM618.955 412.051C618.955 409.59 619.755 408.243 621.088 408.236C622.414 408.243 623.221 409.59 623.221 412.051C623.221 414.519 622.421 415.838 621.088 415.838C619.748 415.838 618.948 414.519 618.955 412.051ZM626.352 417H627.924L632.326 408.441V407.102H625.668V408.387H630.768V408.469L626.352 417Z" fill="#2D2926"/>
<path d="M503.015 352.137C505.065 352.137 506.59 350.927 506.583 349.279C506.59 348.028 505.804 347.119 504.45 346.928V346.859C505.517 346.593 506.214 345.786 506.2 344.658C506.214 343.195 504.99 341.965 503.042 341.965C501.196 341.965 499.706 343.059 499.665 344.672H501.114C501.148 343.776 502.037 343.223 503.028 343.223C504.074 343.223 504.751 343.838 504.751 344.74C504.751 345.69 503.965 346.319 502.837 346.312H501.989V347.543H502.837C504.252 347.55 505.065 348.247 505.065 349.225C505.065 350.188 504.197 350.838 503.001 350.838C501.894 350.838 501.032 350.284 500.978 349.416H499.446C499.508 351.036 500.964 352.137 503.015 352.137ZM511.997 342.102H510.521L508.06 343.715V345.15L510.425 343.605H510.479V352H511.997V342.102ZM518.026 352.137C520.077 352.137 521.602 350.927 521.595 349.279C521.602 348.028 520.815 347.119 519.462 346.928V346.859C520.528 346.593 521.226 345.786 521.212 344.658C521.226 343.195 520.002 341.965 518.054 341.965C516.208 341.965 514.718 343.059 514.677 344.672H516.126C516.16 343.776 517.049 343.223 518.04 343.223C519.086 343.223 519.763 343.838 519.763 344.74C519.763 345.69 518.977 346.319 517.849 346.312H517.001V347.543H517.849C519.264 347.55 520.077 348.247 520.077 349.225C520.077 350.188 519.209 350.838 518.013 350.838C516.905 350.838 516.044 350.284 515.989 349.416H514.458C514.52 351.036 515.976 352.137 518.026 352.137Z" fill="#2D2926"/>
<path d="M494.72 473.137C496.771 473.137 498.295 471.927 498.288 470.279C498.295 469.028 497.509 468.119 496.155 467.928V467.859C497.222 467.593 497.919 466.786 497.905 465.658C497.919 464.195 496.695 462.965 494.747 462.965C492.901 462.965 491.411 464.059 491.37 465.672H492.819C492.854 464.776 493.742 464.223 494.733 464.223C495.779 464.223 496.456 464.838 496.456 465.74C496.456 466.69 495.67 467.319 494.542 467.312H493.694V468.543H494.542C495.957 468.55 496.771 469.247 496.771 470.225C496.771 471.188 495.902 471.838 494.706 471.838C493.599 471.838 492.737 471.284 492.683 470.416H491.151C491.213 472.036 492.669 473.137 494.72 473.137ZM499.942 473H506.601V471.715H502.034V471.633L504.044 469.596C505.903 467.771 506.423 466.889 506.437 465.781C506.423 464.175 505.104 462.965 503.196 462.965C501.31 462.965 499.929 464.161 499.942 465.973H501.364C501.371 464.92 502.068 464.223 503.169 464.223C504.208 464.223 505.001 464.845 505.001 465.822C505.001 466.69 504.461 467.319 503.374 468.447L499.942 471.906V473ZM512.028 463.102H510.552L508.091 464.715V466.15L510.456 464.605H510.511V473H512.028V463.102Z" fill="#2D2926"/>
<path d="M573.799 473H580.061V471.701H575.303V468.68H579.678V467.395H575.303V464.4H580.006V463.102H573.799V473ZM585.502 462.637H584.203L581.018 474.49H582.316L585.502 462.637ZM586.705 473H592.68V471.701H588.209V463.102H586.705V473Z" fill="#2D2926"/>
<path d="M444.694 473.137C446.745 473.137 448.27 471.927 448.263 470.279C448.27 469.028 447.483 468.119 446.13 467.928V467.859C447.196 467.593 447.894 466.786 447.88 465.658C447.894 464.195 446.67 462.965 444.722 462.965C442.876 462.965 441.386 464.059 441.345 465.672H442.794C442.828 464.776 443.717 464.223 444.708 464.223C445.754 464.223 446.431 464.838 446.431 465.74C446.431 466.69 445.645 467.319 444.517 467.312H443.669V468.543H444.517C445.932 468.55 446.745 469.247 446.745 470.225C446.745 471.188 445.877 471.838 444.681 471.838C443.573 471.838 442.712 471.284 442.657 470.416H441.126C441.188 472.036 442.644 473.137 444.694 473.137ZM449.917 473H456.575V471.715H452.009V471.633L454.019 469.596C455.878 467.771 456.397 466.889 456.411 465.781C456.397 464.175 455.078 462.965 453.171 462.965C451.284 462.965 449.903 464.161 449.917 465.973H451.339C451.346 464.92 452.043 464.223 453.144 464.223C454.183 464.223 454.976 464.845 454.976 465.822C454.976 466.69 454.436 467.319 453.349 468.447L449.917 471.906V473ZM458.243 473H464.901V471.715H460.335V471.633L462.345 469.596C464.204 467.771 464.724 466.889 464.737 465.781C464.724 464.175 463.404 462.965 461.497 462.965C459.61 462.965 458.229 464.161 458.243 465.973H459.665C459.672 464.92 460.369 464.223 461.47 464.223C462.509 464.223 463.302 464.845 463.302 465.822C463.302 466.69 462.762 467.319 461.675 468.447L458.243 471.906V473Z" fill="#2D2926"/>
<path d="M401.989 473.137C404.04 473.137 405.564 471.927 405.558 470.279C405.564 469.028 404.778 468.119 403.425 467.928V467.859C404.491 467.593 405.188 466.786 405.175 465.658C405.188 464.195 403.965 462.965 402.017 462.965C400.171 462.965 398.681 464.059 398.64 465.672H400.089C400.123 464.776 401.012 464.223 402.003 464.223C403.049 464.223 403.726 464.838 403.726 465.74C403.726 466.69 402.939 467.319 401.812 467.312H400.964V468.543H401.812C403.227 468.55 404.04 469.247 404.04 470.225C404.04 471.188 403.172 471.838 401.976 471.838C400.868 471.838 400.007 471.284 399.952 470.416H398.421C398.482 472.036 399.938 473.137 401.989 473.137ZM407.212 473H413.87V471.715H409.304V471.633L411.313 469.596C413.173 467.771 413.692 466.889 413.706 465.781C413.692 464.175 412.373 462.965 410.466 462.965C408.579 462.965 407.198 464.161 407.212 465.973H408.634C408.641 464.92 409.338 464.223 410.438 464.223C411.478 464.223 412.271 464.845 412.271 465.822C412.271 466.69 411.73 467.319 410.644 468.447L407.212 471.906V473ZM419.052 473.137C421.103 473.137 422.627 471.927 422.62 470.279C422.627 469.028 421.841 468.119 420.487 467.928V467.859C421.554 467.593 422.251 466.786 422.237 465.658C422.251 464.195 421.027 462.965 419.079 462.965C417.233 462.965 415.743 464.059 415.702 465.672H417.151C417.186 464.776 418.074 464.223 419.065 464.223C420.111 464.223 420.788 464.838 420.788 465.74C420.788 466.69 420.002 467.319 418.874 467.312H418.026V468.543H418.874C420.289 468.55 421.103 469.247 421.103 470.225C421.103 471.188 420.234 471.838 419.038 471.838C417.931 471.838 417.069 471.284 417.015 470.416H415.483C415.545 472.036 417.001 473.137 419.052 473.137Z" fill="#2D2926"/>
<path d="M354.523 473.137C356.574 473.137 358.099 471.927 358.092 470.279C358.099 469.028 357.312 468.119 355.959 467.928V467.859C357.025 467.593 357.723 466.786 357.709 465.658C357.723 464.195 356.499 462.965 354.551 462.965C352.705 462.965 351.215 464.059 351.174 465.672H352.623C352.657 464.776 353.546 464.223 354.537 464.223C355.583 464.223 356.26 464.838 356.26 465.74C356.26 466.69 355.474 467.319 354.346 467.312H353.498V468.543H354.346C355.761 468.55 356.574 469.247 356.574 470.225C356.574 471.188 355.706 471.838 354.51 471.838C353.402 471.838 352.541 471.284 352.486 470.416H350.955C351.017 472.036 352.473 473.137 354.523 473.137ZM359.746 473H366.404V471.715H361.838V471.633L363.848 469.596C365.707 467.771 366.227 466.889 366.24 465.781C366.227 464.175 364.907 462.965 363 462.965C361.113 462.965 359.732 464.161 359.746 465.973H361.168C361.175 464.92 361.872 464.223 362.973 464.223C364.012 464.223 364.805 464.845 364.805 465.822C364.805 466.69 364.265 467.319 363.178 468.447L359.746 471.906V473ZM367.635 471.072H372.447V473H373.869V471.072H375.223V469.801H373.869V463.102H372.01L367.635 469.855V471.072ZM369.221 469.801V469.719L372.338 464.893H372.447V469.801H369.221Z" fill="#2D2926"/>
<path d="M301.612 473.137C303.663 473.137 305.188 471.927 305.181 470.279C305.188 469.028 304.401 468.119 303.048 467.928V467.859C304.114 467.593 304.812 466.786 304.798 465.658C304.812 464.195 303.588 462.965 301.64 462.965C299.794 462.965 298.304 464.059 298.263 465.672H299.712C299.746 464.776 300.635 464.223 301.626 464.223C302.672 464.223 303.349 464.838 303.349 465.74C303.349 466.69 302.562 467.319 301.435 467.312H300.587V468.543H301.435C302.85 468.55 303.663 469.247 303.663 470.225C303.663 471.188 302.795 471.838 301.599 471.838C300.491 471.838 299.63 471.284 299.575 470.416H298.044C298.105 472.036 299.562 473.137 301.612 473.137ZM306.835 473H313.493V471.715H308.927V471.633L310.937 469.596C312.796 467.771 313.315 466.889 313.329 465.781C313.315 464.175 311.996 462.965 310.089 462.965C308.202 462.965 306.821 464.161 306.835 465.973H308.257C308.264 464.92 308.961 464.223 310.062 464.223C311.101 464.223 311.894 464.845 311.894 465.822C311.894 466.69 311.354 467.319 310.267 468.447L306.835 471.906V473ZM318.524 473.137C320.589 473.137 322.052 471.735 322.052 469.787C322.052 467.88 320.678 466.499 318.812 466.492C318.06 466.499 317.362 466.766 316.952 467.162H316.856L317.185 464.387H321.546V463.102H315.94L315.298 468.611H316.72C317.055 468.003 317.663 467.736 318.456 467.736C319.7 467.75 320.589 468.625 320.589 469.828C320.589 471.004 319.728 471.872 318.524 471.879C317.526 471.872 316.72 471.257 316.638 470.416H315.175C315.243 471.995 316.651 473.137 318.524 473.137Z" fill="#2D2926"/>
<path d="M253.496 473.137C255.547 473.137 257.071 471.927 257.064 470.279C257.071 469.028 256.285 468.119 254.932 467.928V467.859C255.998 467.593 256.695 466.786 256.682 465.658C256.695 464.195 255.472 462.965 253.523 462.965C251.678 462.965 250.188 464.059 250.146 465.672H251.596C251.63 464.776 252.519 464.223 253.51 464.223C254.556 464.223 255.232 464.838 255.232 465.74C255.232 466.69 254.446 467.319 253.318 467.312H252.471V468.543H253.318C254.733 468.55 255.547 469.247 255.547 470.225C255.547 471.188 254.679 471.838 253.482 471.838C252.375 471.838 251.514 471.284 251.459 470.416H249.928C249.989 472.036 251.445 473.137 253.496 473.137ZM258.719 473H265.377V471.715H260.811V471.633L262.82 469.596C264.68 467.771 265.199 466.889 265.213 465.781C265.199 464.175 263.88 462.965 261.973 462.965C260.086 462.965 258.705 464.161 258.719 465.973H260.141C260.147 464.92 260.845 464.223 261.945 464.223C262.984 464.223 263.777 464.845 263.777 465.822C263.777 466.69 263.237 467.319 262.15 468.447L258.719 471.906V473ZM270.627 473.137C272.753 473.15 274.168 471.681 274.168 469.76C274.168 467.866 272.746 466.513 270.982 466.506C269.909 466.513 268.979 467.005 268.439 467.846H268.33C268.33 465.61 269.219 464.284 270.75 464.277C271.748 464.284 272.384 464.865 272.582 465.672H274.072C273.84 464.1 272.575 462.965 270.75 462.965C268.378 462.965 266.888 464.934 266.881 468.379C266.881 472.036 268.795 473.123 270.627 473.137ZM268.508 469.801C268.521 468.7 269.444 467.729 270.654 467.736C271.844 467.729 272.705 468.652 272.705 469.787C272.705 470.942 271.81 471.872 270.613 471.879C269.396 471.872 268.515 470.901 268.508 469.801Z" fill="#2D2926"/>
<path d="M214.44 473.137C216.491 473.137 218.016 471.927 218.009 470.279C218.016 469.028 217.229 468.119 215.876 467.928V467.859C216.942 467.593 217.64 466.786 217.626 465.658C217.64 464.195 216.416 462.965 214.468 462.965C212.622 462.965 211.132 464.059 211.091 465.672H212.54C212.574 464.776 213.463 464.223 214.454 464.223C215.5 464.223 216.177 464.838 216.177 465.74C216.177 466.69 215.391 467.319 214.263 467.312H213.415V468.543H214.263C215.678 468.55 216.491 469.247 216.491 470.225C216.491 471.188 215.623 471.838 214.427 471.838C213.319 471.838 212.458 471.284 212.403 470.416H210.872C210.934 472.036 212.39 473.137 214.44 473.137ZM219.663 473H226.321V471.715H221.755V471.633L223.765 469.596C225.624 467.771 226.144 466.889 226.157 465.781C226.144 464.175 224.824 462.965 222.917 462.965C221.03 462.965 219.649 464.161 219.663 465.973H221.085C221.092 464.92 221.789 464.223 222.89 464.223C223.929 464.223 224.722 464.845 224.722 465.822C224.722 466.69 224.182 467.319 223.095 468.447L219.663 471.906V473ZM228.331 473H229.903L234.306 464.441V463.102H227.647V464.387H232.747V464.469L228.331 473Z" fill="#2D2926"/>
<path d="M183.03 473.137C185.081 473.137 186.605 471.927 186.599 470.279C186.605 469.028 185.819 468.119 184.466 467.928V467.859C185.532 467.593 186.229 466.786 186.216 465.658C186.229 464.195 185.006 462.965 183.058 462.965C181.212 462.965 179.722 464.059 179.681 465.672H181.13C181.164 464.776 182.053 464.223 183.044 464.223C184.09 464.223 184.767 464.838 184.767 465.74C184.767 466.69 183.98 467.319 182.853 467.312H182.005V468.543H182.853C184.268 468.55 185.081 469.247 185.081 470.225C185.081 471.188 184.213 471.838 183.017 471.838C181.909 471.838 181.048 471.284 180.993 470.416H179.462C179.523 472.036 180.979 473.137 183.03 473.137ZM188.253 473H194.911V471.715H190.345V471.633L192.354 469.596C194.214 467.771 194.733 466.889 194.747 465.781C194.733 464.175 193.414 462.965 191.507 462.965C189.62 462.965 188.239 464.161 188.253 465.973H189.675C189.682 464.92 190.379 464.223 191.479 464.223C192.519 464.223 193.312 464.845 193.312 465.822C193.312 466.69 192.771 467.319 191.685 468.447L188.253 471.906V473ZM200.038 473.137C202.157 473.137 203.668 471.975 203.675 470.361C203.668 469.09 202.752 468.051 201.597 467.873V467.818C202.595 467.586 203.285 466.684 203.292 465.604C203.285 464.079 201.904 462.965 200.038 462.965C198.145 462.965 196.771 464.079 196.771 465.604C196.771 466.684 197.447 467.586 198.466 467.818V467.873C197.297 468.051 196.388 469.09 196.401 470.361C196.388 471.975 197.885 473.137 200.038 473.137ZM197.933 470.252C197.912 469.233 198.808 468.488 200.038 468.488C201.255 468.488 202.144 469.233 202.144 470.252C202.144 471.223 201.323 471.893 200.038 471.893C198.732 471.893 197.912 471.223 197.933 470.252ZM198.233 465.74C198.24 464.817 198.951 464.188 200.038 464.195C201.098 464.188 201.822 464.817 201.815 465.74C201.822 466.67 201.07 467.306 200.038 467.299C198.979 467.306 198.24 466.663 198.233 465.74Z" fill="#2D2926"/>
<g clip-path="url(#clip0_12_5)">
<path d="M119.14 44.5501H128.74V46.5501C125.39 46.9901 122.51 49.0901 122.51 51.6301C122.51 54.4701 126.13 56.7701 129.98 56.7701H130.89C134.74 56.7701 138.36 54.4701 138.36 51.6301C138.36 49.1401 135.6 47.0601 132.36 46.5801V44.5501H142V42.1001H119.14V44.5501ZM134.87 51.6701C134.87 53.2401 132.56 54.3201 130.44 54.3201C128.32 54.3201 126 53.2401 126 51.6701C126 50.1001 128.31 49.0001 130.44 49.0001C132.57 49.0001 134.87 50.0801 134.87 51.6701Z" fill="#5A5B5D"/>
<path d="M162.06 43.5901L165.23 43.5501V34.5901H162.06V43.5901Z" fill="#5A5B5D"/>
<path d="M147.24 47.0001H162.06V48.4501H147.24V53.0001C147.218 53.2532 147.248 53.5082 147.329 53.749C147.41 53.9899 147.54 54.2115 147.71 54.4001C148.122 54.6952 148.624 54.8367 149.13 54.8001H165.23V52.3301H150.55V50.8201H165.23V44.5901H147.23L147.24 47.0001Z" fill="#5A5B5D"/>
<path d="M213.62 34.5901H210.44V45.5301H213.6L213.62 40.3701H216.81V37.8701H213.62V34.5901Z" fill="#5A5B5D"/>
<path d="M194.99 49H210.44V54.86L213.62 54.87V46.51H194.99V49Z" fill="#5A5B5D"/>
<path d="M194.09 40.1899C194.087 40.9037 194.26 41.6073 194.593 42.2386C194.926 42.8699 195.409 43.4096 196 43.8099C197.254 44.728 198.777 45.203 200.33 45.1599C201.857 45.211 203.354 44.7342 204.57 43.8099C205.154 43.4051 205.629 42.8634 205.955 42.2324C206.281 41.6014 206.448 40.9001 206.44 40.1899C206.432 39.7425 206.337 39.301 206.16 38.8899C205.962 38.4802 205.698 38.1053 205.38 37.7799H207.89V35.3799H201.89V33.4399H198.47V35.3799H192.4V37.7799H195.13C194.79 38.0938 194.515 38.4708 194.32 38.8899C194.155 39.3031 194.077 39.7455 194.09 40.1899V40.1899ZM198.09 38.4899C198.703 38.0196 199.457 37.7695 200.23 37.7799C200.99 37.7714 201.731 38.0218 202.33 38.4899C202.618 38.6953 202.853 38.965 203.018 39.2775C203.183 39.59 203.273 39.9367 203.28 40.2899C203.269 40.6313 203.177 40.9652 203.012 41.2642C202.847 41.5632 202.613 41.8188 202.33 42.0099C201.744 42.506 200.998 42.7725 200.23 42.7599C199.45 42.775 198.69 42.5088 198.09 42.0099C197.816 41.8128 197.591 41.5549 197.433 41.2566C197.276 40.9582 197.189 40.6274 197.18 40.2899C197.19 39.9373 197.281 39.5917 197.446 39.2797C197.611 38.9677 197.845 38.6975 198.13 38.4899H198.09Z" fill="#5A5B5D"/>
<path d="M187.07 41.0601H184.38V34.5901H181.45V54.9101L184.38 54.8801V43.5601H187.07V54.9101L190.09 54.8801V34.5901H187.07V41.0601Z" fill="#5A5B5D"/>
<path d="M172.49 37.0801H179V34.5901H169.3V48.0001C169.279 48.2431 169.323 48.4874 169.429 48.7073C169.534 48.9272 169.697 49.1147 169.9 49.2501C170.336 49.4794 170.829 49.58 171.32 49.5401H179.45V47.0401H172.45L172.49 37.0801Z" fill="#5A5B5D"/>
<path d="M233.28 49.1801L236.46 49.1601L236.47 34.5901H218.8V37.0801H233.28V49.1801Z" fill="#5A5B5D"/>
<path d="M230.16 51.2899V42.9399H227.02V51.2899H224.3V42.9399H221.18V51.2899H217.34V53.7799H238.29V51.2899H230.16Z" fill="#5A5B5D"/>
<path d="M125.79 39.9301C127.576 39.5947 129.227 38.7469 130.54 37.4901C131.832 38.7508 133.473 39.594 135.25 39.9101C137.001 40.3626 138.794 40.6307 140.6 40.7101L141.16 38.1701C139.112 38.1223 137.085 37.7407 135.16 37.0401C133.4 36.3901 132.16 35.3001 132.16 34.3501H128.86C128.86 35.2001 127.63 36.3501 125.86 37.0401C123.941 37.7656 121.911 38.1546 119.86 38.1901V38.1901L120.42 40.6801C122.232 40.6282 124.033 40.3766 125.79 39.9301V39.9301Z" fill="#5A5B5D"/>
<path d="M152.15 39.4301C152.975 40.5426 154.047 41.4494 155.28 42.0801C156.64 42.679 158.077 43.083 159.55 43.2801L160.17 40.7501C158.145 40.5339 156.258 39.6221 154.83 38.1701C154.105 37.134 153.752 35.8825 153.83 34.6201H150.42C150.488 35.8982 150.11 37.1601 149.35 38.1901C147.92 39.6458 146.029 40.561 144 40.7801V40.7801L144.6 43.2501C146.025 43.0375 147.417 42.6408 148.74 42.0701C150.077 41.4851 151.249 40.5781 152.15 39.4301V39.4301Z" fill="#5A5B5D"/>
<path d="M58.9 63.55H49.78C49.88 63.55 50.22 63.1101 50.3 63.0201C50.4799 62.8244 50.6469 62.6173 50.8 62.4001C51.1933 61.865 51.5066 61.2754 51.73 60.65C52.5191 58.5312 52.4655 56.1904 51.58 54.1101C50.5596 52.2489 49.431 50.4491 48.2 48.72C46.4349 46.0993 45.5424 42.988 45.65 39.83C45.8475 37.6941 46.7076 35.6732 48.11 34.05H56.89C55.7014 35.2032 54.854 36.662 54.4411 38.2658C54.0283 39.8696 54.0659 41.5563 54.55 43.14C55.1591 44.9641 56.0498 46.6815 57.19 48.23C58.2472 49.7249 59.1867 51.2996 60 52.94C60.9001 54.9815 61.1582 57.2485 60.74 59.44C60.5386 60.4888 60.1777 61.5005 59.67 62.44C59.54 62.61 59.1 63.55 58.9 63.55Z" fill="#00A3C9"/>
<path d="M64 54.94H79.09V30H59.18C58.3237 30.8616 57.7094 31.9335 57.3987 33.1079C57.088 34.2822 57.0919 35.5176 57.41 36.69C57.93 38.82 59.47 40.69 60.84 42.55C63.02 45.44 65.4 48.7 64.73 52.55C64.617 53.3808 64.3705 54.1879 64 54.94V54.94Z" fill="#5AC5C4"/>
<path d="M30 30V54.94H44.89C45.4936 53.4591 45.4936 51.8009 44.89 50.32C43.45 46.8 41.11 44.9 39.81 41.84C38.56 38.93 38.42 36.28 39.48 32.46C39.7619 31.62 40.0959 30.7984 40.48 30L30 30Z" fill="#00678F"/>
<path d="M109.66 30H97.3V49.78C97.3 49.88 97.3 50.36 97.3 50.85C97.17 53.95 96.44 54.57 95.67 54.94H109.67L109.66 30Z" fill="#00A3C9"/>
<path d="M82.46 34.0801V59.2001C82.5006 60.2497 82.9435 61.2435 83.6969 61.9754C84.4504 62.7074 85.4565 63.1214 86.5069 63.1317C87.5573 63.142 88.5713 62.7478 89.3389 62.0307C90.1065 61.3136 90.5688 60.3287 90.63 59.2801V34.0801H82.46Z" fill="#00678F"/>
</g>
<path d="M71.25 189.8C93.1875 189.8 108.688 178.55 108.625 162.675C108.688 151.55 101.25 143.675 86.875 142.05V141.3C97.5625 140.113 105.312 133.175 105.25 123.05C105.312 107.925 91.375 96.8 71.5 96.8C51.1875 96.8 36.6875 108.363 36.625 124.8H59.375C59.5 119.175 64.5625 115.175 71.5 115.175C77.875 115.175 82.3125 119.05 82.25 124.55C82.3125 130.238 77.0625 134.3 69.5 134.3H60.375V150.8H69.5C77.8125 150.863 83.5 154.925 83.5 160.675C83.5 166.488 78.5625 170.55 71.375 170.55C64.125 170.55 58.9375 166.675 58.75 161.3H34.75C34.9375 177.988 50.0625 189.8 71.25 189.8ZM119.875 188.55H143.625V152.925H179V133.675H143.625V117.3H183V98.05H119.875V188.55Z" fill="#2D2926"/>
<path d="M57.9141 202.792H53.4492V210.597H48.457V214.218H53.4492V221.777H57.9141V202.792ZM30.7383 218.261L33.0586 221.812C36.8555 220.511 39.4219 217.892 40.8281 214.64C42.2168 217.505 44.6602 219.825 48.1758 220.968L50.3906 217.452C45.416 215.8 43.1309 212.038 43.043 208.312H49.4062V204.726H32.0391V208.312H38.4727C38.3672 212.32 35.9766 216.503 30.7383 218.261ZM35.9766 228.667C35.9766 232.552 40.1602 234.82 46.9805 234.82C53.8184 234.82 58.002 232.552 58.0195 228.667C58.002 224.782 53.8184 222.497 46.9805 222.48C40.1602 222.497 35.9766 224.782 35.9766 228.667ZM40.4414 228.667C40.4414 226.822 42.7441 225.907 46.9805 225.925C51.2344 225.907 53.5371 226.822 53.5547 228.667C53.5371 230.495 51.2344 231.409 46.9805 231.409C42.7441 231.409 40.4414 230.495 40.4414 228.667ZM91.3477 227.402H78.8672V221.495H88.0781V204.831H83.6133V209.788H69.6562V204.831H65.1562V221.495H74.4023V227.402H62.0625V231.058H91.3477V227.402ZM69.6562 217.909V213.374H83.6133V217.909H69.6562ZM111.176 205.991H94.582V209.577H106.711C106.676 212.407 106.605 215.835 105.867 220.476L110.297 220.827C111.141 215.501 111.141 211.564 111.176 208.558V205.991ZM92.8945 224.659L93.3164 228.245C98.9238 228.281 106.166 228.157 112.758 227.05L112.477 223.71C109.523 224.097 106.342 224.325 103.195 224.448V215.167H98.7656V224.589C96.6914 224.642 94.6875 224.659 92.8945 224.659ZM113.988 234.784H118.523V219.386H122.883V215.659H118.523V202.792H113.988V234.784ZM143.273 205.64H136.031V202.616H131.566V205.64H124.289V209.191H143.273V205.64ZM125.836 216.116C125.836 219.632 129.141 222.005 133.781 222.023C138.439 222.005 141.656 219.632 141.656 216.116C141.656 212.601 138.439 210.228 133.781 210.21C129.141 210.228 125.836 212.601 125.836 216.116ZM128.121 227.788H145.172V234.784H149.672V224.202H128.121V227.788ZM130.23 216.116C130.213 214.464 131.637 213.585 133.781 213.585C135.943 213.585 137.402 214.464 137.402 216.116C137.402 217.751 135.943 218.595 133.781 218.577C131.637 218.595 130.213 217.751 130.23 216.116ZM145.172 222.866H149.672V214.745H153.996V211.089H149.672V202.792H145.172V222.866ZM173.332 205.113H156.879V208.769H168.955C168.92 210.685 168.779 213.023 168.199 216.081L172.594 216.503C173.332 212.531 173.332 209.331 173.332 207.116V205.113ZM154.98 218.823L155.367 222.409C160.939 222.392 168.428 222.269 175.09 221.038L174.844 217.804C171.838 218.243 168.586 218.49 165.387 218.63V212.495H160.922V218.771C158.795 218.823 156.773 218.823 154.98 218.823ZM159.691 234.222H182.156V230.636H164.191V224.589H159.691V234.222ZM176.566 226.734H181.172V216.292H185.039V212.531H181.172V202.792H176.566V226.734Z" fill="#2D2926"/>
<path d="M32.5156 244.652H31.0117V254.55H32.5156V244.652ZM35.8652 250.148C35.8652 248.965 36.583 248.288 37.5879 248.288C38.5723 248.288 39.1533 248.931 39.1602 250.011V254.55H40.6094V249.833C40.6162 247.994 39.6045 247.031 38.0801 247.031C36.9727 247.031 36.2412 247.543 35.8926 248.343H35.8105V247.126H34.4023V254.55H35.8652V250.148ZM45.9277 247.126H44.3281V246.484C44.3281 245.759 44.6904 245.445 45.4629 245.445C45.5928 245.445 45.8047 245.458 46.0781 245.499V244.282C45.791 244.228 45.4287 244.187 45.0801 244.187C43.7197 244.187 42.8721 244.939 42.8652 246.265V247.126H41.7168V248.288H42.8652V254.55H44.3281V248.288H45.9277V247.126ZM50.0977 254.7C52.1895 254.7 53.5566 253.169 53.5566 250.872C53.5566 248.562 52.1895 247.031 50.0977 247.031C47.9922 247.031 46.6182 248.562 46.625 250.872C46.6182 253.169 47.9922 254.7 50.0977 254.7ZM48.0879 250.872C48.0879 249.45 48.7373 248.24 50.0977 248.234C51.4375 248.24 52.0801 249.45 52.0801 250.872C52.0801 252.287 51.4375 253.484 50.0977 253.484C48.7373 253.484 48.0879 252.287 48.0879 250.872ZM54.9922 254.55H56.4551V250.025C56.4551 249.054 57.207 248.35 58.2188 248.357C58.5195 248.35 58.8613 248.411 58.9844 248.439V247.044C58.834 247.031 58.5469 247.01 58.3691 247.017C57.501 247.01 56.7559 247.509 56.4824 248.302H56.4004V247.126H54.9922V254.55ZM60.0781 254.55H61.541V249.97C61.541 248.972 62.2383 248.288 63.0586 248.288C63.8584 248.288 64.4121 248.815 64.4121 249.628V254.55H65.8613V249.82C65.8613 248.931 66.4014 248.288 67.3379 248.288C68.1035 248.288 68.7324 248.705 68.7324 249.71V254.55H70.1953V249.573C70.1885 247.871 69.2383 247.031 67.8984 247.031C66.8252 247.031 66.0186 247.543 65.6699 248.343H65.5879C65.2734 247.516 64.583 247.031 63.5918 247.031C62.6143 247.031 61.8828 247.516 61.5684 248.343H61.4863V247.126H60.0781V254.55ZM71.6172 252.458C71.6104 253.907 72.7109 254.714 74.1191 254.714C75.3496 254.714 76.0332 254.092 76.3203 253.538H76.375V254.55H77.7969V249.615C77.79 247.461 76.0674 247.031 74.8848 247.031C73.1279 247.031 71.9795 247.919 71.8496 249.15H73.2988C73.4492 248.603 73.9688 248.206 74.8301 248.206C75.8213 248.206 76.3408 248.692 76.334 249.532L76.3408 250.127C75.999 250.141 74.8848 250.202 74.3926 250.23C73.0527 250.325 71.6104 250.763 71.6172 252.458ZM73.0391 252.472C73.0391 251.74 73.6406 251.378 74.5977 251.31C74.9463 251.289 76.0059 251.214 76.3408 251.194L76.3477 251.87C76.3477 252.752 75.6367 253.545 74.4473 253.552C73.627 253.545 73.0391 253.183 73.0391 252.472ZM83.0332 247.126H81.5156V245.349H80.0664V247.126H78.9727V248.288H80.0664V252.663C80.0527 254.017 81.085 254.646 82.2266 254.646C82.6299 254.646 82.9443 254.618 83.1426 254.591V253.32C82.9375 253.34 82.6162 253.361 82.4043 253.361C81.9326 253.354 81.5225 253.203 81.5156 252.363V248.288H83.0332V247.126ZM84.4551 254.55H85.918V247.126H84.4551V254.55ZM84.2637 245.116C84.2705 245.595 84.6875 245.985 85.1934 245.978C85.6924 245.985 86.1094 245.595 86.1094 245.116C86.1094 244.638 85.6924 244.255 85.1934 244.255C84.6875 244.255 84.2705 244.638 84.2637 245.116ZM90.8398 254.7C92.9316 254.7 94.2988 253.169 94.2988 250.872C94.2988 248.562 92.9316 247.031 90.8398 247.031C88.7344 247.031 87.3604 248.562 87.3672 250.872C87.3604 253.169 88.7344 254.7 90.8398 254.7ZM88.8301 250.872C88.8301 249.45 89.4795 248.24 90.8398 248.234C92.1797 248.24 92.8223 249.45 92.8223 250.872C92.8223 252.287 92.1797 253.484 90.8398 253.484C89.4795 253.484 88.8301 252.287 88.8301 250.872ZM97.1973 250.148C97.1973 248.965 97.915 248.288 98.9199 248.288C99.9043 248.288 100.485 248.931 100.492 250.011V254.55H101.941V249.833C101.948 247.994 100.937 247.031 99.4121 247.031C98.3047 247.031 97.5732 247.543 97.2246 248.343H97.1426V247.126H95.7344V254.55H97.1973V250.148ZM112.646 247.263H114.109C114.062 245.663 112.66 244.515 110.65 244.515C108.647 244.515 107.13 245.65 107.123 247.359C107.13 248.74 108.114 249.546 109.707 249.984L110.883 250.298C111.929 250.578 112.749 250.927 112.756 251.788C112.749 252.759 111.833 253.395 110.568 253.402C109.413 253.395 108.456 252.882 108.367 251.802H106.863C106.959 253.607 108.354 254.714 110.568 254.714C112.906 254.714 114.239 253.49 114.246 251.816C114.239 250.025 112.653 249.334 111.389 249.027L110.432 248.767C109.646 248.582 108.627 248.213 108.627 247.277C108.634 246.436 109.399 245.814 110.609 245.814C111.744 245.814 112.551 246.34 112.646 247.263ZM118.881 254.7C120.631 254.7 121.772 253.641 121.93 252.198H120.508C120.323 252.998 119.708 253.463 118.881 253.456C117.657 253.463 116.871 252.458 116.871 250.831C116.871 249.252 117.678 248.254 118.881 248.247C119.804 248.254 120.357 248.835 120.508 249.532H121.93C121.772 248.029 120.549 247.031 118.854 247.031C116.762 247.031 115.401 248.61 115.408 250.872C115.401 253.108 116.714 254.7 118.881 254.7ZM123.311 254.55H124.773V247.126H123.311V254.55ZM123.119 245.116C123.126 245.595 123.543 245.985 124.049 245.978C124.548 245.985 124.965 245.595 124.965 245.116C124.965 244.638 124.548 244.255 124.049 244.255C123.543 244.255 123.126 244.638 123.119 245.116ZM129.75 254.7C131.384 254.7 132.525 253.894 132.854 252.691H131.377C131.131 253.142 130.591 253.497 129.764 253.497C128.547 253.497 127.713 252.698 127.672 251.282H132.949V250.763C132.949 248.076 131.343 247.031 129.654 247.031C127.583 247.031 126.216 248.603 126.223 250.886C126.216 253.19 127.562 254.7 129.75 254.7ZM127.679 250.189C127.74 249.143 128.499 248.227 129.668 248.234C130.782 248.227 131.514 249.061 131.514 250.189H127.679ZM135.861 250.148C135.861 248.965 136.579 248.288 137.584 248.288C138.568 248.288 139.149 248.931 139.156 250.011V254.55H140.605V249.833C140.612 247.994 139.601 247.031 138.076 247.031C136.969 247.031 136.237 247.543 135.889 248.343H135.807V247.126H134.398V254.55H135.861V250.148ZM145.527 254.7C147.277 254.7 148.419 253.641 148.576 252.198H147.154C146.97 252.998 146.354 253.463 145.527 253.456C144.304 253.463 143.518 252.458 143.518 250.831C143.518 249.252 144.324 248.254 145.527 248.247C146.45 248.254 147.004 248.835 147.154 249.532H148.576C148.419 248.029 147.195 247.031 145.5 247.031C143.408 247.031 142.048 248.61 142.055 250.872C142.048 253.108 143.36 254.7 145.527 254.7ZM153.156 254.7C154.79 254.7 155.932 253.894 156.26 252.691H154.783C154.537 253.142 153.997 253.497 153.17 253.497C151.953 253.497 151.119 252.698 151.078 251.282H156.355V250.763C156.355 248.076 154.749 247.031 153.061 247.031C150.989 247.031 149.622 248.603 149.629 250.886C149.622 253.19 150.969 254.7 153.156 254.7ZM151.085 250.189C151.146 249.143 151.905 248.227 153.074 248.234C154.188 248.227 154.92 249.061 154.92 250.189H151.085ZM161.346 254.55H165.133C167.443 254.55 168.482 253.402 168.482 251.884C168.482 250.353 167.416 249.491 166.432 249.437V249.341C167.341 249.109 168.1 248.487 168.1 247.249C168.1 245.78 167.081 244.652 164.969 244.652H161.346V254.55ZM162.85 253.265V250.107H165.051C166.24 250.107 166.992 250.865 166.992 251.816C166.992 252.636 166.418 253.258 164.996 253.265H162.85ZM162.85 248.931V245.937H164.873C166.056 245.937 166.623 246.552 166.623 247.372C166.623 248.323 165.844 248.924 164.846 248.931H162.85ZM174.689 251.46C174.689 252.725 173.753 253.32 172.939 253.32C172.051 253.32 171.436 252.677 171.436 251.665V247.126H169.973V251.843C169.973 253.682 170.984 254.646 172.42 254.646C173.534 254.646 174.293 254.058 174.635 253.265H174.717V254.55H176.139V247.126H174.689V251.46ZM177.916 254.55H179.379V247.126H177.916V254.55ZM177.725 245.116C177.731 245.595 178.148 245.985 178.654 245.978C179.153 245.985 179.57 245.595 179.57 245.116C179.57 244.638 179.153 244.255 178.654 244.255C178.148 244.255 177.731 244.638 177.725 245.116ZM182.619 244.652H181.156V254.55H182.619V244.652ZM187.172 254.7C188.525 254.694 189.059 253.873 189.332 253.388H189.441V254.55H190.863V244.652H189.4V248.329H189.332C189.065 247.865 188.566 247.031 187.186 247.031C185.401 247.031 184.068 248.439 184.068 250.859C184.068 253.251 185.381 254.694 187.172 254.7ZM185.559 250.831C185.552 249.368 186.208 248.268 187.5 248.275C188.758 248.268 189.441 249.286 189.441 250.831C189.441 252.39 188.744 253.449 187.5 253.456C186.222 253.449 185.552 252.322 185.559 250.831ZM192.764 254.55H194.227V247.126H192.764V254.55ZM192.572 245.116C192.579 245.595 192.996 245.985 193.502 245.978C194.001 245.985 194.418 245.595 194.418 245.116C194.418 244.638 194.001 244.255 193.502 244.255C192.996 244.255 192.579 244.638 192.572 245.116ZM197.467 250.148C197.467 248.965 198.185 248.288 199.189 248.288C200.174 248.288 200.755 248.931 200.762 250.011V254.55H202.211V249.833C202.218 247.994 201.206 247.031 199.682 247.031C198.574 247.031 197.843 247.543 197.494 248.343H197.412V247.126H196.004V254.55H197.467V250.148ZM207.105 257.49C209.02 257.49 210.462 256.621 210.455 254.714V247.126H209.033V248.329H208.938C208.664 247.865 208.158 247.031 206.777 247.031C204.993 247.031 203.66 248.391 203.66 250.763C203.66 253.135 205.014 254.441 206.764 254.441C208.131 254.441 208.664 253.675 208.924 253.197H209.02V254.659C209.013 255.815 208.281 256.321 207.119 256.314C206.155 256.321 205.499 255.979 205.355 255.275H203.865C203.995 256.662 205.232 257.49 207.105 257.49ZM205.15 250.79C205.144 249.368 205.8 248.268 207.092 248.275C208.35 248.268 209.033 249.286 209.033 250.79C209.033 252.322 208.336 253.231 207.092 253.238C205.813 253.231 205.144 252.246 205.15 250.79Z" fill="#2D2926"/>
<defs>
<clipPath id="clip0_12_5">
<rect width="208.29" height="33.55" fill="white" transform="translate(30 30)"/>
</clipPath>
</defs>
</svg>
