<svg width="800" height="600" viewBox="0 0 800 600" fill="none" xmlns="http://www.w3.org/2000/svg">
<path d="M394.56 94.4199H302.89V187.61H464.7V251.72H490.46V285.79L490.75 410.75V442.38H148.75V512.52H713.18V443.9H685.13V186.72H720.91V163.42H756.7V69.3199H394.56V94.4199Z" stroke="#2D2926" stroke-width="5" stroke-miterlimit="10" stroke-linecap="square"/>
<path d="M394.56 94.4199V187.61M394.56 163H687.87V69.3199M685.13 186.72H558.42M685.13 443.9H558.19V186.72M685.13 443.9H596.01M685.13 443.9V489.57H596.01M685.13 443.9H713.19V512.51H685.13V443.9ZM490.46 251.72H529.35V490.84L177.77 490.84M596.01 443.9H569.36V489.57H596.01M596.01 443.9V489.57M177.77 442.38V512.52M493.87 69.3199V163M590.37 69.3199V163.01M558.19 315.31H685.13M558.19 378.77H685.13M647.66 443.9V489.58M665.73 443.9V489.57M490.75 442.38H529.35M474.78 442.38V490.84M430.79 442.38L431.13 490.84M389.87 442.38V490.84M335.99 442.38V490.84M283.82 440.67V489.12M239.57 442.38V490.84M205.85 490.84V442.38M558.42 69.3199V163M621.66 163V69.3199M558.19 251.72H685.13" stroke="#2D2926" stroke-width="2" stroke-miterlimit="10" stroke-linecap="square"/>
<path d="M466.5 187H495.5M524.5 187H521.75M495.5 187V207M495.5 187H498.5M495.5 207V213.5L486 211.862M495.5 207C495.681 207 496.788 207 498.5 207M486 211.862L466.5 208.5V221.5H486M486 211.862H466.5M486 211.862V215.5M498.5 187V207M498.5 187H501.5M498.5 207C499.361 207 500.374 207 501.5 207M501.5 187V207M501.5 187H504.5M501.5 207C502.431 207 503.439 207 504.5 207M504.5 187V207M504.5 187H507.5M504.5 207C505.462 207 506.467 207 507.5 207M507.5 187V207M507.5 187H510M507.5 207C508.319 207 509.155 207 510 207M510 187V207M510 187H513M510 207C510.993 207 511.997 207 513 207M513 187V207M513 187H516M513 207C514.007 207 515.011 207 516 207M516 187V207M516 187H519M516 207C517.022 207 518.028 207 519 207M519 187V207M519 187H521.75M519 207C519.953 207 520.874 207 521.75 207M521.75 187V207M521.75 207C522.731 207 523.655 207 524.5 207V232H524M466.5 215.5H486M486 215.5V218.5M466.5 218.5H486M486 218.5V221.5M486 221.5V224.5M486 224.5H466.5M486 224.5V227.5M486 227.5H466.5M486 227.5V230.5M486 230.5V232H489M486 230.5H466.5M489 232V250.5M489 232H492M492 232H495M492 232V249M492 250.5V249M495 232V249M495 232H498M492 249H498M498 249V252M498 249V232M498 232H501M501 232V252M501 232H503.5M503.5 232V252M503.5 232H506.5M506.5 232V252M506.5 232H509.5M509.5 232V252M509.5 232H512M512 232V252M512 232H515M515 232V252M515 232H518M518 232V252M518 232H521M521 232V252M521 232H524M524 232V252" stroke="#2D2926"/>
<path d="M338.255 144.072H343.067V146H344.489V144.072H345.843V142.801H344.489V136.102H342.63L338.255 142.855V144.072ZM339.841 142.801V142.719L342.958 137.893H343.067V142.801H339.841ZM350.806 146.137C353.096 146.137 354.436 144.291 354.442 141.051C354.436 137.831 353.075 135.965 350.806 135.965C348.529 135.965 347.169 137.831 347.169 141.051C347.169 144.291 348.516 146.137 350.806 146.137ZM348.673 141.051C348.673 138.59 349.473 137.243 350.806 137.236C352.132 137.243 352.938 138.59 352.938 141.051C352.938 143.519 352.139 144.838 350.806 144.838C349.466 144.838 348.666 143.519 348.673 141.051ZM359.761 136.102H358.284L355.823 137.715V139.15L358.188 137.605H358.243V146H359.761V136.102Z" fill="#2D2926"/>
<path d="M431.729 120.072H436.542V122H437.964V120.072H439.317V118.801H437.964V112.102H436.104L431.729 118.855V120.072ZM433.315 118.801V118.719L436.433 113.893H436.542V118.801H433.315ZM444.28 122.137C446.57 122.137 447.91 120.291 447.917 117.051C447.91 113.831 446.55 111.965 444.28 111.965C442.004 111.965 440.644 113.831 440.644 117.051C440.644 120.291 441.99 122.137 444.28 122.137ZM442.147 117.051C442.147 114.59 442.947 113.243 444.28 113.236C445.606 113.243 446.413 114.59 446.413 117.051C446.413 119.519 445.613 120.838 444.28 120.838C442.94 120.838 442.141 119.519 442.147 117.051ZM449.476 122H456.134V120.715H451.567V120.633L453.577 118.596C455.437 116.771 455.956 115.889 455.97 114.781C455.956 113.175 454.637 111.965 452.729 111.965C450.843 111.965 449.462 113.161 449.476 114.973H450.897C450.904 113.92 451.602 113.223 452.702 113.223C453.741 113.223 454.534 113.845 454.534 114.822C454.534 115.69 453.994 116.319 452.907 117.447L449.476 120.906V122Z" fill="#2D2926"/>
<path d="M514.024 120.072H518.837V122H520.259V120.072H521.612V118.801H520.259V112.102H518.399L514.024 118.855V120.072ZM515.61 118.801V118.719L518.728 113.893H518.837V118.801H515.61ZM526.575 122.137C528.865 122.137 530.205 120.291 530.212 117.051C530.205 113.831 528.845 111.965 526.575 111.965C524.299 111.965 522.938 113.831 522.938 117.051C522.938 120.291 524.285 122.137 526.575 122.137ZM524.442 117.051C524.442 114.59 525.242 113.243 526.575 113.236C527.901 113.243 528.708 114.59 528.708 117.051C528.708 119.519 527.908 120.838 526.575 120.838C525.235 120.838 524.436 119.519 524.442 117.051ZM535.284 122.137C537.335 122.137 538.859 120.927 538.853 119.279C538.859 118.028 538.073 117.119 536.72 116.928V116.859C537.786 116.593 538.483 115.786 538.47 114.658C538.483 113.195 537.26 111.965 535.312 111.965C533.466 111.965 531.976 113.059 531.935 114.672H533.384C533.418 113.776 534.307 113.223 535.298 113.223C536.344 113.223 537.021 113.838 537.021 114.74C537.021 115.69 536.234 116.319 535.106 116.312H534.259V117.543H535.106C536.521 117.55 537.335 118.247 537.335 119.225C537.335 120.188 536.467 120.838 535.271 120.838C534.163 120.838 533.302 120.284 533.247 119.416H531.716C531.777 121.036 533.233 122.137 535.284 122.137Z" fill="#2D2926"/>
<path d="M561.949 120.072H566.762V122H568.184V120.072H569.537V118.801H568.184V112.102H566.324L561.949 118.855V120.072ZM563.535 118.801V118.719L566.652 113.893H566.762V118.801H563.535ZM574.5 122.137C576.79 122.137 578.13 120.291 578.137 117.051C578.13 113.831 576.77 111.965 574.5 111.965C572.224 111.965 570.863 113.831 570.863 117.051C570.863 120.291 572.21 122.137 574.5 122.137ZM572.367 117.051C572.367 114.59 573.167 113.243 574.5 113.236C575.826 113.243 576.633 114.59 576.633 117.051C576.633 119.519 575.833 120.838 574.5 120.838C573.16 120.838 572.36 119.519 572.367 117.051ZM579.477 120.072H584.289V122H585.711V120.072H587.064V118.801H585.711V112.102H583.852L579.477 118.855V120.072ZM581.062 118.801V118.719L584.18 113.893H584.289V118.801H581.062Z" fill="#2D2926"/>
<path d="M593.647 120.072H598.46V122H599.882V120.072H601.235V118.801H599.882V112.102H598.022L593.647 118.855V120.072ZM595.233 118.801V118.719L598.351 113.893H598.46V118.801H595.233ZM606.198 122.137C608.488 122.137 609.828 120.291 609.835 117.051C609.828 113.831 608.468 111.965 606.198 111.965C603.922 111.965 602.562 113.831 602.562 117.051C602.562 120.291 603.908 122.137 606.198 122.137ZM604.065 117.051C604.065 114.59 604.865 113.243 606.198 113.236C607.524 113.243 608.331 114.59 608.331 117.051C608.331 119.519 607.531 120.838 606.198 120.838C604.858 120.838 604.059 119.519 604.065 117.051ZM614.757 122.137C616.821 122.137 618.284 120.735 618.284 118.787C618.284 116.88 616.91 115.499 615.044 115.492C614.292 115.499 613.595 115.766 613.185 116.162H613.089L613.417 113.387H617.778V112.102H612.173L611.53 117.611H612.952C613.287 117.003 613.896 116.736 614.688 116.736C615.933 116.75 616.821 117.625 616.821 118.828C616.821 120.004 615.96 120.872 614.757 120.879C613.759 120.872 612.952 120.257 612.87 119.416H611.407C611.476 120.995 612.884 122.137 614.757 122.137Z" fill="#2D2926"/>
<path d="M642.531 120.072H647.344V122H648.766V120.072H650.119V118.801H648.766V112.102H646.906L642.531 118.855V120.072ZM644.117 118.801V118.719L647.234 113.893H647.344V118.801H644.117ZM655.082 122.137C657.372 122.137 658.712 120.291 658.719 117.051C658.712 113.831 657.352 111.965 655.082 111.965C652.806 111.965 651.445 113.831 651.445 117.051C651.445 120.291 652.792 122.137 655.082 122.137ZM652.949 117.051C652.949 114.59 653.749 113.243 655.082 113.236C656.408 113.243 657.215 114.59 657.215 117.051C657.215 119.519 656.415 120.838 655.082 120.838C653.742 120.838 652.942 119.519 652.949 117.051ZM663.859 122.137C665.985 122.15 667.4 120.681 667.4 118.76C667.4 116.866 665.979 115.513 664.215 115.506C663.142 115.513 662.212 116.005 661.672 116.846H661.562C661.562 114.61 662.451 113.284 663.982 113.277C664.98 113.284 665.616 113.865 665.814 114.672H667.305C667.072 113.1 665.808 111.965 663.982 111.965C661.61 111.965 660.12 113.934 660.113 117.379C660.113 121.036 662.027 122.123 663.859 122.137ZM661.74 118.801C661.754 117.7 662.677 116.729 663.887 116.736C665.076 116.729 665.938 117.652 665.938 118.787C665.938 119.942 665.042 120.872 663.846 120.879C662.629 120.872 661.747 119.901 661.74 118.801Z" fill="#2D2926"/>
<path d="M608.612 222.072H613.425V224H614.847V222.072H616.2V220.801H614.847V214.102H612.987L608.612 220.855V222.072ZM610.198 220.801V220.719L613.315 215.893H613.425V220.801H610.198ZM621.163 224.137C623.453 224.137 624.793 222.291 624.8 219.051C624.793 215.831 623.433 213.965 621.163 213.965C618.887 213.965 617.526 215.831 617.526 219.051C617.526 222.291 618.873 224.137 621.163 224.137ZM619.03 219.051C619.03 216.59 619.83 215.243 621.163 215.236C622.489 215.243 623.296 216.59 623.296 219.051C623.296 221.519 622.496 222.838 621.163 222.838C619.823 222.838 619.023 221.519 619.03 219.051ZM626.427 224H627.999L632.401 215.441V214.102H625.743V215.387H630.843V215.469L626.427 224Z" fill="#2D2926"/>
<path d="M608.065 287.072H612.878V289H614.3V287.072H615.653V285.801H614.3V279.102H612.44L608.065 285.855V287.072ZM609.651 285.801V285.719L612.769 280.893H612.878V285.801H609.651ZM620.616 289.137C622.906 289.137 624.246 287.291 624.253 284.051C624.246 280.831 622.886 278.965 620.616 278.965C618.34 278.965 616.979 280.831 616.979 284.051C616.979 287.291 618.326 289.137 620.616 289.137ZM618.483 284.051C618.483 281.59 619.283 280.243 620.616 280.236C621.942 280.243 622.749 281.59 622.749 284.051C622.749 286.519 621.949 287.838 620.616 287.838C619.276 287.838 618.477 286.519 618.483 284.051ZM629.271 289.137C631.39 289.137 632.9 287.975 632.907 286.361C632.9 285.09 631.984 284.051 630.829 283.873V283.818C631.827 283.586 632.518 282.684 632.524 281.604C632.518 280.079 631.137 278.965 629.271 278.965C627.377 278.965 626.003 280.079 626.003 281.604C626.003 282.684 626.68 283.586 627.698 283.818V283.873C626.529 284.051 625.62 285.09 625.634 286.361C625.62 287.975 627.117 289.137 629.271 289.137ZM627.165 286.252C627.145 285.233 628.04 284.488 629.271 284.488C630.487 284.488 631.376 285.233 631.376 286.252C631.376 287.223 630.556 287.893 629.271 287.893C627.965 287.893 627.145 287.223 627.165 286.252ZM627.466 281.74C627.473 280.817 628.184 280.188 629.271 280.195C630.33 280.188 631.055 280.817 631.048 281.74C631.055 282.67 630.303 283.306 629.271 283.299C628.211 283.306 627.473 282.663 627.466 281.74Z" fill="#2D2926"/>
<path d="M608.031 350.072H612.844V352H614.266V350.072H615.619V348.801H614.266V342.102H612.406L608.031 348.855V350.072ZM609.617 348.801V348.719L612.734 343.893H612.844V348.801H609.617ZM620.582 352.137C622.872 352.137 624.212 350.291 624.219 347.051C624.212 343.831 622.852 341.965 620.582 341.965C618.306 341.965 616.945 343.831 616.945 347.051C616.945 350.291 618.292 352.137 620.582 352.137ZM618.449 347.051C618.449 344.59 619.249 343.243 620.582 343.236C621.908 343.243 622.715 344.59 622.715 347.051C622.715 349.519 621.915 350.838 620.582 350.838C619.242 350.838 618.442 349.519 618.449 347.051ZM629.182 341.965C627.028 341.951 625.627 343.428 625.627 345.314C625.627 347.208 627.049 348.568 628.826 348.568C629.893 348.568 630.822 348.062 631.355 347.229H631.479C631.465 349.491 630.569 350.817 629.045 350.824C628.047 350.817 627.404 350.236 627.199 349.402H625.709C625.948 351.009 627.22 352.137 629.045 352.137C631.417 352.137 632.914 350.168 632.914 346.695C632.907 343.072 631 341.979 629.182 341.965ZM627.09 345.287C627.083 344.152 627.985 343.223 629.182 343.223C630.392 343.223 631.273 344.2 631.273 345.273C631.273 346.367 630.351 347.345 629.154 347.338C627.951 347.345 627.097 346.436 627.09 345.287Z" fill="#2D2926"/>
<path d="M609.323 415.072H614.136V417H615.558V415.072H616.911V413.801H615.558V407.102H613.698L609.323 413.855V415.072ZM610.909 413.801V413.719L614.026 408.893H614.136V413.801H610.909ZM622.052 407.102H620.575L618.114 408.715V410.15L620.479 408.605H620.534V417H622.052V407.102ZM628.013 417.137C630.303 417.137 631.643 415.291 631.649 412.051C631.643 408.831 630.282 406.965 628.013 406.965C625.736 406.965 624.376 408.831 624.376 412.051C624.376 415.291 625.723 417.137 628.013 417.137ZM625.88 412.051C625.88 409.59 626.68 408.243 628.013 408.236C629.339 408.243 630.146 409.59 630.146 412.051C630.146 414.519 629.346 415.838 628.013 415.838C626.673 415.838 625.873 414.519 625.88 412.051Z" fill="#2D2926"/>
<path d="M499.282 350.072H504.095V352H505.517V350.072H506.87V348.801H505.517V342.102H503.657L499.282 348.855V350.072ZM500.868 348.801V348.719L503.985 343.893H504.095V348.801H500.868ZM512.011 342.102H510.534L508.073 343.715V345.15L510.438 343.605H510.493V352H512.011V342.102ZM518.108 352.137C520.234 352.15 521.649 350.681 521.649 348.76C521.649 346.866 520.228 345.513 518.464 345.506C517.391 345.513 516.461 346.005 515.921 346.846H515.812C515.812 344.61 516.7 343.284 518.231 343.277C519.229 343.284 519.865 343.865 520.063 344.672H521.554C521.321 343.1 520.057 341.965 518.231 341.965C515.859 341.965 514.369 343.934 514.362 347.379C514.362 351.036 516.276 352.123 518.108 352.137ZM515.989 348.801C516.003 347.7 516.926 346.729 518.136 346.736C519.325 346.729 520.187 347.652 520.187 348.787C520.187 349.942 519.291 350.872 518.095 350.879C516.878 350.872 515.996 349.901 515.989 348.801Z" fill="#2D2926"/>
<path d="M490.912 471.072H495.725V473H497.146V471.072H498.5V469.801H497.146V463.102H495.287L490.912 469.855V471.072ZM492.498 469.801V469.719L495.615 464.893H495.725V469.801H492.498ZM500.018 473H506.676V471.715H502.109V471.633L504.119 469.596C505.979 467.771 506.498 466.889 506.512 465.781C506.498 464.175 505.179 462.965 503.271 462.965C501.385 462.965 500.004 464.161 500.018 465.973H501.439C501.446 464.92 502.144 464.223 503.244 464.223C504.283 464.223 505.076 464.845 505.076 465.822C505.076 466.69 504.536 467.319 503.449 468.447L500.018 471.906V473ZM512.104 463.102H510.627L508.166 464.715V466.15L510.531 464.605H510.586V473H512.104V463.102Z" fill="#2D2926"/>
<path d="M573.799 473H580.061V471.701H575.303V468.68H579.678V467.395H575.303V464.4H580.006V463.102H573.799V473ZM585.502 462.637H584.203L581.018 474.49H582.316L585.502 462.637ZM586.705 473H592.68V471.701H588.209V463.102H586.705V473Z" fill="#2D2926"/>
<path d="M440.887 471.072H445.699V473H447.121V471.072H448.475V469.801H447.121V463.102H445.262L440.887 469.855V471.072ZM442.473 469.801V469.719L445.59 464.893H445.699V469.801H442.473ZM449.992 473H456.65V471.715H452.084V471.633L454.094 469.596C455.953 467.771 456.473 466.889 456.486 465.781C456.473 464.175 455.153 462.965 453.246 462.965C451.359 462.965 449.979 464.161 449.992 465.973H451.414C451.421 464.92 452.118 464.223 453.219 464.223C454.258 464.223 455.051 464.845 455.051 465.822C455.051 466.69 454.511 467.319 453.424 468.447L449.992 471.906V473ZM458.318 473H464.977V471.715H460.41V471.633L462.42 469.596C464.279 467.771 464.799 466.889 464.812 465.781C464.799 464.175 463.479 462.965 461.572 462.965C459.686 462.965 458.305 464.161 458.318 465.973H459.74C459.747 464.92 460.444 464.223 461.545 464.223C462.584 464.223 463.377 464.845 463.377 465.822C463.377 466.69 462.837 467.319 461.75 468.447L458.318 471.906V473Z" fill="#2D2926"/>
<path d="M398.182 471.072H402.994V473H404.416V471.072H405.77V469.801H404.416V463.102H402.557L398.182 469.855V471.072ZM399.768 469.801V469.719L402.885 464.893H402.994V469.801H399.768ZM407.287 473H413.945V471.715H409.379V471.633L411.389 469.596C413.248 467.771 413.768 466.889 413.781 465.781C413.768 464.175 412.448 462.965 410.541 462.965C408.654 462.965 407.273 464.161 407.287 465.973H408.709C408.716 464.92 409.413 464.223 410.514 464.223C411.553 464.223 412.346 464.845 412.346 465.822C412.346 466.69 411.806 467.319 410.719 468.447L407.287 471.906V473ZM419.127 473.137C421.178 473.137 422.702 471.927 422.695 470.279C422.702 469.028 421.916 468.119 420.562 467.928V467.859C421.629 467.593 422.326 466.786 422.312 465.658C422.326 464.195 421.103 462.965 419.154 462.965C417.309 462.965 415.818 464.059 415.777 465.672H417.227C417.261 464.776 418.149 464.223 419.141 464.223C420.187 464.223 420.863 464.838 420.863 465.74C420.863 466.69 420.077 467.319 418.949 467.312H418.102V468.543H418.949C420.364 468.55 421.178 469.247 421.178 470.225C421.178 471.188 420.31 471.838 419.113 471.838C418.006 471.838 417.145 471.284 417.09 470.416H415.559C415.62 472.036 417.076 473.137 419.127 473.137Z" fill="#2D2926"/>
<path d="M350.716 471.072H355.528V473H356.95V471.072H358.304V469.801H356.95V463.102H355.091L350.716 469.855V471.072ZM352.302 469.801V469.719L355.419 464.893H355.528V469.801H352.302ZM359.821 473H366.479V471.715H361.913V471.633L363.923 469.596C365.782 467.771 366.302 466.889 366.315 465.781C366.302 464.175 364.982 462.965 363.075 462.965C361.188 462.965 359.808 464.161 359.821 465.973H361.243C361.25 464.92 361.947 464.223 363.048 464.223C364.087 464.223 364.88 464.845 364.88 465.822C364.88 466.69 364.34 467.319 363.253 468.447L359.821 471.906V473ZM367.71 471.072H372.522V473H373.944V471.072H375.298V469.801H373.944V463.102H372.085L367.71 469.855V471.072ZM369.296 469.801V469.719L372.413 464.893H372.522V469.801H369.296Z" fill="#2D2926"/>
<path d="M297.805 471.072H302.617V473H304.039V471.072H305.393V469.801H304.039V463.102H302.18L297.805 469.855V471.072ZM299.391 469.801V469.719L302.508 464.893H302.617V469.801H299.391ZM306.91 473H313.568V471.715H309.002V471.633L311.012 469.596C312.871 467.771 313.391 466.889 313.404 465.781C313.391 464.175 312.071 462.965 310.164 462.965C308.277 462.965 306.896 464.161 306.91 465.973H308.332C308.339 464.92 309.036 464.223 310.137 464.223C311.176 464.223 311.969 464.845 311.969 465.822C311.969 466.69 311.429 467.319 310.342 468.447L306.91 471.906V473ZM318.6 473.137C320.664 473.137 322.127 471.735 322.127 469.787C322.127 467.88 320.753 466.499 318.887 466.492C318.135 466.499 317.438 466.766 317.027 467.162H316.932L317.26 464.387H321.621V463.102H316.016L315.373 468.611H316.795C317.13 468.003 317.738 467.736 318.531 467.736C319.775 467.75 320.664 468.625 320.664 469.828C320.664 471.004 319.803 471.872 318.6 471.879C317.602 471.872 316.795 471.257 316.713 470.416H315.25C315.318 471.995 316.727 473.137 318.6 473.137Z" fill="#2D2926"/>
<path d="M249.688 471.072H254.501V473H255.923V471.072H257.276V469.801H255.923V463.102H254.063L249.688 469.855V471.072ZM251.274 469.801V469.719L254.392 464.893H254.501V469.801H251.274ZM258.794 473H265.452V471.715H260.886V471.633L262.896 469.596C264.755 467.771 265.274 466.889 265.288 465.781C265.274 464.175 263.955 462.965 262.048 462.965C260.161 462.965 258.78 464.161 258.794 465.973H260.216C260.223 464.92 260.92 464.223 262.021 464.223C263.06 464.223 263.853 464.845 263.853 465.822C263.853 466.69 263.312 467.319 262.226 468.447L258.794 471.906V473ZM270.702 473.137C272.828 473.15 274.243 471.681 274.243 469.76C274.243 467.866 272.821 466.513 271.058 466.506C269.984 466.513 269.055 467.005 268.515 467.846H268.405C268.405 465.61 269.294 464.284 270.825 464.277C271.823 464.284 272.459 464.865 272.657 465.672H274.147C273.915 464.1 272.65 462.965 270.825 462.965C268.453 462.965 266.963 464.934 266.956 468.379C266.956 472.036 268.87 473.123 270.702 473.137ZM268.583 469.801C268.597 468.7 269.52 467.729 270.729 467.736C271.919 467.729 272.78 468.652 272.78 469.787C272.78 470.942 271.885 471.872 270.688 471.879C269.472 471.872 268.59 470.901 268.583 469.801Z" fill="#2D2926"/>
<path d="M210.633 471.072H215.445V473H216.867V471.072H218.221V469.801H216.867V463.102H215.008L210.633 469.855V471.072ZM212.219 469.801V469.719L215.336 464.893H215.445V469.801H212.219ZM219.738 473H226.396V471.715H221.83V471.633L223.84 469.596C225.699 467.771 226.219 466.889 226.232 465.781C226.219 464.175 224.899 462.965 222.992 462.965C221.105 462.965 219.725 464.161 219.738 465.973H221.16C221.167 464.92 221.864 464.223 222.965 464.223C224.004 464.223 224.797 464.845 224.797 465.822C224.797 466.69 224.257 467.319 223.17 468.447L219.738 471.906V473ZM228.406 473H229.979L234.381 464.441V463.102H227.723V464.387H232.822V464.469L228.406 473Z" fill="#2D2926"/>
<path d="M179.723 471.072H184.535V473H185.957V471.072H187.311V469.801H185.957V463.102H184.098L179.723 469.855V471.072ZM181.309 469.801V469.719L184.426 464.893H184.535V469.801H181.309ZM188.828 473H195.486V471.715H190.92V471.633L192.93 469.596C194.789 467.771 195.309 466.889 195.322 465.781C195.309 464.175 193.989 462.965 192.082 462.965C190.195 462.965 188.814 464.161 188.828 465.973H190.25C190.257 464.92 190.954 464.223 192.055 464.223C193.094 464.223 193.887 464.845 193.887 465.822C193.887 466.69 193.347 467.319 192.26 468.447L188.828 471.906V473ZM200.613 473.137C202.732 473.137 204.243 471.975 204.25 470.361C204.243 469.09 203.327 468.051 202.172 467.873V467.818C203.17 467.586 203.86 466.684 203.867 465.604C203.86 464.079 202.479 462.965 200.613 462.965C198.72 462.965 197.346 464.079 197.346 465.604C197.346 466.684 198.022 467.586 199.041 467.818V467.873C197.872 468.051 196.963 469.09 196.977 470.361C196.963 471.975 198.46 473.137 200.613 473.137ZM198.508 470.252C198.487 469.233 199.383 468.488 200.613 468.488C201.83 468.488 202.719 469.233 202.719 470.252C202.719 471.223 201.898 471.893 200.613 471.893C199.308 471.893 198.487 471.223 198.508 470.252ZM198.809 465.74C198.815 464.817 199.526 464.188 200.613 464.195C201.673 464.188 202.397 464.817 202.391 465.74C202.397 466.67 201.646 467.306 200.613 467.299C199.554 467.306 198.815 466.663 198.809 465.74Z" fill="#2D2926"/>
<g clip-path="url(#clip0_12_6)">
<path d="M119.14 44.55H128.74V46.55C125.39 46.99 122.51 49.09 122.51 51.63C122.51 54.47 126.13 56.77 129.98 56.77H130.89C134.74 56.77 138.36 54.47 138.36 51.63C138.36 49.14 135.6 47.06 132.36 46.58V44.55H142V42.1H119.14V44.55ZM134.87 51.67C134.87 53.24 132.56 54.32 130.44 54.32C128.32 54.32 126 53.24 126 51.67C126 50.1 128.31 49 130.44 49C132.57 49 134.87 50.08 134.87 51.67Z" fill="#5A5B5D"/>
<path d="M162.06 43.59L165.23 43.55V34.59H162.06V43.59Z" fill="#5A5B5D"/>
<path d="M147.24 47H162.06V48.45H147.24V53C147.218 53.2531 147.248 53.508 147.329 53.7489C147.41 53.9898 147.54 54.2114 147.71 54.4C148.122 54.695 148.624 54.8366 149.13 54.8H165.23V52.33H150.55V50.82H165.23V44.59H147.23L147.24 47Z" fill="#5A5B5D"/>
<path d="M213.62 34.59H210.44V45.53H213.6L213.62 40.37H216.81V37.87H213.62V34.59Z" fill="#5A5B5D"/>
<path d="M194.99 49H210.44V54.86L213.62 54.87V46.51H194.99V49Z" fill="#5A5B5D"/>
<path d="M194.09 40.1899C194.087 40.9037 194.26 41.6073 194.593 42.2386C194.926 42.8699 195.409 43.4096 196 43.8099C197.254 44.728 198.777 45.203 200.33 45.1599C201.857 45.211 203.354 44.7342 204.57 43.8099C205.154 43.4051 205.629 42.8634 205.955 42.2324C206.281 41.6014 206.448 40.9001 206.44 40.1899C206.432 39.7425 206.337 39.301 206.16 38.8899C205.962 38.4802 205.698 38.1053 205.38 37.7799H207.89V35.3799H201.89V33.4399H198.47V35.3799H192.4V37.7799H195.13C194.791 38.0938 194.515 38.4708 194.32 38.8899C194.156 39.3031 194.077 39.7455 194.09 40.1899V40.1899ZM198.09 38.4899C198.703 38.0196 199.457 37.7695 200.23 37.7799C200.99 37.7714 201.731 38.0218 202.33 38.4899C202.618 38.6953 202.853 38.965 203.018 39.2775C203.183 39.59 203.273 39.9367 203.28 40.2899C203.269 40.6313 203.177 40.9652 203.012 41.2642C202.847 41.5632 202.613 41.8188 202.33 42.0099C201.744 42.506 200.998 42.7725 200.23 42.7599C199.45 42.775 198.69 42.5088 198.09 42.0099C197.816 41.8128 197.591 41.5549 197.434 41.2566C197.276 40.9582 197.189 40.6274 197.18 40.2899C197.19 39.9373 197.281 39.5917 197.446 39.2797C197.611 38.9677 197.845 38.6975 198.13 38.4899H198.09Z" fill="#5A5B5D"/>
<path d="M187.07 41.06H184.38V34.59H181.45V54.91L184.38 54.88V43.56H187.07V54.91L190.09 54.88V34.59H187.07V41.06Z" fill="#5A5B5D"/>
<path d="M172.49 37.08H179V34.59H169.3V48C169.279 48.243 169.323 48.4872 169.429 48.7072C169.534 48.9271 169.697 49.1146 169.9 49.25C170.336 49.4793 170.829 49.5798 171.32 49.54H179.45V47.04H172.45L172.49 37.08Z" fill="#5A5B5D"/>
<path d="M233.28 49.18L236.46 49.16L236.47 34.59H218.8V37.08H233.28V49.18Z" fill="#5A5B5D"/>
<path d="M230.16 51.2899V42.9399H227.02V51.2899H224.3V42.9399H221.18V51.2899H217.34V53.7799H238.29V51.2899H230.16Z" fill="#5A5B5D"/>
<path d="M125.79 39.93C127.576 39.5946 129.227 38.7468 130.54 37.49C131.832 38.7507 133.473 39.5939 135.25 39.91C137.001 40.3624 138.794 40.6306 140.6 40.71L141.16 38.17C139.112 38.1222 137.085 37.7405 135.16 37.04C133.4 36.39 132.16 35.3 132.16 34.35H128.86C128.86 35.2 127.63 36.35 125.86 37.04C123.941 37.7654 121.911 38.1545 119.86 38.19V38.19L120.42 40.68C122.232 40.628 124.033 40.3765 125.79 39.93V39.93Z" fill="#5A5B5D"/>
<path d="M152.15 39.43C152.975 40.5424 154.047 41.4493 155.28 42.08C156.64 42.6789 158.077 43.0829 159.55 43.28L160.17 40.75C158.145 40.5338 156.258 39.622 154.83 38.17C154.105 37.1339 153.752 35.8824 153.83 34.62H150.42C150.488 35.8981 150.11 37.16 149.35 38.19C147.92 39.6457 146.029 40.5609 144 40.78V40.78L144.6 43.25C146.025 43.0374 147.417 42.6407 148.74 42.07C150.077 41.485 151.249 40.578 152.15 39.43V39.43Z" fill="#5A5B5D"/>
<path d="M58.9001 63.55H49.7801C49.8801 63.55 50.2201 63.1101 50.3001 63.0201C50.4799 62.8244 50.647 62.6173 50.8001 62.4001C51.1934 61.865 51.5067 61.2754 51.7301 60.65C52.5192 58.5312 52.4655 56.1904 51.5801 54.1101C50.5597 52.2489 49.4311 50.4491 48.2001 48.72C46.4349 46.0993 45.5425 42.988 45.6501 39.83C45.8476 37.6941 46.7076 35.6732 48.1101 34.05H56.8901C55.7014 35.2032 54.8541 36.662 54.4412 38.2658C54.0283 39.8696 54.066 41.5563 54.5501 43.14C55.1591 44.9641 56.0499 46.6815 57.1901 48.23C58.2473 49.7249 59.1868 51.2996 60.0001 52.94C60.9002 54.9815 61.1583 57.2485 60.7401 59.44C60.5386 60.4888 60.1778 61.5005 59.6701 62.44C59.5401 62.61 59.1001 63.55 58.9001 63.55Z" fill="#00A3C9"/>
<path d="M64 54.94H79.09V30H59.18C58.3237 30.8616 57.7093 31.9335 57.3986 33.1079C57.0879 34.2822 57.0918 35.5176 57.41 36.69C57.93 38.82 59.47 40.69 60.84 42.55C63.02 45.44 65.4 48.7 64.73 52.55C64.617 53.3808 64.3705 54.1879 64 54.94V54.94Z" fill="#5AC5C4"/>
<path d="M30 30V54.94H44.89C45.4936 53.4591 45.4936 51.8009 44.89 50.32C43.45 46.8 41.11 44.9 39.81 41.84C38.56 38.93 38.42 36.28 39.48 32.46C39.7619 31.62 40.0959 30.7984 40.48 30L30 30Z" fill="#00678F"/>
<path d="M109.66 30H97.3V49.78C97.3 49.88 97.3 50.36 97.3 50.85C97.17 53.95 96.44 54.57 95.67 54.94H109.67L109.66 30Z" fill="#00A3C9"/>
<path d="M82.46 34.08V59.2C82.5006 60.2496 82.9435 61.2434 83.6969 61.9753C84.4503 62.7073 85.4565 63.1213 86.5069 63.1316C87.5572 63.1419 88.5713 62.7476 89.3389 62.0306C90.1065 61.3135 90.5688 60.3286 90.63 59.28V34.08H82.46Z" fill="#00678F"/>
</g>
<path d="M35.25 174.175H79.25V188.55H102V174.175H112.5V155.55H102V98.05H71.875L35.25 155.675V174.175ZM58.75 155.55V154.925L79 122.8H79.75V155.55H58.75ZM123 188.55H146.75V152.925H182.125V133.675H146.75V117.3H186.125V98.05H123V188.55Z" fill="#2D2926"/>
<path d="M57.9141 202.792H53.4492V210.597H48.457V214.218H53.4492V221.777H57.9141V202.792ZM30.7383 218.261L33.0586 221.812C36.8555 220.511 39.4219 217.892 40.8281 214.64C42.2168 217.505 44.6602 219.825 48.1758 220.968L50.3906 217.452C45.416 215.8 43.1309 212.038 43.043 208.312H49.4062V204.726H32.0391V208.312H38.4727C38.3672 212.32 35.9766 216.503 30.7383 218.261ZM35.9766 228.667C35.9766 232.552 40.1602 234.82 46.9805 234.82C53.8184 234.82 58.002 232.552 58.0195 228.667C58.002 224.782 53.8184 222.497 46.9805 222.48C40.1602 222.497 35.9766 224.782 35.9766 228.667ZM40.4414 228.667C40.4414 226.822 42.7441 225.907 46.9805 225.925C51.2344 225.907 53.5371 226.822 53.5547 228.667C53.5371 230.495 51.2344 231.409 46.9805 231.409C42.7441 231.409 40.4414 230.495 40.4414 228.667ZM91.3477 227.402H78.8672V221.495H88.0781V204.831H83.6133V209.788H69.6562V204.831H65.1562V221.495H74.4023V227.402H62.0625V231.058H91.3477V227.402ZM69.6562 217.909V213.374H83.6133V217.909H69.6562ZM111.176 205.991H94.582V209.577H106.711C106.676 212.407 106.605 215.835 105.867 220.476L110.297 220.827C111.141 215.501 111.141 211.564 111.176 208.558V205.991ZM92.8945 224.659L93.3164 228.245C98.9238 228.281 106.166 228.157 112.758 227.05L112.477 223.71C109.523 224.097 106.342 224.325 103.195 224.448V215.167H98.7656V224.589C96.6914 224.642 94.6875 224.659 92.8945 224.659ZM113.988 234.784H118.523V219.386H122.883V215.659H118.523V202.792H113.988V234.784ZM143.273 205.64H136.031V202.616H131.566V205.64H124.289V209.191H143.273V205.64ZM125.836 216.116C125.836 219.632 129.141 222.005 133.781 222.023C138.439 222.005 141.656 219.632 141.656 216.116C141.656 212.601 138.439 210.228 133.781 210.21C129.141 210.228 125.836 212.601 125.836 216.116ZM128.121 227.788H145.172V234.784H149.672V224.202H128.121V227.788ZM130.23 216.116C130.213 214.464 131.637 213.585 133.781 213.585C135.943 213.585 137.402 214.464 137.402 216.116C137.402 217.751 135.943 218.595 133.781 218.577C131.637 218.595 130.213 217.751 130.23 216.116ZM145.172 222.866H149.672V214.745H153.996V211.089H149.672V202.792H145.172V222.866ZM173.332 205.113H156.879V208.769H168.955C168.92 210.685 168.779 213.023 168.199 216.081L172.594 216.503C173.332 212.531 173.332 209.331 173.332 207.116V205.113ZM154.98 218.823L155.367 222.409C160.939 222.392 168.428 222.269 175.09 221.038L174.844 217.804C171.838 218.243 168.586 218.49 165.387 218.63V212.495H160.922V218.771C158.795 218.823 156.773 218.823 154.98 218.823ZM159.691 234.222H182.156V230.636H164.191V224.589H159.691V234.222ZM176.566 226.734H181.172V216.292H185.039V212.531H181.172V202.792H176.566V226.734Z" fill="#2D2926"/>
<path d="M32.5156 244.652H31.0117V254.55H32.5156V244.652ZM35.8652 250.148C35.8652 248.965 36.583 248.288 37.5879 248.288C38.5723 248.288 39.1533 248.931 39.1602 250.011V254.55H40.6094V249.833C40.6162 247.994 39.6045 247.031 38.0801 247.031C36.9727 247.031 36.2412 247.543 35.8926 248.343H35.8105V247.126H34.4023V254.55H35.8652V250.148ZM45.9277 247.126H44.3281V246.484C44.3281 245.759 44.6904 245.445 45.4629 245.445C45.5928 245.445 45.8047 245.458 46.0781 245.499V244.282C45.791 244.228 45.4287 244.187 45.0801 244.187C43.7197 244.187 42.8721 244.939 42.8652 246.265V247.126H41.7168V248.288H42.8652V254.55H44.3281V248.288H45.9277V247.126ZM50.0977 254.7C52.1895 254.7 53.5566 253.169 53.5566 250.872C53.5566 248.562 52.1895 247.031 50.0977 247.031C47.9922 247.031 46.6182 248.562 46.625 250.872C46.6182 253.169 47.9922 254.7 50.0977 254.7ZM48.0879 250.872C48.0879 249.45 48.7373 248.24 50.0977 248.234C51.4375 248.24 52.0801 249.45 52.0801 250.872C52.0801 252.287 51.4375 253.484 50.0977 253.484C48.7373 253.484 48.0879 252.287 48.0879 250.872ZM54.9922 254.55H56.4551V250.025C56.4551 249.054 57.207 248.35 58.2188 248.357C58.5195 248.35 58.8613 248.411 58.9844 248.439V247.044C58.834 247.031 58.5469 247.01 58.3691 247.017C57.501 247.01 56.7559 247.509 56.4824 248.302H56.4004V247.126H54.9922V254.55ZM60.0781 254.55H61.541V249.97C61.541 248.972 62.2383 248.288 63.0586 248.288C63.8584 248.288 64.4121 248.815 64.4121 249.628V254.55H65.8613V249.82C65.8613 248.931 66.4014 248.288 67.3379 248.288C68.1035 248.288 68.7324 248.705 68.7324 249.71V254.55H70.1953V249.573C70.1885 247.871 69.2383 247.031 67.8984 247.031C66.8252 247.031 66.0186 247.543 65.6699 248.343H65.5879C65.2734 247.516 64.583 247.031 63.5918 247.031C62.6143 247.031 61.8828 247.516 61.5684 248.343H61.4863V247.126H60.0781V254.55ZM71.6172 252.458C71.6104 253.907 72.7109 254.714 74.1191 254.714C75.3496 254.714 76.0332 254.092 76.3203 253.538H76.375V254.55H77.7969V249.615C77.79 247.461 76.0674 247.031 74.8848 247.031C73.1279 247.031 71.9795 247.919 71.8496 249.15H73.2988C73.4492 248.603 73.9688 248.206 74.8301 248.206C75.8213 248.206 76.3408 248.692 76.334 249.532L76.3408 250.127C75.999 250.141 74.8848 250.202 74.3926 250.23C73.0527 250.325 71.6104 250.763 71.6172 252.458ZM73.0391 252.472C73.0391 251.74 73.6406 251.378 74.5977 251.31C74.9463 251.289 76.0059 251.214 76.3408 251.194L76.3477 251.87C76.3477 252.752 75.6367 253.545 74.4473 253.552C73.627 253.545 73.0391 253.183 73.0391 252.472ZM83.0332 247.126H81.5156V245.349H80.0664V247.126H78.9727V248.288H80.0664V252.663C80.0527 254.017 81.085 254.646 82.2266 254.646C82.6299 254.646 82.9443 254.618 83.1426 254.591V253.32C82.9375 253.34 82.6162 253.361 82.4043 253.361C81.9326 253.354 81.5225 253.203 81.5156 252.363V248.288H83.0332V247.126ZM84.4551 254.55H85.918V247.126H84.4551V254.55ZM84.2637 245.116C84.2705 245.595 84.6875 245.985 85.1934 245.978C85.6924 245.985 86.1094 245.595 86.1094 245.116C86.1094 244.638 85.6924 244.255 85.1934 244.255C84.6875 244.255 84.2705 244.638 84.2637 245.116ZM90.8398 254.7C92.9316 254.7 94.2988 253.169 94.2988 250.872C94.2988 248.562 92.9316 247.031 90.8398 247.031C88.7344 247.031 87.3604 248.562 87.3672 250.872C87.3604 253.169 88.7344 254.7 90.8398 254.7ZM88.8301 250.872C88.8301 249.45 89.4795 248.24 90.8398 248.234C92.1797 248.24 92.8223 249.45 92.8223 250.872C92.8223 252.287 92.1797 253.484 90.8398 253.484C89.4795 253.484 88.8301 252.287 88.8301 250.872ZM97.1973 250.148C97.1973 248.965 97.915 248.288 98.9199 248.288C99.9043 248.288 100.485 248.931 100.492 250.011V254.55H101.941V249.833C101.948 247.994 100.937 247.031 99.4121 247.031C98.3047 247.031 97.5732 247.543 97.2246 248.343H97.1426V247.126H95.7344V254.55H97.1973V250.148ZM112.646 247.263H114.109C114.062 245.663 112.66 244.515 110.65 244.515C108.647 244.515 107.13 245.65 107.123 247.359C107.13 248.74 108.114 249.546 109.707 249.984L110.883 250.298C111.929 250.578 112.749 250.927 112.756 251.788C112.749 252.759 111.833 253.395 110.568 253.402C109.413 253.395 108.456 252.882 108.367 251.802H106.863C106.959 253.607 108.354 254.714 110.568 254.714C112.906 254.714 114.239 253.49 114.246 251.816C114.239 250.025 112.653 249.334 111.389 249.027L110.432 248.767C109.646 248.582 108.627 248.213 108.627 247.277C108.634 246.436 109.399 245.814 110.609 245.814C111.744 245.814 112.551 246.34 112.646 247.263ZM118.881 254.7C120.631 254.7 121.772 253.641 121.93 252.198H120.508C120.323 252.998 119.708 253.463 118.881 253.456C117.657 253.463 116.871 252.458 116.871 250.831C116.871 249.252 117.678 248.254 118.881 248.247C119.804 248.254 120.357 248.835 120.508 249.532H121.93C121.772 248.029 120.549 247.031 118.854 247.031C116.762 247.031 115.401 248.61 115.408 250.872C115.401 253.108 116.714 254.7 118.881 254.7ZM123.311 254.55H124.773V247.126H123.311V254.55ZM123.119 245.116C123.126 245.595 123.543 245.985 124.049 245.978C124.548 245.985 124.965 245.595 124.965 245.116C124.965 244.638 124.548 244.255 124.049 244.255C123.543 244.255 123.126 244.638 123.119 245.116ZM129.75 254.7C131.384 254.7 132.525 253.894 132.854 252.691H131.377C131.131 253.142 130.591 253.497 129.764 253.497C128.547 253.497 127.713 252.698 127.672 251.282H132.949V250.763C132.949 248.076 131.343 247.031 129.654 247.031C127.583 247.031 126.216 248.603 126.223 250.886C126.216 253.19 127.562 254.7 129.75 254.7ZM127.679 250.189C127.74 249.143 128.499 248.227 129.668 248.234C130.782 248.227 131.514 249.061 131.514 250.189H127.679ZM135.861 250.148C135.861 248.965 136.579 248.288 137.584 248.288C138.568 248.288 139.149 248.931 139.156 250.011V254.55H140.605V249.833C140.612 247.994 139.601 247.031 138.076 247.031C136.969 247.031 136.237 247.543 135.889 248.343H135.807V247.126H134.398V254.55H135.861V250.148ZM145.527 254.7C147.277 254.7 148.419 253.641 148.576 252.198H147.154C146.97 252.998 146.354 253.463 145.527 253.456C144.304 253.463 143.518 252.458 143.518 250.831C143.518 249.252 144.324 248.254 145.527 248.247C146.45 248.254 147.004 248.835 147.154 249.532H148.576C148.419 248.029 147.195 247.031 145.5 247.031C143.408 247.031 142.048 248.61 142.055 250.872C142.048 253.108 143.36 254.7 145.527 254.7ZM153.156 254.7C154.79 254.7 155.932 253.894 156.26 252.691H154.783C154.537 253.142 153.997 253.497 153.17 253.497C151.953 253.497 151.119 252.698 151.078 251.282H156.355V250.763C156.355 248.076 154.749 247.031 153.061 247.031C150.989 247.031 149.622 248.603 149.629 250.886C149.622 253.19 150.969 254.7 153.156 254.7ZM151.085 250.189C151.146 249.143 151.905 248.227 153.074 248.234C154.188 248.227 154.92 249.061 154.92 250.189H151.085ZM161.346 254.55H165.133C167.443 254.55 168.482 253.402 168.482 251.884C168.482 250.353 167.416 249.491 166.432 249.437V249.341C167.341 249.109 168.1 248.487 168.1 247.249C168.1 245.78 167.081 244.652 164.969 244.652H161.346V254.55ZM162.85 253.265V250.107H165.051C166.24 250.107 166.992 250.865 166.992 251.816C166.992 252.636 166.418 253.258 164.996 253.265H162.85ZM162.85 248.931V245.937H164.873C166.056 245.937 166.623 246.552 166.623 247.372C166.623 248.323 165.844 248.924 164.846 248.931H162.85ZM174.689 251.46C174.689 252.725 173.753 253.32 172.939 253.32C172.051 253.32 171.436 252.677 171.436 251.665V247.126H169.973V251.843C169.973 253.682 170.984 254.646 172.42 254.646C173.534 254.646 174.293 254.058 174.635 253.265H174.717V254.55H176.139V247.126H174.689V251.46ZM177.916 254.55H179.379V247.126H177.916V254.55ZM177.725 245.116C177.731 245.595 178.148 245.985 178.654 245.978C179.153 245.985 179.57 245.595 179.57 245.116C179.57 244.638 179.153 244.255 178.654 244.255C178.148 244.255 177.731 244.638 177.725 245.116ZM182.619 244.652H181.156V254.55H182.619V244.652ZM187.172 254.7C188.525 254.694 189.059 253.873 189.332 253.388H189.441V254.55H190.863V244.652H189.4V248.329H189.332C189.065 247.865 188.566 247.031 187.186 247.031C185.401 247.031 184.068 248.439 184.068 250.859C184.068 253.251 185.381 254.694 187.172 254.7ZM185.559 250.831C185.552 249.368 186.208 248.268 187.5 248.275C188.758 248.268 189.441 249.286 189.441 250.831C189.441 252.39 188.744 253.449 187.5 253.456C186.222 253.449 185.552 252.322 185.559 250.831ZM192.764 254.55H194.227V247.126H192.764V254.55ZM192.572 245.116C192.579 245.595 192.996 245.985 193.502 245.978C194.001 245.985 194.418 245.595 194.418 245.116C194.418 244.638 194.001 244.255 193.502 244.255C192.996 244.255 192.579 244.638 192.572 245.116ZM197.467 250.148C197.467 248.965 198.185 248.288 199.189 248.288C200.174 248.288 200.755 248.931 200.762 250.011V254.55H202.211V249.833C202.218 247.994 201.206 247.031 199.682 247.031C198.574 247.031 197.843 247.543 197.494 248.343H197.412V247.126H196.004V254.55H197.467V250.148ZM207.105 257.49C209.02 257.49 210.462 256.621 210.455 254.714V247.126H209.033V248.329H208.938C208.664 247.865 208.158 247.031 206.777 247.031C204.993 247.031 203.66 248.391 203.66 250.763C203.66 253.135 205.014 254.441 206.764 254.441C208.131 254.441 208.664 253.675 208.924 253.197H209.02V254.659C209.013 255.815 208.281 256.321 207.119 256.314C206.155 256.321 205.499 255.979 205.355 255.275H203.865C203.995 256.662 205.232 257.49 207.105 257.49ZM205.15 250.79C205.144 249.368 205.8 248.268 207.092 248.275C208.35 248.268 209.033 249.286 209.033 250.79C209.033 252.322 208.336 253.231 207.092 253.238C205.813 253.231 205.144 252.246 205.15 250.79Z" fill="#2D2926"/>
<defs>
<clipPath id="clip0_12_6">
<rect width="208.29" height="33.55" fill="white" transform="translate(30 30)"/>
</clipPath>
</defs>
</svg>
