<svg width="800" height="600" viewBox="0 0 800 600" fill="none" xmlns="http://www.w3.org/2000/svg">
<path d="M394.56 94.4199H302.89V187.61H464.7V251.72H490.46V285.79L490.75 410.75V442.38H148.75V512.52H713.18V443.9H685.13V186.72H720.91V163.42H756.7V69.3199H394.56V94.4199Z" stroke="#2D2926" stroke-width="5" stroke-miterlimit="10" stroke-linecap="square"/>
<path d="M394.56 94.4199V187.61M394.56 163H687.87V69.3199M685.13 186.72H558.42M685.13 443.9H558.19V186.72M685.13 443.9H596.01M685.13 443.9V489.57H596.01M685.13 443.9H713.19V512.51H685.13V443.9ZM490.46 251.72H529.35V490.84H177.77M596.01 443.9H569.36V489.57H596.01M596.01 443.9V489.57M177.77 442.38V512.52M493.87 69.3199V163M590.37 69.3199V163.01M558.19 378.77H685.13M647.66 443.9V489.58M665.73 443.9V489.57M490.75 442.38H529.35M490.46 442.38V490.84M430.96 442.38L431.3 490.84M389.87 442.38V490.84M348.15 442.38V490.84M304 441.38V489M262.96 441.56V490.02M220 490.84V442.38M653.97 69.3199V163M621.66 163V69.3199M558.19 275.8H685.13M621.66 443.9V378.77M462.84 440.67L463.18 489.12" stroke="#2D2926" stroke-width="2" stroke-miterlimit="10" stroke-linecap="square"/>
<path d="M466.5 187H495.5M524.5 187H521.75M495.5 187V207M495.5 187H498.5M495.5 207V213.5L486 211.862M495.5 207C495.681 207 496.788 207 498.5 207M486 211.862L466.5 208.5V221.5H486M486 211.862H466.5M486 211.862V215.5M498.5 187V207M498.5 187H501.5M498.5 207C499.361 207 500.374 207 501.5 207M501.5 187V207M501.5 187H504.5M501.5 207C502.431 207 503.439 207 504.5 207M504.5 187V207M504.5 187H507.5M504.5 207C505.462 207 506.467 207 507.5 207M507.5 187V207M507.5 187H510M507.5 207C508.319 207 509.155 207 510 207M510 187V207M510 187H513M510 207C510.993 207 511.997 207 513 207M513 187V207M513 187H516M513 207C514.007 207 515.011 207 516 207M516 187V207M516 187H519M516 207C517.022 207 518.028 207 519 207M519 187V207M519 187H521.75M519 207C519.953 207 520.874 207 521.75 207M521.75 187V207M521.75 207C522.731 207 523.655 207 524.5 207V232H524M466.5 215.5H486M486 215.5V218.5M466.5 218.5H486M486 218.5V221.5M486 221.5V224.5M486 224.5H466.5M486 224.5V227.5M486 227.5H466.5M486 227.5V230.5M486 230.5V232H489M486 230.5H466.5M489 232V250.5M489 232H492M492 232H495M492 232V249M492 250.5V249M495 232V249M495 232H498M492 249H498M498 249V252M498 249V232M498 232H501M501 232V252M501 232H503.5M503.5 232V252M503.5 232H506.5M506.5 232V252M506.5 232H509.5M509.5 232V252M509.5 232H512M512 232V252M512 232H515M515 232V252M515 232H518M518 232V252M518 232H521M521 232V252M521 232H524M524 232V252" stroke="#2D2926"/>
<path d="M342.035 146.137C344.1 146.137 345.562 144.735 345.562 142.787C345.562 140.88 344.188 139.499 342.322 139.492C341.57 139.499 340.873 139.766 340.463 140.162H340.367L340.695 137.387H345.057V136.102H339.451L338.809 141.611H340.23C340.565 141.003 341.174 140.736 341.967 140.736C343.211 140.75 344.1 141.625 344.1 142.828C344.1 144.004 343.238 144.872 342.035 144.879C341.037 144.872 340.23 144.257 340.148 143.416H338.686C338.754 144.995 340.162 146.137 342.035 146.137ZM350.607 146.137C352.897 146.137 354.237 144.291 354.244 141.051C354.237 137.831 352.877 135.965 350.607 135.965C348.331 135.965 346.971 137.831 346.971 141.051C346.971 144.291 348.317 146.137 350.607 146.137ZM348.475 141.051C348.475 138.59 349.274 137.243 350.607 137.236C351.934 137.243 352.74 138.59 352.74 141.051C352.74 143.519 351.94 144.838 350.607 144.838C349.268 144.838 348.468 143.519 348.475 141.051ZM359.562 136.102H358.086L355.625 137.715V139.15L357.99 137.605H358.045V146H359.562V136.102Z" fill="#2D2926"/>
<path d="M436.51 122.137C438.574 122.137 440.037 120.735 440.037 118.787C440.037 116.88 438.663 115.499 436.797 115.492C436.045 115.499 435.348 115.766 434.938 116.162H434.842L435.17 113.387H439.531V112.102H433.926L433.283 117.611H434.705C435.04 117.003 435.648 116.736 436.441 116.736C437.686 116.75 438.574 117.625 438.574 118.828C438.574 120.004 437.713 120.872 436.51 120.879C435.512 120.872 434.705 120.257 434.623 119.416H433.16C433.229 120.995 434.637 122.137 436.51 122.137ZM445.082 122.137C447.372 122.137 448.712 120.291 448.719 117.051C448.712 113.831 447.352 111.965 445.082 111.965C442.806 111.965 441.445 113.831 441.445 117.051C441.445 120.291 442.792 122.137 445.082 122.137ZM442.949 117.051C442.949 114.59 443.749 113.243 445.082 113.236C446.408 113.243 447.215 114.59 447.215 117.051C447.215 119.519 446.415 120.838 445.082 120.838C443.742 120.838 442.942 119.519 442.949 117.051ZM450.277 122H456.936V120.715H452.369V120.633L454.379 118.596C456.238 116.771 456.758 115.889 456.771 114.781C456.758 113.175 455.438 111.965 453.531 111.965C451.645 111.965 450.264 113.161 450.277 114.973H451.699C451.706 113.92 452.403 113.223 453.504 113.223C454.543 113.223 455.336 113.845 455.336 114.822C455.336 115.69 454.796 116.319 453.709 117.447L450.277 120.906V122Z" fill="#2D2926"/>
<path d="M533.305 122.137C535.369 122.137 536.832 120.735 536.832 118.787C536.832 116.88 535.458 115.499 533.592 115.492C532.84 115.499 532.143 115.766 531.732 116.162H531.637L531.965 113.387H536.326V112.102H530.721L530.078 117.611H531.5C531.835 117.003 532.443 116.736 533.236 116.736C534.48 116.75 535.369 117.625 535.369 118.828C535.369 120.004 534.508 120.872 533.305 120.879C532.307 120.872 531.5 120.257 531.418 119.416H529.955C530.023 120.995 531.432 122.137 533.305 122.137ZM541.877 122.137C544.167 122.137 545.507 120.291 545.514 117.051C545.507 113.831 544.146 111.965 541.877 111.965C539.601 111.965 538.24 113.831 538.24 117.051C538.24 120.291 539.587 122.137 541.877 122.137ZM539.744 117.051C539.744 114.59 540.544 113.243 541.877 113.236C543.203 113.243 544.01 114.59 544.01 117.051C544.01 119.519 543.21 120.838 541.877 120.838C540.537 120.838 539.737 119.519 539.744 117.051ZM550.586 122.137C552.637 122.137 554.161 120.927 554.154 119.279C554.161 118.028 553.375 117.119 552.021 116.928V116.859C553.088 116.593 553.785 115.786 553.771 114.658C553.785 113.195 552.562 111.965 550.613 111.965C548.768 111.965 547.277 113.059 547.236 114.672H548.686C548.72 113.776 549.608 113.223 550.6 113.223C551.646 113.223 552.322 113.838 552.322 114.74C552.322 115.69 551.536 116.319 550.408 116.312H549.561V117.543H550.408C551.823 117.55 552.637 118.247 552.637 119.225C552.637 120.188 551.769 120.838 550.572 120.838C549.465 120.838 548.604 120.284 548.549 119.416H547.018C547.079 121.036 548.535 122.137 550.586 122.137Z" fill="#2D2926"/>
<path d="M597.229 122.137C599.294 122.137 600.757 120.735 600.757 118.787C600.757 116.88 599.383 115.499 597.517 115.492C596.765 115.499 596.067 115.766 595.657 116.162H595.562L595.89 113.387H600.251V112.102H594.646L594.003 117.611H595.425C595.76 117.003 596.368 116.736 597.161 116.736C598.405 116.75 599.294 117.625 599.294 118.828C599.294 120.004 598.433 120.872 597.229 120.879C596.231 120.872 595.425 120.257 595.343 119.416H593.88C593.948 120.995 595.356 122.137 597.229 122.137ZM605.802 122.137C608.092 122.137 609.432 120.291 609.438 117.051C609.432 113.831 608.071 111.965 605.802 111.965C603.525 111.965 602.165 113.831 602.165 117.051C602.165 120.291 603.512 122.137 605.802 122.137ZM603.669 117.051C603.669 114.59 604.469 113.243 605.802 113.236C607.128 113.243 607.935 114.59 607.935 117.051C607.935 119.519 607.135 120.838 605.802 120.838C604.462 120.838 603.662 119.519 603.669 117.051ZM610.778 120.072H615.591V122H617.013V120.072H618.366V118.801H617.013V112.102H615.153L610.778 118.855V120.072ZM612.364 118.801V118.719L615.481 113.893H615.591V118.801H612.364Z" fill="#2D2926"/>
<path d="M629.428 122.137C631.492 122.137 632.955 120.735 632.955 118.787C632.955 116.88 631.581 115.499 629.715 115.492C628.963 115.499 628.266 115.766 627.855 116.162H627.76L628.088 113.387H632.449V112.102H626.844L626.201 117.611H627.623C627.958 117.003 628.566 116.736 629.359 116.736C630.604 116.75 631.492 117.625 631.492 118.828C631.492 120.004 630.631 120.872 629.428 120.879C628.43 120.872 627.623 120.257 627.541 119.416H626.078C626.146 120.995 627.555 122.137 629.428 122.137ZM638 122.137C640.29 122.137 641.63 120.291 641.637 117.051C641.63 113.831 640.27 111.965 638 111.965C635.724 111.965 634.363 113.831 634.363 117.051C634.363 120.291 635.71 122.137 638 122.137ZM635.867 117.051C635.867 114.59 636.667 113.243 638 113.236C639.326 113.243 640.133 114.59 640.133 117.051C640.133 119.519 639.333 120.838 638 120.838C636.66 120.838 635.86 119.519 635.867 117.051ZM646.559 122.137C648.623 122.137 650.086 120.735 650.086 118.787C650.086 116.88 648.712 115.499 646.846 115.492C646.094 115.499 645.396 115.766 644.986 116.162H644.891L645.219 113.387H649.58V112.102H643.975L643.332 117.611H644.754C645.089 117.003 645.697 116.736 646.49 116.736C647.734 116.75 648.623 117.625 648.623 118.828C648.623 120.004 647.762 120.872 646.559 120.879C645.561 120.872 644.754 120.257 644.672 119.416H643.209C643.277 120.995 644.686 122.137 646.559 122.137Z" fill="#2D2926"/>
<path d="M612.893 237.137C614.957 237.137 616.42 235.735 616.42 233.787C616.42 231.88 615.046 230.499 613.18 230.492C612.428 230.499 611.73 230.766 611.32 231.162H611.225L611.553 228.387H615.914V227.102H610.309L609.666 232.611H611.088C611.423 232.003 612.031 231.736 612.824 231.736C614.068 231.75 614.957 232.625 614.957 233.828C614.957 235.004 614.096 235.872 612.893 235.879C611.895 235.872 611.088 235.257 611.006 234.416H609.543C609.611 235.995 611.02 237.137 612.893 237.137ZM621.465 237.137C623.755 237.137 625.095 235.291 625.102 232.051C625.095 228.831 623.734 226.965 621.465 226.965C619.188 226.965 617.828 228.831 617.828 232.051C617.828 235.291 619.175 237.137 621.465 237.137ZM619.332 232.051C619.332 229.59 620.132 228.243 621.465 228.236C622.791 228.243 623.598 229.59 623.598 232.051C623.598 234.519 622.798 235.838 621.465 235.838C620.125 235.838 619.325 234.519 619.332 232.051ZM626.729 237H628.301L632.703 228.441V227.102H626.045V228.387H631.145V228.469L626.729 237Z" fill="#2D2926"/>
<path d="M612.346 332.137C614.41 332.137 615.873 330.735 615.873 328.787C615.873 326.88 614.499 325.499 612.633 325.492C611.881 325.499 611.184 325.766 610.773 326.162H610.678L611.006 323.387H615.367V322.102H609.762L609.119 327.611H610.541C610.876 327.003 611.484 326.736 612.277 326.736C613.521 326.75 614.41 327.625 614.41 328.828C614.41 330.004 613.549 330.872 612.346 330.879C611.348 330.872 610.541 330.257 610.459 329.416H608.996C609.064 330.995 610.473 332.137 612.346 332.137ZM620.918 332.137C623.208 332.137 624.548 330.291 624.555 327.051C624.548 323.831 623.188 321.965 620.918 321.965C618.642 321.965 617.281 323.831 617.281 327.051C617.281 330.291 618.628 332.137 620.918 332.137ZM618.785 327.051C618.785 324.59 619.585 323.243 620.918 323.236C622.244 323.243 623.051 324.59 623.051 327.051C623.051 329.519 622.251 330.838 620.918 330.838C619.578 330.838 618.778 329.519 618.785 327.051ZM629.572 332.137C631.691 332.137 633.202 330.975 633.209 329.361C633.202 328.09 632.286 327.051 631.131 326.873V326.818C632.129 326.586 632.819 325.684 632.826 324.604C632.819 323.079 631.438 321.965 629.572 321.965C627.679 321.965 626.305 323.079 626.305 324.604C626.305 325.684 626.981 326.586 628 326.818V326.873C626.831 327.051 625.922 328.09 625.936 329.361C625.922 330.975 627.419 332.137 629.572 332.137ZM627.467 329.252C627.446 328.233 628.342 327.488 629.572 327.488C630.789 327.488 631.678 328.233 631.678 329.252C631.678 330.223 630.857 330.893 629.572 330.893C628.267 330.893 627.446 330.223 627.467 329.252ZM627.768 324.74C627.774 323.817 628.485 323.188 629.572 323.195C630.632 323.188 631.356 323.817 631.35 324.74C631.356 325.67 630.604 326.306 629.572 326.299C628.513 326.306 627.774 325.663 627.768 324.74Z" fill="#2D2926"/>
<path d="M581.312 417.137C583.376 417.137 584.839 415.735 584.839 413.787C584.839 411.88 583.465 410.499 581.599 410.492C580.847 410.499 580.149 410.766 579.739 411.162H579.644L579.972 408.387H584.333V407.102H578.728L578.085 412.611H579.507C579.842 412.003 580.45 411.736 581.243 411.736C582.487 411.75 583.376 412.625 583.376 413.828C583.376 415.004 582.515 415.872 581.312 415.879C580.313 415.872 579.507 415.257 579.425 414.416H577.962C578.03 415.995 579.438 417.137 581.312 417.137ZM589.884 417.137C592.174 417.137 593.514 415.291 593.521 412.051C593.514 408.831 592.153 406.965 589.884 406.965C587.607 406.965 586.247 408.831 586.247 412.051C586.247 415.291 587.594 417.137 589.884 417.137ZM587.751 412.051C587.751 409.59 588.551 408.243 589.884 408.236C591.21 408.243 592.017 409.59 592.017 412.051C592.017 414.519 591.217 415.838 589.884 415.838C588.544 415.838 587.744 414.519 587.751 412.051ZM598.483 406.965C596.33 406.951 594.929 408.428 594.929 410.314C594.929 412.208 596.351 413.568 598.128 413.568C599.194 413.568 600.124 413.062 600.657 412.229H600.78C600.767 414.491 599.871 415.817 598.347 415.824C597.349 415.817 596.706 415.236 596.501 414.402H595.011C595.25 416.009 596.521 417.137 598.347 417.137C600.719 417.137 602.216 415.168 602.216 411.695C602.209 408.072 600.302 406.979 598.483 406.965ZM596.392 410.287C596.385 409.152 597.287 408.223 598.483 408.223C599.693 408.223 600.575 409.2 600.575 410.273C600.575 411.367 599.652 412.345 598.456 412.338C597.253 412.345 596.398 411.436 596.392 410.287Z" fill="#2D2926"/>
<path d="M645.535 417.137C647.6 417.137 649.062 415.735 649.062 413.787C649.062 411.88 647.688 410.499 645.822 410.492C645.07 410.499 644.373 410.766 643.963 411.162H643.867L644.195 408.387H648.557V407.102H642.951L642.309 412.611H643.73C644.065 412.003 644.674 411.736 645.467 411.736C646.711 411.75 647.6 412.625 647.6 413.828C647.6 415.004 646.738 415.872 645.535 415.879C644.537 415.872 643.73 415.257 643.648 414.416H642.186C642.254 415.995 643.662 417.137 645.535 417.137ZM654.422 407.102H652.945L650.484 408.715V410.15L652.85 408.605H652.904V417H654.422V407.102ZM660.383 417.137C662.673 417.137 664.013 415.291 664.02 412.051C664.013 408.831 662.652 406.965 660.383 406.965C658.106 406.965 656.746 408.831 656.746 412.051C656.746 415.291 658.093 417.137 660.383 417.137ZM658.25 412.051C658.25 409.59 659.05 408.243 660.383 408.236C661.709 408.243 662.516 409.59 662.516 412.051C662.516 414.519 661.716 415.838 660.383 415.838C659.043 415.838 658.243 414.519 658.25 412.051Z" fill="#2D2926"/>
<path d="M502.994 352.137C505.059 352.137 506.521 350.735 506.521 348.787C506.521 346.88 505.147 345.499 503.281 345.492C502.529 345.499 501.832 345.766 501.422 346.162H501.326L501.654 343.387H506.016V342.102H500.41L499.768 347.611H501.189C501.524 347.003 502.133 346.736 502.926 346.736C504.17 346.75 505.059 347.625 505.059 348.828C505.059 350.004 504.197 350.872 502.994 350.879C501.996 350.872 501.189 350.257 501.107 349.416H499.645C499.713 350.995 501.121 352.137 502.994 352.137ZM511.881 342.102H510.404L507.943 343.715V345.15L510.309 343.605H510.363V352H511.881V342.102ZM517.979 352.137C520.104 352.15 521.52 350.681 521.52 348.76C521.52 346.866 520.098 345.513 518.334 345.506C517.261 345.513 516.331 346.005 515.791 346.846H515.682C515.682 344.61 516.57 343.284 518.102 343.277C519.1 343.284 519.735 343.865 519.934 344.672H521.424C521.191 343.1 519.927 341.965 518.102 341.965C515.729 341.965 514.239 343.934 514.232 347.379C514.232 351.036 516.146 352.123 517.979 352.137ZM515.859 348.801C515.873 347.7 516.796 346.729 518.006 346.736C519.195 346.729 520.057 347.652 520.057 348.787C520.057 349.942 519.161 350.872 517.965 350.879C516.748 350.872 515.866 349.901 515.859 348.801Z" fill="#2D2926"/>
<path d="M502.192 473.137C504.257 473.137 505.72 471.735 505.72 469.787C505.72 467.88 504.346 466.499 502.479 466.492C501.728 466.499 501.03 466.766 500.62 467.162H500.524L500.853 464.387H505.214V463.102H499.608L498.966 468.611H500.388C500.723 468.003 501.331 467.736 502.124 467.736C503.368 467.75 504.257 468.625 504.257 469.828C504.257 471.004 503.396 471.872 502.192 471.879C501.194 471.872 500.388 471.257 500.306 470.416H498.843C498.911 471.995 500.319 473.137 502.192 473.137ZM507.319 473H513.978V471.715H509.411V471.633L511.421 469.596C513.28 467.771 513.8 466.889 513.813 465.781C513.8 464.175 512.48 462.965 510.573 462.965C508.687 462.965 507.306 464.161 507.319 465.973H508.741C508.748 464.92 509.445 464.223 510.546 464.223C511.585 464.223 512.378 464.845 512.378 465.822C512.378 466.69 511.838 467.319 510.751 468.447L507.319 471.906V473ZM519.405 463.102H517.929L515.468 464.715V466.15L517.833 464.605H517.888V473H519.405V463.102Z" fill="#2D2926"/>
<path d="M573.799 472H580.061V470.701H575.303V467.68H579.678V466.395H575.303V463.4H580.006V462.102H573.799V472ZM585.502 461.637H584.203L581.018 473.49H582.316L585.502 461.637ZM586.705 472H592.68V470.701H588.209V462.102H586.705V472Z" fill="#2D2926"/>
<path d="M468.307 473.137C470.371 473.137 471.834 471.735 471.834 469.787C471.834 467.88 470.46 466.499 468.594 466.492C467.842 466.499 467.145 466.766 466.735 467.162H466.639L466.967 464.387H471.328V463.102H465.723L465.08 468.611H466.502C466.837 468.003 467.446 467.736 468.239 467.736C469.483 467.75 470.371 468.625 470.371 469.828C470.371 471.004 469.51 471.872 468.307 471.879C467.309 471.872 466.502 471.257 466.42 470.416H464.957C465.026 471.995 466.434 473.137 468.307 473.137ZM473.294 473H479.952V471.715H475.386V471.633L477.396 469.596C479.255 467.771 479.774 466.889 479.788 465.781C479.774 464.175 478.455 462.965 476.548 462.965C474.661 462.965 473.28 464.161 473.294 465.973H474.716C474.723 464.92 475.42 464.223 476.521 464.223C477.56 464.223 478.353 464.845 478.353 465.822C478.353 466.69 477.812 467.319 476.726 468.447L473.294 471.906V473ZM481.48 473H488.138V471.715H483.572V471.633L485.582 469.596C487.441 467.771 487.961 466.889 487.974 465.781C487.961 464.175 486.641 462.965 484.734 462.965C482.847 462.965 481.466 464.161 481.48 465.973H482.902C482.909 464.92 483.606 464.223 484.707 464.223C485.746 464.223 486.539 464.845 486.539 465.822C486.539 466.69 485.999 467.319 484.912 468.447L481.48 471.906V473Z" fill="#2D2926"/>
<path d="M438.462 473.137C440.526 473.137 441.989 471.735 441.989 469.787C441.989 467.88 440.615 466.499 438.749 466.492C437.997 466.499 437.3 466.766 436.89 467.162H436.794L437.122 464.387H441.483V463.102H435.878L435.235 468.611H436.657C436.992 468.003 437.601 467.736 438.394 467.736C439.638 467.75 440.526 468.625 440.526 469.828C440.526 471.004 439.665 471.872 438.462 471.879C437.464 471.872 436.657 471.257 436.575 470.416H435.112C435.181 471.995 436.589 473.137 438.462 473.137ZM443.589 473H450.247V471.715H445.681V471.633L447.69 469.596C449.55 467.771 450.069 466.889 450.083 465.781C450.069 464.175 448.75 462.965 446.843 462.965C444.956 462.965 443.575 464.161 443.589 465.973H445.011C445.018 464.92 445.715 464.223 446.815 464.223C447.854 464.223 448.647 464.845 448.647 465.822C448.647 466.69 448.107 467.319 447.021 468.447L443.589 471.906V473ZM455.429 473.137C457.479 473.137 459.004 471.927 458.997 470.279C459.004 469.028 458.218 468.119 456.864 467.928V467.859C457.931 467.593 458.628 466.786 458.614 465.658C458.628 464.195 457.404 462.965 455.456 462.965C453.61 462.965 452.12 464.059 452.079 465.672H453.528C453.562 464.776 454.451 464.223 455.442 464.223C456.488 464.223 457.165 464.838 457.165 465.74C457.165 466.69 456.379 467.319 455.251 467.312H454.403V468.543H455.251C456.666 468.55 457.479 469.247 457.479 470.225C457.479 471.188 456.611 471.838 455.415 471.838C454.308 471.838 453.446 471.284 453.392 470.416H451.86C451.922 472.036 453.378 473.137 455.429 473.137Z" fill="#2D2926"/>
<path d="M401.996 473.137C404.061 473.137 405.523 471.735 405.523 469.787C405.523 467.88 404.149 466.499 402.283 466.492C401.531 466.499 400.834 466.766 400.424 467.162H400.328L400.656 464.387H405.018V463.102H399.412L398.77 468.611H400.191C400.526 468.003 401.135 467.736 401.928 467.736C403.172 467.75 404.061 468.625 404.061 469.828C404.061 471.004 403.199 471.872 401.996 471.879C400.998 471.872 400.191 471.257 400.109 470.416H398.646C398.715 471.995 400.123 473.137 401.996 473.137ZM407.123 473H413.781V471.715H409.215V471.633L411.225 469.596C413.084 467.771 413.604 466.889 413.617 465.781C413.604 464.175 412.284 462.965 410.377 462.965C408.49 462.965 407.109 464.161 407.123 465.973H408.545C408.552 464.92 409.249 464.223 410.35 464.223C411.389 464.223 412.182 464.845 412.182 465.822C412.182 466.69 411.642 467.319 410.555 468.447L407.123 471.906V473ZM415.012 471.072H419.824V473H421.246V471.072H422.6V469.801H421.246V463.102H419.387L415.012 469.855V471.072ZM416.598 469.801V469.719L419.715 464.893H419.824V469.801H416.598Z" fill="#2D2926"/>
<path d="M360.585 473.137C362.649 473.137 364.112 471.735 364.112 469.787C364.112 467.88 362.738 466.499 360.872 466.492C360.12 466.499 359.423 466.766 359.013 467.162H358.917L359.245 464.387H363.606V463.102H358.001L357.358 468.611H358.78C359.115 468.003 359.724 467.736 360.517 467.736C361.761 467.75 362.649 468.625 362.649 469.828C362.649 471.004 361.788 471.872 360.585 471.879C359.587 471.872 358.78 471.257 358.698 470.416H357.235C357.304 471.995 358.712 473.137 360.585 473.137ZM365.712 473H372.37V471.715H367.804V471.633L369.813 469.596C371.673 467.771 372.192 466.889 372.206 465.781C372.192 464.175 370.873 462.965 368.966 462.965C367.079 462.965 365.698 464.161 365.712 465.973H367.134C367.141 464.92 367.838 464.223 368.938 464.223C369.978 464.223 370.771 464.845 370.771 465.822C370.771 466.69 370.23 467.319 369.144 468.447L365.712 471.906V473ZM377.401 473.137C379.466 473.137 380.929 471.735 380.929 469.787C380.929 467.88 379.555 466.499 377.688 466.492C376.937 466.499 376.239 466.766 375.829 467.162H375.733L376.062 464.387H380.423V463.102H374.817L374.175 468.611H375.597C375.932 468.003 376.54 467.736 377.333 467.736C378.577 467.75 379.466 468.625 379.466 469.828C379.466 471.004 378.604 471.872 377.401 471.879C376.403 471.872 375.597 471.257 375.515 470.416H374.052C374.12 471.995 375.528 473.137 377.401 473.137Z" fill="#2D2926"/>
<path d="M317.469 473.137C319.533 473.137 320.996 471.735 320.996 469.787C320.996 467.88 319.622 466.499 317.756 466.492C317.004 466.499 316.307 466.766 315.896 467.162H315.801L316.129 464.387H320.49V463.102H314.885L314.242 468.611H315.664C315.999 468.003 316.607 467.736 317.4 467.736C318.645 467.75 319.533 468.625 319.533 469.828C319.533 471.004 318.672 471.872 317.469 471.879C316.471 471.872 315.664 471.257 315.582 470.416H314.119C314.188 471.995 315.596 473.137 317.469 473.137ZM322.596 473H329.254V471.715H324.688V471.633L326.697 469.596C328.557 467.771 329.076 466.889 329.09 465.781C329.076 464.175 327.757 462.965 325.85 462.965C323.963 462.965 322.582 464.161 322.596 465.973H324.018C324.024 464.92 324.722 464.223 325.822 464.223C326.861 464.223 327.654 464.845 327.654 465.822C327.654 466.69 327.114 467.319 326.027 468.447L322.596 471.906V473ZM334.504 473.137C336.63 473.15 338.045 471.681 338.045 469.76C338.045 467.866 336.623 466.513 334.859 466.506C333.786 466.513 332.856 467.005 332.316 467.846H332.207C332.207 465.61 333.096 464.284 334.627 464.277C335.625 464.284 336.261 464.865 336.459 465.672H337.949C337.717 464.1 336.452 462.965 334.627 462.965C332.255 462.965 330.765 464.934 330.758 468.379C330.758 472.036 332.672 473.123 334.504 473.137ZM332.385 469.801C332.398 468.7 333.321 467.729 334.531 467.736C335.721 467.729 336.582 468.652 336.582 469.787C336.582 470.942 335.687 471.872 334.49 471.879C333.273 471.872 332.392 470.901 332.385 469.801Z" fill="#2D2926"/>
<path d="M275.413 473.137C277.478 473.137 278.94 471.735 278.94 469.787C278.94 467.88 277.566 466.499 275.7 466.492C274.948 466.499 274.251 466.766 273.841 467.162H273.745L274.073 464.387H278.435V463.102H272.829L272.187 468.611H273.608C273.943 468.003 274.552 467.736 275.345 467.736C276.589 467.75 277.478 468.625 277.478 469.828C277.478 471.004 276.616 471.872 275.413 471.879C274.415 471.872 273.608 471.257 273.526 470.416H272.063C272.132 471.995 273.54 473.137 275.413 473.137ZM280.54 473H287.198V471.715H282.632V471.633L284.642 469.596C286.501 467.771 287.021 466.889 287.034 465.781C287.021 464.175 285.701 462.965 283.794 462.965C281.907 462.965 280.526 464.161 280.54 465.973H281.962C281.969 464.92 282.666 464.223 283.767 464.223C284.806 464.223 285.599 464.845 285.599 465.822C285.599 466.69 285.059 467.319 283.972 468.447L280.54 471.906V473ZM289.208 473H290.78L295.183 464.441V463.102H288.524V464.387H293.624V464.469L289.208 473Z" fill="#2D2926"/>
<path d="M233.003 473.137C235.067 473.137 236.53 471.735 236.53 469.787C236.53 467.88 235.156 466.499 233.29 466.492C232.538 466.499 231.841 466.766 231.431 467.162H231.335L231.663 464.387H236.024V463.102H230.419L229.776 468.611H231.198C231.533 468.003 232.142 467.736 232.935 467.736C234.179 467.75 235.067 468.625 235.067 469.828C235.067 471.004 234.206 471.872 233.003 471.879C232.005 471.872 231.198 471.257 231.116 470.416H229.653C229.722 471.995 231.13 473.137 233.003 473.137ZM238.13 473H244.788V471.715H240.222V471.633L242.231 469.596C244.091 467.771 244.61 466.889 244.624 465.781C244.61 464.175 243.291 462.965 241.384 462.965C239.497 462.965 238.116 464.161 238.13 465.973H239.552C239.559 464.92 240.256 464.223 241.356 464.223C242.396 464.223 243.188 464.845 243.188 465.822C243.188 466.69 242.648 467.319 241.562 468.447L238.13 471.906V473ZM249.915 473.137C252.034 473.137 253.545 471.975 253.552 470.361C253.545 469.09 252.629 468.051 251.474 467.873V467.818C252.472 467.586 253.162 466.684 253.169 465.604C253.162 464.079 251.781 462.965 249.915 462.965C248.021 462.965 246.647 464.079 246.647 465.604C246.647 466.684 247.324 467.586 248.343 467.818V467.873C247.174 468.051 246.265 469.09 246.278 470.361C246.265 471.975 247.762 473.137 249.915 473.137ZM247.81 470.252C247.789 469.233 248.685 468.488 249.915 468.488C251.132 468.488 252.021 469.233 252.021 470.252C252.021 471.223 251.2 471.893 249.915 471.893C248.609 471.893 247.789 471.223 247.81 470.252ZM248.11 465.74C248.117 464.817 248.828 464.188 249.915 464.195C250.975 464.188 251.699 464.817 251.692 465.74C251.699 466.67 250.947 467.306 249.915 467.299C248.855 467.306 248.117 466.663 248.11 465.74Z" fill="#2D2926"/>
<path d="M190.469 473.137C192.533 473.137 193.996 471.735 193.996 469.787C193.996 467.88 192.622 466.499 190.756 466.492C190.004 466.499 189.307 466.766 188.896 467.162H188.801L189.129 464.387H193.49V463.102H187.885L187.242 468.611H188.664C188.999 468.003 189.607 467.736 190.4 467.736C191.645 467.75 192.533 468.625 192.533 469.828C192.533 471.004 191.672 471.872 190.469 471.879C189.471 471.872 188.664 471.257 188.582 470.416H187.119C187.188 471.995 188.596 473.137 190.469 473.137ZM195.596 473H202.254V471.715H197.688V471.633L199.697 469.596C201.557 467.771 202.076 466.889 202.09 465.781C202.076 464.175 200.757 462.965 198.85 462.965C196.963 462.965 195.582 464.161 195.596 465.973H197.018C197.024 464.92 197.722 464.223 198.822 464.223C199.861 464.223 200.654 464.845 200.654 465.822C200.654 466.69 200.114 467.319 199.027 468.447L195.596 471.906V473ZM207.326 462.965C205.173 462.951 203.771 464.428 203.771 466.314C203.771 468.208 205.193 469.568 206.971 469.568C208.037 469.568 208.967 469.062 209.5 468.229H209.623C209.609 470.491 208.714 471.817 207.189 471.824C206.191 471.817 205.549 471.236 205.344 470.402H203.854C204.093 472.009 205.364 473.137 207.189 473.137C209.562 473.137 211.059 471.168 211.059 467.695C211.052 464.072 209.145 462.979 207.326 462.965ZM205.234 466.287C205.228 465.152 206.13 464.223 207.326 464.223C208.536 464.223 209.418 465.2 209.418 466.273C209.418 467.367 208.495 468.345 207.299 468.338C206.096 468.345 205.241 467.436 205.234 466.287Z" fill="#2D2926"/>
<path d="M662.312 122.137C664.376 122.137 665.839 120.735 665.839 118.787C665.839 116.88 664.465 115.499 662.599 115.492C661.847 115.499 661.149 115.766 660.739 116.162H660.644L660.972 113.387H665.333V112.102H659.728L659.085 117.611H660.507C660.842 117.003 661.45 116.736 662.243 116.736C663.487 116.75 664.376 117.625 664.376 118.828C664.376 120.004 663.515 120.872 662.312 120.879C661.313 120.872 660.507 120.257 660.425 119.416H658.962C659.03 120.995 660.438 122.137 662.312 122.137ZM670.884 122.137C673.174 122.137 674.514 120.291 674.521 117.051C674.514 113.831 673.153 111.965 670.884 111.965C668.607 111.965 667.247 113.831 667.247 117.051C667.247 120.291 668.594 122.137 670.884 122.137ZM668.751 117.051C668.751 114.59 669.551 113.243 670.884 113.236C672.21 113.243 673.017 114.59 673.017 117.051C673.017 119.519 672.217 120.838 670.884 120.838C669.544 120.838 668.744 119.519 668.751 117.051ZM679.661 122.137C681.787 122.15 683.202 120.681 683.202 118.76C683.202 116.866 681.78 115.513 680.017 115.506C678.943 115.513 678.014 116.005 677.474 116.846H677.364C677.364 114.61 678.253 113.284 679.784 113.277C680.782 113.284 681.418 113.865 681.616 114.672H683.106C682.874 113.1 681.609 111.965 679.784 111.965C677.412 111.965 675.922 113.934 675.915 117.379C675.915 121.036 677.829 122.123 679.661 122.137ZM677.542 118.801C677.556 117.7 678.479 116.729 679.688 116.736C680.878 116.729 681.739 117.652 681.739 118.787C681.739 119.942 680.844 120.872 679.647 120.879C678.431 120.872 677.549 119.901 677.542 118.801Z" fill="#2D2926"/>
<g clip-path="url(#clip0_12_7)">
<path d="M119.14 44.55H128.74V46.55C125.39 46.99 122.51 49.09 122.51 51.63C122.51 54.47 126.13 56.77 129.98 56.77H130.89C134.74 56.77 138.36 54.47 138.36 51.63C138.36 49.14 135.6 47.06 132.36 46.58V44.55H142V42.1H119.14V44.55ZM134.87 51.67C134.87 53.24 132.56 54.32 130.44 54.32C128.32 54.32 126 53.24 126 51.67C126 50.1 128.31 49 130.44 49C132.57 49 134.87 50.08 134.87 51.67Z" fill="#5A5B5D"/>
<path d="M162.06 43.59L165.23 43.55V34.59H162.06V43.59Z" fill="#5A5B5D"/>
<path d="M147.24 47H162.06V48.45H147.24V53C147.218 53.2531 147.248 53.508 147.329 53.7489C147.41 53.9898 147.54 54.2114 147.71 54.4C148.122 54.695 148.624 54.8366 149.13 54.8H165.23V52.33H150.55V50.82H165.23V44.59H147.23L147.24 47Z" fill="#5A5B5D"/>
<path d="M213.62 34.59H210.44V45.53H213.6L213.62 40.37H216.81V37.87H213.62V34.59Z" fill="#5A5B5D"/>
<path d="M194.99 49H210.44V54.86L213.62 54.87V46.51H194.99V49Z" fill="#5A5B5D"/>
<path d="M194.09 40.1899C194.087 40.9037 194.26 41.6073 194.593 42.2386C194.926 42.8699 195.409 43.4096 196 43.8099C197.254 44.728 198.777 45.203 200.33 45.1599C201.857 45.211 203.354 44.7342 204.57 43.8099C205.154 43.4051 205.629 42.8634 205.955 42.2324C206.281 41.6014 206.448 40.9001 206.44 40.1899C206.432 39.7425 206.337 39.301 206.16 38.8899C205.962 38.4802 205.698 38.1053 205.38 37.7799H207.89V35.3799H201.89V33.4399H198.47V35.3799H192.4V37.7799H195.13C194.791 38.0938 194.515 38.4708 194.32 38.8899C194.156 39.3031 194.077 39.7455 194.09 40.1899V40.1899ZM198.09 38.4899C198.703 38.0196 199.457 37.7695 200.23 37.7799C200.99 37.7714 201.731 38.0218 202.33 38.4899C202.618 38.6953 202.853 38.965 203.018 39.2775C203.183 39.59 203.273 39.9367 203.28 40.2899C203.269 40.6313 203.177 40.9652 203.012 41.2642C202.847 41.5632 202.613 41.8188 202.33 42.0099C201.744 42.506 200.998 42.7725 200.23 42.7599C199.45 42.775 198.69 42.5088 198.09 42.0099C197.816 41.8128 197.591 41.5549 197.434 41.2566C197.276 40.9582 197.189 40.6274 197.18 40.2899C197.19 39.9373 197.281 39.5917 197.446 39.2797C197.611 38.9677 197.845 38.6975 198.13 38.4899H198.09Z" fill="#5A5B5D"/>
<path d="M187.07 41.06H184.38V34.59H181.45V54.91L184.38 54.88V43.56H187.07V54.91L190.09 54.88V34.59H187.07V41.06Z" fill="#5A5B5D"/>
<path d="M172.49 37.08H179V34.59H169.3V48C169.279 48.243 169.323 48.4872 169.429 48.7072C169.534 48.9271 169.697 49.1146 169.9 49.25C170.336 49.4793 170.829 49.5798 171.32 49.54H179.45V47.04H172.45L172.49 37.08Z" fill="#5A5B5D"/>
<path d="M233.28 49.18L236.46 49.16L236.47 34.59H218.8V37.08H233.28V49.18Z" fill="#5A5B5D"/>
<path d="M230.16 51.2899V42.9399H227.02V51.2899H224.3V42.9399H221.18V51.2899H217.34V53.7799H238.29V51.2899H230.16Z" fill="#5A5B5D"/>
<path d="M125.79 39.93C127.576 39.5946 129.227 38.7468 130.54 37.49C131.832 38.7507 133.473 39.5939 135.25 39.91C137.001 40.3624 138.794 40.6306 140.6 40.71L141.16 38.17C139.112 38.1222 137.085 37.7405 135.16 37.04C133.4 36.39 132.16 35.3 132.16 34.35H128.86C128.86 35.2 127.63 36.35 125.86 37.04C123.941 37.7654 121.911 38.1545 119.86 38.19V38.19L120.42 40.68C122.232 40.628 124.033 40.3765 125.79 39.93V39.93Z" fill="#5A5B5D"/>
<path d="M152.15 39.43C152.975 40.5424 154.047 41.4493 155.28 42.08C156.64 42.6789 158.077 43.0829 159.55 43.28L160.17 40.75C158.145 40.5338 156.258 39.622 154.83 38.17C154.105 37.1339 153.752 35.8824 153.83 34.62H150.42C150.488 35.8981 150.11 37.16 149.35 38.19C147.92 39.6457 146.029 40.5609 144 40.78V40.78L144.6 43.25C146.025 43.0374 147.417 42.6407 148.74 42.07C150.077 41.485 151.249 40.578 152.15 39.43V39.43Z" fill="#5A5B5D"/>
<path d="M58.9001 63.55H49.7801C49.8801 63.55 50.2201 63.1101 50.3001 63.0201C50.4799 62.8244 50.647 62.6173 50.8001 62.4001C51.1934 61.865 51.5067 61.2754 51.7301 60.65C52.5192 58.5312 52.4655 56.1904 51.5801 54.1101C50.5597 52.2489 49.4311 50.4491 48.2001 48.72C46.4349 46.0993 45.5425 42.988 45.6501 39.83C45.8476 37.6941 46.7076 35.6732 48.1101 34.05H56.8901C55.7014 35.2032 54.8541 36.662 54.4412 38.2658C54.0283 39.8696 54.066 41.5563 54.5501 43.14C55.1591 44.9641 56.0499 46.6815 57.1901 48.23C58.2473 49.7249 59.1868 51.2996 60.0001 52.94C60.9002 54.9815 61.1583 57.2485 60.7401 59.44C60.5386 60.4888 60.1778 61.5005 59.6701 62.44C59.5401 62.61 59.1001 63.55 58.9001 63.55Z" fill="#00A3C9"/>
<path d="M64 54.94H79.09V30H59.18C58.3237 30.8616 57.7093 31.9335 57.3986 33.1079C57.0879 34.2822 57.0918 35.5176 57.41 36.69C57.93 38.82 59.47 40.69 60.84 42.55C63.02 45.44 65.4 48.7 64.73 52.55C64.617 53.3808 64.3705 54.1879 64 54.94V54.94Z" fill="#5AC5C4"/>
<path d="M30 30V54.94H44.89C45.4936 53.4591 45.4936 51.8009 44.89 50.32C43.45 46.8 41.11 44.9 39.81 41.84C38.56 38.93 38.42 36.28 39.48 32.46C39.7619 31.62 40.0959 30.7984 40.48 30L30 30Z" fill="#00678F"/>
<path d="M109.66 30H97.3V49.78C97.3 49.88 97.3 50.36 97.3 50.85C97.17 53.95 96.44 54.57 95.67 54.94H109.67L109.66 30Z" fill="#00A3C9"/>
<path d="M82.46 34.08V59.2C82.5006 60.2496 82.9435 61.2434 83.6969 61.9753C84.4503 62.7073 85.4565 63.1213 86.5069 63.1316C87.5572 63.1419 88.5713 62.7476 89.3389 62.0306C90.1065 61.3135 90.5688 60.3286 90.63 59.28V34.08H82.46Z" fill="#00678F"/>
</g>
<path d="M72 189.8C93.8125 189.8 108.188 176.425 108.125 157.55C108.188 140.363 96.125 128.175 79.875 128.175C70.875 128.175 63.5625 132.113 60.625 137.425H60.125L62 117.05H102.5V98.05H42.375L38.5 151.925H59.625C61.8125 147.363 65.8125 144.738 72 144.8C79.75 144.738 85.1875 150.113 85.125 158.3C85.1875 166.363 79.75 171.738 72 171.675C65.3125 171.738 59.8125 167.613 59.625 161.3H36.5C36.625 177.988 51.4375 189.8 72 189.8ZM119 188.55H142.75V152.925H178.125V133.675H142.75V117.3H182.125V98.05H119V188.55Z" fill="#2D2926"/>
<path d="M57.9141 202.792H53.4492V210.597H48.457V214.218H53.4492V221.777H57.9141V202.792ZM30.7383 218.261L33.0586 221.812C36.8555 220.511 39.4219 217.892 40.8281 214.64C42.2168 217.505 44.6602 219.825 48.1758 220.968L50.3906 217.452C45.416 215.8 43.1309 212.038 43.043 208.312H49.4062V204.726H32.0391V208.312H38.4727C38.3672 212.32 35.9766 216.503 30.7383 218.261ZM35.9766 228.667C35.9766 232.552 40.1602 234.82 46.9805 234.82C53.8184 234.82 58.002 232.552 58.0195 228.667C58.002 224.782 53.8184 222.497 46.9805 222.48C40.1602 222.497 35.9766 224.782 35.9766 228.667ZM40.4414 228.667C40.4414 226.822 42.7441 225.907 46.9805 225.925C51.2344 225.907 53.5371 226.822 53.5547 228.667C53.5371 230.495 51.2344 231.409 46.9805 231.409C42.7441 231.409 40.4414 230.495 40.4414 228.667ZM91.3477 227.402H78.8672V221.495H88.0781V204.831H83.6133V209.788H69.6562V204.831H65.1562V221.495H74.4023V227.402H62.0625V231.058H91.3477V227.402ZM69.6562 217.909V213.374H83.6133V217.909H69.6562ZM111.176 205.991H94.582V209.577H106.711C106.676 212.407 106.605 215.835 105.867 220.476L110.297 220.827C111.141 215.501 111.141 211.564 111.176 208.558V205.991ZM92.8945 224.659L93.3164 228.245C98.9238 228.281 106.166 228.157 112.758 227.05L112.477 223.71C109.523 224.097 106.342 224.325 103.195 224.448V215.167H98.7656V224.589C96.6914 224.642 94.6875 224.659 92.8945 224.659ZM113.988 234.784H118.523V219.386H122.883V215.659H118.523V202.792H113.988V234.784ZM143.273 205.64H136.031V202.616H131.566V205.64H124.289V209.191H143.273V205.64ZM125.836 216.116C125.836 219.632 129.141 222.005 133.781 222.023C138.439 222.005 141.656 219.632 141.656 216.116C141.656 212.601 138.439 210.228 133.781 210.21C129.141 210.228 125.836 212.601 125.836 216.116ZM128.121 227.788H145.172V234.784H149.672V224.202H128.121V227.788ZM130.23 216.116C130.213 214.464 131.637 213.585 133.781 213.585C135.943 213.585 137.402 214.464 137.402 216.116C137.402 217.751 135.943 218.595 133.781 218.577C131.637 218.595 130.213 217.751 130.23 216.116ZM145.172 222.866H149.672V214.745H153.996V211.089H149.672V202.792H145.172V222.866ZM173.332 205.113H156.879V208.769H168.955C168.92 210.685 168.779 213.023 168.199 216.081L172.594 216.503C173.332 212.531 173.332 209.331 173.332 207.116V205.113ZM154.98 218.823L155.367 222.409C160.939 222.392 168.428 222.269 175.09 221.038L174.844 217.804C171.838 218.243 168.586 218.49 165.387 218.63V212.495H160.922V218.771C158.795 218.823 156.773 218.823 154.98 218.823ZM159.691 234.222H182.156V230.636H164.191V224.589H159.691V234.222ZM176.566 226.734H181.172V216.292H185.039V212.531H181.172V202.792H176.566V226.734Z" fill="#2D2926"/>
<path d="M32.5156 244.652H31.0117V254.55H32.5156V244.652ZM35.8652 250.148C35.8652 248.965 36.583 248.288 37.5879 248.288C38.5723 248.288 39.1533 248.931 39.1602 250.011V254.55H40.6094V249.833C40.6162 247.994 39.6045 247.031 38.0801 247.031C36.9727 247.031 36.2412 247.543 35.8926 248.343H35.8105V247.126H34.4023V254.55H35.8652V250.148ZM45.9277 247.126H44.3281V246.484C44.3281 245.759 44.6904 245.445 45.4629 245.445C45.5928 245.445 45.8047 245.458 46.0781 245.499V244.282C45.791 244.228 45.4287 244.187 45.0801 244.187C43.7197 244.187 42.8721 244.939 42.8652 246.265V247.126H41.7168V248.288H42.8652V254.55H44.3281V248.288H45.9277V247.126ZM50.0977 254.7C52.1895 254.7 53.5566 253.169 53.5566 250.872C53.5566 248.562 52.1895 247.031 50.0977 247.031C47.9922 247.031 46.6182 248.562 46.625 250.872C46.6182 253.169 47.9922 254.7 50.0977 254.7ZM48.0879 250.872C48.0879 249.45 48.7373 248.24 50.0977 248.234C51.4375 248.24 52.0801 249.45 52.0801 250.872C52.0801 252.287 51.4375 253.484 50.0977 253.484C48.7373 253.484 48.0879 252.287 48.0879 250.872ZM54.9922 254.55H56.4551V250.025C56.4551 249.054 57.207 248.35 58.2188 248.357C58.5195 248.35 58.8613 248.411 58.9844 248.439V247.044C58.834 247.031 58.5469 247.01 58.3691 247.017C57.501 247.01 56.7559 247.509 56.4824 248.302H56.4004V247.126H54.9922V254.55ZM60.0781 254.55H61.541V249.97C61.541 248.972 62.2383 248.288 63.0586 248.288C63.8584 248.288 64.4121 248.815 64.4121 249.628V254.55H65.8613V249.82C65.8613 248.931 66.4014 248.288 67.3379 248.288C68.1035 248.288 68.7324 248.705 68.7324 249.71V254.55H70.1953V249.573C70.1885 247.871 69.2383 247.031 67.8984 247.031C66.8252 247.031 66.0186 247.543 65.6699 248.343H65.5879C65.2734 247.516 64.583 247.031 63.5918 247.031C62.6143 247.031 61.8828 247.516 61.5684 248.343H61.4863V247.126H60.0781V254.55ZM71.6172 252.458C71.6104 253.907 72.7109 254.714 74.1191 254.714C75.3496 254.714 76.0332 254.092 76.3203 253.538H76.375V254.55H77.7969V249.615C77.79 247.461 76.0674 247.031 74.8848 247.031C73.1279 247.031 71.9795 247.919 71.8496 249.15H73.2988C73.4492 248.603 73.9688 248.206 74.8301 248.206C75.8213 248.206 76.3408 248.692 76.334 249.532L76.3408 250.127C75.999 250.141 74.8848 250.202 74.3926 250.23C73.0527 250.325 71.6104 250.763 71.6172 252.458ZM73.0391 252.472C73.0391 251.74 73.6406 251.378 74.5977 251.31C74.9463 251.289 76.0059 251.214 76.3408 251.194L76.3477 251.87C76.3477 252.752 75.6367 253.545 74.4473 253.552C73.627 253.545 73.0391 253.183 73.0391 252.472ZM83.0332 247.126H81.5156V245.349H80.0664V247.126H78.9727V248.288H80.0664V252.663C80.0527 254.017 81.085 254.646 82.2266 254.646C82.6299 254.646 82.9443 254.618 83.1426 254.591V253.32C82.9375 253.34 82.6162 253.361 82.4043 253.361C81.9326 253.354 81.5225 253.203 81.5156 252.363V248.288H83.0332V247.126ZM84.4551 254.55H85.918V247.126H84.4551V254.55ZM84.2637 245.116C84.2705 245.595 84.6875 245.985 85.1934 245.978C85.6924 245.985 86.1094 245.595 86.1094 245.116C86.1094 244.638 85.6924 244.255 85.1934 244.255C84.6875 244.255 84.2705 244.638 84.2637 245.116ZM90.8398 254.7C92.9316 254.7 94.2988 253.169 94.2988 250.872C94.2988 248.562 92.9316 247.031 90.8398 247.031C88.7344 247.031 87.3604 248.562 87.3672 250.872C87.3604 253.169 88.7344 254.7 90.8398 254.7ZM88.8301 250.872C88.8301 249.45 89.4795 248.24 90.8398 248.234C92.1797 248.24 92.8223 249.45 92.8223 250.872C92.8223 252.287 92.1797 253.484 90.8398 253.484C89.4795 253.484 88.8301 252.287 88.8301 250.872ZM97.1973 250.148C97.1973 248.965 97.915 248.288 98.9199 248.288C99.9043 248.288 100.485 248.931 100.492 250.011V254.55H101.941V249.833C101.948 247.994 100.937 247.031 99.4121 247.031C98.3047 247.031 97.5732 247.543 97.2246 248.343H97.1426V247.126H95.7344V254.55H97.1973V250.148ZM112.646 247.263H114.109C114.062 245.663 112.66 244.515 110.65 244.515C108.647 244.515 107.13 245.65 107.123 247.359C107.13 248.74 108.114 249.546 109.707 249.984L110.883 250.298C111.929 250.578 112.749 250.927 112.756 251.788C112.749 252.759 111.833 253.395 110.568 253.402C109.413 253.395 108.456 252.882 108.367 251.802H106.863C106.959 253.607 108.354 254.714 110.568 254.714C112.906 254.714 114.239 253.49 114.246 251.816C114.239 250.025 112.653 249.334 111.389 249.027L110.432 248.767C109.646 248.582 108.627 248.213 108.627 247.277C108.634 246.436 109.399 245.814 110.609 245.814C111.744 245.814 112.551 246.34 112.646 247.263ZM118.881 254.7C120.631 254.7 121.772 253.641 121.93 252.198H120.508C120.323 252.998 119.708 253.463 118.881 253.456C117.657 253.463 116.871 252.458 116.871 250.831C116.871 249.252 117.678 248.254 118.881 248.247C119.804 248.254 120.357 248.835 120.508 249.532H121.93C121.772 248.029 120.549 247.031 118.854 247.031C116.762 247.031 115.401 248.61 115.408 250.872C115.401 253.108 116.714 254.7 118.881 254.7ZM123.311 254.55H124.773V247.126H123.311V254.55ZM123.119 245.116C123.126 245.595 123.543 245.985 124.049 245.978C124.548 245.985 124.965 245.595 124.965 245.116C124.965 244.638 124.548 244.255 124.049 244.255C123.543 244.255 123.126 244.638 123.119 245.116ZM129.75 254.7C131.384 254.7 132.525 253.894 132.854 252.691H131.377C131.131 253.142 130.591 253.497 129.764 253.497C128.547 253.497 127.713 252.698 127.672 251.282H132.949V250.763C132.949 248.076 131.343 247.031 129.654 247.031C127.583 247.031 126.216 248.603 126.223 250.886C126.216 253.19 127.562 254.7 129.75 254.7ZM127.679 250.189C127.74 249.143 128.499 248.227 129.668 248.234C130.782 248.227 131.514 249.061 131.514 250.189H127.679ZM135.861 250.148C135.861 248.965 136.579 248.288 137.584 248.288C138.568 248.288 139.149 248.931 139.156 250.011V254.55H140.605V249.833C140.612 247.994 139.601 247.031 138.076 247.031C136.969 247.031 136.237 247.543 135.889 248.343H135.807V247.126H134.398V254.55H135.861V250.148ZM145.527 254.7C147.277 254.7 148.419 253.641 148.576 252.198H147.154C146.97 252.998 146.354 253.463 145.527 253.456C144.304 253.463 143.518 252.458 143.518 250.831C143.518 249.252 144.324 248.254 145.527 248.247C146.45 248.254 147.004 248.835 147.154 249.532H148.576C148.419 248.029 147.195 247.031 145.5 247.031C143.408 247.031 142.048 248.61 142.055 250.872C142.048 253.108 143.36 254.7 145.527 254.7ZM153.156 254.7C154.79 254.7 155.932 253.894 156.26 252.691H154.783C154.537 253.142 153.997 253.497 153.17 253.497C151.953 253.497 151.119 252.698 151.078 251.282H156.355V250.763C156.355 248.076 154.749 247.031 153.061 247.031C150.989 247.031 149.622 248.603 149.629 250.886C149.622 253.19 150.969 254.7 153.156 254.7ZM151.085 250.189C151.146 249.143 151.905 248.227 153.074 248.234C154.188 248.227 154.92 249.061 154.92 250.189H151.085ZM161.346 254.55H165.133C167.443 254.55 168.482 253.402 168.482 251.884C168.482 250.353 167.416 249.491 166.432 249.437V249.341C167.341 249.109 168.1 248.487 168.1 247.249C168.1 245.78 167.081 244.652 164.969 244.652H161.346V254.55ZM162.85 253.265V250.107H165.051C166.24 250.107 166.992 250.865 166.992 251.816C166.992 252.636 166.418 253.258 164.996 253.265H162.85ZM162.85 248.931V245.937H164.873C166.056 245.937 166.623 246.552 166.623 247.372C166.623 248.323 165.844 248.924 164.846 248.931H162.85ZM174.689 251.46C174.689 252.725 173.753 253.32 172.939 253.32C172.051 253.32 171.436 252.677 171.436 251.665V247.126H169.973V251.843C169.973 253.682 170.984 254.646 172.42 254.646C173.534 254.646 174.293 254.058 174.635 253.265H174.717V254.55H176.139V247.126H174.689V251.46ZM177.916 254.55H179.379V247.126H177.916V254.55ZM177.725 245.116C177.731 245.595 178.148 245.985 178.654 245.978C179.153 245.985 179.57 245.595 179.57 245.116C179.57 244.638 179.153 244.255 178.654 244.255C178.148 244.255 177.731 244.638 177.725 245.116ZM182.619 244.652H181.156V254.55H182.619V244.652ZM187.172 254.7C188.525 254.694 189.059 253.873 189.332 253.388H189.441V254.55H190.863V244.652H189.4V248.329H189.332C189.065 247.865 188.566 247.031 187.186 247.031C185.401 247.031 184.068 248.439 184.068 250.859C184.068 253.251 185.381 254.694 187.172 254.7ZM185.559 250.831C185.552 249.368 186.208 248.268 187.5 248.275C188.758 248.268 189.441 249.286 189.441 250.831C189.441 252.39 188.744 253.449 187.5 253.456C186.222 253.449 185.552 252.322 185.559 250.831ZM192.764 254.55H194.227V247.126H192.764V254.55ZM192.572 245.116C192.579 245.595 192.996 245.985 193.502 245.978C194.001 245.985 194.418 245.595 194.418 245.116C194.418 244.638 194.001 244.255 193.502 244.255C192.996 244.255 192.579 244.638 192.572 245.116ZM197.467 250.148C197.467 248.965 198.185 248.288 199.189 248.288C200.174 248.288 200.755 248.931 200.762 250.011V254.55H202.211V249.833C202.218 247.994 201.206 247.031 199.682 247.031C198.574 247.031 197.843 247.543 197.494 248.343H197.412V247.126H196.004V254.55H197.467V250.148ZM207.105 257.49C209.02 257.49 210.462 256.621 210.455 254.714V247.126H209.033V248.329H208.938C208.664 247.865 208.158 247.031 206.777 247.031C204.993 247.031 203.66 248.391 203.66 250.763C203.66 253.135 205.014 254.441 206.764 254.441C208.131 254.441 208.664 253.675 208.924 253.197H209.02V254.659C209.013 255.815 208.281 256.321 207.119 256.314C206.155 256.321 205.499 255.979 205.355 255.275H203.865C203.995 256.662 205.232 257.49 207.105 257.49ZM205.15 250.79C205.144 249.368 205.8 248.268 207.092 248.275C208.35 248.268 209.033 249.286 209.033 250.79C209.033 252.322 208.336 253.231 207.092 253.238C205.813 253.231 205.144 252.246 205.15 250.79Z" fill="#2D2926"/>
<defs>
<clipPath id="clip0_12_7">
<rect width="208.29" height="33.55" fill="white" transform="translate(30 30)"/>
</clipPath>
</defs>
</svg>
