<svg width="800" height="600" viewBox="0 0 800 600" fill="none" xmlns="http://www.w3.org/2000/svg">
<path d="M394.56 94.4201H302.89V187.61H464.7V251.72H490.46V285.79L490.75 410.75V442.5H148.75V512.52H713.18V443.9H685.13V186.72H720.91V163.42H756.7V69.3201H394.56V94.4201Z" stroke="#2D2926" stroke-width="5" stroke-miterlimit="10" stroke-linecap="square"/>
<path d="M394.56 94.4201V187.61M394.56 163H687.87V69.3201M685.13 186.72H558.42M685.23 444H558.29M558 444V186.72M490.46 252H529L529 490M528.5 490H178M596.01 444H569V490H596.01M596.01 444V490M596.01 444L685.13 444V490L596.01 490M178 442.38V512.52M493.87 69.3201V163M558 69.3201V163M558.19 378.77H685.13M647.66 444.5V489.58M665.73 444V489.57M490.75 444H528M472 442.09V490M430.96 442.38V490M367.11 442.09V489.5M336 442.38V490M304 442.38V490M272 442.09V490M240.93 490V442.12M622 163V69.3201M559 248.05H658.67V378.77M558.19 312H658.67M622 186.72V247M622 443.9V378.77M399.03 441.11V489.57M209 490V442.52M685.13 443.9H713.19V512.51H685.13V443.9Z" stroke="#2D2926" stroke-width="2" stroke-miterlimit="10" stroke-linecap="square"/>
<path d="M466.5 187H495.5M524.5 187H521.75M495.5 187V207M495.5 187H498.5M495.5 207V213.5L486 211.862M495.5 207C495.681 207 496.788 207 498.5 207M486 211.862L466.5 208.5V221.5H486M486 211.862H466.5M486 211.862V215.5M498.5 187V207M498.5 187H501.5M498.5 207C499.361 207 500.374 207 501.5 207M501.5 187V207M501.5 187H504.5M501.5 207C502.431 207 503.439 207 504.5 207M504.5 187V207M504.5 187H507.5M504.5 207C505.462 207 506.467 207 507.5 207M507.5 187V207M507.5 187H510M507.5 207C508.319 207 509.155 207 510 207M510 187V207M510 187H513M510 207C510.993 207 511.997 207 513 207M513 187V207M513 187H516M513 207C514.007 207 515.011 207 516 207M516 187V207M516 187H519M516 207C517.022 207 518.028 207 519 207M519 187V207M519 187H521.75M519 207C519.953 207 520.874 207 521.75 207M521.75 187V207M521.75 207C522.731 207 523.655 207 524.5 207V232H524M466.5 215.5H486M486 215.5V218.5M466.5 218.5H486M486 218.5V221.5M486 221.5V224.5M486 224.5H466.5M486 224.5V227.5M486 227.5H466.5M486 227.5V230.5M486 230.5V232H489M486 230.5H466.5M489 232V250.5M489 232H492M492 232H495M492 232V249M492 250.5V249M495 232V249M495 232H498M492 249H498M498 249V252M498 249V232M498 232H501M501 232V252M501 232H503.5M503.5 232V252M503.5 232H506.5M506.5 232V252M506.5 232H509.5M509.5 232V252M509.5 232H512M512 232V252M512 232H515M515 232V252M515 232H518M518 232V252M518 232H521M521 232V252M521 232H524M524 232V252" stroke="#2D2926"/>
<path d="M437.638 122.137C439.764 122.15 441.179 120.681 441.179 118.76C441.179 116.866 439.757 115.513 437.993 115.506C436.92 115.513 435.99 116.005 435.45 116.846H435.341C435.341 114.61 436.229 113.284 437.761 113.277C438.759 113.284 439.395 113.865 439.593 114.672H441.083C440.851 113.1 439.586 111.965 437.761 111.965C435.389 111.965 433.898 113.934 433.892 117.379C433.892 121.036 435.806 122.123 437.638 122.137ZM435.519 118.801C435.532 117.7 436.455 116.729 437.665 116.736C438.854 116.729 439.716 117.652 439.716 118.787C439.716 119.942 438.82 120.872 437.624 120.879C436.407 120.872 435.525 119.901 435.519 118.801ZM446.224 122.137C448.514 122.137 449.854 120.291 449.86 117.051C449.854 113.831 448.493 111.965 446.224 111.965C443.947 111.965 442.587 113.831 442.587 117.051C442.587 120.291 443.934 122.137 446.224 122.137ZM444.091 117.051C444.091 114.59 444.891 113.243 446.224 113.236C447.55 113.243 448.356 114.59 448.356 117.051C448.356 119.519 447.557 120.838 446.224 120.838C444.884 120.838 444.084 119.519 444.091 117.051ZM455.179 112.102H453.702L451.241 113.715V115.15L453.606 113.605H453.661V122H455.179V112.102Z" fill="#2D2926"/>
<path d="M517.612 122.137C519.738 122.15 521.153 120.681 521.153 118.76C521.153 116.866 519.731 115.513 517.968 115.506C516.895 115.513 515.965 116.005 515.425 116.846H515.315C515.315 114.61 516.204 113.284 517.735 113.277C518.733 113.284 519.369 113.865 519.567 114.672H521.058C520.825 113.1 519.561 111.965 517.735 111.965C515.363 111.965 513.873 113.934 513.866 117.379C513.866 121.036 515.78 122.123 517.612 122.137ZM515.493 118.801C515.507 117.7 516.43 116.729 517.64 116.736C518.829 116.729 519.69 117.652 519.69 118.787C519.69 119.942 518.795 120.872 517.599 120.879C516.382 120.872 515.5 119.901 515.493 118.801ZM526.198 122.137C528.488 122.137 529.828 120.291 529.835 117.051C529.828 113.831 528.468 111.965 526.198 111.965C523.922 111.965 522.562 113.831 522.562 117.051C522.562 120.291 523.908 122.137 526.198 122.137ZM524.065 117.051C524.065 114.59 524.865 113.243 526.198 113.236C527.524 113.243 528.331 114.59 528.331 117.051C528.331 119.519 527.531 120.838 526.198 120.838C524.858 120.838 524.059 119.519 524.065 117.051ZM531.394 122H538.052V120.715H533.485V120.633L535.495 118.596C537.354 116.771 537.874 115.889 537.888 114.781C537.874 113.175 536.555 111.965 534.647 111.965C532.761 111.965 531.38 113.161 531.394 114.973H532.815C532.822 113.92 533.52 113.223 534.62 113.223C535.659 113.223 536.452 113.845 536.452 114.822C536.452 115.69 535.912 116.319 534.825 117.447L531.394 120.906V122Z" fill="#2D2926"/>
<path d="M581.407 122.137C583.533 122.15 584.948 120.681 584.948 118.76C584.948 116.866 583.526 115.513 581.763 115.506C580.689 115.513 579.76 116.005 579.22 116.846H579.11C579.11 114.61 579.999 113.284 581.53 113.277C582.528 113.284 583.164 113.865 583.362 114.672H584.853C584.62 113.1 583.355 111.965 581.53 111.965C579.158 111.965 577.668 113.934 577.661 117.379C577.661 121.036 579.575 122.123 581.407 122.137ZM579.288 118.801C579.302 117.7 580.225 116.729 581.435 116.736C582.624 116.729 583.485 117.652 583.485 118.787C583.485 119.942 582.59 120.872 581.394 120.879C580.177 120.872 579.295 119.901 579.288 118.801ZM589.993 122.137C592.283 122.137 593.623 120.291 593.63 117.051C593.623 113.831 592.263 111.965 589.993 111.965C587.717 111.965 586.356 113.831 586.356 117.051C586.356 120.291 587.703 122.137 589.993 122.137ZM587.86 117.051C587.86 114.59 588.66 113.243 589.993 113.236C591.319 113.243 592.126 114.59 592.126 117.051C592.126 119.519 591.326 120.838 589.993 120.838C588.653 120.838 587.854 119.519 587.86 117.051ZM598.702 122.137C600.753 122.137 602.277 120.927 602.271 119.279C602.277 118.028 601.491 117.119 600.138 116.928V116.859C601.204 116.593 601.901 115.786 601.888 114.658C601.901 113.195 600.678 111.965 598.729 111.965C596.884 111.965 595.394 113.059 595.353 114.672H596.802C596.836 113.776 597.725 113.223 598.716 113.223C599.762 113.223 600.438 113.838 600.438 114.74C600.438 115.69 599.652 116.319 598.524 116.312H597.677V117.543H598.524C599.939 117.55 600.753 118.247 600.753 119.225C600.753 120.188 599.885 120.838 598.688 120.838C597.581 120.838 596.72 120.284 596.665 119.416H595.134C595.195 121.036 596.651 122.137 598.702 122.137Z" fill="#2D2926"/>
<path d="M646.332 122.137C648.458 122.15 649.873 120.681 649.873 118.76C649.873 116.866 648.451 115.513 646.688 115.506C645.614 115.513 644.685 116.005 644.145 116.846H644.035C644.035 114.61 644.924 113.284 646.455 113.277C647.453 113.284 648.089 113.865 648.287 114.672H649.777C649.545 113.1 648.28 111.965 646.455 111.965C644.083 111.965 642.593 113.934 642.586 117.379C642.586 121.036 644.5 122.123 646.332 122.137ZM644.213 118.801C644.227 117.7 645.149 116.729 646.359 116.736C647.549 116.729 648.41 117.652 648.41 118.787C648.41 119.942 647.515 120.872 646.318 120.879C645.102 120.872 644.22 119.901 644.213 118.801ZM654.918 122.137C657.208 122.137 658.548 120.291 658.555 117.051C658.548 113.831 657.188 111.965 654.918 111.965C652.642 111.965 651.281 113.831 651.281 117.051C651.281 120.291 652.628 122.137 654.918 122.137ZM652.785 117.051C652.785 114.59 653.585 113.243 654.918 113.236C656.244 113.243 657.051 114.59 657.051 117.051C657.051 119.519 656.251 120.838 654.918 120.838C653.578 120.838 652.778 119.519 652.785 117.051ZM659.895 120.072H664.707V122H666.129V120.072H667.482V118.801H666.129V112.102H664.27L659.895 118.855V120.072ZM661.48 118.801V118.719L664.598 113.893H664.707V118.801H661.48Z" fill="#2D2926"/>
<path d="M581.53 223.137C583.656 223.15 585.071 221.681 585.071 219.76C585.071 217.866 583.649 216.513 581.886 216.506C580.812 216.513 579.883 217.005 579.343 217.846H579.233C579.233 215.61 580.122 214.284 581.653 214.277C582.651 214.284 583.287 214.865 583.485 215.672H584.976C584.743 214.1 583.479 212.965 581.653 212.965C579.281 212.965 577.791 214.934 577.784 218.379C577.784 222.036 579.698 223.123 581.53 223.137ZM579.411 219.801C579.425 218.7 580.348 217.729 581.558 217.736C582.747 217.729 583.608 218.652 583.608 219.787C583.608 220.942 582.713 221.872 581.517 221.879C580.3 221.872 579.418 220.901 579.411 219.801ZM590.116 223.137C592.406 223.137 593.746 221.291 593.753 218.051C593.746 214.831 592.386 212.965 590.116 212.965C587.84 212.965 586.479 214.831 586.479 218.051C586.479 221.291 587.826 223.137 590.116 223.137ZM587.983 218.051C587.983 215.59 588.783 214.243 590.116 214.236C591.442 214.243 592.249 215.59 592.249 218.051C592.249 220.519 591.449 221.838 590.116 221.838C588.776 221.838 587.977 220.519 587.983 218.051ZM598.675 223.137C600.739 223.137 602.202 221.735 602.202 219.787C602.202 217.88 600.828 216.499 598.962 216.492C598.21 216.499 597.513 216.766 597.103 217.162H597.007L597.335 214.387H601.696V213.102H596.091L595.448 218.611H596.87C597.205 218.003 597.813 217.736 598.606 217.736C599.851 217.75 600.739 218.625 600.739 219.828C600.739 221.004 599.878 221.872 598.675 221.879C597.677 221.872 596.87 221.257 596.788 220.416H595.325C595.394 221.995 596.802 223.137 598.675 223.137Z" fill="#2D2926"/>
<path d="M645.713 223.137C647.839 223.15 649.254 221.681 649.254 219.76C649.254 217.866 647.832 216.513 646.068 216.506C644.995 216.513 644.065 217.005 643.525 217.846H643.416C643.416 215.61 644.305 214.284 645.836 214.277C646.834 214.284 647.47 214.865 647.668 215.672H649.158C648.926 214.1 647.661 212.965 645.836 212.965C643.464 212.965 641.974 214.934 641.967 218.379C641.967 222.036 643.881 223.123 645.713 223.137ZM643.594 219.801C643.607 218.7 644.53 217.729 645.74 217.736C646.93 217.729 647.791 218.652 647.791 219.787C647.791 220.942 646.896 221.872 645.699 221.879C644.482 221.872 643.601 220.901 643.594 219.801ZM654.613 213.102H653.137L650.676 214.715V216.15L653.041 214.605H653.096V223H654.613V213.102ZM660.492 223.137C662.557 223.137 664.02 221.735 664.02 219.787C664.02 217.88 662.646 216.499 660.779 216.492C660.027 216.499 659.33 216.766 658.92 217.162H658.824L659.152 214.387H663.514V213.102H657.908L657.266 218.611H658.688C659.022 218.003 659.631 217.736 660.424 217.736C661.668 217.75 662.557 218.625 662.557 219.828C662.557 221.004 661.695 221.872 660.492 221.879C659.494 221.872 658.688 221.257 658.605 220.416H657.143C657.211 221.995 658.619 223.137 660.492 223.137Z" fill="#2D2926"/>
<path d="M599.914 285.137C602.04 285.15 603.455 283.681 603.455 281.76C603.455 279.866 602.033 278.513 600.27 278.506C599.196 278.513 598.267 279.005 597.727 279.846H597.617C597.617 277.61 598.506 276.284 600.037 276.277C601.035 276.284 601.671 276.865 601.869 277.672H603.359C603.127 276.1 601.862 274.965 600.037 274.965C597.665 274.965 596.175 276.934 596.168 280.379C596.168 284.036 598.082 285.123 599.914 285.137ZM597.795 281.801C597.809 280.7 598.731 279.729 599.941 279.736C601.131 279.729 601.992 280.652 601.992 281.787C601.992 282.942 601.097 283.872 599.9 283.879C598.684 283.872 597.802 282.901 597.795 281.801ZM608.5 285.137C610.79 285.137 612.13 283.291 612.137 280.051C612.13 276.831 610.77 274.965 608.5 274.965C606.224 274.965 604.863 276.831 604.863 280.051C604.863 283.291 606.21 285.137 608.5 285.137ZM606.367 280.051C606.367 277.59 607.167 276.243 608.5 276.236C609.826 276.243 610.633 277.59 610.633 280.051C610.633 282.519 609.833 283.838 608.5 283.838C607.16 283.838 606.36 282.519 606.367 280.051ZM617.277 285.137C619.403 285.15 620.818 283.681 620.818 281.76C620.818 279.866 619.396 278.513 617.633 278.506C616.56 278.513 615.63 279.005 615.09 279.846H614.98C614.98 277.61 615.869 276.284 617.4 276.277C618.398 276.284 619.034 276.865 619.232 277.672H620.723C620.49 276.1 619.226 274.965 617.4 274.965C615.028 274.965 613.538 276.934 613.531 280.379C613.531 284.036 615.445 285.123 617.277 285.137ZM615.158 281.801C615.172 280.7 616.095 279.729 617.305 279.736C618.494 279.729 619.355 280.652 619.355 281.787C619.355 282.942 618.46 283.872 617.264 283.879C616.047 283.872 615.165 282.901 615.158 281.801Z" fill="#2D2926"/>
<path d="M600.495 351.137C602.621 351.15 604.036 349.681 604.036 347.76C604.036 345.866 602.614 344.513 600.851 344.506C599.777 344.513 598.848 345.005 598.308 345.846H598.198C598.198 343.61 599.087 342.284 600.618 342.277C601.616 342.284 602.252 342.865 602.45 343.672H603.94C603.708 342.1 602.443 340.965 600.618 340.965C598.246 340.965 596.756 342.934 596.749 346.379C596.749 350.036 598.663 351.123 600.495 351.137ZM598.376 347.801C598.39 346.7 599.312 345.729 600.522 345.736C601.712 345.729 602.573 346.652 602.573 347.787C602.573 348.942 601.678 349.872 600.481 349.879C599.265 349.872 598.383 348.901 598.376 347.801ZM609.081 351.137C611.371 351.137 612.711 349.291 612.718 346.051C612.711 342.831 611.351 340.965 609.081 340.965C606.805 340.965 605.444 342.831 605.444 346.051C605.444 349.291 606.791 351.137 609.081 351.137ZM606.948 346.051C606.948 343.59 607.748 342.243 609.081 342.236C610.407 342.243 611.214 343.59 611.214 346.051C611.214 348.519 610.414 349.838 609.081 349.838C607.741 349.838 606.941 348.519 606.948 346.051ZM614.345 351H615.917L620.319 342.441V341.102H613.661V342.387H618.761V342.469L614.345 351Z" fill="#2D2926"/>
<path d="M581.448 417.137C583.574 417.15 584.989 415.681 584.989 413.76C584.989 411.866 583.567 410.513 581.804 410.506C580.73 410.513 579.801 411.005 579.261 411.846H579.151C579.151 409.61 580.04 408.284 581.571 408.277C582.569 408.284 583.205 408.865 583.403 409.672H584.894C584.661 408.1 583.396 406.965 581.571 406.965C579.199 406.965 577.709 408.934 577.702 412.379C577.702 416.036 579.616 417.123 581.448 417.137ZM579.329 413.801C579.343 412.7 580.266 411.729 581.476 411.736C582.665 411.729 583.526 412.652 583.526 413.787C583.526 414.942 582.631 415.872 581.435 415.879C580.218 415.872 579.336 414.901 579.329 413.801ZM590.034 417.137C592.324 417.137 593.664 415.291 593.671 412.051C593.664 408.831 592.304 406.965 590.034 406.965C587.758 406.965 586.397 408.831 586.397 412.051C586.397 415.291 587.744 417.137 590.034 417.137ZM587.901 412.051C587.901 409.59 588.701 408.243 590.034 408.236C591.36 408.243 592.167 409.59 592.167 412.051C592.167 414.519 591.367 415.838 590.034 415.838C588.694 415.838 587.895 414.519 587.901 412.051ZM598.688 417.137C600.808 417.137 602.318 415.975 602.325 414.361C602.318 413.09 601.402 412.051 600.247 411.873V411.818C601.245 411.586 601.936 410.684 601.942 409.604C601.936 408.079 600.555 406.965 598.688 406.965C596.795 406.965 595.421 408.079 595.421 409.604C595.421 410.684 596.098 411.586 597.116 411.818V411.873C595.947 412.051 595.038 413.09 595.052 414.361C595.038 415.975 596.535 417.137 598.688 417.137ZM596.583 414.252C596.562 413.233 597.458 412.488 598.688 412.488C599.905 412.488 600.794 413.233 600.794 414.252C600.794 415.223 599.974 415.893 598.688 415.893C597.383 415.893 596.562 415.223 596.583 414.252ZM596.884 409.74C596.891 408.817 597.602 408.188 598.688 408.195C599.748 408.188 600.473 408.817 600.466 409.74C600.473 410.67 599.721 411.306 598.688 411.299C597.629 411.306 596.891 410.663 596.884 409.74Z" fill="#2D2926"/>
<path d="M573.299 472H579.561V470.701H574.803V467.68H579.178V466.395H574.803V463.4H579.506V462.102H573.299V472ZM585.002 461.637H583.703L580.518 473.49H581.816L585.002 461.637ZM586.205 472H592.18V470.701H587.709V462.102H586.205V472Z" fill="#2D2926"/>
<path d="M493.295 472.137C495.421 472.15 496.836 470.681 496.836 468.76C496.836 466.866 495.414 465.513 493.65 465.506C492.577 465.513 491.647 466.005 491.107 466.846H490.998C490.998 464.61 491.887 463.284 493.418 463.277C494.416 463.284 495.052 463.865 495.25 464.672H496.74C496.508 463.1 495.243 461.965 493.418 461.965C491.046 461.965 489.556 463.934 489.549 467.379C489.549 471.036 491.463 472.123 493.295 472.137ZM491.176 468.801C491.189 467.7 492.112 466.729 493.322 466.736C494.512 466.729 495.373 467.652 495.373 468.787C495.373 469.942 494.478 470.872 493.281 470.879C492.064 470.872 491.183 469.901 491.176 468.801ZM498.436 472H505.094V470.715H500.527V470.633L502.537 468.596C504.396 466.771 504.916 465.889 504.93 464.781C504.916 463.175 503.597 461.965 501.689 461.965C499.803 461.965 498.422 463.161 498.436 464.973H499.857C499.864 463.92 500.562 463.223 501.662 463.223C502.701 463.223 503.494 463.845 503.494 464.822C503.494 465.69 502.954 466.319 501.867 467.447L498.436 470.906V472ZM510.521 462.102H509.045L506.584 463.715V465.15L508.949 463.605H509.004V472H510.521V462.102Z" fill="#2D2926"/>
<path d="M443.27 472.137C445.396 472.15 446.811 470.681 446.811 468.76C446.811 466.866 445.389 465.513 443.625 465.506C442.552 465.513 441.622 466.005 441.082 466.846H440.973C440.973 464.61 441.861 463.284 443.393 463.277C444.391 463.284 445.026 463.865 445.225 464.672H446.715C446.482 463.1 445.218 461.965 443.393 461.965C441.021 461.965 439.53 463.934 439.523 467.379C439.523 471.036 441.438 472.123 443.27 472.137ZM441.15 468.801C441.164 467.7 442.087 466.729 443.297 466.736C444.486 466.729 445.348 467.652 445.348 468.787C445.348 469.942 444.452 470.872 443.256 470.879C442.039 470.872 441.157 469.901 441.15 468.801ZM448.41 472H455.068V470.715H450.502V470.633L452.512 468.596C454.371 466.771 454.891 465.889 454.904 464.781C454.891 463.175 453.571 461.965 451.664 461.965C449.777 461.965 448.396 463.161 448.41 464.973H449.832C449.839 463.92 450.536 463.223 451.637 463.223C452.676 463.223 453.469 463.845 453.469 464.822C453.469 465.69 452.929 466.319 451.842 467.447L448.41 470.906V472ZM456.736 472H463.395V470.715H458.828V470.633L460.838 468.596C462.697 466.771 463.217 465.889 463.23 464.781C463.217 463.175 461.897 461.965 459.99 461.965C458.104 461.965 456.723 463.161 456.736 464.973H458.158C458.165 463.92 458.862 463.223 459.963 463.223C461.002 463.223 461.795 463.845 461.795 464.822C461.795 465.69 461.255 466.319 460.168 467.447L456.736 470.906V472Z" fill="#2D2926"/>
<path d="M406.564 472.137C408.69 472.15 410.105 470.681 410.105 468.76C410.105 466.866 408.684 465.513 406.92 465.506C405.847 465.513 404.917 466.005 404.377 466.846H404.268C404.268 464.61 405.156 463.284 406.688 463.277C407.686 463.284 408.321 463.865 408.52 464.672H410.01C409.777 463.1 408.513 461.965 406.688 461.965C404.315 461.965 402.825 463.934 402.818 467.379C402.818 471.036 404.732 472.123 406.564 472.137ZM404.445 468.801C404.459 467.7 405.382 466.729 406.592 466.736C407.781 466.729 408.643 467.652 408.643 468.787C408.643 469.942 407.747 470.872 406.551 470.879C405.334 470.872 404.452 469.901 404.445 468.801ZM411.705 472H418.363V470.715H413.797V470.633L415.807 468.596C417.666 466.771 418.186 465.889 418.199 464.781C418.186 463.175 416.866 461.965 414.959 461.965C413.072 461.965 411.691 463.161 411.705 464.973H413.127C413.134 463.92 413.831 463.223 414.932 463.223C415.971 463.223 416.764 463.845 416.764 464.822C416.764 465.69 416.224 466.319 415.137 467.447L411.705 470.906V472ZM423.545 472.137C425.596 472.137 427.12 470.927 427.113 469.279C427.12 468.028 426.334 467.119 424.98 466.928V466.859C426.047 466.593 426.744 465.786 426.73 464.658C426.744 463.195 425.521 461.965 423.572 461.965C421.727 461.965 420.236 463.059 420.195 464.672H421.645C421.679 463.776 422.567 463.223 423.559 463.223C424.604 463.223 425.281 463.838 425.281 464.74C425.281 465.69 424.495 466.319 423.367 466.312H422.52V467.543H423.367C424.782 467.55 425.596 468.247 425.596 469.225C425.596 470.188 424.728 470.838 423.531 470.838C422.424 470.838 421.562 470.284 421.508 469.416H419.977C420.038 471.036 421.494 472.137 423.545 472.137Z" fill="#2D2926"/>
<path d="M374.599 472.137C376.725 472.15 378.14 470.681 378.14 468.76C378.14 466.866 376.718 465.513 374.954 465.506C373.881 465.513 372.951 466.005 372.411 466.846H372.302C372.302 464.61 373.19 463.284 374.722 463.277C375.72 463.284 376.355 463.865 376.554 464.672H378.044C377.812 463.1 376.547 461.965 374.722 461.965C372.35 461.965 370.859 463.934 370.853 467.379C370.853 471.036 372.767 472.123 374.599 472.137ZM372.479 468.801C372.493 467.7 373.416 466.729 374.626 466.736C375.815 466.729 376.677 467.652 376.677 468.787C376.677 469.942 375.781 470.872 374.585 470.879C373.368 470.872 372.486 469.901 372.479 468.801ZM379.739 472H386.397V470.715H381.831V470.633L383.841 468.596C385.7 466.771 386.22 465.889 386.233 464.781C386.22 463.175 384.9 461.965 382.993 461.965C381.106 461.965 379.726 463.161 379.739 464.973H381.161C381.168 463.92 381.865 463.223 382.966 463.223C384.005 463.223 384.798 463.845 384.798 464.822C384.798 465.69 384.258 466.319 383.171 467.447L379.739 470.906V472ZM387.628 470.072H392.44V472H393.862V470.072H395.216V468.801H393.862V462.102H392.003L387.628 468.855V470.072ZM389.214 468.801V468.719L392.331 463.893H392.44V468.801H389.214Z" fill="#2D2926"/>
<path d="M343.188 472.137C345.313 472.15 346.729 470.681 346.729 468.76C346.729 466.866 345.307 465.513 343.543 465.506C342.47 465.513 341.54 466.005 341 466.846H340.891C340.891 464.61 341.779 463.284 343.311 463.277C344.309 463.284 344.944 463.865 345.143 464.672H346.633C346.4 463.1 345.136 461.965 343.311 461.965C340.938 461.965 339.448 463.934 339.441 467.379C339.441 471.036 341.355 472.123 343.188 472.137ZM341.068 468.801C341.082 467.7 342.005 466.729 343.215 466.736C344.404 466.729 345.266 467.652 345.266 468.787C345.266 469.942 344.37 470.872 343.174 470.879C341.957 470.872 341.075 469.901 341.068 468.801ZM348.328 472H354.986V470.715H350.42V470.633L352.43 468.596C354.289 466.771 354.809 465.889 354.822 464.781C354.809 463.175 353.489 461.965 351.582 461.965C349.695 461.965 348.314 463.161 348.328 464.973H349.75C349.757 463.92 350.454 463.223 351.555 463.223C352.594 463.223 353.387 463.845 353.387 464.822C353.387 465.69 352.847 466.319 351.76 467.447L348.328 470.906V472ZM360.018 472.137C362.082 472.137 363.545 470.735 363.545 468.787C363.545 466.88 362.171 465.499 360.305 465.492C359.553 465.499 358.855 465.766 358.445 466.162H358.35L358.678 463.387H363.039V462.102H357.434L356.791 467.611H358.213C358.548 467.003 359.156 466.736 359.949 466.736C361.193 466.75 362.082 467.625 362.082 468.828C362.082 470.004 361.221 470.872 360.018 470.879C359.02 470.872 358.213 470.257 358.131 469.416H356.668C356.736 470.995 358.145 472.137 360.018 472.137Z" fill="#2D2926"/>
<path d="M311.571 472.137C313.697 472.15 315.112 470.681 315.112 468.76C315.112 466.866 313.69 465.513 311.927 465.506C310.854 465.513 309.924 466.005 309.384 466.846H309.274C309.274 464.61 310.163 463.284 311.694 463.277C312.692 463.284 313.328 463.865 313.526 464.672H315.017C314.784 463.1 313.52 461.965 311.694 461.965C309.322 461.965 307.832 463.934 307.825 467.379C307.825 471.036 309.739 472.123 311.571 472.137ZM309.452 468.801C309.466 467.7 310.389 466.729 311.599 466.736C312.788 466.729 313.649 467.652 313.649 468.787C313.649 469.942 312.754 470.872 311.558 470.879C310.341 470.872 309.459 469.901 309.452 468.801ZM316.712 472H323.37V470.715H318.804V470.633L320.813 468.596C322.673 466.771 323.192 465.889 323.206 464.781C323.192 463.175 321.873 461.965 319.966 461.965C318.079 461.965 316.698 463.161 316.712 464.973H318.134C318.141 463.92 318.838 463.223 319.938 463.223C320.978 463.223 321.771 463.845 321.771 464.822C321.771 465.69 321.23 466.319 320.144 467.447L316.712 470.906V472ZM328.62 472.137C330.746 472.15 332.161 470.681 332.161 468.76C332.161 466.866 330.739 465.513 328.976 465.506C327.902 465.513 326.973 466.005 326.433 466.846H326.323C326.323 464.61 327.212 463.284 328.743 463.277C329.741 463.284 330.377 463.865 330.575 464.672H332.065C331.833 463.1 330.568 461.965 328.743 461.965C326.371 461.965 324.881 463.934 324.874 467.379C324.874 471.036 326.788 472.123 328.62 472.137ZM326.501 468.801C326.515 467.7 327.438 466.729 328.647 466.736C329.837 466.729 330.698 467.652 330.698 468.787C330.698 469.942 329.803 470.872 328.606 470.879C327.39 470.872 326.508 469.901 326.501 468.801Z" fill="#2D2926"/>
<path d="M280.016 472.137C282.142 472.15 283.557 470.681 283.557 468.76C283.557 466.866 282.135 465.513 280.371 465.506C279.298 465.513 278.368 466.005 277.828 466.846H277.719C277.719 464.61 278.607 463.284 280.139 463.277C281.137 463.284 281.772 463.865 281.971 464.672H283.461C283.229 463.1 281.964 461.965 280.139 461.965C277.767 461.965 276.276 463.934 276.27 467.379C276.27 471.036 278.184 472.123 280.016 472.137ZM277.896 468.801C277.91 467.7 278.833 466.729 280.043 466.736C281.232 466.729 282.094 467.652 282.094 468.787C282.094 469.942 281.198 470.872 280.002 470.879C278.785 470.872 277.903 469.901 277.896 468.801ZM285.156 472H291.814V470.715H287.248V470.633L289.258 468.596C291.117 466.771 291.637 465.889 291.65 464.781C291.637 463.175 290.317 461.965 288.41 461.965C286.523 461.965 285.143 463.161 285.156 464.973H286.578C286.585 463.92 287.282 463.223 288.383 463.223C289.422 463.223 290.215 463.845 290.215 464.822C290.215 465.69 289.675 466.319 288.588 467.447L285.156 470.906V472ZM293.824 472H295.396L299.799 463.441V462.102H293.141V463.387H298.24V463.469L293.824 472Z" fill="#2D2926"/>
<path d="M248.105 472.137C250.231 472.15 251.646 470.681 251.646 468.76C251.646 466.866 250.225 465.513 248.461 465.506C247.388 465.513 246.458 466.005 245.918 466.846H245.809C245.809 464.61 246.697 463.284 248.229 463.277C249.227 463.284 249.862 463.865 250.061 464.672H251.551C251.318 463.1 250.054 461.965 248.229 461.965C245.856 461.965 244.366 463.934 244.359 467.379C244.359 471.036 246.273 472.123 248.105 472.137ZM245.986 468.801C246 467.7 246.923 466.729 248.133 466.736C249.322 466.729 250.184 467.652 250.184 468.787C250.184 469.942 249.288 470.872 248.092 470.879C246.875 470.872 245.993 469.901 245.986 468.801ZM253.246 472H259.904V470.715H255.338V470.633L257.348 468.596C259.207 466.771 259.727 465.889 259.74 464.781C259.727 463.175 258.407 461.965 256.5 461.965C254.613 461.965 253.232 463.161 253.246 464.973H254.668C254.675 463.92 255.372 463.223 256.473 463.223C257.512 463.223 258.305 463.845 258.305 464.822C258.305 465.69 257.765 466.319 256.678 467.447L253.246 470.906V472ZM265.031 472.137C267.15 472.137 268.661 470.975 268.668 469.361C268.661 468.09 267.745 467.051 266.59 466.873V466.818C267.588 466.586 268.278 465.684 268.285 464.604C268.278 463.079 266.897 461.965 265.031 461.965C263.138 461.965 261.764 463.079 261.764 464.604C261.764 465.684 262.44 466.586 263.459 466.818V466.873C262.29 467.051 261.381 468.09 261.395 469.361C261.381 470.975 262.878 472.137 265.031 472.137ZM262.926 469.252C262.905 468.233 263.801 467.488 265.031 467.488C266.248 467.488 267.137 468.233 267.137 469.252C267.137 470.223 266.316 470.893 265.031 470.893C263.726 470.893 262.905 470.223 262.926 469.252ZM263.227 464.74C263.233 463.817 263.944 463.188 265.031 463.195C266.091 463.188 266.815 463.817 266.809 464.74C266.815 465.67 266.063 466.306 265.031 466.299C263.972 466.306 263.233 465.663 263.227 464.74Z" fill="#2D2926"/>
<path d="M216.571 472.137C218.697 472.15 220.112 470.681 220.112 468.76C220.112 466.866 218.69 465.513 216.927 465.506C215.854 465.513 214.924 466.005 214.384 466.846H214.274C214.274 464.61 215.163 463.284 216.694 463.277C217.692 463.284 218.328 463.865 218.526 464.672H220.017C219.784 463.1 218.52 461.965 216.694 461.965C214.322 461.965 212.832 463.934 212.825 467.379C212.825 471.036 214.739 472.123 216.571 472.137ZM214.452 468.801C214.466 467.7 215.389 466.729 216.599 466.736C217.788 466.729 218.649 467.652 218.649 468.787C218.649 469.942 217.754 470.872 216.558 470.879C215.341 470.872 214.459 469.901 214.452 468.801ZM221.712 472H228.37V470.715H223.804V470.633L225.813 468.596C227.673 466.771 228.192 465.889 228.206 464.781C228.192 463.175 226.873 461.965 224.966 461.965C223.079 461.965 221.698 463.161 221.712 464.973H223.134C223.141 463.92 223.838 463.223 224.938 463.223C225.978 463.223 226.771 463.845 226.771 464.822C226.771 465.69 226.23 466.319 225.144 467.447L221.712 470.906V472ZM233.442 461.965C231.289 461.951 229.888 463.428 229.888 465.314C229.888 467.208 231.31 468.568 233.087 468.568C234.153 468.568 235.083 468.062 235.616 467.229H235.739C235.726 469.491 234.83 470.817 233.306 470.824C232.308 470.817 231.665 470.236 231.46 469.402H229.97C230.209 471.009 231.48 472.137 233.306 472.137C235.678 472.137 237.175 470.168 237.175 466.695C237.168 463.072 235.261 461.979 233.442 461.965ZM231.351 465.287C231.344 464.152 232.246 463.223 233.442 463.223C234.652 463.223 235.534 464.2 235.534 465.273C235.534 466.367 234.611 467.345 233.415 467.338C232.212 467.345 231.357 466.436 231.351 465.287Z" fill="#2D2926"/>
<path d="M184.907 472.137C187.033 472.15 188.448 470.681 188.448 468.76C188.448 466.866 187.026 465.513 185.263 465.506C184.189 465.513 183.26 466.005 182.72 466.846H182.61C182.61 464.61 183.499 463.284 185.03 463.277C186.028 463.284 186.664 463.865 186.862 464.672H188.353C188.12 463.1 186.855 461.965 185.03 461.965C182.658 461.965 181.168 463.934 181.161 467.379C181.161 471.036 183.075 472.123 184.907 472.137ZM182.788 468.801C182.802 467.7 183.725 466.729 184.935 466.736C186.124 466.729 186.985 467.652 186.985 468.787C186.985 469.942 186.09 470.872 184.894 470.879C183.677 470.872 182.795 469.901 182.788 468.801ZM193.562 472.137C195.612 472.137 197.137 470.927 197.13 469.279C197.137 468.028 196.351 467.119 194.997 466.928V466.859C196.063 466.593 196.761 465.786 196.747 464.658C196.761 463.195 195.537 461.965 193.589 461.965C191.743 461.965 190.253 463.059 190.212 464.672H191.661C191.695 463.776 192.584 463.223 193.575 463.223C194.621 463.223 195.298 463.838 195.298 464.74C195.298 465.69 194.512 466.319 193.384 466.312H192.536V467.543H193.384C194.799 467.55 195.612 468.247 195.612 469.225C195.612 470.188 194.744 470.838 193.548 470.838C192.44 470.838 191.579 470.284 191.524 469.416H189.993C190.055 471.036 191.511 472.137 193.562 472.137ZM202.229 472.137C204.52 472.137 205.859 470.291 205.866 467.051C205.859 463.831 204.499 461.965 202.229 461.965C199.953 461.965 198.593 463.831 198.593 467.051C198.593 470.291 199.939 472.137 202.229 472.137ZM200.097 467.051C200.097 464.59 200.896 463.243 202.229 463.236C203.556 463.243 204.362 464.59 204.362 467.051C204.362 469.519 203.562 470.838 202.229 470.838C200.89 470.838 200.09 469.519 200.097 467.051Z" fill="#2D2926"/>
<path d="M503.015 352.137C505.141 352.15 506.556 350.681 506.556 348.76C506.556 346.866 505.134 345.513 503.37 345.506C502.297 345.513 501.367 346.005 500.827 346.846H500.718C500.718 344.61 501.606 343.284 503.138 343.277C504.136 343.284 504.771 343.865 504.97 344.672H506.46C506.228 343.1 504.963 341.965 503.138 341.965C500.766 341.965 499.275 343.934 499.269 347.379C499.269 351.036 501.183 352.123 503.015 352.137ZM500.896 348.801C500.909 347.7 501.832 346.729 503.042 346.736C504.231 346.729 505.093 347.652 505.093 348.787C505.093 349.942 504.197 350.872 503.001 350.879C501.784 350.872 500.902 349.901 500.896 348.801ZM511.915 342.102H510.438L507.978 343.715V345.15L510.343 343.605H510.397V352H511.915V342.102ZM514.212 350.072H519.024V352H520.446V350.072H521.8V348.801H520.446V342.102H518.587L514.212 348.855V350.072ZM515.798 348.801V348.719L518.915 343.893H519.024V348.801H515.798Z" fill="#2D2926"/>
<g clip-path="url(#clip0_12_8)">
<path d="M119.14 44.5501H128.74V46.5501C125.39 46.9901 122.51 49.0901 122.51 51.6301C122.51 54.4701 126.13 56.7701 129.98 56.7701H130.89C134.74 56.7701 138.36 54.4701 138.36 51.6301C138.36 49.1401 135.6 47.0601 132.36 46.5801V44.5501H142V42.1001H119.14V44.5501ZM134.87 51.6701C134.87 53.2401 132.56 54.3201 130.44 54.3201C128.32 54.3201 126 53.2401 126 51.6701C126 50.1001 128.31 49.0001 130.44 49.0001C132.57 49.0001 134.87 50.0801 134.87 51.6701Z" fill="#5A5B5D"/>
<path d="M162.06 43.5901L165.23 43.5501V34.5901H162.06V43.5901Z" fill="#5A5B5D"/>
<path d="M147.24 47.0001H162.06V48.4501H147.24V53.0001C147.218 53.2532 147.248 53.5082 147.329 53.749C147.41 53.9899 147.54 54.2115 147.71 54.4001C148.122 54.6952 148.624 54.8367 149.13 54.8001H165.23V52.3301H150.55V50.8201H165.23V44.5901H147.23L147.24 47.0001Z" fill="#5A5B5D"/>
<path d="M213.62 34.5901H210.44V45.5301H213.6L213.62 40.3701H216.81V37.8701H213.62V34.5901Z" fill="#5A5B5D"/>
<path d="M194.99 49H210.44V54.86L213.62 54.87V46.51H194.99V49Z" fill="#5A5B5D"/>
<path d="M194.09 40.1899C194.087 40.9037 194.26 41.6073 194.593 42.2386C194.926 42.8699 195.409 43.4096 196 43.8099C197.254 44.728 198.777 45.203 200.33 45.1599C201.857 45.211 203.354 44.7342 204.57 43.8099C205.154 43.4051 205.629 42.8634 205.955 42.2324C206.281 41.6014 206.448 40.9001 206.44 40.1899C206.432 39.7425 206.337 39.301 206.16 38.8899C205.962 38.4802 205.698 38.1053 205.38 37.7799H207.89V35.3799H201.89V33.4399H198.47V35.3799H192.4V37.7799H195.13C194.791 38.0938 194.515 38.4708 194.32 38.8899C194.156 39.3031 194.077 39.7455 194.09 40.1899V40.1899ZM198.09 38.4899C198.703 38.0196 199.457 37.7695 200.23 37.7799C200.99 37.7714 201.731 38.0218 202.33 38.4899C202.618 38.6953 202.853 38.965 203.018 39.2775C203.183 39.59 203.273 39.9367 203.28 40.2899C203.269 40.6313 203.177 40.9652 203.012 41.2642C202.847 41.5632 202.613 41.8188 202.33 42.0099C201.744 42.506 200.998 42.7725 200.23 42.7599C199.45 42.775 198.69 42.5088 198.09 42.0099C197.816 41.8128 197.591 41.5549 197.434 41.2566C197.276 40.9582 197.189 40.6274 197.18 40.2899C197.19 39.9373 197.281 39.5917 197.446 39.2797C197.611 38.9677 197.845 38.6975 198.13 38.4899H198.09Z" fill="#5A5B5D"/>
<path d="M187.07 41.0601H184.38V34.5901H181.45V54.9101L184.38 54.8801V43.5601H187.07V54.9101L190.09 54.8801V34.5901H187.07V41.0601Z" fill="#5A5B5D"/>
<path d="M172.49 37.0801H179V34.5901H169.3V48.0001C169.279 48.2431 169.323 48.4874 169.429 48.7073C169.534 48.9272 169.697 49.1147 169.9 49.2501C170.336 49.4794 170.829 49.58 171.32 49.5401H179.45V47.0401H172.45L172.49 37.0801Z" fill="#5A5B5D"/>
<path d="M233.28 49.1801L236.46 49.1601L236.47 34.5901H218.8V37.0801H233.28V49.1801Z" fill="#5A5B5D"/>
<path d="M230.16 51.2899V42.9399H227.02V51.2899H224.3V42.9399H221.18V51.2899H217.34V53.7799H238.29V51.2899H230.16Z" fill="#5A5B5D"/>
<path d="M125.79 39.9301C127.576 39.5947 129.227 38.7469 130.54 37.4901C131.832 38.7508 133.473 39.594 135.25 39.9101C137.001 40.3626 138.794 40.6307 140.6 40.7101L141.16 38.1701C139.112 38.1223 137.085 37.7407 135.16 37.0401C133.4 36.3901 132.16 35.3001 132.16 34.3501H128.86C128.86 35.2001 127.63 36.3501 125.86 37.0401C123.941 37.7656 121.911 38.1546 119.86 38.1901V38.1901L120.42 40.6801C122.232 40.6282 124.033 40.3766 125.79 39.9301V39.9301Z" fill="#5A5B5D"/>
<path d="M152.15 39.4301C152.975 40.5426 154.047 41.4494 155.28 42.0801C156.64 42.679 158.077 43.083 159.55 43.2801L160.17 40.7501C158.145 40.5339 156.258 39.6221 154.83 38.1701C154.105 37.134 153.752 35.8825 153.83 34.6201H150.42C150.488 35.8982 150.11 37.1601 149.35 38.1901C147.92 39.6458 146.029 40.561 144 40.7801V40.7801L144.6 43.2501C146.025 43.0375 147.417 42.6408 148.74 42.0701C150.077 41.4851 151.249 40.5781 152.15 39.4301V39.4301Z" fill="#5A5B5D"/>
<path d="M58.9001 63.55H49.7801C49.8801 63.55 50.2201 63.1101 50.3001 63.0201C50.4799 62.8244 50.647 62.6173 50.8001 62.4001C51.1934 61.865 51.5067 61.2754 51.7301 60.65C52.5192 58.5312 52.4655 56.1904 51.5801 54.1101C50.5597 52.2489 49.4311 50.4491 48.2001 48.72C46.4349 46.0993 45.5425 42.988 45.6501 39.83C45.8476 37.6941 46.7076 35.6732 48.1101 34.05H56.8901C55.7014 35.2032 54.8541 36.662 54.4412 38.2658C54.0283 39.8696 54.066 41.5563 54.5501 43.14C55.1591 44.9641 56.0499 46.6815 57.1901 48.23C58.2473 49.7249 59.1868 51.2996 60.0001 52.94C60.9002 54.9815 61.1583 57.2485 60.7401 59.44C60.5386 60.4888 60.1778 61.5005 59.6701 62.44C59.5401 62.61 59.1001 63.55 58.9001 63.55Z" fill="#00A3C9"/>
<path d="M64 54.94H79.09V30H59.18C58.3237 30.8616 57.7093 31.9335 57.3986 33.1079C57.0879 34.2822 57.0918 35.5176 57.41 36.69C57.93 38.82 59.47 40.69 60.84 42.55C63.02 45.44 65.4 48.7 64.73 52.55C64.617 53.3808 64.3705 54.1879 64 54.94V54.94Z" fill="#5AC5C4"/>
<path d="M30 30V54.94H44.89C45.4936 53.4591 45.4936 51.8009 44.89 50.32C43.45 46.8 41.11 44.9 39.81 41.84C38.56 38.93 38.42 36.28 39.48 32.46C39.7619 31.62 40.0959 30.7984 40.48 30L30 30Z" fill="#00678F"/>
<path d="M109.66 30H97.3V49.78C97.3 49.88 97.3 50.36 97.3 50.85C97.17 53.95 96.44 54.57 95.67 54.94H109.67L109.66 30Z" fill="#00A3C9"/>
<path d="M82.46 34.0801V59.2001C82.5006 60.2497 82.9435 61.2435 83.6969 61.9754C84.4503 62.7074 85.4565 63.1214 86.5069 63.1317C87.5572 63.142 88.5713 62.7478 89.3389 62.0307C90.1065 61.3136 90.5688 60.3287 90.63 59.2801V34.0801H82.46Z" fill="#00678F"/>
</g>
<path d="M73.625 189.8C94.875 189.8 109.688 176.863 109.625 157.55C109.688 140.925 98.4375 128.8 82.125 128.8C71.75 128.8 62.4375 133.738 58.875 142.05H58.375C58.4375 126.988 63.25 117.05 73.875 117.05C79.3125 117.05 83.9375 119.55 85.125 124.8H108.5C106.938 109.425 93.625 96.8 73.875 96.8C50.25 96.8 34.8125 114.988 34.75 144.425C34.625 177.425 52.8125 189.8 73.625 189.8ZM60.5 158.425C60.5 150.738 66.0625 145.05 73.5 145.05C81.0625 145.05 86.5625 150.675 86.5 158.425C86.5625 166.05 81.0625 171.738 73.5 171.675C66 171.738 60.5 166.05 60.5 158.425ZM121 188.55H144.75V152.925H180.125V133.675H144.75V117.3H184.125V98.05H121V188.55Z" fill="#2D2926"/>
<path d="M57.9141 202.792H53.4492V210.597H48.457V214.218H53.4492V221.777H57.9141V202.792ZM30.7383 218.261L33.0586 221.812C36.8555 220.511 39.4219 217.892 40.8281 214.64C42.2168 217.505 44.6602 219.825 48.1758 220.968L50.3906 217.452C45.416 215.8 43.1309 212.038 43.043 208.312H49.4062V204.726H32.0391V208.312H38.4727C38.3672 212.32 35.9766 216.503 30.7383 218.261ZM35.9766 228.667C35.9766 232.552 40.1602 234.82 46.9805 234.82C53.8184 234.82 58.002 232.552 58.0195 228.667C58.002 224.782 53.8184 222.497 46.9805 222.48C40.1602 222.497 35.9766 224.782 35.9766 228.667ZM40.4414 228.667C40.4414 226.822 42.7441 225.907 46.9805 225.925C51.2344 225.907 53.5371 226.822 53.5547 228.667C53.5371 230.495 51.2344 231.409 46.9805 231.409C42.7441 231.409 40.4414 230.495 40.4414 228.667ZM91.3477 227.402H78.8672V221.495H88.0781V204.831H83.6133V209.788H69.6562V204.831H65.1562V221.495H74.4023V227.402H62.0625V231.058H91.3477V227.402ZM69.6562 217.909V213.374H83.6133V217.909H69.6562ZM111.176 205.991H94.582V209.577H106.711C106.676 212.407 106.605 215.835 105.867 220.476L110.297 220.827C111.141 215.501 111.141 211.564 111.176 208.558V205.991ZM92.8945 224.659L93.3164 228.245C98.9238 228.281 106.166 228.157 112.758 227.05L112.477 223.71C109.523 224.097 106.342 224.325 103.195 224.448V215.167H98.7656V224.589C96.6914 224.642 94.6875 224.659 92.8945 224.659ZM113.988 234.784H118.523V219.386H122.883V215.659H118.523V202.792H113.988V234.784ZM143.273 205.64H136.031V202.616H131.566V205.64H124.289V209.191H143.273V205.64ZM125.836 216.116C125.836 219.632 129.141 222.005 133.781 222.023C138.439 222.005 141.656 219.632 141.656 216.116C141.656 212.601 138.439 210.228 133.781 210.21C129.141 210.228 125.836 212.601 125.836 216.116ZM128.121 227.788H145.172V234.784H149.672V224.202H128.121V227.788ZM130.23 216.116C130.213 214.464 131.637 213.585 133.781 213.585C135.943 213.585 137.402 214.464 137.402 216.116C137.402 217.751 135.943 218.595 133.781 218.577C131.637 218.595 130.213 217.751 130.23 216.116ZM145.172 222.866H149.672V214.745H153.996V211.089H149.672V202.792H145.172V222.866ZM173.332 205.113H156.879V208.769H168.955C168.92 210.685 168.779 213.023 168.199 216.081L172.594 216.503C173.332 212.531 173.332 209.331 173.332 207.116V205.113ZM154.98 218.823L155.367 222.409C160.939 222.392 168.428 222.269 175.09 221.038L174.844 217.804C171.838 218.243 168.586 218.49 165.387 218.63V212.495H160.922V218.771C158.795 218.823 156.773 218.823 154.98 218.823ZM159.691 234.222H182.156V230.636H164.191V224.589H159.691V234.222ZM176.566 226.734H181.172V216.292H185.039V212.531H181.172V202.792H176.566V226.734Z" fill="#2D2926"/>
<path d="M32.5156 244.652H31.0117V254.55H32.5156V244.652ZM35.8652 250.148C35.8652 248.965 36.583 248.288 37.5879 248.288C38.5723 248.288 39.1533 248.931 39.1602 250.011V254.55H40.6094V249.833C40.6162 247.994 39.6045 247.031 38.0801 247.031C36.9727 247.031 36.2412 247.543 35.8926 248.343H35.8105V247.126H34.4023V254.55H35.8652V250.148ZM45.9277 247.126H44.3281V246.484C44.3281 245.759 44.6904 245.445 45.4629 245.445C45.5928 245.445 45.8047 245.458 46.0781 245.499V244.282C45.791 244.228 45.4287 244.187 45.0801 244.187C43.7197 244.187 42.8721 244.939 42.8652 246.265V247.126H41.7168V248.288H42.8652V254.55H44.3281V248.288H45.9277V247.126ZM50.0977 254.7C52.1895 254.7 53.5566 253.169 53.5566 250.872C53.5566 248.562 52.1895 247.031 50.0977 247.031C47.9922 247.031 46.6182 248.562 46.625 250.872C46.6182 253.169 47.9922 254.7 50.0977 254.7ZM48.0879 250.872C48.0879 249.45 48.7373 248.24 50.0977 248.234C51.4375 248.24 52.0801 249.45 52.0801 250.872C52.0801 252.287 51.4375 253.484 50.0977 253.484C48.7373 253.484 48.0879 252.287 48.0879 250.872ZM54.9922 254.55H56.4551V250.025C56.4551 249.054 57.207 248.35 58.2188 248.357C58.5195 248.35 58.8613 248.411 58.9844 248.439V247.044C58.834 247.031 58.5469 247.01 58.3691 247.017C57.501 247.01 56.7559 247.509 56.4824 248.302H56.4004V247.126H54.9922V254.55ZM60.0781 254.55H61.541V249.97C61.541 248.972 62.2383 248.288 63.0586 248.288C63.8584 248.288 64.4121 248.815 64.4121 249.628V254.55H65.8613V249.82C65.8613 248.931 66.4014 248.288 67.3379 248.288C68.1035 248.288 68.7324 248.705 68.7324 249.71V254.55H70.1953V249.573C70.1885 247.871 69.2383 247.031 67.8984 247.031C66.8252 247.031 66.0186 247.543 65.6699 248.343H65.5879C65.2734 247.516 64.583 247.031 63.5918 247.031C62.6143 247.031 61.8828 247.516 61.5684 248.343H61.4863V247.126H60.0781V254.55ZM71.6172 252.458C71.6104 253.907 72.7109 254.714 74.1191 254.714C75.3496 254.714 76.0332 254.092 76.3203 253.538H76.375V254.55H77.7969V249.615C77.79 247.461 76.0674 247.031 74.8848 247.031C73.1279 247.031 71.9795 247.919 71.8496 249.15H73.2988C73.4492 248.603 73.9688 248.206 74.8301 248.206C75.8213 248.206 76.3408 248.692 76.334 249.532L76.3408 250.127C75.999 250.141 74.8848 250.202 74.3926 250.23C73.0527 250.325 71.6104 250.763 71.6172 252.458ZM73.0391 252.472C73.0391 251.74 73.6406 251.378 74.5977 251.31C74.9463 251.289 76.0059 251.214 76.3408 251.194L76.3477 251.87C76.3477 252.752 75.6367 253.545 74.4473 253.552C73.627 253.545 73.0391 253.183 73.0391 252.472ZM83.0332 247.126H81.5156V245.349H80.0664V247.126H78.9727V248.288H80.0664V252.663C80.0527 254.017 81.085 254.646 82.2266 254.646C82.6299 254.646 82.9443 254.618 83.1426 254.591V253.32C82.9375 253.34 82.6162 253.361 82.4043 253.361C81.9326 253.354 81.5225 253.203 81.5156 252.363V248.288H83.0332V247.126ZM84.4551 254.55H85.918V247.126H84.4551V254.55ZM84.2637 245.116C84.2705 245.595 84.6875 245.985 85.1934 245.978C85.6924 245.985 86.1094 245.595 86.1094 245.116C86.1094 244.638 85.6924 244.255 85.1934 244.255C84.6875 244.255 84.2705 244.638 84.2637 245.116ZM90.8398 254.7C92.9316 254.7 94.2988 253.169 94.2988 250.872C94.2988 248.562 92.9316 247.031 90.8398 247.031C88.7344 247.031 87.3604 248.562 87.3672 250.872C87.3604 253.169 88.7344 254.7 90.8398 254.7ZM88.8301 250.872C88.8301 249.45 89.4795 248.24 90.8398 248.234C92.1797 248.24 92.8223 249.45 92.8223 250.872C92.8223 252.287 92.1797 253.484 90.8398 253.484C89.4795 253.484 88.8301 252.287 88.8301 250.872ZM97.1973 250.148C97.1973 248.965 97.915 248.288 98.9199 248.288C99.9043 248.288 100.485 248.931 100.492 250.011V254.55H101.941V249.833C101.948 247.994 100.937 247.031 99.4121 247.031C98.3047 247.031 97.5732 247.543 97.2246 248.343H97.1426V247.126H95.7344V254.55H97.1973V250.148ZM112.646 247.263H114.109C114.062 245.663 112.66 244.515 110.65 244.515C108.647 244.515 107.13 245.65 107.123 247.359C107.13 248.74 108.114 249.546 109.707 249.984L110.883 250.298C111.929 250.578 112.749 250.927 112.756 251.788C112.749 252.759 111.833 253.395 110.568 253.402C109.413 253.395 108.456 252.882 108.367 251.802H106.863C106.959 253.607 108.354 254.714 110.568 254.714C112.906 254.714 114.239 253.49 114.246 251.816C114.239 250.025 112.653 249.334 111.389 249.027L110.432 248.767C109.646 248.582 108.627 248.213 108.627 247.277C108.634 246.436 109.399 245.814 110.609 245.814C111.744 245.814 112.551 246.34 112.646 247.263ZM118.881 254.7C120.631 254.7 121.772 253.641 121.93 252.198H120.508C120.323 252.998 119.708 253.463 118.881 253.456C117.657 253.463 116.871 252.458 116.871 250.831C116.871 249.252 117.678 248.254 118.881 248.247C119.804 248.254 120.357 248.835 120.508 249.532H121.93C121.772 248.029 120.549 247.031 118.854 247.031C116.762 247.031 115.401 248.61 115.408 250.872C115.401 253.108 116.714 254.7 118.881 254.7ZM123.311 254.55H124.773V247.126H123.311V254.55ZM123.119 245.116C123.126 245.595 123.543 245.985 124.049 245.978C124.548 245.985 124.965 245.595 124.965 245.116C124.965 244.638 124.548 244.255 124.049 244.255C123.543 244.255 123.126 244.638 123.119 245.116ZM129.75 254.7C131.384 254.7 132.525 253.894 132.854 252.691H131.377C131.131 253.142 130.591 253.497 129.764 253.497C128.547 253.497 127.713 252.698 127.672 251.282H132.949V250.763C132.949 248.076 131.343 247.031 129.654 247.031C127.583 247.031 126.216 248.603 126.223 250.886C126.216 253.19 127.562 254.7 129.75 254.7ZM127.679 250.189C127.74 249.143 128.499 248.227 129.668 248.234C130.782 248.227 131.514 249.061 131.514 250.189H127.679ZM135.861 250.148C135.861 248.965 136.579 248.288 137.584 248.288C138.568 248.288 139.149 248.931 139.156 250.011V254.55H140.605V249.833C140.612 247.994 139.601 247.031 138.076 247.031C136.969 247.031 136.237 247.543 135.889 248.343H135.807V247.126H134.398V254.55H135.861V250.148ZM145.527 254.7C147.277 254.7 148.419 253.641 148.576 252.198H147.154C146.97 252.998 146.354 253.463 145.527 253.456C144.304 253.463 143.518 252.458 143.518 250.831C143.518 249.252 144.324 248.254 145.527 248.247C146.45 248.254 147.004 248.835 147.154 249.532H148.576C148.419 248.029 147.195 247.031 145.5 247.031C143.408 247.031 142.048 248.61 142.055 250.872C142.048 253.108 143.36 254.7 145.527 254.7ZM153.156 254.7C154.79 254.7 155.932 253.894 156.26 252.691H154.783C154.537 253.142 153.997 253.497 153.17 253.497C151.953 253.497 151.119 252.698 151.078 251.282H156.355V250.763C156.355 248.076 154.749 247.031 153.061 247.031C150.989 247.031 149.622 248.603 149.629 250.886C149.622 253.19 150.969 254.7 153.156 254.7ZM151.085 250.189C151.146 249.143 151.905 248.227 153.074 248.234C154.188 248.227 154.92 249.061 154.92 250.189H151.085ZM161.346 254.55H165.133C167.443 254.55 168.482 253.402 168.482 251.884C168.482 250.353 167.416 249.491 166.432 249.437V249.341C167.341 249.109 168.1 248.487 168.1 247.249C168.1 245.78 167.081 244.652 164.969 244.652H161.346V254.55ZM162.85 253.265V250.107H165.051C166.24 250.107 166.992 250.865 166.992 251.816C166.992 252.636 166.418 253.258 164.996 253.265H162.85ZM162.85 248.931V245.937H164.873C166.056 245.937 166.623 246.552 166.623 247.372C166.623 248.323 165.844 248.924 164.846 248.931H162.85ZM174.689 251.46C174.689 252.725 173.753 253.32 172.939 253.32C172.051 253.32 171.436 252.677 171.436 251.665V247.126H169.973V251.843C169.973 253.682 170.984 254.646 172.42 254.646C173.534 254.646 174.293 254.058 174.635 253.265H174.717V254.55H176.139V247.126H174.689V251.46ZM177.916 254.55H179.379V247.126H177.916V254.55ZM177.725 245.116C177.731 245.595 178.148 245.985 178.654 245.978C179.153 245.985 179.57 245.595 179.57 245.116C179.57 244.638 179.153 244.255 178.654 244.255C178.148 244.255 177.731 244.638 177.725 245.116ZM182.619 244.652H181.156V254.55H182.619V244.652ZM187.172 254.7C188.525 254.694 189.059 253.873 189.332 253.388H189.441V254.55H190.863V244.652H189.4V248.329H189.332C189.065 247.865 188.566 247.031 187.186 247.031C185.401 247.031 184.068 248.439 184.068 250.859C184.068 253.251 185.381 254.694 187.172 254.7ZM185.559 250.831C185.552 249.368 186.208 248.268 187.5 248.275C188.758 248.268 189.441 249.286 189.441 250.831C189.441 252.39 188.744 253.449 187.5 253.456C186.222 253.449 185.552 252.322 185.559 250.831ZM192.764 254.55H194.227V247.126H192.764V254.55ZM192.572 245.116C192.579 245.595 192.996 245.985 193.502 245.978C194.001 245.985 194.418 245.595 194.418 245.116C194.418 244.638 194.001 244.255 193.502 244.255C192.996 244.255 192.579 244.638 192.572 245.116ZM197.467 250.148C197.467 248.965 198.185 248.288 199.189 248.288C200.174 248.288 200.755 248.931 200.762 250.011V254.55H202.211V249.833C202.218 247.994 201.206 247.031 199.682 247.031C198.574 247.031 197.843 247.543 197.494 248.343H197.412V247.126H196.004V254.55H197.467V250.148ZM207.105 257.49C209.02 257.49 210.462 256.621 210.455 254.714V247.126H209.033V248.329H208.938C208.664 247.865 208.158 247.031 206.777 247.031C204.993 247.031 203.66 248.391 203.66 250.763C203.66 253.135 205.014 254.441 206.764 254.441C208.131 254.441 208.664 253.675 208.924 253.197H209.02V254.659C209.013 255.815 208.281 256.321 207.119 256.314C206.155 256.321 205.499 255.979 205.355 255.275H203.865C203.995 256.662 205.232 257.49 207.105 257.49ZM205.15 250.79C205.144 249.368 205.8 248.268 207.092 248.275C208.35 248.268 209.033 249.286 209.033 250.79C209.033 252.322 208.336 253.231 207.092 253.238C205.813 253.231 205.144 252.246 205.15 250.79Z" fill="#2D2926"/>
<defs>
<clipPath id="clip0_12_8">
<rect width="208.29" height="33.55" fill="white" transform="translate(30 30)"/>
</clipPath>
</defs>
</svg>
