<svg width="800" height="600" viewBox="0 0 800 600" fill="none" xmlns="http://www.w3.org/2000/svg">
<path d="M312.69 367.15V378.11H281.58V302.68H187.3L114.75 475.66V512.52H712.41V443.9H684.35V367.15H312.69Z" stroke="#2D2926" stroke-width="5" stroke-miterlimit="10"/>
<path d="M684.35 443.9H568.58" stroke="#2D2926" stroke-width="2" stroke-miterlimit="10"/>
<path d="M205.07 490.84V510.59" stroke="#2D2926" stroke-width="2" stroke-miterlimit="10"/>
<path d="M595.23 443.9H568.58V489.57H595.23V443.9Z" stroke="#2D2926" stroke-width="2" stroke-miterlimit="10"/>
<path d="M684.35 443.9H595.23V489.57H684.35V443.9Z" stroke="#2D2926" stroke-width="2" stroke-miterlimit="10"/>
<path d="M712.41 443.9H684.35V512.51H712.41V443.9Z" stroke="#2D2926" stroke-width="2" stroke-miterlimit="10"/>
<path d="M166.65 351.91L167.88 443.9" stroke="#2D2926" stroke-width="2" stroke-miterlimit="10"/>
<path d="M167.88 443.9H286.38" stroke="#2D2926" stroke-width="2" stroke-miterlimit="10" stroke-linecap="square"/>
<path d="M286.38 378.11V443.9" stroke="#2D2926" stroke-width="2" stroke-miterlimit="10" stroke-linecap="square"/>
<path d="M195.45 443.9V512.52" stroke="#2D2926" stroke-width="2" stroke-miterlimit="10"/>
<path d="M167.88 443.9V512.52" stroke="#2D2926" stroke-width="2" stroke-miterlimit="10"/>
<path d="M533.35 367.15V411M314.24 411H533.35M314.24 411V378.12" stroke="#2D2926" stroke-width="2" stroke-miterlimit="10" stroke-linecap="square"/>
<path d="M533.35 443.9H307.44" stroke="#2D2926" stroke-width="2" stroke-miterlimit="10" stroke-linecap="square"/>
<path d="M317.07 443.9V512.52" stroke="#2D2926" stroke-width="2" stroke-miterlimit="10"/>
<path d="M533.35 443.9V512.52" stroke="#2D2926" stroke-width="2" stroke-miterlimit="10" stroke-linecap="square"/>
<path d="M558.72 367.15V404.89M558.72 404.89H684" stroke="#2D2926" stroke-width="2" stroke-miterlimit="10" stroke-linecap="square"/>
<path d="M423.68 367.15L423.35 411.03" stroke="#2D2926" stroke-miterlimit="10"/>
<path d="M461.12 367.15L461.45 411.03" stroke="#2D2926" stroke-miterlimit="10"/>
<path d="M499.55 367.15L499.88 411.03" stroke="#2D2926" stroke-miterlimit="10"/>
<path d="M612.86 367.15V404.89" stroke="#2D2926" stroke-miterlimit="10"/>
<path d="M621.38 443.9V489.57" stroke="#2D2926" stroke-miterlimit="10"/>
<path d="M645.71 443.9V489.57" stroke="#2D2926" stroke-miterlimit="10"/>
<path d="M665.42 443.9V489.57" stroke="#2D2926" stroke-miterlimit="10"/>
<path d="M668.37 404.89V443.9" stroke="#2D2926" stroke-miterlimit="10"/>
<path d="M438.46 443.9V512.52" stroke="#2D2926" stroke-miterlimit="10"/>
<path d="M213.012 394H216.799C219.109 394 220.148 392.852 220.148 391.334C220.148 389.803 219.082 388.941 218.098 388.887V388.791C219.007 388.559 219.766 387.937 219.766 386.699C219.766 385.229 218.747 384.102 216.635 384.102H213.012V394ZM214.516 392.715V389.557H216.717C217.906 389.557 218.658 390.315 218.658 391.266C218.658 392.086 218.084 392.708 216.662 392.715H214.516ZM214.516 388.381V385.387H216.539C217.722 385.387 218.289 386.002 218.289 386.822C218.289 387.772 217.51 388.374 216.512 388.381H214.516ZM225.385 384.102H223.908L221.447 385.715V387.15L223.812 385.605H223.867V394H225.385V384.102ZM231.346 394.137C233.636 394.137 234.976 392.291 234.982 389.051C234.976 385.831 233.615 383.965 231.346 383.965C229.069 383.965 227.709 385.831 227.709 389.051C227.709 392.291 229.056 394.137 231.346 394.137ZM229.213 389.051C229.213 386.59 230.013 385.243 231.346 385.236C232.672 385.243 233.479 386.59 233.479 389.051C233.479 391.519 232.679 392.838 231.346 392.838C230.006 392.838 229.206 391.519 229.213 389.051ZM240.301 384.102H238.824L236.363 385.715V387.15L238.729 385.605H238.783V394H240.301V384.102Z" fill="#2D2926"/>
<path d="M353.735 395H357.522C359.833 395 360.872 393.852 360.872 392.334C360.872 390.803 359.806 389.941 358.821 389.887V389.791C359.73 389.559 360.489 388.937 360.489 387.699C360.489 386.229 359.471 385.102 357.358 385.102H353.735V395ZM355.239 393.715V390.557H357.44C358.63 390.557 359.382 391.315 359.382 392.266C359.382 393.086 358.808 393.708 357.386 393.715H355.239ZM355.239 389.381V386.387H357.263C358.445 386.387 359.013 387.002 359.013 387.822C359.013 388.772 358.233 389.374 357.235 389.381H355.239ZM366.108 385.102H364.632L362.171 386.715V388.15L364.536 386.605H364.591V395H366.108V385.102ZM372.069 395.137C374.359 395.137 375.699 393.291 375.706 390.051C375.699 386.831 374.339 384.965 372.069 384.965C369.793 384.965 368.433 386.831 368.433 390.051C368.433 393.291 369.779 395.137 372.069 395.137ZM369.937 390.051C369.937 387.59 370.736 386.243 372.069 386.236C373.396 386.243 374.202 387.59 374.202 390.051C374.202 392.519 373.402 393.838 372.069 393.838C370.729 393.838 369.93 392.519 369.937 390.051ZM377.046 393.072H381.858V395H383.28V393.072H384.634V391.801H383.28V385.102H381.421L377.046 391.855V393.072ZM378.632 391.801V391.719L381.749 386.893H381.858V391.801H378.632Z" fill="#2D2926"/>
<path d="M427.434 395H431.221C433.531 395 434.57 393.852 434.57 392.334C434.57 390.803 433.504 389.941 432.52 389.887V389.791C433.429 389.559 434.188 388.937 434.188 387.699C434.188 386.229 433.169 385.102 431.057 385.102H427.434V395ZM428.938 393.715V390.557H431.139C432.328 390.557 433.08 391.315 433.08 392.266C433.08 393.086 432.506 393.708 431.084 393.715H428.938ZM428.938 389.381V386.387H430.961C432.144 386.387 432.711 387.002 432.711 387.822C432.711 388.772 431.932 389.374 430.934 389.381H428.938ZM439.807 385.102H438.33L435.869 386.715V388.15L438.234 386.605H438.289V395H439.807V385.102ZM445.768 395.137C448.058 395.137 449.397 393.291 449.404 390.051C449.397 386.831 448.037 384.965 445.768 384.965C443.491 384.965 442.131 386.831 442.131 390.051C442.131 393.291 443.478 395.137 445.768 395.137ZM443.635 390.051C443.635 387.59 444.435 386.243 445.768 386.236C447.094 386.243 447.9 387.59 447.9 390.051C447.9 392.519 447.101 393.838 445.768 393.838C444.428 393.838 443.628 392.519 443.635 390.051ZM454.326 395.137C456.391 395.137 457.854 393.735 457.854 391.787C457.854 389.88 456.479 388.499 454.613 388.492C453.861 388.499 453.164 388.766 452.754 389.162H452.658L452.986 386.387H457.348V385.102H451.742L451.1 390.611H452.521C452.856 390.003 453.465 389.736 454.258 389.736C455.502 389.75 456.391 390.625 456.391 391.828C456.391 393.004 455.529 393.872 454.326 393.879C453.328 393.872 452.521 393.257 452.439 392.416H450.977C451.045 393.995 452.453 395.137 454.326 395.137Z" fill="#2D2926"/>
<path d="M465.317 395H469.104C471.415 395 472.454 393.852 472.454 392.334C472.454 390.803 471.388 389.941 470.403 389.887V389.791C471.312 389.559 472.071 388.937 472.071 387.699C472.071 386.229 471.053 385.102 468.94 385.102H465.317V395ZM466.821 393.715V390.557H469.022C470.212 390.557 470.964 391.315 470.964 392.266C470.964 393.086 470.39 393.708 468.968 393.715H466.821ZM466.821 389.381V386.387H468.845C470.027 386.387 470.595 387.002 470.595 387.822C470.595 388.772 469.815 389.374 468.817 389.381H466.821ZM477.69 385.102H476.214L473.753 386.715V388.15L476.118 386.605H476.173V395H477.69V385.102ZM483.651 395.137C485.941 395.137 487.281 393.291 487.288 390.051C487.281 386.831 485.921 384.965 483.651 384.965C481.375 384.965 480.015 386.831 480.015 390.051C480.015 393.291 481.361 395.137 483.651 395.137ZM481.519 390.051C481.519 387.59 482.318 386.243 483.651 386.236C484.978 386.243 485.784 387.59 485.784 390.051C485.784 392.519 484.984 393.838 483.651 393.838C482.312 393.838 481.512 392.519 481.519 390.051ZM492.429 395.137C494.555 395.15 495.97 393.681 495.97 391.76C495.97 389.866 494.548 388.513 492.784 388.506C491.711 388.513 490.781 389.005 490.241 389.846H490.132C490.132 387.61 491.021 386.284 492.552 386.277C493.55 386.284 494.186 386.865 494.384 387.672H495.874C495.642 386.1 494.377 384.965 492.552 384.965C490.18 384.965 488.689 386.934 488.683 390.379C488.683 394.036 490.597 395.123 492.429 395.137ZM490.31 391.801C490.323 390.7 491.246 389.729 492.456 389.736C493.646 389.729 494.507 390.652 494.507 391.787C494.507 392.942 493.611 393.872 492.415 393.879C491.198 393.872 490.316 392.901 490.31 391.801Z" fill="#2D2926"/>
<path d="M501.398 395H505.186C507.496 395 508.535 393.852 508.535 392.334C508.535 390.803 507.469 389.941 506.484 389.887V389.791C507.394 389.559 508.152 388.937 508.152 387.699C508.152 386.229 507.134 385.102 505.021 385.102H501.398V395ZM502.902 393.715V390.557H505.104C506.293 390.557 507.045 391.315 507.045 392.266C507.045 393.086 506.471 393.708 505.049 393.715H502.902ZM502.902 389.381V386.387H504.926C506.108 386.387 506.676 387.002 506.676 387.822C506.676 388.772 505.896 389.374 504.898 389.381H502.902ZM513.771 385.102H512.295L509.834 386.715V388.15L512.199 386.605H512.254V395H513.771V385.102ZM519.732 395.137C522.022 395.137 523.362 393.291 523.369 390.051C523.362 386.831 522.002 384.965 519.732 384.965C517.456 384.965 516.096 386.831 516.096 390.051C516.096 393.291 517.442 395.137 519.732 395.137ZM517.6 390.051C517.6 387.59 518.399 386.243 519.732 386.236C521.059 386.243 521.865 387.59 521.865 390.051C521.865 392.519 521.065 393.838 519.732 393.838C518.393 393.838 517.593 392.519 517.6 390.051ZM524.996 395H526.568L530.971 386.441V385.102H524.312V386.387H529.412V386.469L524.996 395Z" fill="#2D2926"/>
<path d="M570.852 392H574.639C576.949 392 577.988 390.852 577.988 389.334C577.988 387.803 576.922 386.941 575.938 386.887V386.791C576.847 386.559 577.605 385.937 577.605 384.699C577.605 383.229 576.587 382.102 574.475 382.102H570.852V392ZM572.355 390.715V387.557H574.557C575.746 387.557 576.498 388.315 576.498 389.266C576.498 390.086 575.924 390.708 574.502 390.715H572.355ZM572.355 386.381V383.387H574.379C575.562 383.387 576.129 384.002 576.129 384.822C576.129 385.772 575.35 386.374 574.352 386.381H572.355ZM583.225 382.102H581.748L579.287 383.715V385.15L581.652 383.605H581.707V392H583.225V382.102ZM589.186 392.137C591.476 392.137 592.815 390.291 592.822 387.051C592.815 383.831 591.455 381.965 589.186 381.965C586.909 381.965 585.549 383.831 585.549 387.051C585.549 390.291 586.896 392.137 589.186 392.137ZM587.053 387.051C587.053 384.59 587.853 383.243 589.186 383.236C590.512 383.243 591.318 384.59 591.318 387.051C591.318 389.519 590.519 390.838 589.186 390.838C587.846 390.838 587.046 389.519 587.053 387.051ZM597.84 392.137C599.959 392.137 601.47 390.975 601.477 389.361C601.47 388.09 600.554 387.051 599.398 386.873V386.818C600.396 386.586 601.087 385.684 601.094 384.604C601.087 383.079 599.706 381.965 597.84 381.965C595.946 381.965 594.572 383.079 594.572 384.604C594.572 385.684 595.249 386.586 596.268 386.818V386.873C595.099 387.051 594.189 388.09 594.203 389.361C594.189 390.975 595.687 392.137 597.84 392.137ZM595.734 389.252C595.714 388.233 596.609 387.488 597.84 387.488C599.057 387.488 599.945 388.233 599.945 389.252C599.945 390.223 599.125 390.893 597.84 390.893C596.534 390.893 595.714 390.223 595.734 389.252ZM596.035 384.74C596.042 383.817 596.753 383.188 597.84 383.195C598.899 383.188 599.624 383.817 599.617 384.74C599.624 385.67 598.872 386.306 597.84 386.299C596.78 386.306 596.042 385.663 596.035 384.74Z" fill="#2D2926"/>
<path d="M632.817 392H636.604C638.915 392 639.954 390.852 639.954 389.334C639.954 387.803 638.888 386.941 637.903 386.887V386.791C638.812 386.559 639.571 385.937 639.571 384.699C639.571 383.229 638.553 382.102 636.44 382.102H632.817V392ZM634.321 390.715V387.557H636.522C637.712 387.557 638.464 388.315 638.464 389.266C638.464 390.086 637.89 390.708 636.468 390.715H634.321ZM634.321 386.381V383.387H636.345C637.527 383.387 638.095 384.002 638.095 384.822C638.095 385.772 637.315 386.374 636.317 386.381H634.321ZM645.19 382.102H643.714L641.253 383.715V385.15L643.618 383.605H643.673V392H645.19V382.102ZM651.151 392.137C653.441 392.137 654.781 390.291 654.788 387.051C654.781 383.831 653.421 381.965 651.151 381.965C648.875 381.965 647.515 383.831 647.515 387.051C647.515 390.291 648.861 392.137 651.151 392.137ZM649.019 387.051C649.019 384.59 649.818 383.243 651.151 383.236C652.478 383.243 653.284 384.59 653.284 387.051C653.284 389.519 652.484 390.838 651.151 390.838C649.812 390.838 649.012 389.519 649.019 387.051ZM659.751 381.965C657.598 381.951 656.196 383.428 656.196 385.314C656.196 387.208 657.618 388.568 659.396 388.568C660.462 388.568 661.392 388.062 661.925 387.229H662.048C662.034 389.491 661.139 390.817 659.614 390.824C658.616 390.817 657.974 390.236 657.769 389.402H656.278C656.518 391.009 657.789 392.137 659.614 392.137C661.986 392.137 663.483 390.168 663.483 386.695C663.477 383.072 661.569 381.979 659.751 381.965ZM657.659 385.287C657.652 384.152 658.555 383.223 659.751 383.223C660.961 383.223 661.843 384.2 661.843 385.273C661.843 386.367 660.92 387.345 659.724 387.338C658.521 387.345 657.666 386.436 657.659 385.287Z" fill="#2D2926"/>
<path d="M572.799 472H579.061V470.701H574.303V467.68H578.678V466.395H574.303V463.4H579.006V462.102H572.799V472ZM584.502 461.637H583.203L580.018 473.49H581.316L584.502 461.637ZM585.705 472H591.68V470.701H587.209V462.102H585.705V472Z" fill="#2D2926"/>
<path d="M614 480.459V476.672C614 474.361 612.852 473.322 611.334 473.322C609.803 473.322 608.941 474.389 608.887 475.373H608.791C608.559 474.464 607.937 473.705 606.699 473.705C605.229 473.705 604.102 474.724 604.102 476.836V480.459H614ZM612.715 478.955H609.557V476.754C609.557 475.564 610.315 474.812 611.266 474.812C612.086 474.812 612.708 475.387 612.715 476.809V478.955ZM608.381 478.955H605.387V476.932C605.387 475.749 606.002 475.182 606.822 475.182C607.772 475.182 608.374 475.961 608.381 476.959V478.955ZM604.102 468.086V469.562L605.715 472.023H607.15L605.605 469.658V469.604H614V468.086H604.102ZM604.102 461.811V463.287L605.715 465.748H607.15L605.605 463.383V463.328H614V461.811H604.102ZM614.137 455.85C614.137 453.56 612.291 452.22 609.051 452.213C605.831 452.22 603.965 453.58 603.965 455.85C603.965 458.126 605.831 459.486 609.051 459.486C612.291 459.486 614.137 458.14 614.137 455.85ZM609.051 457.982C606.59 457.982 605.243 457.183 605.236 455.85C605.243 454.523 606.59 453.717 609.051 453.717C611.519 453.717 612.838 454.517 612.838 455.85C612.838 457.189 611.519 457.989 609.051 457.982Z" fill="#2D2926"/>
<path d="M639 479.276V475.489C639 473.179 637.852 472.14 636.334 472.14C634.803 472.14 633.941 473.206 633.887 474.19H633.791C633.559 473.281 632.937 472.522 631.699 472.522C630.229 472.522 629.102 473.541 629.102 475.653V479.276H639ZM637.715 477.772H634.557V475.571C634.557 474.382 635.315 473.63 636.266 473.63C637.086 473.63 637.708 474.204 637.715 475.626V477.772ZM633.381 477.772H630.387V475.749C630.387 474.566 631.002 473.999 631.822 473.999C632.772 473.999 633.374 474.778 633.381 475.776V477.772ZM629.102 466.903V468.38L630.715 470.841H632.15L630.605 468.476V468.421H639V466.903H629.102ZM629.102 460.628V462.104L630.715 464.565H632.15L630.605 462.2V462.146H639V460.628H629.102ZM629.102 454.353V455.829L630.715 458.29H632.15L630.605 455.925V455.87H639V454.353H629.102Z" fill="#2D2926"/>
<path d="M680 480.302V476.515C680 474.204 678.852 473.165 677.334 473.165C675.803 473.165 674.941 474.231 674.887 475.216H674.791C674.559 474.307 673.937 473.548 672.699 473.548C671.229 473.548 670.102 474.566 670.102 476.679V480.302H680ZM678.715 478.798H675.557V476.597C675.557 475.407 676.315 474.655 677.266 474.655C678.086 474.655 678.708 475.229 678.715 476.651V478.798ZM674.381 478.798H671.387V476.774C671.387 475.592 672.002 475.024 672.822 475.024C673.772 475.024 674.374 475.804 674.381 476.802V478.798ZM670.102 467.929V469.405L671.715 471.866H673.15L671.605 469.501V469.446H680V467.929H670.102ZM670.102 461.653V463.13L671.715 465.591H673.15L671.605 463.226V463.171H680V461.653H670.102ZM680 459.138V452.479H678.715V457.046H678.633L676.596 455.036C674.771 453.177 673.889 452.657 672.781 452.644C671.175 452.657 669.965 453.977 669.965 455.884C669.965 457.771 671.161 459.151 672.973 459.138V457.716C671.92 457.709 671.223 457.012 671.223 455.911C671.223 454.872 671.845 454.079 672.822 454.079C673.69 454.079 674.319 454.619 675.447 455.706L678.906 459.138H680Z" fill="#2D2926"/>
<path d="M363.016 483H366.803C369.113 483 370.152 481.852 370.152 480.334C370.152 478.803 369.086 477.941 368.102 477.887V477.791C369.011 477.559 369.77 476.937 369.77 475.699C369.77 474.229 368.751 473.102 366.639 473.102H363.016V483ZM364.52 481.715V478.557H366.721C367.91 478.557 368.662 479.315 368.662 480.266C368.662 481.086 368.088 481.708 366.666 481.715H364.52ZM364.52 477.381V474.387H366.543C367.726 474.387 368.293 475.002 368.293 475.822C368.293 476.772 367.514 477.374 366.516 477.381H364.52ZM375.389 473.102H373.912L371.451 474.715V476.15L373.816 474.605H373.871V483H375.389V473.102ZM381.35 483.137C383.64 483.137 384.979 481.291 384.986 478.051C384.979 474.831 383.619 472.965 381.35 472.965C379.073 472.965 377.713 474.831 377.713 478.051C377.713 481.291 379.06 483.137 381.35 483.137ZM379.217 478.051C379.217 475.59 380.017 474.243 381.35 474.236C382.676 474.243 383.482 475.59 383.482 478.051C383.482 480.519 382.683 481.838 381.35 481.838C380.01 481.838 379.21 480.519 379.217 478.051ZM386.545 483H393.203V481.715H388.637V481.633L390.646 479.596C392.506 477.771 393.025 476.889 393.039 475.781C393.025 474.175 391.706 472.965 389.799 472.965C387.912 472.965 386.531 474.161 386.545 475.973H387.967C387.974 474.92 388.671 474.223 389.771 474.223C390.811 474.223 391.604 474.845 391.604 475.822C391.604 476.69 391.063 477.319 389.977 478.447L386.545 481.906V483Z" fill="#2D2926"/>
<path d="M470.311 483H474.098C476.408 483 477.447 481.852 477.447 480.334C477.447 478.803 476.381 477.941 475.396 477.887V477.791C476.306 477.559 477.064 476.937 477.064 475.699C477.064 474.229 476.046 473.102 473.934 473.102H470.311V483ZM471.814 481.715V478.557H474.016C475.205 478.557 475.957 479.315 475.957 480.266C475.957 481.086 475.383 481.708 473.961 481.715H471.814ZM471.814 477.381V474.387H473.838C475.021 474.387 475.588 475.002 475.588 475.822C475.588 476.772 474.809 477.374 473.811 477.381H471.814ZM482.684 473.102H481.207L478.746 474.715V476.15L481.111 474.605H481.166V483H482.684V473.102ZM488.645 483.137C490.935 483.137 492.274 481.291 492.281 478.051C492.274 474.831 490.914 472.965 488.645 472.965C486.368 472.965 485.008 474.831 485.008 478.051C485.008 481.291 486.354 483.137 488.645 483.137ZM486.512 478.051C486.512 475.59 487.312 474.243 488.645 474.236C489.971 474.243 490.777 475.59 490.777 478.051C490.777 480.519 489.978 481.838 488.645 481.838C487.305 481.838 486.505 480.519 486.512 478.051ZM497.354 483.137C499.404 483.137 500.929 481.927 500.922 480.279C500.929 479.028 500.143 478.119 498.789 477.928V477.859C499.855 477.593 500.553 476.786 500.539 475.658C500.553 474.195 499.329 472.965 497.381 472.965C495.535 472.965 494.045 474.059 494.004 475.672H495.453C495.487 474.776 496.376 474.223 497.367 474.223C498.413 474.223 499.09 474.838 499.09 475.74C499.09 476.69 498.304 477.319 497.176 477.312H496.328V478.543H497.176C498.591 478.55 499.404 479.247 499.404 480.225C499.404 481.188 498.536 481.838 497.34 481.838C496.232 481.838 495.371 481.284 495.316 480.416H493.785C493.847 482.036 495.303 483.137 497.354 483.137Z" fill="#2D2926"/>
<g clip-path="url(#clip0_12_2)">
<path d="M119.14 44.55H128.74V46.55C125.39 46.99 122.51 49.09 122.51 51.63C122.51 54.47 126.13 56.77 129.98 56.77H130.89C134.74 56.77 138.36 54.47 138.36 51.63C138.36 49.14 135.6 47.06 132.36 46.58V44.55H142V42.1H119.14V44.55ZM134.87 51.67C134.87 53.24 132.56 54.32 130.44 54.32C128.32 54.32 126 53.24 126 51.67C126 50.1 128.31 49 130.44 49C132.57 49 134.87 50.08 134.87 51.67Z" fill="#5A5B5D"/>
<path d="M162.06 43.59L165.23 43.55V34.59H162.06V43.59Z" fill="#5A5B5D"/>
<path d="M147.24 47H162.06V48.45H147.24V53C147.218 53.2532 147.248 53.5081 147.329 53.749C147.41 53.9898 147.54 54.2115 147.71 54.4C148.122 54.6951 148.624 54.8366 149.13 54.8H165.23V52.33H150.55V50.82H165.23V44.59H147.23L147.24 47Z" fill="#5A5B5D"/>
<path d="M213.62 34.59H210.44V45.53H213.6L213.62 40.37H216.81V37.87H213.62V34.59Z" fill="#5A5B5D"/>
<path d="M194.99 49H210.44V54.86L213.62 54.87V46.51H194.99V49Z" fill="#5A5B5D"/>
<path d="M194.09 40.19C194.087 40.9038 194.26 41.6074 194.593 42.2387C194.926 42.87 195.409 43.4096 196 43.81C197.254 44.7281 198.777 45.203 200.33 45.16C201.857 45.2111 203.354 44.7343 204.57 43.81C205.154 43.4051 205.629 42.8635 205.955 42.2325C206.281 41.6015 206.448 40.9002 206.44 40.19C206.432 39.7426 206.337 39.3011 206.16 38.89C205.962 38.4803 205.698 38.1054 205.38 37.78H207.89V35.38H201.89V33.44H198.47V35.38H192.4V37.78H195.13C194.79 38.0939 194.515 38.4709 194.32 38.89C194.155 39.3031 194.077 39.7455 194.09 40.19V40.19ZM198.09 38.49C198.703 38.0196 199.457 37.7695 200.23 37.78C200.99 37.7715 201.731 38.0219 202.33 38.49C202.618 38.6954 202.853 38.9651 203.018 39.2776C203.183 39.5901 203.273 39.9367 203.28 40.29C203.269 40.6314 203.177 40.9653 203.012 41.2643C202.847 41.5633 202.613 41.8188 202.33 42.01C201.744 42.5061 200.998 42.7726 200.23 42.76C199.45 42.775 198.69 42.5088 198.09 42.01C197.816 41.8128 197.591 41.555 197.433 41.2566C197.276 40.9583 197.189 40.6274 197.18 40.29C197.19 39.9373 197.281 39.5918 197.446 39.2797C197.611 38.9677 197.845 38.6976 198.13 38.49H198.09Z" fill="#5A5B5D"/>
<path d="M187.07 41.06H184.38V34.59H181.45V54.91L184.38 54.88V43.56H187.07V54.91L190.09 54.88V34.59H187.07V41.06Z" fill="#5A5B5D"/>
<path d="M172.49 37.08H179V34.59H169.3V48C169.279 48.243 169.323 48.4873 169.429 48.7072C169.534 48.9272 169.697 49.1146 169.9 49.25C170.336 49.4793 170.829 49.5799 171.32 49.54H179.45V47.04H172.45L172.49 37.08Z" fill="#5A5B5D"/>
<path d="M233.28 49.18L236.46 49.16L236.47 34.59H218.8V37.08H233.28V49.18Z" fill="#5A5B5D"/>
<path d="M230.16 51.29V42.94H227.02V51.29H224.3V42.94H221.18V51.29H217.34V53.78H238.29V51.29H230.16Z" fill="#5A5B5D"/>
<path d="M125.79 39.93C127.576 39.5946 129.227 38.7468 130.54 37.49C131.832 38.7507 133.473 39.5939 135.25 39.91C137.001 40.3624 138.794 40.6306 140.6 40.71L141.16 38.17C139.112 38.1222 137.085 37.7405 135.16 37.04C133.4 36.39 132.16 35.3 132.16 34.35H128.86C128.86 35.2 127.63 36.35 125.86 37.04C123.941 37.7654 121.911 38.1545 119.86 38.19V38.19L120.42 40.68C122.232 40.628 124.033 40.3765 125.79 39.93V39.93Z" fill="#5A5B5D"/>
<path d="M152.15 39.43C152.975 40.5424 154.047 41.4493 155.28 42.08C156.64 42.6789 158.077 43.0829 159.55 43.28L160.17 40.75C158.145 40.5338 156.258 39.622 154.83 38.17C154.105 37.1339 153.752 35.8824 153.83 34.62H150.42C150.488 35.8981 150.11 37.16 149.35 38.19C147.92 39.6457 146.029 40.5609 144 40.78V40.78L144.6 43.25C146.025 43.0374 147.417 42.6407 148.74 42.07C150.077 41.485 151.249 40.578 152.15 39.43V39.43Z" fill="#5A5B5D"/>
<path d="M58.9 63.55H49.78C49.88 63.55 50.22 63.11 50.3 63.02C50.4799 62.8243 50.6469 62.6172 50.8 62.4C51.1933 61.8649 51.5066 61.2754 51.73 60.65C52.5191 58.5312 52.4655 56.1904 51.58 54.11C50.5596 52.2488 49.431 50.4491 48.2 48.72C46.4349 46.0992 45.5424 42.9879 45.65 39.83C45.8475 37.694 46.7076 35.6731 48.11 34.05H56.89C55.7014 35.2032 54.854 36.662 54.4411 38.2658C54.0283 39.8696 54.0659 41.5562 54.55 43.14C55.1591 44.964 56.0498 46.6814 57.19 48.23C58.2472 49.7248 59.1867 51.2996 60 52.94C60.9001 54.9815 61.1582 57.2484 60.74 59.44C60.5386 60.4887 60.1777 61.5005 59.67 62.44C59.54 62.61 59.1 63.55 58.9 63.55Z" fill="#00A3C9"/>
<path d="M64 54.94H79.09V30H59.18C58.3237 30.8616 57.7094 31.9335 57.3987 33.1079C57.088 34.2822 57.0919 35.5176 57.41 36.69C57.93 38.82 59.47 40.69 60.84 42.55C63.02 45.44 65.4 48.7 64.73 52.55C64.617 53.3808 64.3705 54.1879 64 54.94V54.94Z" fill="#5AC5C4"/>
<path d="M30 30V54.94H44.89C45.4936 53.4591 45.4936 51.8009 44.89 50.32C43.45 46.8 41.11 44.9 39.81 41.84C38.56 38.93 38.42 36.28 39.48 32.46C39.7619 31.62 40.0959 30.7984 40.48 30L30 30Z" fill="#00678F"/>
<path d="M109.66 30H97.3V49.78C97.3 49.88 97.3 50.36 97.3 50.85C97.17 53.95 96.44 54.57 95.67 54.94H109.67L109.66 30Z" fill="#00A3C9"/>
<path d="M82.46 34.08V59.2C82.5006 60.2497 82.9435 61.2434 83.6969 61.9754C84.4504 62.7073 85.4565 63.1214 86.5069 63.1317C87.5573 63.1419 88.5713 62.7477 89.3389 62.0306C90.1065 61.3136 90.5688 60.3287 90.63 59.28V34.08H82.46Z" fill="#00678F"/>
</g>
<path d="M36.125 188.55H78.125C97.875 188.55 109.875 177.8 109.875 163.05C109.875 150.112 100.438 141.8 89 141.425V140.55C99.3125 138.425 106.312 130.8 106.375 120.8C106.312 106.987 95.5 98.05 74.875 98.05H36.125V188.55ZM59.875 169.425V149.675H72.375C80 149.675 84.75 153.487 84.75 160.05C84.75 166.175 80.5625 169.487 72 169.425H59.875ZM59.875 134.8V116.8H70.875C77.3125 116.8 81.875 120.05 81.875 125.8C81.875 131.55 77.1875 134.8 70.5 134.8H59.875ZM162.75 98.05H140.75L118.375 111.675V132.05L138.375 120.05H138.875V188.55H162.75V98.05Z" fill="#2D2926"/>
<path d="M57.9141 202.792H53.4492V210.597H48.457V214.218H53.4492V221.777H57.9141V202.792ZM30.7383 218.261L33.0586 221.812C36.8555 220.511 39.4219 217.892 40.8281 214.64C42.2168 217.505 44.6602 219.825 48.1758 220.968L50.3906 217.452C45.416 215.8 43.1309 212.038 43.043 208.312H49.4062V204.726H32.0391V208.312H38.4727C38.3672 212.32 35.9766 216.503 30.7383 218.261ZM35.9766 228.667C35.9766 232.552 40.1602 234.82 46.9805 234.82C53.8184 234.82 58.002 232.552 58.0195 228.667C58.002 224.782 53.8184 222.497 46.9805 222.48C40.1602 222.497 35.9766 224.782 35.9766 228.667ZM40.4414 228.667C40.4414 226.821 42.7441 225.907 46.9805 225.925C51.2344 225.907 53.5371 226.821 53.5547 228.667C53.5371 230.495 51.2344 231.409 46.9805 231.409C42.7441 231.409 40.4414 230.495 40.4414 228.667ZM91.3477 227.402H78.8672V221.495H88.0781V204.831H83.6133V209.788H69.6562V204.831H65.1562V221.495H74.4023V227.402H62.0625V231.058H91.3477V227.402ZM69.6562 217.909V213.374H83.6133V217.909H69.6562ZM111.176 205.991H94.582V209.577H106.711C106.676 212.407 106.605 215.835 105.867 220.476L110.297 220.827C111.141 215.501 111.141 211.564 111.176 208.558V205.991ZM92.8945 224.659L93.3164 228.245C98.9238 228.28 106.166 228.157 112.758 227.05L112.477 223.71C109.523 224.097 106.342 224.325 103.195 224.448V215.167H98.7656V224.589C96.6914 224.642 94.6875 224.659 92.8945 224.659ZM113.988 234.784H118.523V219.386H122.883V215.659H118.523V202.792H113.988V234.784ZM143.273 205.64H136.031V202.616H131.566V205.64H124.289V209.191H143.273V205.64ZM125.836 216.116C125.836 219.632 129.141 222.005 133.781 222.023C138.439 222.005 141.656 219.632 141.656 216.116C141.656 212.601 138.439 210.228 133.781 210.21C129.141 210.228 125.836 212.601 125.836 216.116ZM128.121 227.788H145.172V234.784H149.672V224.202H128.121V227.788ZM130.23 216.116C130.213 214.464 131.637 213.585 133.781 213.585C135.943 213.585 137.402 214.464 137.402 216.116C137.402 217.751 135.943 218.595 133.781 218.577C131.637 218.595 130.213 217.751 130.23 216.116ZM145.172 222.866H149.672V214.745H153.996V211.089H149.672V202.792H145.172V222.866ZM173.332 205.112H156.879V208.769H168.955C168.92 210.685 168.779 213.023 168.199 216.081L172.594 216.503C173.332 212.53 173.332 209.331 173.332 207.116V205.112ZM154.98 218.823L155.367 222.409C160.939 222.392 168.428 222.269 175.09 221.038L174.844 217.804C171.838 218.243 168.586 218.489 165.387 218.63V212.495H160.922V218.771C158.795 218.823 156.773 218.823 154.98 218.823ZM159.691 234.222H182.156V230.636H164.191V224.589H159.691V234.222ZM176.566 226.734H181.172V216.292H185.039V212.53H181.172V202.792H176.566V226.734Z" fill="#2D2926"/>
<path d="M32.5156 244.652H31.0117V254.55H32.5156V244.652ZM35.8652 250.148C35.8652 248.965 36.583 248.288 37.5879 248.288C38.5723 248.288 39.1533 248.931 39.1602 250.011V254.55H40.6094V249.833C40.6162 247.994 39.6045 247.03 38.0801 247.03C36.9727 247.03 36.2412 247.543 35.8926 248.343H35.8105V247.126H34.4023V254.55H35.8652V250.148ZM45.9277 247.126H44.3281V246.484C44.3281 245.759 44.6904 245.445 45.4629 245.445C45.5928 245.445 45.8047 245.458 46.0781 245.499V244.282C45.791 244.228 45.4287 244.187 45.0801 244.187C43.7197 244.187 42.8721 244.939 42.8652 246.265V247.126H41.7168V248.288H42.8652V254.55H44.3281V248.288H45.9277V247.126ZM50.0977 254.7C52.1895 254.7 53.5566 253.169 53.5566 250.872C53.5566 248.562 52.1895 247.03 50.0977 247.03C47.9922 247.03 46.6182 248.562 46.625 250.872C46.6182 253.169 47.9922 254.7 50.0977 254.7ZM48.0879 250.872C48.0879 249.45 48.7373 248.24 50.0977 248.234C51.4375 248.24 52.0801 249.45 52.0801 250.872C52.0801 252.287 51.4375 253.484 50.0977 253.484C48.7373 253.484 48.0879 252.287 48.0879 250.872ZM54.9922 254.55H56.4551V250.025C56.4551 249.054 57.207 248.35 58.2188 248.357C58.5195 248.35 58.8613 248.411 58.9844 248.439V247.044C58.834 247.03 58.5469 247.01 58.3691 247.017C57.501 247.01 56.7559 247.509 56.4824 248.302H56.4004V247.126H54.9922V254.55ZM60.0781 254.55H61.541V249.97C61.541 248.972 62.2383 248.288 63.0586 248.288C63.8584 248.288 64.4121 248.815 64.4121 249.628V254.55H65.8613V249.82C65.8613 248.931 66.4014 248.288 67.3379 248.288C68.1035 248.288 68.7324 248.705 68.7324 249.71V254.55H70.1953V249.573C70.1885 247.871 69.2383 247.03 67.8984 247.03C66.8252 247.03 66.0186 247.543 65.6699 248.343H65.5879C65.2734 247.516 64.583 247.03 63.5918 247.03C62.6143 247.03 61.8828 247.516 61.5684 248.343H61.4863V247.126H60.0781V254.55ZM71.6172 252.458C71.6104 253.907 72.7109 254.714 74.1191 254.714C75.3496 254.714 76.0332 254.092 76.3203 253.538H76.375V254.55H77.7969V249.614C77.79 247.461 76.0674 247.03 74.8848 247.03C73.1279 247.03 71.9795 247.919 71.8496 249.15H73.2988C73.4492 248.603 73.9688 248.206 74.8301 248.206C75.8213 248.206 76.3408 248.692 76.334 249.532L76.3408 250.127C75.999 250.141 74.8848 250.202 74.3926 250.23C73.0527 250.325 71.6104 250.763 71.6172 252.458ZM73.0391 252.472C73.0391 251.74 73.6406 251.378 74.5977 251.31C74.9463 251.289 76.0059 251.214 76.3408 251.194L76.3477 251.87C76.3477 252.752 75.6367 253.545 74.4473 253.552C73.627 253.545 73.0391 253.183 73.0391 252.472ZM83.0332 247.126H81.5156V245.349H80.0664V247.126H78.9727V248.288H80.0664V252.663C80.0527 254.017 81.085 254.646 82.2266 254.646C82.6299 254.646 82.9443 254.618 83.1426 254.591V253.32C82.9375 253.34 82.6162 253.361 82.4043 253.361C81.9326 253.354 81.5225 253.203 81.5156 252.362V248.288H83.0332V247.126ZM84.4551 254.55H85.918V247.126H84.4551V254.55ZM84.2637 245.116C84.2705 245.595 84.6875 245.985 85.1934 245.978C85.6924 245.985 86.1094 245.595 86.1094 245.116C86.1094 244.638 85.6924 244.255 85.1934 244.255C84.6875 244.255 84.2705 244.638 84.2637 245.116ZM90.8398 254.7C92.9316 254.7 94.2988 253.169 94.2988 250.872C94.2988 248.562 92.9316 247.03 90.8398 247.03C88.7344 247.03 87.3604 248.562 87.3672 250.872C87.3604 253.169 88.7344 254.7 90.8398 254.7ZM88.8301 250.872C88.8301 249.45 89.4795 248.24 90.8398 248.234C92.1797 248.24 92.8223 249.45 92.8223 250.872C92.8223 252.287 92.1797 253.484 90.8398 253.484C89.4795 253.484 88.8301 252.287 88.8301 250.872ZM97.1973 250.148C97.1973 248.965 97.915 248.288 98.9199 248.288C99.9043 248.288 100.485 248.931 100.492 250.011V254.55H101.941V249.833C101.948 247.994 100.937 247.03 99.4121 247.03C98.3047 247.03 97.5732 247.543 97.2246 248.343H97.1426V247.126H95.7344V254.55H97.1973V250.148ZM112.646 247.263H114.109C114.062 245.663 112.66 244.515 110.65 244.515C108.647 244.515 107.13 245.65 107.123 247.359C107.13 248.739 108.114 249.546 109.707 249.984L110.883 250.298C111.929 250.578 112.749 250.927 112.756 251.788C112.749 252.759 111.833 253.395 110.568 253.402C109.413 253.395 108.456 252.882 108.367 251.802H106.863C106.959 253.607 108.354 254.714 110.568 254.714C112.906 254.714 114.239 253.49 114.246 251.816C114.239 250.025 112.653 249.334 111.389 249.027L110.432 248.767C109.646 248.582 108.627 248.213 108.627 247.277C108.634 246.436 109.399 245.814 110.609 245.814C111.744 245.814 112.551 246.34 112.646 247.263ZM118.881 254.7C120.631 254.7 121.772 253.641 121.93 252.198H120.508C120.323 252.998 119.708 253.463 118.881 253.456C117.657 253.463 116.871 252.458 116.871 250.831C116.871 249.252 117.678 248.254 118.881 248.247C119.804 248.254 120.357 248.835 120.508 249.532H121.93C121.772 248.029 120.549 247.03 118.854 247.03C116.762 247.03 115.401 248.61 115.408 250.872C115.401 253.108 116.714 254.7 118.881 254.7ZM123.311 254.55H124.773V247.126H123.311V254.55ZM123.119 245.116C123.126 245.595 123.543 245.985 124.049 245.978C124.548 245.985 124.965 245.595 124.965 245.116C124.965 244.638 124.548 244.255 124.049 244.255C123.543 244.255 123.126 244.638 123.119 245.116ZM129.75 254.7C131.384 254.7 132.525 253.894 132.854 252.691H131.377C131.131 253.142 130.591 253.497 129.764 253.497C128.547 253.497 127.713 252.697 127.672 251.282H132.949V250.763C132.949 248.076 131.343 247.03 129.654 247.03C127.583 247.03 126.216 248.603 126.223 250.886C126.216 253.19 127.562 254.7 129.75 254.7ZM127.679 250.189C127.74 249.143 128.499 248.227 129.668 248.234C130.782 248.227 131.514 249.061 131.514 250.189H127.679ZM135.861 250.148C135.861 248.965 136.579 248.288 137.584 248.288C138.568 248.288 139.149 248.931 139.156 250.011V254.55H140.605V249.833C140.612 247.994 139.601 247.03 138.076 247.03C136.969 247.03 136.237 247.543 135.889 248.343H135.807V247.126H134.398V254.55H135.861V250.148ZM145.527 254.7C147.277 254.7 148.419 253.641 148.576 252.198H147.154C146.97 252.998 146.354 253.463 145.527 253.456C144.304 253.463 143.518 252.458 143.518 250.831C143.518 249.252 144.324 248.254 145.527 248.247C146.45 248.254 147.004 248.835 147.154 249.532H148.576C148.419 248.029 147.195 247.03 145.5 247.03C143.408 247.03 142.048 248.61 142.055 250.872C142.048 253.108 143.36 254.7 145.527 254.7ZM153.156 254.7C154.79 254.7 155.932 253.894 156.26 252.691H154.783C154.537 253.142 153.997 253.497 153.17 253.497C151.953 253.497 151.119 252.697 151.078 251.282H156.355V250.763C156.355 248.076 154.749 247.03 153.061 247.03C150.989 247.03 149.622 248.603 149.629 250.886C149.622 253.19 150.969 254.7 153.156 254.7ZM151.085 250.189C151.146 249.143 151.905 248.227 153.074 248.234C154.188 248.227 154.92 249.061 154.92 250.189H151.085ZM161.346 254.55H165.133C167.443 254.55 168.482 253.402 168.482 251.884C168.482 250.353 167.416 249.491 166.432 249.437V249.341C167.341 249.109 168.1 248.487 168.1 247.249C168.1 245.779 167.081 244.652 164.969 244.652H161.346V254.55ZM162.85 253.265V250.107H165.051C166.24 250.107 166.992 250.865 166.992 251.816C166.992 252.636 166.418 253.258 164.996 253.265H162.85ZM162.85 248.931V245.937H164.873C166.056 245.937 166.623 246.552 166.623 247.372C166.623 248.322 165.844 248.924 164.846 248.931H162.85ZM174.689 251.46C174.689 252.725 173.753 253.32 172.939 253.32C172.051 253.32 171.436 252.677 171.436 251.665V247.126H169.973V251.843C169.973 253.682 170.984 254.646 172.42 254.646C173.534 254.646 174.293 254.058 174.635 253.265H174.717V254.55H176.139V247.126H174.689V251.46ZM177.916 254.55H179.379V247.126H177.916V254.55ZM177.725 245.116C177.731 245.595 178.148 245.985 178.654 245.978C179.153 245.985 179.57 245.595 179.57 245.116C179.57 244.638 179.153 244.255 178.654 244.255C178.148 244.255 177.731 244.638 177.725 245.116ZM182.619 244.652H181.156V254.55H182.619V244.652ZM187.172 254.7C188.525 254.694 189.059 253.873 189.332 253.388H189.441V254.55H190.863V244.652H189.4V248.329H189.332C189.065 247.864 188.566 247.03 187.186 247.03C185.401 247.03 184.068 248.439 184.068 250.859C184.068 253.251 185.381 254.694 187.172 254.7ZM185.559 250.831C185.552 249.368 186.208 248.268 187.5 248.275C188.758 248.268 189.441 249.286 189.441 250.831C189.441 252.39 188.744 253.449 187.5 253.456C186.222 253.449 185.552 252.321 185.559 250.831ZM192.764 254.55H194.227V247.126H192.764V254.55ZM192.572 245.116C192.579 245.595 192.996 245.985 193.502 245.978C194.001 245.985 194.418 245.595 194.418 245.116C194.418 244.638 194.001 244.255 193.502 244.255C192.996 244.255 192.579 244.638 192.572 245.116ZM197.467 250.148C197.467 248.965 198.185 248.288 199.189 248.288C200.174 248.288 200.755 248.931 200.762 250.011V254.55H202.211V249.833C202.218 247.994 201.206 247.03 199.682 247.03C198.574 247.03 197.843 247.543 197.494 248.343H197.412V247.126H196.004V254.55H197.467V250.148ZM207.105 257.489C209.02 257.489 210.462 256.621 210.455 254.714V247.126H209.033V248.329H208.938C208.664 247.864 208.158 247.03 206.777 247.03C204.993 247.03 203.66 248.391 203.66 250.763C203.66 253.135 205.014 254.441 206.764 254.441C208.131 254.441 208.664 253.675 208.924 253.196H209.02V254.659C209.013 255.815 208.281 256.32 207.119 256.314C206.155 256.32 205.499 255.979 205.355 255.275H203.865C203.995 256.662 205.232 257.489 207.105 257.489ZM205.15 250.79C205.144 249.368 205.8 248.268 207.092 248.275C208.35 248.268 209.033 249.286 209.033 250.79C209.033 252.321 208.336 253.231 207.092 253.237C205.813 253.231 205.144 252.246 205.15 250.79Z" fill="#2D2926"/>
<defs>
<clipPath id="clip0_12_2">
<rect width="208.29" height="33.55" fill="white" transform="translate(30 30)"/>
</clipPath>
</defs>
</svg>
