<svg width="800" height="600" viewBox="0 0 800 600" fill="none" xmlns="http://www.w3.org/2000/svg">
<rect x="583" y="168" width="35" height="15" rx="5" fill="#3F6212"/>
<path d="M603.156 173.008H606.926C606.613 170.176 604.055 168.164 600.734 168.164C596.926 168.164 593.869 170.801 593.859 175.449C593.869 179.932 596.652 182.695 600.754 182.695C604.445 182.695 607.082 180.43 607.082 176.582V174.648H600.871V177.305H603.488C603.469 178.613 602.551 179.443 600.793 179.453C598.762 179.443 597.688 177.949 597.688 175.41C597.688 172.881 598.84 171.406 600.812 171.406C602.053 171.406 602.902 171.992 603.156 173.008Z" fill="white"/>
</svg>
