<svg width="800" height="600" viewBox="0 0 800 600" fill="none" xmlns="http://www.w3.org/2000/svg">
<rect x="612" y="168" width="50" height="15" rx="5" fill="#854D0E"/>
<path d="M631.457 182.5H638.02C641.105 182.5 642.98 180.82 642.98 178.516C642.98 176.494 641.506 175.195 639.719 175.137V175C641.33 174.668 642.424 173.477 642.434 171.914C642.424 169.756 640.734 168.359 637.512 168.359H631.457V182.5ZM635.168 179.512V176.426H637.121C638.312 176.426 639.055 177.021 639.055 178.047C639.055 179.004 638.4 179.521 637.062 179.512H635.168ZM635.168 174.102V171.289H636.887C637.893 171.289 638.605 171.797 638.605 172.695C638.605 173.594 637.873 174.102 636.828 174.102H635.168Z" fill="white"/>
</svg>
